<svg xmlns="http://www.w3.org/2000/svg" xmlns:xlink="http://www.w3.org/1999/xlink" width="500" zoomAndPan="magnify" viewBox="0 0 375 374.999991" height="500" preserveAspectRatio="xMidYMid meet" version="1.0"><defs><clipPath id="id1"><path d="M 27.878906 84.359375 L 347.378906 84.359375 L 347.378906 290.570312 L 27.878906 290.570312 Z M 27.878906 84.359375 " clip-rule="nonzero"/></clipPath></defs><path fill="#32a7ca" d="M 263.652344 204.734375 C 266.722656 202.882812 273.53125 199.988281 277.484375 196.472656 C 276.171875 197.128906 263.839844 203.070312 249.070312 211.636719 C 241.890625 215.886719 230.851562 220.757812 221.097656 227.601562 C 227.886719 224.773438 236.164062 220.019531 242.460938 216.324219 C 246.417969 214.039062 247.472656 213.929688 249.597656 212.59375 C 250.75 211.90625 251.824219 211.074219 253 210.425781 C 254.15625 209.746094 255.453125 209.3125 256.648438 208.703125 C 259.023438 207.460938 261.316406 206.058594 263.652344 204.734375 " fill-opacity="1" fill-rule="nonzero"/><path fill="#32a7ca" d="M 286.527344 204.023438 C 283.683594 205.046875 280.789062 205.980469 278.082031 207.324219 C 261.855469 215.40625 258.773438 216.5 254.234375 220.308594 C 257.710938 219.136719 257.960938 218.742188 260.421875 217.480469 C 265.207031 215.097656 262.875 216.25 266.351562 214.210938 C 268.648438 212.921875 269.203125 213.101562 270.460938 212.324219 C 271.105469 211.929688 271.691406 211.417969 272.359375 211.074219 C 273.019531 210.703125 273.808594 210.601562 274.503906 210.316406 C 276.582031 209.394531 278.480469 208.128906 280.589844 207.34375 C 282.550781 206.617188 285.066406 205.53125 286.527344 204.023438 " fill-opacity="1" fill-rule="nonzero"/><path fill="#32a7ca" d="M 281.460938 215.351562 C 279.605469 216.832031 279.140625 216.683594 277.945312 217.554688 C 277.371094 217.945312 276.886719 218.453125 276.289062 218.804688 C 275.773438 219.273438 275.328125 219.839844 274.917969 220.460938 C 275.65625 220.308594 276.34375 220.09375 276.9375 219.726562 C 277.410156 219.199219 278.117188 219.011719 278.6875 218.621094 C 279.636719 218.066406 280.28125 217.007812 281.164062 216.738281 C 282.546875 216.246094 282.117188 215.925781 282.785156 215.441406 C 283.046875 215.210938 283.476562 215.222656 283.789062 215.070312 C 284.636719 214.589844 285.355469 213.675781 286.300781 213.234375 C 287.285156 212.773438 288.273438 212.085938 288.519531 210.984375 C 283.257812 213.574219 285.359375 212.757812 283.167969 214.179688 C 282.316406 214.714844 283.125 214.003906 281.460938 215.351562 " fill-opacity="1" fill-rule="nonzero"/><path fill="#32a7ca" d="M 308.242188 155.035156 C 309.386719 156.402344 311.242188 158.417969 312.886719 159.230469 C 309.628906 154.566406 308.183594 153.300781 304.230469 150.128906 C 303.113281 149.203125 303.59375 149.335938 300.921875 147.546875 C 297.207031 145.128906 293.160156 141.164062 286.691406 138.734375 C 289.121094 141.054688 289.609375 141.097656 291.714844 142.515625 C 296.019531 145.507812 294.003906 144.0625 296.988281 145.867188 C 299.0625 147.195312 299.078125 147.730469 300.265625 148.433594 C 300.855469 148.800781 301.527344 149.058594 302.085938 149.472656 C 302.65625 149.867188 303.039062 150.503906 303.546875 150.96875 C 305.167969 152.398438 306.746094 153.359375 308.242188 155.035156 " fill-opacity="1" fill-rule="nonzero"/><path fill="#32a7ca" d="M 279.875 236.546875 C 281.328125 235.761719 282.464844 234.46875 283.535156 234.085938 C 285.371094 233.285156 285.003906 232.917969 285.863281 232.292969 C 286.226562 231.96875 286.773438 231.882812 287.199219 231.632812 C 288.25 230.875 289.351562 229.804688 289.441406 229.726562 C 290.402344 228.78125 292.9375 227.660156 293.484375 225.460938 C 291.921875 226.644531 290.246094 227.664062 288.78125 228.917969 C 280.332031 235.980469 278.957031 234.652344 274.425781 238.789062 C 275.425781 238.617188 276.394531 238.359375 277.277344 237.925781 C 277.703125 237.535156 279.304688 236.875 279.875 236.546875 " fill-opacity="1" fill-rule="nonzero"/><path fill="#32a7ca" d="M 299.027344 231.984375 C 299.589844 231.359375 300.058594 230.640625 300.648438 230.050781 C 301.203125 229.425781 301.972656 229.011719 302.589844 228.441406 C 304.609375 226.320312 304.617188 226.066406 305.84375 224.621094 C 307.289062 222.683594 310.515625 219.914062 311.511719 216.386719 C 295.503906 236.066406 292.265625 235.78125 281.914062 242.214844 C 284.300781 241.710938 286.1875 241 286.71875 240.679688 C 286.976562 240.488281 290.097656 238.855469 291.125 238.214844 C 292.804688 237.125 293.667969 236.328125 295.089844 235.117188 C 296.285156 233.941406 297.855469 233.195312 299.027344 231.984375 " fill-opacity="1" fill-rule="nonzero"/><path fill="#32a7ca" d="M 294.875 245.070312 C 296.742188 244.515625 298.558594 243.738281 300.207031 242.699219 C 301.59375 241.601562 303.246094 240.671875 304.9375 239.265625 C 307.453125 237.234375 309.320312 234.613281 311.0625 233.035156 C 313.644531 230.585938 313.464844 229.96875 314.617188 228.441406 C 316.113281 226.191406 314.902344 229.199219 319.65625 221.355469 C 321.382812 218.476562 324.28125 214.871094 325.085938 211.140625 C 312.492188 230.644531 310.46875 234.527344 294.875 245.070312 " fill-opacity="1" fill-rule="nonzero"/><path fill="#32a7ca" d="M 314.3125 237.75 C 316.039062 237.0625 317.417969 236.175781 317.65625 235.910156 C 317.960938 235.523438 319.902344 233.96875 320.5 233.386719 C 322.15625 231.742188 323.035156 229.957031 324.121094 229.003906 C 325.972656 227.179688 325.390625 227.101562 326.230469 225.875 C 326.542969 225.332031 327.109375 224.957031 327.5 224.457031 C 328.65625 222.75 328.773438 222.265625 329.40625 221.207031 C 330.171875 219.695312 332.570312 217.132812 332.691406 214.445312 C 329.109375 219.71875 333.511719 212.855469 324.46875 226.925781 C 321.839844 230.832031 317.621094 234.0625 314.3125 237.75 " fill-opacity="1" fill-rule="nonzero"/><path fill="#32a7ca" d="M 69.671875 243.007812 C 70.472656 243.675781 72.277344 244.449219 72.75 245.007812 C 73.953125 246.214844 74.101562 245.699219 74.90625 246.15625 C 75.285156 246.316406 75.511719 246.738281 75.847656 246.980469 C 77.003906 247.640625 77.382812 247.652344 78.085938 247.980469 C 79.136719 248.335938 80.882812 249.949219 82.789062 249.3125 C 81.332031 248.582031 79.988281 247.671875 78.53125 247.035156 C 72.394531 244.257812 72.023438 243.109375 70.460938 241.972656 C 69.835938 241.484375 69.128906 241.09375 68.558594 240.539062 C 68.296875 240.292969 66.738281 239.515625 66.386719 239.363281 C 66.769531 240.128906 67.230469 240.835938 67.824219 241.398438 C 68.265625 241.59375 69.21875 242.640625 69.671875 243.007812 " fill-opacity="1" fill-rule="nonzero"/><path fill="#32a7ca" d="M 79.222656 233.261719 C 79.859375 234.046875 79.773438 233.832031 80.621094 234.234375 C 80.789062 234.324219 80.949219 234.425781 81.039062 234.628906 C 81.132812 234.8125 81.226562 235.007812 81.417969 235.066406 C 81.609375 235.128906 81.878906 235.078125 82.035156 235.179688 C 82.214844 235.253906 82.222656 235.574219 82.347656 235.722656 C 82.625 235.992188 83.015625 236.09375 83.351562 236.265625 C 84.023438 236.515625 83.699219 236.972656 84.773438 237.203125 C 84.949219 237.28125 85.230469 237.191406 85.546875 237.035156 C 85.007812 236.472656 84.582031 235.761719 83.929688 235.398438 C 83.613281 235.207031 83.261719 235.0625 82.964844 234.835938 C 82.820312 234.714844 82.730469 234.519531 82.570312 234.429688 C 82.417969 234.320312 82.230469 234.265625 82.0625 234.179688 C 80.941406 233.558594 81.070312 233.15625 80.402344 232.675781 C 80.113281 232.445312 79.734375 232.324219 79.484375 232.042969 C 79.140625 231.878906 78.71875 231.804688 78.253906 231.773438 C 78.355469 232.234375 78.496094 232.652344 78.769531 232.921875 C 78.992188 232.941406 79.085938 233.128906 79.222656 233.261719 " fill-opacity="1" fill-rule="nonzero"/><path fill="#32a7ca" d="M 74.886719 186.171875 C 75.25 185.226562 75.628906 184.289062 75.96875 183.460938 C 75.699219 184.105469 75.355469 184.945312 74.886719 186.171875 " fill-opacity="1" fill-rule="nonzero"/><path fill="#32a7ca" d="M 298.398438 173.507812 C 298.382812 173.484375 298.371094 173.464844 298.355469 173.441406 C 298.234375 173.253906 298.210938 173.234375 298.398438 173.507812 " fill-opacity="1" fill-rule="nonzero"/><path fill="#32a7ca" d="M 297.367188 172.046875 C 296.710938 171.148438 296.140625 170.457031 295.648438 169.878906 C 296.222656 170.558594 296.8125 171.300781 297.367188 172.046875 " fill-opacity="1" fill-rule="nonzero"/><path fill="#32a7ca" d="M 297.46875 172.1875 C 297.480469 172.203125 297.492188 172.214844 297.5 172.226562 C 297.320312 171.976562 297.339844 172.007812 297.46875 172.1875 " fill-opacity="1" fill-rule="nonzero"/><path fill="#32a7ca" d="M 298.257812 173.304688 C 298.015625 172.9375 297.777344 172.570312 297.5 172.226562 C 297.765625 172.589844 298.019531 172.949219 298.257812 173.304688 " fill-opacity="1" fill-rule="nonzero"/><path fill="#32a7ca" d="M 74.257812 187.859375 C 74.453125 187.3125 74.667969 186.742188 74.886719 186.171875 C 74.699219 186.664062 74.488281 187.226562 74.257812 187.859375 " fill-opacity="1" fill-rule="nonzero"/><path fill="#32a7ca" d="M 295.648438 169.878906 C 295.398438 169.582031 295.195312 169.339844 294.933594 169.046875 C 295.152344 169.304688 295.390625 169.574219 295.648438 169.878906 " fill-opacity="1" fill-rule="nonzero"/><path fill="#32a7ca" d="M 76.480469 182.238281 C 76.460938 182.289062 76.4375 182.332031 76.414062 182.382812 C 75.75 183.996094 75.90625 183.675781 76.480469 182.238281 " fill-opacity="1" fill-rule="nonzero"/><path fill="#32a7ca" d="M 287.988281 260.082031 C 282.882812 261.371094 286.566406 259.726562 267.664062 267.582031 C 265.070312 268.445312 264.21875 268.480469 262.472656 269.117188 C 250.105469 273.511719 261.265625 269.335938 245.246094 274.417969 C 240.585938 275.914062 241.863281 274.921875 234.71875 276.871094 C 225.492188 279.5625 215.941406 281.042969 206.378906 281.773438 C 203.964844 281.707031 201.628906 282.492188 199.226562 282.585938 C 188.359375 283.140625 193.167969 282.9375 188.441406 282.96875 C 151.585938 282.003906 172.957031 281.722656 148.941406 279.753906 C 147.457031 279.613281 136.488281 278.554688 134.636719 278.085938 C 131.449219 277.109375 128.914062 277.09375 120.617188 275.089844 C 118.265625 274.574219 116.109375 273.324219 113.679688 272.9375 C 112.148438 272.710938 111.328125 272.613281 110.0625 272.285156 C 103.832031 270.578125 106.355469 271.472656 103.039062 270.871094 C 96.972656 269.929688 82.503906 262.15625 79.84375 261.183594 C 77.613281 260.238281 75.226562 259.738281 73.042969 258.75 C 72.871094 258.679688 68.242188 256.707031 68.125 256.5625 C 67.886719 256.242188 67.375 256.421875 67 256.304688 C 66.925781 256.28125 66.867188 256.242188 66.757812 256.289062 C 66.542969 256.382812 66.335938 256.46875 66.0625 256.683594 C 66.230469 257.035156 66.347656 257.480469 66.628906 257.59375 C 66.910156 257.707031 67.128906 257.949219 67.445312 257.988281 C 67.757812 258.039062 67.871094 258.503906 68.15625 258.617188 C 69.039062 259.191406 69.902344 259.503906 72.265625 260.5625 C 75.066406 261.691406 77.488281 263.386719 82.171875 264.972656 C 90.246094 267.796875 86.976562 267.914062 99.023438 271.703125 C 103.261719 272.96875 104.300781 273.699219 106.074219 273.976562 C 107.824219 274.289062 109.140625 274.027344 111.378906 274.71875 C 117.246094 276.667969 117.351562 276.085938 120.074219 277.015625 C 124.703125 278.414062 130.632812 279.765625 134.363281 279.832031 C 136.777344 279.996094 139.144531 280.636719 141.554688 280.855469 C 145.246094 281.292969 146.046875 281.308594 152.351562 282.011719 C 154.78125 282.257812 154.328125 282.5625 159.464844 283.027344 C 162.617188 283.195312 163.730469 283.226562 166.722656 283.542969 C 183.8125 285.675781 185.992188 284.675781 192.089844 284.675781 C 196.722656 284.382812 204.871094 284.234375 206.597656 283.882812 C 210.789062 283.320312 236.9375 279.328125 242.234375 277.132812 C 243.683594 276.617188 245.453125 276.148438 249.269531 275.355469 C 252.925781 274.535156 253.75 273.804688 256.136719 273.007812 C 260.363281 271.613281 258.789062 272.113281 263.042969 270.8125 C 265.375 270.144531 267.453125 268.78125 269.84375 268.300781 C 272.226562 267.792969 274.472656 266.894531 276.746094 266.070312 C 284.738281 263 283.324219 263.71875 286.679688 261.652344 C 288.503906 260.429688 288.605469 260.71875 289.238281 260.734375 C 289.875 260.761719 289.898438 260.355469 289.804688 259.738281 C 289.179688 259.246094 288.726562 259.878906 287.988281 260.082031 " fill-opacity="1" fill-rule="nonzero"/><g clip-path="url(#id1)"><path fill="#32a7ca" d="M 338.941406 227.792969 C 336.285156 232.773438 327.28125 242.480469 322.601562 246.242188 C 321.476562 247.140625 309.054688 256.421875 301.996094 259.949219 C 275.074219 273.386719 267.476562 274.988281 261.902344 276.8125 C 224.828125 288.660156 181.726562 289.933594 169.757812 288.578125 C 165.394531 288.105469 160.398438 287.351562 157.394531 287.105469 C 142.460938 285.957031 126.226562 283.640625 120.398438 282.003906 C 115.085938 280.351562 108.414062 279.019531 96.511719 275.109375 C 91.96875 273.734375 91.253906 272.71875 81.953125 269.609375 C 78.089844 268.175781 76.875 266.960938 73.839844 265.265625 C 71.632812 264.015625 69.082031 262.871094 66.96875 261.632812 C 54.855469 254.320312 52.054688 251.402344 46.207031 245.71875 C 42.710938 242.101562 42.117188 240.679688 38.941406 235.859375 C 34.265625 227.792969 32.289062 224.367188 30.78125 215.832031 C 34.863281 227.398438 35.464844 225.742188 40.320312 233.464844 C 42.003906 236.148438 40.777344 233.949219 47.605469 241.910156 C 48.824219 243.324219 50.519531 244.25 51.601562 245.792969 C 53.789062 248.683594 59.15625 252.859375 62.109375 254.929688 C 64.023438 256.285156 64.128906 256.5 64.949219 255.726562 C 65.121094 254.074219 62.9375 253.175781 61.125 251.648438 C 56.632812 248.058594 54.515625 245.941406 52.671875 244.683594 C 51.09375 243.679688 50.226562 241.960938 48.917969 240.691406 C 43.148438 234.84375 45.378906 235.949219 42.050781 232.175781 C 40.753906 230.6875 39.570312 229.285156 38.785156 227.796875 C 36.597656 222.742188 29.742188 215.679688 30.0625 202.574219 C 30.097656 201.90625 30.214844 201.078125 30.082031 199.882812 C 29.800781 197.640625 30.714844 192.792969 31.355469 190.535156 C 32.75 185.996094 34.457031 181.785156 37.21875 176.84375 C 38.070312 175.394531 38.09375 174.492188 40.101562 172.226562 C 40.746094 171.484375 43.160156 169.015625 43.761719 168.183594 C 49.289062 160.613281 56.15625 156.324219 64.363281 150.417969 C 66.171875 149.039062 66.890625 149.441406 70.210938 146.816406 C 71.71875 145.734375 72.75 145.660156 73.914062 144.976562 C 76.109375 143.75 73.851562 144.261719 81.792969 140.191406 C 81.335938 141.503906 80.765625 143.316406 79.988281 146.46875 C 74.871094 150.3125 62.671875 161.015625 57.980469 171.582031 C 58.460938 171.023438 61.351562 167.515625 61.714844 166.882812 C 62.746094 165.175781 64.144531 163.734375 65.386719 162.1875 C 66.488281 160.9375 67.6875 159.296875 69.15625 157.566406 C 71.699219 154.785156 72.148438 154.984375 73.492188 153.472656 C 74.199219 152.773438 74.792969 151.949219 75.53125 151.28125 C 76.257812 150.597656 77.195312 150.160156 77.972656 149.546875 C 78.480469 149.167969 79.011719 148.746094 79.546875 148.3125 C 78.96875 150.78125 78.292969 153.636719 77.886719 157.089844 C 74.988281 159.9375 76.816406 157.828125 73.703125 161.289062 C 70.609375 164.921875 65.292969 169.292969 61.882812 176.273438 C 62.410156 175.785156 64.792969 173.390625 65.164062 172.789062 C 65.558594 172.09375 66.125 171.527344 66.632812 170.921875 C 70.800781 166.121094 68.929688 168.175781 71.148438 165.414062 C 72.972656 163.25 73.460938 163.335938 74.5 162.050781 C 75.007812 161.441406 75.410156 160.730469 75.960938 160.15625 C 76.457031 159.605469 77.136719 159.234375 77.714844 158.757812 C 77.523438 161.097656 77.515625 163.578125 77.738281 166 C 76.433594 167.519531 73.546875 169.324219 72.433594 172.761719 C 72.742188 172.589844 74.136719 171.636719 74.277344 171.339844 C 74.628906 170.65625 75.308594 170.246094 75.804688 169.683594 C 76.59375 168.886719 77.121094 167.695312 77.867188 167.183594 C 78.203125 169.851562 78.746094 172.03125 79.460938 174.070312 C 77.304688 177.398438 77.601562 179.421875 76.480469 182.238281 C 77.195312 180.628906 78.730469 179.984375 79.742188 178.972656 C 80.792969 177.898438 80.402344 177.910156 80.816406 176.9375 C 81.753906 178.222656 82.8125 179.410156 84.09375 180.347656 L 84.191406 180.277344 C 84.160156 180.488281 84.132812 180.691406 84.109375 180.890625 C 83.285156 182.136719 82.902344 182.496094 82.472656 184.300781 C 82.914062 184.011719 83.519531 183.480469 83.886719 183.117188 C 83.863281 183.589844 83.714844 186.296875 83.847656 186.761719 C 84.136719 187.460938 84.433594 188.144531 84.914062 188.796875 C 85.046875 188.722656 85.160156 188.652344 85.269531 188.582031 C 83.585938 193.203125 82.734375 197.074219 82.371094 200.921875 C 81.675781 202.566406 81.109375 204.78125 80.976562 207.894531 C 80.257812 218.789062 82.023438 223.363281 84.03125 227.28125 C 78.84375 222.132812 79.421875 222.15625 75.007812 214.363281 C 69.777344 204.648438 73.023438 199.496094 73.238281 194.1875 C 73.226562 193.558594 73.253906 191.882812 73.351562 191.054688 C 73.425781 190.332031 73.867188 188.972656 74.101562 188.285156 C 69.726562 200.648438 69.023438 203.035156 71.769531 212.382812 C 73.511719 218.246094 75.054688 219.894531 77.765625 223.378906 C 81.140625 227.539062 84.480469 234.363281 102.332031 241.328125 C 104.945312 247.578125 111.019531 255.273438 118.582031 260.230469 C 126.796875 265.566406 133.359375 266.085938 134.027344 266.246094 C 137.257812 267.03125 136.292969 267.878906 138.6875 266.273438 C 141.46875 270.089844 147.039062 273.613281 151.316406 274.914062 C 154.539062 275.796875 157.753906 275.660156 161.089844 274.8125 C 169.511719 272.542969 170.980469 271.285156 173.839844 267.894531 C 176.464844 264.65625 176.84375 262.871094 177.289062 261.222656 C 177.507812 260.367188 177.992188 259.78125 177.824219 257.484375 C 187.386719 257.449219 200.492188 257.519531 223.273438 251.96875 C 227.25 250.898438 231.339844 250.3125 235.21875 248.949219 C 247.847656 244.703125 247.410156 245.890625 264.316406 238.796875 C 277.164062 233.632812 288.210938 226.875 296.433594 215.917969 C 296.925781 215.492188 296.925781 215.402344 297.003906 215.148438 C 299.214844 212.089844 302.816406 206.871094 304.726562 195.3125 C 305.636719 189.195312 304.992188 185.546875 302.609375 179.929688 C 301.203125 176.617188 301.652344 176.65625 299.363281 174.625 C 298.972656 174.296875 298.675781 173.910156 298.398438 173.507812 C 299.066406 174.503906 299.707031 175.648438 300.417969 177.546875 C 304.726562 188.734375 304.125 196.136719 300.175781 204.84375 C 300.164062 203.808594 299.566406 203.328125 299.484375 202.542969 C 299.324219 201.945312 299.757812 201.253906 299.742188 200.601562 C 299.574219 198.695312 298.304688 197.054688 297.960938 195.238281 C 297.703125 194.195312 297.589844 193.359375 296.269531 191.910156 C 295.886719 191.410156 295.234375 191.074219 294.375 190.910156 C 294.222656 191.21875 294.085938 191.761719 294.351562 191.976562 C 294.847656 192.429688 294.785156 191.761719 295.277344 193.488281 C 295.417969 194.140625 296.171875 196.75 296.5625 197.703125 C 298.269531 202.242188 297.359375 201.144531 297.640625 202.738281 C 297.707031 203.449219 298.398438 205.597656 297.648438 207.855469 C 297.46875 208.433594 297.292969 208.828125 296.710938 210.238281 C 296.222656 211.253906 295.921875 212.992188 295.050781 214.058594 C 294.980469 214.207031 294.921875 214.359375 294.859375 214.515625 C 291.027344 216.597656 292.421875 216.085938 290.78125 217.40625 C 290.113281 217.929688 290.699219 217.246094 289.484375 218.53125 C 288.113281 219.96875 287.664062 219.859375 286.8125 220.703125 C 286.503906 220.988281 285.886719 221.753906 285.617188 221.945312 C 285.269531 222.410156 285.003906 222.957031 284.789062 223.554688 C 285.40625 223.363281 285.96875 223.125 286.402344 222.753906 C 286.699219 222.246094 287.285156 222.035156 287.703125 221.648438 C 288.417969 221.097656 288.761719 220.097656 289.496094 219.820312 C 289.769531 219.703125 290.046875 219.585938 290.214844 219.347656 C 290.386719 219.113281 290.464844 218.773438 290.675781 218.582031 C 290.863281 218.363281 291.246094 218.371094 291.492188 218.222656 C 292.164062 217.765625 292.613281 216.925781 293.394531 216.507812 C 293.601562 216.398438 293.765625 216.296875 293.90625 216.203125 C 292.621094 217.980469 291.128906 219.703125 289.335938 221.242188 C 288.667969 221.816406 278.917969 229.667969 269.199219 234.746094 C 262.203125 238.535156 254.84375 240.757812 252.257812 241.679688 C 218.980469 253.003906 197.300781 255.6875 177.550781 255.636719 C 177.214844 253.9375 177.003906 253.183594 176.597656 252.007812 C 176.703125 251.851562 176.796875 251.675781 176.941406 251.582031 C 177.132812 251.425781 177.476562 251.523438 177.710938 251.445312 C 178.378906 251.179688 178.835938 250.53125 179.605469 250.34375 C 180.472656 250.152344 181.136719 249.722656 181.34375 248.871094 C 177.71875 249.65625 178.820312 249.667969 177.171875 250.507812 C 176.652344 250.765625 176.730469 250.554688 176.21875 250.980469 C 175.335938 248.695312 174.210938 246.558594 173.289062 245.273438 C 174.328125 244.753906 173.859375 244.949219 176.492188 243.304688 C 178.417969 242.144531 178.964844 242.308594 180.015625 241.589844 C 180.558594 241.222656 181.035156 240.734375 181.605469 240.410156 C 182.15625 240.0625 182.851562 239.972656 183.449219 239.703125 C 185.210938 238.828125 186.824219 237.574219 188.5625 236.816406 C 190.285156 236.066406 192.328125 234.992188 193.4375 233.488281 C 184.699219 237.398438 188.898438 235.453125 182.925781 238.753906 C 182.347656 239.058594 181.726562 239.277344 181.160156 239.609375 C 174.230469 243.730469 176.050781 242.265625 172.453125 244.257812 C 172.328125 244.113281 172.207031 243.980469 172.101562 243.859375 C 172.640625 243.789062 173.296875 243.277344 173.707031 242.929688 C 175.457031 241.496094 176.03125 239.972656 177.445312 237.375 C 180.28125 236.125 181.492188 234.777344 183.003906 234.34375 C 185.199219 233.628906 184.9375 233.207031 186.007812 232.648438 C 186.503906 232.355469 187.132812 232.324219 187.667969 232.113281 C 188.71875 231.648438 189.695312 231.027344 190.710938 230.488281 C 192.367188 229.617188 195.320312 228.933594 196.714844 227.046875 C 194.539062 227.820312 192.300781 228.492188 190.253906 229.554688 C 186.390625 231.554688 185.59375 231.828125 185.59375 231.828125 C 183.976562 232.660156 184.253906 232.828125 179.679688 234.863281 C 181.742188 232.285156 183.074219 229.253906 184.007812 226.328125 C 185.761719 225.667969 185.089844 225.886719 186.300781 225.054688 C 186.542969 224.902344 186.78125 224.761719 187.082031 224.738281 C 188.3125 224.578125 187.863281 224.226562 188.53125 223.882812 C 188.769531 223.726562 189.132812 223.839844 189.40625 223.769531 C 190.148438 223.523438 190.828125 222.839844 191.667969 222.660156 C 192.578125 222.476562 193.433594 222.070312 193.757812 221.136719 C 189.378906 222.070312 190.898438 221.96875 188.945312 222.789062 C 188.210938 223.085938 188.890625 222.621094 187.414062 223.503906 C 185.824219 224.441406 185.375 224.300781 184.464844 224.757812 C 184.8125 223.472656 185.089844 222.128906 185.300781 220.734375 C 185.289062 220.875 185.269531 221.015625 185.261719 221.164062 C 187.617188 219.121094 188.753906 215.789062 189.636719 212.550781 C 189.839844 212.464844 190.128906 212.542969 190.347656 212.488281 C 190.417969 212.464844 190.480469 212.429688 190.542969 212.398438 C 192.722656 215.683594 196.1875 217.453125 200.0625 218.476562 C 198.765625 219.285156 197.976562 219.929688 197.003906 220.835938 C 199.820312 220.1875 199.789062 219.78125 201.78125 218.867188 C 210.332031 220.46875 212.621094 217.492188 215.476562 211.109375 C 216.839844 210.496094 218.480469 209.558594 219.207031 208.222656 C 217.832031 208.867188 216.847656 209.324219 216.113281 209.671875 C 218.558594 204.09375 220.898438 198.738281 222.871094 193.402344 C 224.777344 192.195312 226.566406 190.902344 228.214844 190.195312 C 231.546875 188.707031 231.421875 188.214844 232.976562 187.339844 C 233.757812 186.839844 234.699219 186.625 235.523438 186.203125 C 236.40625 185.753906 237.261719 185.253906 238.109375 184.746094 C 238.777344 185.066406 239.890625 185.648438 241.292969 185.535156 C 247.3125 185.09375 244.996094 186.671875 248.789062 185.503906 C 249.394531 185.328125 250.035156 185.265625 250.625 185.054688 C 250.941406 185.003906 251.183594 184.734375 251.5 184.699219 C 252.21875 184.570312 252.101562 184.902344 253.183594 183.960938 C 253.597656 184.363281 253.71875 184.453125 254.167969 184.523438 C 255.375 184.738281 256.75 184.699219 257.515625 184.535156 C 253.53125 186.273438 250.035156 187.839844 246.566406 190.597656 C 249.8125 189.710938 250.117188 189.300781 252.375 188.246094 C 256.523438 186.351562 254.007812 187.574219 257.910156 185.375 C 259.632812 184.449219 260.3125 184.398438 261.125 184.035156 C 263.191406 183.769531 265.148438 183.453125 269.726562 180.8125 C 271.03125 181.769531 271.503906 182.289062 275.46875 182.394531 C 265.941406 187.660156 264.015625 187.554688 260.21875 191.015625 C 261.304688 190.773438 262.359375 190.460938 263.324219 189.988281 C 264.195312 189.339844 265.261719 189.058594 266.210938 188.558594 C 267.761719 187.816406 269.179688 186.523438 270.414062 186.175781 C 272.476562 185.503906 272.203125 185.085938 273.195312 184.542969 C 273.652344 184.253906 274.246094 184.230469 274.742188 184.023438 C 275.761719 183.542969 276.703125 182.886719 277.671875 182.335938 C 285.054688 181.71875 288.046875 179.601562 290.160156 176.964844 C 290.261719 177.097656 290.355469 177.234375 290.4375 177.386719 C 291.527344 179.191406 291.871094 178.828125 292.609375 179.648438 C 292.984375 180.015625 293.140625 180.574219 293.433594 181 C 294.304688 182.132812 295.636719 183.335938 296.125 184.675781 C 297.242188 187.546875 296.957031 187.539062 297.664062 188.925781 C 297.90625 188.6875 298.015625 188.410156 297.980469 188.136719 C 297.347656 185.808594 298.488281 185.234375 294.257812 180.296875 C 291.320312 176.601562 292.746094 178.976562 290.84375 176.039062 C 292.582031 173.507812 293.304688 171.070312 294.371094 168.453125 C 294.566406 168.648438 294.5625 168.609375 294.394531 168.398438 C 296.5625 163.003906 296.359375 161.886719 295.71875 157.179688 C 295.507812 155.914062 294.996094 153.730469 294.3125 152.652344 C 293.433594 151.226562 293.804688 150.441406 291.679688 148.632812 C 284.050781 142.449219 280.777344 141.929688 277.679688 141.191406 C 276.359375 140.925781 275.40625 140.527344 273.636719 141.152344 C 273.628906 141.042969 273.027344 137.582031 273.011719 137.519531 C 271.90625 131.222656 271.664062 132.53125 268.851562 124.40625 C 275.019531 125.53125 281.316406 129.148438 288.28125 131.898438 C 289.210938 132.375 290.109375 132.925781 291.007812 133.476562 C 293.894531 135.167969 296.027344 135.65625 299.5 137.582031 C 302.898438 140.132812 307.222656 140.824219 310.605469 143.359375 C 311.449219 143.980469 312.375 144.449219 313.273438 144.964844 C 321.839844 149.652344 321.601562 149.78125 325.648438 154.035156 C 326.488281 154.949219 330.09375 158.773438 331.503906 161.203125 C 334.613281 166.703125 339.957031 170.667969 344.085938 192.375 C 343.84375 193.03125 343.929688 194.957031 344.113281 195.808594 C 343.277344 205.398438 343.542969 206.996094 339.542969 216.367188 C 338.445312 218.507812 339.488281 216.449219 334.421875 224.109375 C 330.371094 230.351562 330.277344 229.675781 328.710938 231.433594 C 327.058594 233.21875 327.75 233.449219 324.5625 235.996094 C 322.878906 237.214844 321.902344 239.175781 320.25 240.441406 C 318.007812 242.394531 310.480469 247.8125 307.453125 249.179688 C 302.976562 251.253906 302.417969 252.441406 298.003906 254.609375 C 296.738281 255.226562 297.367188 254.882812 295.921875 255.679688 C 295.683594 255.792969 295.484375 255.976562 295.214844 256.015625 C 295.054688 256 294.996094 255.960938 294.839844 256.140625 C 294.808594 256.183594 294.46875 256.597656 294.429688 256.636719 C 294.378906 256.683594 294.308594 256.683594 294.285156 256.792969 C 294.246094 257.011719 294.199219 257.222656 294.21875 257.570312 C 294.988281 257.980469 295.441406 257.699219 295.875 257.390625 C 295.984375 257.324219 296.148438 257.359375 296.300781 257.375 C 296.855469 257.476562 299.398438 256.09375 300.285156 255.648438 C 302.296875 254.570312 302.230469 254.96875 306.035156 252.972656 C 308.6875 251.503906 309.277344 250.664062 311.285156 249.410156 C 313.769531 247.835938 311.726562 249.441406 316.5625 245.894531 C 319.871094 243.324219 320.363281 242.726562 321.464844 241.855469 C 324.734375 239.238281 325.101562 239.40625 326.34375 237.761719 C 329.152344 234.234375 328.070312 235.734375 329.578125 234.242188 C 330.96875 233.003906 331.742188 231.378906 332.449219 230.433594 C 332.949219 229.765625 338.199219 223.257812 339.628906 219.988281 C 341.171875 216.328125 343.707031 213.074219 345.300781 204.539062 C 345.589844 213.535156 342.964844 220.390625 338.941406 227.792969 Z M 98.457031 237.339844 C 95.84375 236.230469 92.90625 234.828125 90.585938 233.210938 C 89.667969 232.0625 88.867188 230.867188 88.085938 229.660156 C 85.839844 227.476562 83.082031 217.105469 82.820312 215.664062 C 82.5 214.085938 82.578125 212.820312 82.769531 211.53125 C 83.808594 217.320312 86.421875 222.851562 88.835938 226.117188 C 90.359375 228.246094 92.722656 230.175781 94.925781 231.449219 C 95.546875 233.773438 96.785156 235.679688 98.457031 237.339844 Z M 120.238281 252.128906 C 120.175781 251.714844 120.042969 251.3125 119.957031 250.898438 C 119.550781 248.3125 120.167969 248.386719 120.546875 244.699219 C 120.679688 243.386719 120.816406 243.964844 120.851562 242.851562 C 120.851562 242.324219 120.851562 241.332031 120.792969 240.804688 C 120.078125 241.441406 119.441406 242.1875 119.167969 243.042969 C 119.183594 243.964844 118.625 244.753906 118.480469 245.652344 C 118.148438 247.070312 118.835938 248.632812 118.441406 249.683594 C 117.949219 251.425781 118.695312 251.332031 118.867188 252.324219 C 119.039062 252.835938 118.488281 253.289062 118.855469 254.515625 C 119.023438 255.070312 119.378906 255.800781 119.5625 256.265625 C 120.011719 257.507812 119.988281 257.894531 120.148438 258.386719 C 104.792969 248.964844 98.632812 229.269531 105.097656 217.933594 C 109.792969 209.6875 122.617188 202.058594 142.128906 203.796875 C 157.410156 205.402344 170.152344 212.355469 172.144531 227.355469 C 172.871094 232.324219 172.039062 236.226562 169.859375 241.6875 C 169.632812 241.492188 169.546875 241.402344 168.707031 240.765625 C 168.945312 240.734375 169.238281 240.65625 169.625 240.492188 C 169.570312 240.066406 169.410156 239.753906 169.214844 239.492188 C 169.363281 239.0625 169.445312 238.910156 169.292969 238.484375 C 168.542969 236.027344 168.25 236.277344 166.796875 233.574219 C 165.414062 231.277344 164.984375 230.535156 161.542969 228.527344 C 157.980469 226.667969 159.679688 225.816406 152.535156 224.785156 C 152.125 224.710938 151.699219 224.839844 151.292969 224.753906 C 148.714844 224.507812 152.207031 224.378906 145.542969 225.519531 C 143.296875 225.902344 143.425781 225.820312 141.660156 226.65625 C 140.003906 227.621094 139.273438 228.179688 139.210938 229.585938 C 139.296875 229.597656 139.375 229.601562 139.453125 229.601562 C 138.476562 230.03125 137.519531 230.648438 137.03125 231.082031 C 134.195312 233.761719 132.273438 233.90625 130.042969 240.554688 C 128.835938 244.730469 127.460938 244.367188 127.859375 251.851562 C 127.261719 252.515625 127.394531 252.765625 127.457031 253.285156 C 127.566406 253.984375 127.152344 254.1875 127.824219 256.550781 C 127.960938 256.992188 128.113281 257.429688 128.292969 257.851562 C 128.710938 258.808594 129.277344 259.65625 130.125 260.246094 C 130.921875 262.269531 131.148438 262.742188 131.65625 263.410156 C 128.675781 262.585938 126.027344 261.59375 122.914062 259.957031 C 122.320312 258.773438 122.386719 261.140625 121.433594 256.964844 C 121.289062 256.398438 121.070312 255.839844 120.855469 255.277344 C 120.625 254.664062 120.40625 254.039062 120.296875 253.386719 C 120.222656 252.972656 120.328125 252.53125 120.238281 252.128906 Z M 175 261.78125 C 174.066406 264.203125 172.539062 266.125 170.546875 267.996094 C 169.425781 269.113281 166.539062 270.621094 165.871094 270.917969 C 157.980469 274.355469 157.171875 273.511719 151.945312 272.519531 C 149.070312 271.917969 147.480469 271.316406 144.007812 268.671875 C 139.648438 265.046875 140.683594 264.242188 137.554688 262.230469 C 137.589844 262.910156 137.6875 263.597656 137.820312 264.277344 C 137.03125 263.683594 137.195312 263.796875 135.429688 264.125 C 133.066406 262.78125 132.441406 260.8125 131.742188 258.882812 C 130.949219 256.695312 130.859375 257.132812 130.414062 254.679688 C 130.171875 253.199219 129.777344 253.585938 130.125 249.230469 C 130.386719 245.542969 130.554688 246.777344 130.714844 245.886719 C 130.90625 244.984375 130.5 246.359375 131.191406 243.917969 C 132.144531 241.25 131.730469 240.4375 132.980469 238.816406 C 135.957031 234.761719 135.285156 234.953125 138.238281 232.785156 C 141.78125 230.324219 141.113281 232.007812 142.824219 229.71875 C 142.296875 229.429688 141.75 229.269531 141.183594 229.15625 C 145.148438 227.066406 145.246094 227.792969 147.890625 227.066406 C 148.753906 226.871094 149.023438 226.894531 150.101562 226.871094 C 152.296875 226.878906 150.371094 226.453125 154.46875 227.445312 C 154.9375 227.589844 156.148438 227.839844 156.546875 228.128906 C 156.695312 228.253906 156.828125 228.402344 156.996094 228.46875 C 157.664062 228.769531 156.734375 228.238281 158.453125 229.179688 C 160.371094 230.425781 161.167969 230.121094 162.179688 231.453125 C 164.121094 234.199219 164.765625 233.246094 166.886719 238.085938 C 165.167969 237.195312 164.371094 236.605469 162.988281 236.398438 C 161.722656 236.320312 162.035156 236.027344 160.058594 235.941406 C 159.914062 235.933594 157.863281 235.578125 157.113281 235.484375 C 156.449219 235.457031 155.792969 235.582031 155.121094 235.46875 C 153.789062 235.394531 152.40625 235.417969 151.171875 236.023438 C 149.46875 237.03125 148.988281 236.316406 147.328125 237.136719 C 145.769531 238.296875 143.363281 238.957031 141.566406 240.832031 C 140.675781 241.136719 140.421875 241.375 139.625 241.804688 C 137.472656 242.96875 137.515625 242.816406 135.679688 245.261719 C 135.355469 245.761719 135.199219 246.347656 134.824219 246.8125 C 133.917969 248.257812 133.921875 248.363281 133.675781 249.238281 C 133.640625 249.417969 133.519531 249.957031 133.414062 250.105469 C 133.003906 250.773438 133.328125 250.363281 133.152344 250.992188 C 132.722656 254.308594 133.746094 253.605469 133.679688 255.46875 C 133.847656 257.589844 133.816406 256.523438 135.449219 259.554688 C 135.941406 260.390625 136.753906 261.261719 137.507812 261.921875 C 137.636719 262 137.691406 262.167969 137.867188 262.191406 C 138.273438 262.175781 138.667969 262.152344 139.152344 261.960938 C 139.160156 261.484375 139.121094 261.113281 139.097656 260.753906 C 139.09375 260.53125 139.003906 260.46875 138.859375 260.308594 C 138.71875 260.160156 137.222656 258.632812 137.125 258.460938 C 136.632812 257.601562 136.429688 256.296875 136.101562 255.628906 C 134.820312 252.738281 134.96875 252.769531 135.847656 250.554688 C 136.144531 249.660156 135.679688 249.847656 136.710938 247.777344 C 136.867188 247.585938 136.855469 247.296875 137.019531 247.105469 C 137.632812 246.453125 137.3125 247.175781 137.835938 245.855469 C 138.71875 243.960938 140.101562 244.15625 142.339844 242.394531 C 142.460938 242.398438 142.585938 242.402344 142.703125 242.40625 C 143.03125 242.417969 144.71875 241.105469 144.949219 240.867188 C 145.746094 240.121094 147.101562 239.84375 148.261719 239.425781 C 149.121094 239.179688 148.949219 239.136719 151.617188 237.972656 C 152.953125 237.539062 153.558594 237.792969 155.28125 237.933594 C 156.84375 237.957031 155.527344 237.671875 158.882812 237.898438 C 159.171875 237.980469 159.488281 237.871094 159.78125 237.964844 C 160.566406 238.167969 159.773438 238.238281 161.570312 238.230469 C 162.6875 238.214844 164.132812 238.714844 164.996094 239.339844 C 165.03125 239.367188 165.078125 239.398438 165.117188 239.421875 C 165.089844 239.421875 165.066406 239.417969 165.039062 239.417969 C 167.152344 242.851562 171.234375 243.402344 174.511719 252.082031 C 174.476562 252.097656 174.441406 252.117188 174.410156 252.15625 C 175.957031 254.753906 175.910156 259.273438 175 261.78125 Z M 181.753906 227.011719 C 181.285156 228.386719 180.929688 229.34375 179.609375 231.78125 C 179.910156 230.222656 180.019531 228.207031 179.996094 226.75 C 180.335938 225.632812 181.128906 221.832031 181.300781 220.679688 C 181.328125 220.425781 181.347656 217.433594 181.34375 217.246094 C 181.34375 216.480469 181.140625 215.730469 181.167969 214.964844 C 181.222656 212.679688 180.683594 211.308594 180.609375 210.40625 C 180.613281 210.207031 180.636719 210.003906 180.582031 209.820312 C 180.582031 209.820312 180.535156 209.738281 180.117188 208.148438 C 179.820312 206.847656 178.992188 205.703125 178.640625 205.019531 C 178.023438 203.785156 178.253906 203.382812 177.273438 201.859375 C 176.761719 201.03125 176.675781 201.125 175.835938 199.785156 C 175.152344 198.699219 175.5625 199.234375 173.988281 197.167969 C 173.863281 196.996094 172.667969 195.546875 172.484375 195.453125 C 172.089844 195.289062 171.695312 195.132812 171.203125 195.074219 C 171.402344 197.964844 172.410156 196.390625 175.660156 202.769531 C 178.199219 207.59375 178.03125 205.714844 178.8125 210.84375 C 178.9375 211.554688 179.210938 212.234375 179.320312 212.953125 C 179.363281 213.238281 179.722656 215.902344 179.714844 216.191406 C 179.730469 216.964844 179.523438 216.390625 179.730469 217.894531 C 178.277344 212.585938 177.707031 212.542969 177.402344 211.644531 C 176.96875 210.671875 177.195312 210.441406 175.621094 208.636719 C 173.339844 206.023438 168.289062 198.125 163.582031 199.210938 C 164.355469 200.597656 165.210938 200.867188 166.945312 202.125 C 170.933594 205.027344 175.4375 211.570312 176.222656 214.039062 C 176.6875 215.4375 177.777344 219.324219 177.746094 220.328125 C 177.667969 221.796875 177.8125 221.273438 177.824219 221.941406 C 178.070312 229.996094 178.472656 227.34375 176.722656 233.066406 C 175.984375 236.421875 174.449219 238.925781 173.519531 239.941406 C 173.546875 239.925781 173.570312 239.910156 173.597656 239.898438 C 172.230469 241.738281 171.636719 241.640625 170.886719 242.582031 C 170.65625 242.367188 170.429688 242.175781 170.132812 241.921875 C 171.757812 240.5 173.046875 238.53125 173.808594 235.941406 C 174.6875 235.367188 174.941406 234.636719 175.300781 231.902344 C 175.558594 229.882812 176.019531 230.898438 175.648438 225.230469 C 175.617188 224.503906 175.324219 224.070312 175.296875 223.023438 C 175.148438 220.222656 174.652344 219.871094 174.480469 218.613281 C 174.472656 217.742188 174.398438 218.175781 174.226562 217.507812 C 173.925781 216.507812 173.488281 215.210938 172.769531 214.449219 C 170.960938 212.347656 171.976562 211.707031 169.710938 209.722656 C 168.679688 208.671875 167.242188 206.4375 165.058594 205.367188 C 164.851562 205.296875 164.675781 205.125 164.429688 205.140625 C 163.921875 205.234375 163.421875 205.402344 163.035156 205.839844 C 164.453125 207.476562 162.570312 206.058594 165.992188 208.667969 C 166.9375 209.347656 167.953125 210.988281 168.496094 211.980469 C 169.074219 212.882812 169.898438 213.808594 170.382812 214.480469 C 171.929688 216.714844 171.582031 216.570312 172.09375 219.199219 C 167.824219 209.679688 156.742188 200.726562 133.566406 201.128906 C 125.414062 201.269531 117.375 203.34375 110.484375 208.273438 C 101.890625 214.796875 99.585938 222.574219 100.386719 233.328125 C 100.476562 234.570312 100.65625 235.683594 100.90625 236.824219 C 100.308594 236.140625 98.691406 234.910156 97.539062 232.410156 C 96.085938 228.996094 96.390625 227.175781 96.851562 223.394531 C 97.1875 220.765625 98.601562 216.589844 99.476562 214.566406 C 101.246094 210.4375 102.5625 208.796875 106.566406 205.28125 C 107.777344 204.242188 108.351562 203.210938 111.875 200.671875 C 114.777344 198.71875 115.210938 198.445312 115.878906 198.207031 C 118.085938 197.453125 119.296875 195.769531 124.496094 194.421875 C 132.359375 192.722656 135.757812 193.589844 138.605469 192.078125 C 136.957031 191.164062 135.625 191.160156 133.742188 191.226562 C 131.203125 191.300781 126.292969 191.941406 123.953125 192.511719 C 117.46875 194.0625 103.230469 201.769531 98.785156 211.433594 C 96.339844 216.730469 95.28125 216.316406 94.761719 223.234375 C 94.65625 224.621094 94.464844 226.101562 94.464844 227.734375 C 92.246094 227.035156 91.527344 227.175781 90.476562 224.964844 C 90.117188 224.207031 83.375 215.203125 84.28125 202.0625 C 85.496094 200.027344 85.046875 198.628906 85.269531 196.894531 C 85.5625 194.941406 87.234375 194.046875 88.078125 193.296875 C 88.230469 192.945312 88.398438 192.59375 88.570312 192.246094 C 85.3125 199.890625 85.765625 203.253906 86.425781 211.277344 C 88.828125 205.398438 85.316406 193.289062 98.261719 183.4375 C 97.855469 183.511719 97.457031 183.617188 97.0625 183.742188 C 97.3125 183.136719 97.125 182.589844 96.84375 182.402344 C 96.597656 182.550781 96.351562 182.691406 96.097656 182.828125 C 96.296875 182.984375 96.261719 183.039062 96.191406 183.023438 C 96.078125 182.925781 96.089844 182.960938 96.050781 182.980469 C 96.050781 182.980469 95.585938 183.683594 95.367188 183.90625 C 94.699219 184.546875 87.390625 188.847656 86.433594 193.054688 C 86.066406 194.582031 86.328125 194.65625 85.039062 196.734375 C 86.269531 191.046875 89.136719 185.035156 89.691406 184.367188 C 89.90625 183.847656 90.355469 183.503906 90.730469 183.109375 C 90.636719 183.058594 90.535156 183 90.4375 182.945312 C 96.75 171.71875 107.144531 161.691406 120.019531 160.5625 C 128.234375 159.839844 145.511719 162.539062 159.226562 171.753906 C 180.546875 186.832031 187.765625 208.878906 181.851562 226.722656 C 181.777344 226.816406 181.703125 226.917969 181.632812 227.019531 C 181.671875 227.019531 181.714844 227.011719 181.753906 227.011719 Z M 189.984375 211.453125 C 189.960938 211.464844 189.933594 211.480469 189.910156 211.496094 C 189.921875 211.449219 189.929688 211.410156 189.941406 211.363281 C 189.953125 211.394531 189.96875 211.425781 189.984375 211.453125 Z M 97.300781 116.261719 C 99.21875 113.859375 101.449219 111.46875 104.175781 108.824219 C 108.832031 104.105469 112.914062 100.578125 119.75 97.402344 C 126.628906 94.347656 124.457031 95.6875 128.921875 94.28125 C 132.035156 93.441406 133.019531 92.972656 138.492188 92.082031 C 154.46875 89.917969 170.726562 93.851562 177.582031 95.160156 C 172.75 90.171875 159.007812 89.34375 151.882812 89.039062 C 163.546875 85.816406 184.65625 93.382812 195.820312 98.089844 C 212.019531 105.121094 222.515625 117.101562 226.714844 138.34375 C 229.136719 149.957031 227.175781 168.027344 225.539062 174.738281 C 225.378906 175.40625 218.105469 200.933594 211.933594 212.585938 C 210.089844 215.976562 207.996094 217.566406 201.160156 215.933594 C 196.695312 214.867188 194.765625 213.21875 193.40625 212.050781 C 192.117188 210.976562 191.25 210.3125 190.417969 209.144531 C 190.9375 206.613281 191.238281 204.457031 191.308594 202.273438 C 192.183594 200.765625 191.988281 200.335938 192.722656 198.160156 C 194.757812 192.386719 193.398438 186.050781 190.082031 180.957031 C 190.332031 184.855469 192.03125 189.363281 192.085938 192.222656 C 192.195312 194.15625 191.734375 194.238281 191.226562 198.699219 C 190.734375 191.980469 187.410156 177.898438 185.199219 171.140625 C 182.753906 164.808594 182.296875 164.546875 179.425781 160.855469 C 183.28125 163.503906 183.28125 163.777344 185.492188 166.558594 C 188.84375 171.136719 191.511719 174.425781 192.125 177.066406 C 193.472656 182.394531 194.261719 183.605469 194.777344 187.398438 C 194.855469 187.988281 195.058594 188.554688 195.070312 189.152344 C 195.089844 189.746094 195.003906 190.347656 195.121094 190.929688 C 195.195312 191.84375 195.558594 193.117188 195.570312 194.46875 C 195.785156 199.976562 192.996094 205.789062 194.097656 208.792969 C 194.648438 208.308594 195.171875 207.574219 195.453125 206.824219 C 196.222656 204.765625 197.160156 199.460938 197.34375 198.199219 C 197.773438 195.816406 197.433594 193.359375 197.445312 192.613281 C 197.375 190.25 197.445312 190.957031 197.105469 188.90625 C 196.554688 185.492188 197.066406 185.9375 195.582031 180.667969 C 195.496094 180.371094 195.394531 180.074219 195.351562 179.761719 C 195.234375 178.691406 195.40625 179.4375 194.214844 176.183594 C 193.269531 173.636719 192 172.386719 191.324219 171.226562 C 189.695312 168.414062 189.941406 167.886719 187.195312 165.125 C 185.640625 163.597656 183.328125 160.4375 179.359375 158.332031 C 178.691406 158.007812 178.71875 157.765625 177.171875 157.929688 C 175.621094 155.925781 174.789062 154.925781 173.082031 153.421875 C 165.378906 147.207031 162.300781 145.390625 156.507812 142.472656 C 155.839844 142.175781 155.027344 141.492188 151.957031 141.445312 C 157.320312 146.90625 160.351562 144.746094 171.398438 155.234375 C 176.8125 160.542969 180.148438 163.902344 181.996094 169.191406 C 182.277344 169.964844 186.882812 183.960938 187.609375 189.253906 C 188.808594 196.757812 190.851562 200.8125 187.542969 212.691406 C 187.457031 212.722656 187.363281 212.753906 187.261719 212.785156 C 187.203125 213.210938 187.132812 213.632812 187.046875 214.054688 C 187.09375 214.019531 187.140625 213.984375 187.1875 213.949219 C 186.164062 217.484375 185.902344 217.269531 185.4375 219.773438 C 186.375 212.414062 185.378906 204.1875 182.230469 196.382812 C 182.238281 195.933594 181.515625 192.605469 181.308594 191.394531 C 180.488281 185.640625 182.246094 183.863281 174.300781 170.101562 C 172.703125 167.300781 171.636719 167.167969 170.417969 164.90625 C 168.796875 162.308594 169.796875 163.523438 164.867188 158.882812 C 162.582031 156.898438 159.644531 155.40625 159.242188 155.351562 C 158.617188 155.382812 158.003906 155.414062 157.359375 155.632812 C 158.425781 157.285156 158.78125 157.429688 161.035156 158.691406 C 162.410156 159.605469 162.882812 159.800781 163.570312 160.410156 C 165.042969 161.742188 166.386719 163.730469 168.683594 166.222656 C 172.4375 170.410156 171.742188 170.210938 173.707031 174.214844 C 174.769531 175.988281 175.539062 176.761719 176.8125 179.613281 C 176.980469 180.09375 177.320312 180.496094 177.445312 180.988281 C 177.570312 181.449219 177.597656 181.929688 177.75 182.371094 C 178.140625 183.484375 179.125 185.195312 179.171875 190.152344 C 176.578125 185.761719 173.832031 182.089844 170.917969 178.890625 C 157.769531 164.898438 137.324219 157.222656 121.316406 158.191406 C 112.445312 158.75 106.097656 162.519531 99.394531 168.183594 C 95.074219 172.085938 90.164062 176.664062 86.183594 186.242188 C 85.40625 185.855469 85.894531 183.761719 86.296875 180.042969 C 86.351562 179.953125 86.40625 179.863281 86.460938 179.773438 C 86.421875 179.734375 86.382812 179.6875 86.34375 179.648438 C 86.4375 178.949219 86.589844 178.292969 87.03125 176.824219 C 91.855469 162.894531 93.1875 163.507812 98.402344 158.449219 C 100.480469 156.566406 99.578125 157.34375 101.460938 155.917969 C 101.75 155.730469 104.507812 153.898438 104.804688 153.753906 C 111.570312 150.742188 108.46875 150.496094 121.898438 148.839844 C 123.234375 148.75 124.535156 148.671875 125.96875 147.757812 C 124.332031 146.804688 122.804688 146.742188 117.65625 147.363281 C 110.285156 148.261719 109.867188 149.230469 107.542969 150.0625 C 101.238281 152.871094 93.050781 158.394531 89.941406 164.683594 C 86.8125 171.679688 87.605469 166.3125 84.609375 178.042969 C 83.808594 177.285156 83.089844 176.382812 82.609375 175.5625 C 82.527344 175.199219 82.429688 174.847656 82.328125 174.492188 C 82.351562 174.460938 82.375 174.429688 82.398438 174.394531 C 82.003906 173.726562 78.378906 164.359375 81.40625 151.75 C 82.53125 147.027344 88.75 126.953125 97.300781 116.261719 Z M 213.277344 92.011719 C 217.847656 93.882812 225.910156 97.972656 231.78125 102.167969 C 250.660156 115.691406 249.371094 127.214844 248.785156 142.988281 C 248.320312 159.570312 245.605469 171.386719 233.164062 180.820312 C 233.519531 180.210938 233.722656 179.820312 234.074219 179.207031 C 237.972656 171.230469 233.996094 181.347656 239.207031 166.941406 C 240.808594 161.28125 240.109375 158.023438 239.503906 155.902344 C 239.34375 156.386719 238.476562 159.707031 238.539062 160.195312 C 238.699219 161.355469 238.042969 163.203125 237.835938 164.417969 C 237.457031 165.863281 237.488281 166.695312 237.125 168.65625 C 236.640625 170.566406 236.367188 170.585938 235.828125 171.613281 C 235.210938 172.777344 235.34375 173.839844 234.972656 174.746094 C 234.710938 175.421875 234.046875 175.894531 233.667969 176.5 C 232.417969 178.285156 232.46875 179.84375 229.644531 182.789062 C 229.242188 183.277344 228.976562 183.589844 228.765625 183.859375 C 227.527344 184.628906 226.027344 185.527344 225.378906 185.910156 C 229.417969 172.507812 232.46875 151.40625 229.675781 137.753906 C 227.925781 129.296875 224.152344 119.710938 218.773438 112.414062 C 212.789062 104.523438 205.746094 99.585938 196.859375 95.753906 C 190.394531 93.042969 183.3125 90.34375 176.5625 88.570312 C 191.074219 85.804688 200.691406 86.746094 213.277344 92.011719 Z M 236.921875 184.183594 C 231.917969 187.007812 235.144531 184.941406 230.144531 187.976562 C 227.882812 189.402344 225.808594 190.4375 223.492188 191.671875 C 223.808594 190.789062 224.117188 189.882812 224.421875 188.957031 C 226.589844 188.015625 226.765625 187.390625 228.347656 186.46875 C 229.863281 185.585938 231.828125 184.5 233.902344 183.132812 C 235.324219 183.988281 236.25 183.890625 236.921875 184.183594 Z M 266.921875 126.808594 C 269.992188 133.335938 269.910156 135.628906 270.613281 142.738281 C 270.476562 142.746094 270.335938 142.757812 270.195312 142.773438 C 270.34375 142.894531 270.5 143.003906 270.652344 143.105469 C 270.710938 143.679688 270.722656 143.710938 270.777344 143.972656 C 271.792969 150.425781 271.023438 151.933594 270.316406 155.175781 C 270.050781 156.726562 269.476562 157.136719 268.375 159.777344 C 266.34375 165.085938 264.007812 169.355469 259.691406 172.988281 C 262.539062 169.316406 264.867188 165.199219 265.105469 160.382812 C 258.511719 174.648438 259.175781 171.097656 255.613281 175.585938 C 254.308594 177.140625 252.6875 178.394531 250.988281 179.515625 C 252.054688 179.324219 253.410156 178.75 254.167969 178.175781 C 259.347656 178.179688 265.070312 171.800781 267.769531 167.050781 C 268.257812 166.164062 268.652344 165.242188 269.101562 164.351562 C 270.40625 161.675781 270.847656 161.984375 272.78125 155.917969 C 275.167969 148.683594 273.707031 145.464844 273.667969 141.949219 C 275.339844 143.25 275.304688 142.683594 281.097656 144.773438 C 283.75 145.859375 286 147.496094 288.238281 149.007812 C 289.300781 149.816406 290.144531 150.914062 290.933594 152.003906 C 291.894531 153.308594 292.84375 154.597656 293.105469 159.683594 C 293.324219 162.972656 292.796875 162.769531 292.699219 163.742188 C 292.582031 165.097656 292.144531 166.398438 291.746094 167.683594 C 290.554688 171.644531 290.628906 172.429688 288.007812 174.808594 C 285.675781 176.964844 284.390625 180.101562 274.773438 179.679688 C 278.878906 177.074219 280.96875 173.78125 281.578125 170.417969 C 279.648438 172.292969 278.421875 174.894531 277.273438 176.136719 C 276.511719 177.050781 275.386719 177.519531 274.625 178.472656 C 274.265625 178.890625 273.855469 179.253906 273.429688 179.589844 C 271.878906 179.457031 272.5625 179.484375 271.894531 179.417969 C 273.140625 178.492188 272.578125 178.664062 275.71875 174.65625 C 276.007812 174.351562 276.140625 173.929688 276.449219 173.65625 C 276.738281 173.359375 277.140625 173.175781 277.363281 172.832031 C 277.9375 172.164062 278.902344 170.105469 281.921875 168.765625 C 282.675781 168.453125 285.929688 166.457031 286.164062 166.238281 C 286.472656 165.90625 286.773438 165.519531 287.007812 164.902344 C 285.75 164.464844 284.992188 164.9375 284.324219 165.230469 C 277.492188 168.5 276.617188 170.230469 272.335938 175.320312 C 271.796875 175.972656 271.367188 176.695312 270.730469 177.214844 C 269.289062 178.03125 269.851562 178.632812 265.101562 180.851562 C 259.421875 181.722656 263.117188 181.800781 257.429688 182.441406 C 256.894531 182.484375 256.292969 182.519531 255.695312 182.519531 C 256.585938 182.15625 257.058594 182.199219 258.109375 181.25 C 264.28125 180.628906 273.972656 171.136719 274.121094 161.625 C 269.277344 174.199219 266.601562 174.558594 263.355469 177.757812 C 261.914062 179.113281 260.191406 180.144531 258.390625 180.988281 C 259.152344 180.25 259.59375 179.941406 259.261719 178.441406 C 257.6875 177.910156 257.507812 178.875 255.9375 179.753906 C 254.933594 180.304688 253.757812 180.492188 252.878906 181.191406 C 252.109375 181.773438 252.042969 181.585938 251.375 181.890625 C 251.113281 181.980469 250.886719 182.171875 250.640625 182.296875 C 249.863281 182.648438 248.902344 182.589844 248.195312 182.695312 C 247.644531 182.792969 247.140625 182.953125 246.582031 182.878906 C 246.457031 182.824219 246.296875 182.738281 246.164062 182.746094 C 244.214844 182.761719 243.960938 182.667969 243.351562 182.925781 C 242.171875 183.367188 241.632812 182.722656 240.953125 182.464844 C 240.054688 182.125 239.550781 182.476562 238.492188 182.117188 C 238.492188 182.117188 236.460938 181.324219 236.457031 181.324219 C 236.457031 181.324219 238.605469 181.566406 239.65625 181.375 C 240.324219 181.234375 242.152344 180.53125 243.46875 179.480469 C 244.640625 178.664062 247.359375 177.546875 248.917969 175.300781 C 250.238281 173.539062 250.253906 173.183594 251.28125 171.945312 C 252.027344 171.035156 253.144531 170.078125 253.835938 168.703125 C 254.148438 168.035156 255.601562 164.730469 255.875 163.644531 C 256.074219 163.234375 256.382812 162.855469 256.4375 162.398438 C 256.558594 161.960938 256.535156 161.480469 256.617188 161.039062 C 257.265625 156.84375 259.6875 152.679688 257.476562 150.371094 C 256.585938 151.183594 256.59375 151.847656 256.433594 152.886719 C 255.832031 156.8125 256.09375 154.855469 255.242188 157.957031 C 254.851562 159.042969 255.058594 159.601562 254.28125 161.714844 C 254.015625 162.441406 254.039062 163.105469 253.46875 164.164062 C 253.300781 164.519531 251.640625 167.8125 251.359375 168.125 C 251.074219 168.394531 249.222656 171.023438 248.863281 171.792969 C 247.933594 173.789062 247.324219 173.648438 246.296875 174.558594 C 244.433594 176.085938 245.808594 176.0625 240.222656 178.925781 C 240.132812 178.960938 239.265625 179.34375 239.175781 179.363281 C 239.023438 179.382812 238.863281 179.421875 238.703125 179.460938 C 250.273438 168.992188 251.152344 153.28125 251.730469 137.703125 C 252.046875 129.757812 252.832031 122.640625 247.035156 113.539062 C 251.917969 115.292969 251.914062 115.238281 254.808594 120.074219 C 256.761719 123.390625 256.480469 124.953125 256.636719 127.664062 C 256.773438 128.523438 256.972656 129.378906 257.085938 130.242188 C 257.179688 131.035156 257.320312 134.121094 257.3125 134.171875 C 257.183594 135.46875 257.015625 134.253906 257.269531 136.796875 C 257.675781 141.351562 254.320312 145.796875 255.761719 148.710938 C 256.753906 148.113281 257.21875 147.449219 258.085938 143.722656 C 259.4375 138.929688 259.007812 140.980469 259.417969 135.5625 C 259.421875 134.632812 259.273438 133.71875 259.355469 132.796875 C 259.53125 128.804688 259.125 128.980469 259.078125 127.261719 C 259.105469 127.019531 259.144531 126.777344 259.105469 126.546875 C 259.105469 126.546875 258.71875 124.492188 258.71875 124.492188 C 258.199219 121.699219 257.390625 121.644531 256.804688 119.214844 C 256.230469 116.972656 255.511719 116.308594 253.394531 114.488281 C 251.988281 113.171875 250.144531 112.351562 248.332031 111.75 C 247.472656 111.484375 246.980469 111.175781 245.808594 111.734375 C 245.015625 110.652344 244.183594 109.644531 243.328125 108.699219 C 249.417969 110.460938 258.179688 108.652344 266.921875 126.808594 Z M 347.382812 204.550781 C 347.140625 197.578125 345.75 195.925781 345.449219 192.328125 C 345.414062 191.660156 345.609375 187.429688 343.207031 179.8125 C 342.1875 175.996094 336.042969 164.210938 334.988281 162.628906 C 334.554688 161.855469 328.902344 154.613281 326.871094 152.816406 C 325.578125 151.671875 317.925781 143.824219 311.589844 141.523438 C 307.582031 140.117188 304.398438 137.089844 300.25 136.023438 C 288.628906 131.234375 278.449219 123.488281 267.992188 122.203125 C 266 117.851562 259.230469 110.652344 252.601562 108.117188 C 249.015625 106.75 246.148438 106.59375 244.878906 106.5 C 244.136719 106.414062 242.945312 106.75 241.875 107.179688 C 238.03125 103.367188 233.914062 100.707031 231.082031 98.5625 C 226.367188 95.195312 222.261719 92.003906 214.339844 89.355469 C 201.917969 85.175781 192.800781 82.828125 179.273438 85.496094 C 177.511719 85.769531 176.191406 86.070312 173.527344 87.832031 C 165.675781 86.074219 153.144531 84.71875 146.265625 88.976562 C 133.640625 89.324219 119.949219 92.800781 109.71875 100.023438 C 94.65625 110.824219 89.734375 123.285156 86.527344 129.800781 C 85.261719 132.3125 84.050781 134.613281 82.96875 137.152344 C 80.910156 138.339844 77.960938 140.097656 76.382812 140.945312 C 74.644531 141.894531 73.710938 141.972656 72.566406 142.652344 C 70.75 143.660156 71.761719 143.78125 67.851562 145.589844 C 66.144531 146.355469 64.890625 147.847656 63.265625 148.742188 C 59.914062 150.847656 56.976562 152.617188 54.28125 155.3125 C 52.964844 156.640625 51.332031 157.574219 49.980469 158.859375 C 48.371094 160.21875 45.578125 163.003906 44.910156 163.65625 C 41.929688 166.78125 41.25 166.789062 38.789062 171.289062 C 36.933594 174.808594 32.238281 178.769531 29.351562 191.457031 C 26.964844 202.851562 28.171875 202.152344 28.273438 205.4375 C 28.535156 207.429688 28.675781 208.773438 29.089844 210.609375 C 28.914062 210.996094 28.753906 211.386719 28.789062 211.773438 C 28.839844 212.296875 28.746094 212.835938 28.878906 213.351562 C 28.980469 213.871094 28.730469 214.425781 28.804688 214.953125 C 29.523438 223.226562 33.625 234.140625 40.542969 242.335938 C 51.738281 255.992188 59.117188 258.503906 67.265625 264.132812 C 74.679688 269.199219 71.683594 267.21875 84.019531 272.875 C 85.898438 273.734375 101.980469 279.242188 107.78125 280.910156 C 125.671875 285.804688 142.644531 287.5 157.136719 289.492188 C 161.90625 290.121094 169.289062 290.214844 174.367188 290.273438 C 194.59375 290.957031 201.769531 290.570312 219.679688 288.054688 C 249.605469 283.726562 259.222656 279.777344 280.109375 272.078125 C 287.382812 269.386719 296.292969 265.652344 302.875 261.570312 C 309.40625 257.75 314.820312 254.988281 318.929688 251.660156 C 332.398438 240.664062 336.078125 234.480469 338.382812 231.167969 C 340.589844 228.132812 347.894531 219.609375 347.382812 204.550781 " fill-opacity="1" fill-rule="nonzero"/></g><path fill="#32a7ca" d="M 74.101562 188.285156 C 74.125 188.222656 74.148438 188.160156 74.171875 188.097656 C 74.320312 187.683594 74.25 187.855469 74.101562 188.285156 " fill-opacity="1" fill-rule="nonzero"/><path fill="#32a7ca" d="M 209.605469 221.40625 C 209.25 221.859375 208.140625 222.683594 207.691406 223 C 208.878906 223.304688 209.191406 222.792969 210.144531 222.378906 C 210.8125 222.109375 214.722656 220.148438 216.199219 218.164062 C 214.027344 218.273438 212.519531 219.6875 211.703125 220.160156 C 211.035156 220.632812 210.148438 220.707031 209.605469 221.40625 " fill-opacity="1" fill-rule="nonzero"/><path fill="#32a7ca" d="M 229.191406 197.609375 C 230.527344 196.910156 231.722656 195.671875 232.832031 195.363281 C 234.65625 194.769531 234.394531 194.351562 235.257812 193.859375 C 235.660156 193.597656 236.199219 193.597656 236.640625 193.414062 C 237.503906 193.011719 238.28125 192.457031 239.109375 191.980469 C 240.480469 191.195312 242.921875 190.703125 243.960938 188.925781 C 237.335938 191.285156 239.175781 190.914062 236.125 192.460938 C 235.699219 192.675781 235.230469 192.8125 234.816406 193.050781 C 234.148438 193.421875 232.820312 194.421875 231.101562 195.214844 C 226.339844 197.414062 224.847656 199.050781 223.976562 200.015625 C 224.9375 199.765625 225.863281 199.453125 226.695312 198.992188 C 227.425781 198.359375 228.371094 198.089844 229.191406 197.609375 " fill-opacity="1" fill-rule="nonzero"/><path fill="#32a7ca" d="M 240.097656 200.695312 C 241.148438 200.847656 241.707031 200.558594 242.355469 200.160156 C 243.023438 199.738281 248.242188 197.523438 250.496094 194.894531 C 247.964844 195.191406 246.09375 196.785156 245.058594 197.371094 C 244.230469 197.917969 243.1875 198.089844 242.484375 198.859375 C 241.761719 199.601562 240.90625 200.105469 240.097656 200.695312 " fill-opacity="1" fill-rule="nonzero"/><path fill="#32a7ca" d="M 145.105469 266.128906 C 144.625 265.597656 144.171875 264.601562 143.613281 264.085938 C 143.417969 263.871094 142.386719 262.210938 142.304688 261.929688 C 142.296875 261.882812 141.636719 259.546875 141.632812 259.5 C 141.65625 259.382812 141.691406 259.269531 141.667969 259.167969 C 141.667969 259.167969 141.632812 259.121094 141.492188 258.253906 C 141.410156 257.003906 140.824219 256.746094 141.050781 255.796875 C 141.203125 255.144531 141.261719 255.304688 141.226562 254.558594 C 141.148438 252.640625 141.230469 253.707031 141.523438 252.097656 C 141.726562 251.488281 141.777344 251.148438 141.988281 250.617188 C 142.03125 250.414062 142.308594 250.457031 141.671875 249.421875 C 139.804688 249.832031 140.386719 251.070312 139.699219 253.050781 C 139.40625 254.246094 139.25 254.589844 139.414062 255.820312 C 140.109375 259.183594 139.714844 257.210938 139.839844 259.988281 C 139.941406 260.285156 140.75 262.292969 140.863281 262.59375 C 140.9375 262.820312 141.152344 262.976562 141.222656 263.199219 C 141.480469 263.882812 141.058594 263.488281 141.949219 264.394531 C 142.195312 264.644531 142.875 265.46875 143.222656 266.050781 C 143.878906 266.804688 143.40625 266.898438 145.175781 268.058594 C 145.722656 268.328125 145.996094 268.535156 146.789062 268.164062 C 146.753906 267.8125 146.660156 267.574219 146.535156 267.382812 C 146.507812 267.34375 145.15625 266.179688 145.105469 266.128906 " fill-opacity="1" fill-rule="nonzero"/><path fill="#32a7ca" d="M 152.382812 269.792969 C 151.859375 269.359375 151.507812 268.644531 150.898438 268.28125 C 150.609375 268.078125 150.40625 267.785156 150.171875 267.523438 C 148.949219 266.128906 149.960938 267.527344 148.980469 265.796875 C 148.824219 265.484375 148.570312 265.226562 148.472656 264.882812 C 148.472656 264.78125 148.488281 264.675781 148.445312 264.597656 C 148.445312 264.597656 148.40625 264.574219 148.113281 263.898438 C 147.765625 262.886719 147.152344 262.875 147.144531 262.050781 C 147.121094 261.464844 147.21875 261.601562 146.984375 261.011719 C 146.34375 259.519531 146.746094 260.316406 146.496094 258.996094 C 146.496094 258.972656 146.367188 257.460938 146.351562 257.4375 C 146.152344 257.265625 145.957031 257.085938 145.617188 256.886719 C 144.222656 257.730469 144.949219 257.964844 145.105469 260.460938 C 145.273438 263.136719 146.367188 263.113281 146.582031 264.644531 C 146.660156 265.027344 146.753906 265.417969 146.859375 265.800781 C 146.859375 265.800781 147.710938 266.988281 148.203125 267.703125 C 148.300781 267.871094 148.511719 267.949219 148.601562 268.125 C 148.96875 268.726562 148.5 268.414062 149.390625 268.972656 C 151.042969 269.984375 150.554688 270.671875 152.503906 271.570312 C 152.992188 271.734375 153.210938 271.890625 153.914062 271.394531 C 153.820312 270.4375 153.363281 270.558594 152.382812 269.792969 " fill-opacity="1" fill-rule="nonzero"/><path fill="#32a7ca" d="M 152.21875 265.539062 C 152.148438 265.351562 151.789062 264.269531 151.753906 264.195312 C 151.589844 263.527344 150.65625 263.285156 150.722656 260.640625 C 147.917969 262.78125 151.980469 270.972656 156.914062 270.050781 C 156.050781 269.28125 155.328125 268.71875 154.617188 268.101562 C 153.398438 267.019531 153.023438 266.992188 152.21875 265.539062 " fill-opacity="1" fill-rule="nonzero"/><path fill="#32a7ca" d="M 159.417969 265.8125 C 158.53125 263.675781 158.304688 264.625 157.890625 262.507812 C 156.292969 264.140625 159.308594 269.445312 162.628906 269.160156 C 161.179688 267.328125 160.226562 267.136719 159.417969 265.8125 " fill-opacity="1" fill-rule="nonzero"/><path fill="#32a7ca" d="M 165.875 266.609375 C 165.121094 266.152344 164.550781 266.335938 163.648438 265.519531 C 162.796875 264.769531 162.765625 265.511719 161.558594 264.167969 C 161.414062 264.519531 161.394531 264.929688 161.5625 265.277344 C 161.636719 265.429688 161.777344 265.519531 161.898438 265.621094 C 162.019531 265.722656 162.109375 265.863281 162.21875 265.976562 C 163.574219 267.613281 166.382812 267.910156 167.050781 268.070312 C 166.980469 267.445312 166.421875 266.917969 165.875 266.609375 " fill-opacity="1" fill-rule="nonzero"/><path fill="#32a7ca" d="M 169.09375 263.589844 C 168.425781 263.457031 168.101562 263.785156 167.417969 263.222656 C 167.277344 263.089844 167.148438 262.972656 166.882812 262.988281 C 166.378906 262.960938 166.066406 262.625 165.71875 262.332031 C 165.535156 262.726562 165.535156 263.039062 165.636719 263.285156 C 165.703125 263.402344 165.816406 263.472656 165.910156 263.550781 C 166.003906 263.636719 166.089844 263.742188 166.171875 263.84375 C 166.726562 264.550781 168.328125 265.191406 169.71875 264.621094 C 169.890625 264.535156 170.191406 264.367188 170.363281 264.378906 C 170.386719 263.960938 169.515625 263.652344 169.09375 263.589844 " fill-opacity="1" fill-rule="nonzero"/><path fill="#32a7ca" d="M 108.269531 233.285156 C 108.171875 228.660156 109.234375 227.367188 114.554688 218.3125 C 113.261719 218.863281 112.066406 219.667969 111.179688 220.734375 C 110.5625 221.945312 109.574219 222.835938 108.863281 224.191406 C 107.710938 226.179688 107.777344 228.578125 107.066406 230.144531 C 106.78125 230.941406 106.605469 231.242188 106.597656 232.183594 C 106.628906 232.796875 106.9375 233.730469 106.929688 234.265625 C 107 235.058594 106.664062 235.667969 106.664062 236.359375 C 106.785156 238.519531 107.847656 240.539062 108.324219 242.363281 C 108.96875 244.433594 110.050781 246.5625 112.171875 247.167969 C 110.507812 244.527344 108.464844 238.292969 108.28125 236.179688 C 108.226562 235.375 108.410156 234.6875 108.269531 233.285156 " fill-opacity="1" fill-rule="nonzero"/><path fill="#32a7ca" d="M 115.605469 249.367188 C 113.988281 244.65625 114.800781 246.230469 114.441406 244.585938 C 114.328125 243.914062 113.625 241.957031 113.910156 239.730469 C 114.070312 238.496094 114.402344 237.242188 114.578125 235.753906 C 114.898438 233.753906 114.886719 234.089844 115.128906 233.421875 C 115.34375 232.371094 115.5 231.269531 115.714844 230.097656 C 114.761719 230.828125 113.964844 231.777344 113.527344 232.863281 C 113.382812 233.988281 112.773438 234.96875 112.539062 236.230469 C 112.097656 238.085938 112.816406 239.996094 112.472656 241.441406 C 112.367188 242.132812 112.261719 242.4375 112.429688 243.183594 C 112.558594 243.667969 113.003906 244.34375 113.078125 244.824219 C 113.242188 245.371094 112.976562 246.007812 113.03125 246.589844 C 113.191406 247.730469 113.714844 248.78125 114.105469 249.84375 C 114.839844 251.765625 114.886719 254.671875 117.28125 255.855469 C 117.078125 255.125 116.90625 254.378906 116.738281 253.636719 C 116.410156 252.183594 116.097656 250.734375 115.605469 249.367188 " fill-opacity="1" fill-rule="nonzero"/><path fill="#32a7ca" d="M 123.144531 253.007812 C 123.035156 253.34375 122.941406 253.6875 123.074219 254 C 123.21875 254.308594 123.585938 254.566406 123.65625 254.875 C 123.792969 255.164062 123.507812 255.570312 123.507812 255.914062 C 123.6875 256.753906 124.019531 257.011719 124.363281 257.679688 C 124.972656 258.5 124.457031 259.191406 125.820312 260.210938 C 126.074219 260.429688 126.507812 260.507812 127.058594 260.433594 C 126.367188 259.089844 126.648438 258.675781 125.382812 256.257812 C 124.757812 254.984375 125.246094 255.234375 125 254.566406 C 124.949219 254.285156 124.792969 254.019531 124.699219 253.742188 C 124.164062 251.757812 124.933594 251.859375 124.945312 249.4375 C 125.089844 248.066406 125.179688 248.945312 125.089844 248.148438 C 125.027344 247.699219 124.949219 247.066406 124.839844 246.644531 C 124.210938 247.042969 123.664062 247.558594 123.453125 248.175781 C 123.558594 248.539062 123.378906 248.824219 123.269531 249.136719 C 122.679688 250.816406 122.984375 250.816406 123.1875 252.039062 C 123.246094 252.359375 123.292969 252.671875 123.144531 253.007812 " fill-opacity="1" fill-rule="nonzero"/><path fill="#32a7ca" d="M 131.828125 251.058594 C 131.417969 251.441406 131.234375 251.871094 131.148438 252.300781 C 131.125 252.511719 131.167969 252.726562 131.1875 252.9375 C 131.292969 253.605469 130.976562 253.910156 131.597656 256.125 C 132.085938 257.785156 132.878906 259.445312 134.355469 260.378906 C 133.984375 257.507812 132.785156 256.992188 132.585938 254.628906 C 132.5 253.136719 131.90625 253.554688 131.828125 251.058594 " fill-opacity="1" fill-rule="nonzero"/><path fill="#32a7ca" d="M 90.90625 209.664062 C 90.242188 211.949219 89.546875 212.839844 90.671875 221.238281 C 91.191406 220.070312 91.546875 218.5 91.550781 216.375 C 91.941406 208.710938 96.941406 199.441406 98.207031 196.75 C 93.234375 200.214844 91.992188 206.050781 90.90625 209.664062 " fill-opacity="1" fill-rule="nonzero"/><path fill="#32a7ca" d="M 111.335938 193.324219 C 109.433594 194.460938 107.847656 195.828125 103.222656 200.050781 C 102.613281 200.6875 102.113281 201.417969 101.433594 202 C 100.191406 203.257812 98.996094 204.605469 98.304688 206.265625 C 97.84375 208.042969 96.234375 209.144531 95.632812 210.84375 C 94.953125 213.417969 93.808594 214.746094 92.882812 218.992188 C 92.863281 219.214844 92.730469 219.410156 92.777344 219.648438 C 92.933594 220.136719 93.085938 220.617188 93.429688 221.128906 C 93.902344 220.78125 94.257812 220.429688 94.617188 220.082031 C 94.917969 219.796875 95.675781 216.886719 95.742188 216.476562 C 96.019531 215.007812 97.046875 213.472656 97.859375 211.921875 C 98.480469 210.859375 98.320312 210.945312 99.988281 207.34375 C 100.921875 205.664062 101.660156 205.222656 103.347656 203.570312 C 105.03125 201.667969 103.527344 202.984375 106.683594 199.835938 C 107.023438 199.589844 107.226562 199.195312 107.578125 198.953125 C 108.46875 198.277344 107.789062 199.125 109.453125 197.289062 C 111.242188 195.28125 113.136719 194.753906 115.777344 193.242188 C 115.921875 193.152344 117.722656 192.003906 117.878906 191.839844 C 118.1875 191.5 118.464844 191.078125 118.664062 190.445312 C 116.59375 189.867188 115.242188 191.636719 111.335938 193.324219 " fill-opacity="1" fill-rule="nonzero"/><path fill="#32a7ca" d="M 94.023438 146.039062 C 91.410156 148.921875 91.046875 148.644531 88.253906 153.972656 C 85.792969 159.277344 85.722656 158.800781 84.140625 164.417969 C 83.234375 168.808594 82.84375 169.992188 84 172.808594 C 85.503906 169.78125 85.488281 168.640625 85.664062 167.550781 C 87.269531 160.859375 87.070312 159.898438 91.652344 152.808594 C 99.210938 142.078125 99.9375 142.121094 109.589844 137.488281 C 112.921875 136.105469 111.503906 136.640625 114.585938 135.6875 C 115.257812 135.535156 118.890625 134.695312 119.804688 134.601562 C 128.398438 134.160156 128.511719 132.992188 140.753906 137.199219 C 145.382812 139.085938 146.433594 139.695312 148.515625 139.832031 C 145.363281 135.65625 133.335938 132.195312 127.921875 132.152344 C 119.09375 132.148438 122.085938 132.367188 116.765625 133.019531 C 102 135.902344 97.433594 142.304688 94.023438 146.039062 " fill-opacity="1" fill-rule="nonzero"/><path fill="#32a7ca" d="M 198.429688 171.804688 C 201.523438 179.589844 201.328125 179.234375 202.179688 185.507812 C 202.804688 189.675781 202.496094 190.347656 202.003906 192.628906 C 201.644531 194.53125 202.046875 195.617188 201.839844 196.964844 C 201.742188 197.933594 201.195312 198.8125 200.933594 199.746094 C 200.320312 202.425781 199.519531 208.003906 199.671875 210.144531 C 199.992188 212.875 201.699219 215.90625 204.40625 215.933594 C 204.136719 215.394531 203.855469 215.0625 203.488281 214.792969 C 203.292969 214.675781 203.046875 214.59375 202.867188 214.441406 C 199.179688 211.460938 203.058594 198.640625 203.296875 196.398438 C 204.113281 188.601562 205.421875 178.121094 198.429688 171.804688 " fill-opacity="1" fill-rule="nonzero"/><path fill="#32a7ca" d="M 206.425781 186.480469 C 205.921875 196.871094 204.921875 194.570312 202.605469 203.742188 C 202.074219 205.847656 200.804688 209.207031 204.214844 211.558594 C 203.402344 210.367188 203.136719 209.25 203.429688 207.699219 C 204.445312 201.929688 205 203.382812 206.191406 198.152344 C 208.148438 187.726562 208.117188 192.503906 207.816406 187.152344 C 207.675781 184.605469 208.703125 184.667969 208.085938 180.660156 C 207.84375 178.816406 207.394531 176.46875 207.253906 174.84375 C 207.09375 172.242188 206.117188 168.445312 204.296875 166.578125 C 205.160156 170.363281 205.535156 174.199219 206.082031 177.953125 C 206.996094 184.078125 206.476562 184.453125 206.425781 186.480469 " fill-opacity="1" fill-rule="nonzero"/><path fill="#32a7ca" d="M 216.886719 176.308594 C 217.179688 177.980469 216.933594 182.324219 217.09375 184.390625 C 217.511719 190.117188 216.316406 190.703125 216.15625 193.15625 C 216.074219 194.132812 216.183594 195.160156 215.980469 196.125 C 215.820312 197.105469 215.210938 197.972656 214.875 198.886719 C 213.175781 204.164062 213.699219 204.960938 208.667969 211.859375 C 208.054688 212.570312 207.578125 213.394531 206.96875 214.316406 C 207.566406 214.351562 208.09375 214.148438 208.457031 213.777344 C 212.503906 209.042969 213.429688 209.480469 216.441406 199.320312 C 217.292969 196.5625 217.199219 197.679688 217.785156 193.4375 C 218.964844 184.394531 219.074219 183.425781 218.960938 180.988281 C 222.152344 175.234375 222.546875 172.117188 223.105469 169.441406 C 223.335938 167.859375 224.179688 163.3125 224.179688 163.300781 C 224.304688 161.589844 224.253906 158.996094 224.292969 157.070312 C 224.203125 153.074219 224.988281 144.601562 219.707031 136.019531 C 220.078125 139.121094 221.386719 144.050781 221.582031 145.019531 C 223.027344 156.425781 223.273438 153.429688 222.675781 158.585938 C 222.472656 160.339844 222.890625 161.855469 222.804688 163.160156 C 222.734375 164.179688 222.222656 165.136719 222.019531 166.121094 C 221.234375 169.125 221.714844 171.191406 219.417969 176.375 C 219.136719 177.113281 218.921875 177.652344 218.71875 178.191406 C 218.367188 175.277344 218.226562 173.3125 216.339844 169.628906 C 216.433594 171.488281 216.492188 173.285156 216.65625 175.058594 C 216.753906 176.066406 216.746094 175.625 216.886719 176.308594 " fill-opacity="1" fill-rule="nonzero"/><path fill="#32a7ca" d="M 186.1875 153.203125 C 187.722656 156.183594 188.09375 155.515625 188.941406 156.871094 C 189.386719 157.503906 189.429688 158.363281 189.722656 159.070312 C 190.371094 160.449219 191.203125 161.75 191.878906 163.136719 C 192.984375 165.410156 193.476562 169.464844 196.042969 171.496094 C 193.742188 162.542969 194.164062 164.21875 191.15625 158.300781 C 189.621094 155.378906 191.765625 158.160156 185.808594 150.472656 C 183.75 147.800781 182.585938 146.898438 180.496094 145.617188 C 178.410156 144.445312 176.972656 143.484375 173.636719 143.515625 C 180.035156 147.234375 178.828125 146.441406 180.433594 147.765625 C 183.003906 150.078125 185.09375 151.148438 186.1875 153.203125 " fill-opacity="1" fill-rule="nonzero"/><path fill="#32a7ca" d="M 196.449219 146.398438 C 197.3125 147.050781 197.519531 148.121094 198.382812 149.402344 C 198.753906 149.953125 199.167969 150.386719 199.707031 151.175781 C 200.359375 152.324219 200.160156 152.484375 200.308594 153.28125 C 200.476562 154.191406 201.167969 154.53125 201.402344 155.199219 C 201.589844 155.652344 201.34375 156.222656 201.390625 156.703125 C 201.554688 158.058594 202.316406 159.425781 202.148438 160.945312 C 202.035156 161.832031 201.925781 162.351562 202.210938 163.828125 C 202.226562 164.308594 202.480469 164.808594 202.910156 165.359375 C 204.175781 160.8125 203.71875 159.734375 203.324219 157.808594 C 202.941406 156.46875 202.730469 154.816406 202.726562 154.800781 C 202.640625 154.53125 201.695312 152.480469 201.5 151.992188 C 200.824219 150.480469 199.691406 145.507812 195.0625 143.683594 C 195.183594 144.035156 196.136719 146.199219 196.449219 146.398438 " fill-opacity="1" fill-rule="nonzero"/><path fill="#32a7ca" d="M 209.820312 149.964844 C 209.238281 148.582031 208.875 147.027344 207.765625 145.914062 C 206.71875 144.789062 205.738281 143.660156 204.585938 142.707031 C 205.578125 146.117188 208.605469 145.648438 210.492188 158.882812 C 211.902344 155.25 210.484375 151.777344 209.820312 149.964844 " fill-opacity="1" fill-rule="nonzero"/><path fill="#32a7ca" d="M 215.84375 144.578125 C 216.984375 142.527344 215.8125 140.296875 215.535156 139.558594 C 214.484375 137.160156 215.832031 138.675781 212.550781 135.507812 C 212.511719 136.796875 213.054688 137.035156 213.445312 137.835938 C 215.332031 142.289062 215.003906 142.390625 215.84375 144.578125 " fill-opacity="1" fill-rule="nonzero"/><path fill="#32a7ca" d="M 105.855469 132.964844 C 97.710938 134.746094 92.753906 140.699219 87.722656 147.277344 C 85.664062 150.234375 85.808594 150.617188 84.003906 155.894531 C 83.234375 158.648438 83.488281 157.617188 82.878906 160.402344 C 86.6875 155.207031 86.257812 146.011719 105.855469 132.964844 " fill-opacity="1" fill-rule="nonzero"/><path fill="#32a7ca" d="M 104.652344 125.945312 C 98.824219 127.351562 95.175781 130.828125 93.117188 132.609375 C 91.722656 133.886719 89.808594 135.375 88.957031 136.84375 C 88.597656 137.515625 86.761719 141.363281 86.246094 143.925781 C 88.570312 141.457031 88.378906 140.582031 89.945312 138.589844 C 95.664062 131.699219 100.109375 130.226562 104.652344 125.945312 " fill-opacity="1" fill-rule="nonzero"/><path fill="#32a7ca" d="M 95.394531 125.125 C 101.414062 120.195312 101.734375 120.703125 105.101562 118.316406 C 101.386719 117.613281 98.5 120.269531 97.308594 121.15625 C 94.09375 123.699219 95.578125 121.476562 92.15625 127.65625 C 94.214844 127.046875 94.300781 126.042969 95.394531 125.125 " fill-opacity="1" fill-rule="nonzero"/><path fill="#32a7ca" d="M 118.527344 103.304688 C 114.296875 103.398438 110.949219 105.78125 109.382812 106.734375 C 106.113281 108.921875 107.332031 107.519531 104.304688 110.785156 C 103.550781 111.59375 102.800781 112.394531 102.113281 113.246094 C 103.921875 112.59375 104.515625 111.539062 107.324219 109.566406 C 111.851562 106.386719 115.625 104.859375 118.527344 103.304688 " fill-opacity="1" fill-rule="nonzero"/><path fill="#32a7ca" d="M 215.238281 101.128906 C 223.828125 108.675781 221.289062 106.125 225.765625 114.640625 C 228.523438 120.089844 228.421875 121.816406 229.824219 125.53125 C 232.066406 131.839844 230.976562 139.851562 233.640625 142.855469 C 234.339844 141.226562 234.070312 139.820312 233.984375 138.835938 C 232.6875 126.957031 233.097656 129.039062 229.4375 117.34375 C 225.609375 106.800781 222.167969 104.835938 221.050781 103.585938 C 217.628906 100.082031 220.003906 101.015625 211.558594 95.945312 C 208.625 94.308594 204.507812 93.164062 203.84375 93.179688 C 203.113281 93.316406 202.398438 93.460938 201.6875 93.796875 C 203.71875 95.449219 204.386719 95.421875 205.257812 95.664062 C 209.710938 97.332031 210.097656 96.839844 215.238281 101.128906 " fill-opacity="1" fill-rule="nonzero"/><path fill="#32a7ca" d="M 231.964844 174.089844 C 236.628906 166.476562 236.367188 163.046875 237.332031 157.105469 C 237.867188 153.785156 237.472656 151.847656 237.84375 147.464844 C 238.441406 139.667969 237.84375 140.496094 237.875 136.472656 C 237.660156 134.632812 237.070312 132.644531 235.824219 131.21875 C 236.289062 133.046875 236.148438 134.773438 236.183594 136.550781 C 236.574219 138.160156 235.941406 140.308594 236.257812 144.722656 C 236.371094 146.144531 236.664062 148.667969 236.304688 150.164062 C 235.570312 153.90625 236.34375 153.644531 236.179688 155.601562 C 236.175781 156.515625 235.667969 157.378906 235.492188 158.253906 C 235.191406 160.023438 235.078125 161.824219 234.746094 163.597656 C 234.394531 165.941406 233.414062 167.15625 232.339844 171.28125 C 232.058594 172.132812 231.917969 173.046875 231.964844 174.089844 " fill-opacity="1" fill-rule="nonzero"/><path fill="#32a7ca" d="M 283.496094 175.152344 C 283.03125 175.800781 282.1875 175.949219 281.648438 176.636719 C 281.070312 177.300781 280.308594 177.699219 279.597656 178.175781 C 280.503906 178.433594 281.023438 178.238281 281.601562 177.882812 C 282.273438 177.46875 284.941406 176.710938 285.644531 173.445312 C 285.828125 172.574219 285.925781 171.714844 285.808594 170.800781 C 284.4375 172.339844 284.21875 174.261719 283.496094 175.152344 " fill-opacity="1" fill-rule="nonzero"/><path fill="#32a7ca" d="M 269.640625 176.128906 C 268.867188 177.261719 267.761719 178.105469 266.609375 178.851562 C 270.070312 178.890625 276.367188 171.628906 275.0625 165.53125 C 274.3125 167.636719 273.171875 171.382812 272.148438 173.019531 C 271.480469 174.203125 270.371094 174.988281 269.640625 176.128906 " fill-opacity="1" fill-rule="nonzero"/><path fill="#32a7ca" d="M 249.90625 177.082031 C 247.027344 179.507812 244.980469 181.171875 241.234375 181.585938 C 246.269531 182.976562 255.621094 176.84375 259.019531 163.273438 C 255.8125 168.03125 254.203125 173.539062 249.90625 177.082031 " fill-opacity="1" fill-rule="nonzero"/><path fill="#32a7ca" d="M 237.488281 176.855469 C 241.222656 172.628906 241.375 171.796875 242.390625 169.226562 C 242.917969 167.640625 243.785156 165.894531 243.796875 165.855469 C 243.796875 165.855469 244.324219 163.179688 245.691406 158.789062 C 246.152344 156.875 246.085938 156.671875 246.191406 155.160156 C 246.238281 153.746094 246.535156 152.46875 245.519531 149.6875 C 245.335938 150.136719 244.519531 152.761719 244.609375 153.230469 C 244.777344 154.425781 244.285156 155.570312 244.125 156.726562 C 243.859375 157.964844 243.945312 158.816406 243.796875 160.257812 C 243.542969 161.839844 243.292969 161.847656 242.878906 162.761719 C 242.417969 163.769531 242.722656 164.628906 242.488281 165.414062 C 242.34375 165.996094 241.785156 166.421875 241.515625 166.945312 C 240.796875 168.410156 240.519531 170.351562 239.457031 171.816406 C 238.390625 173.285156 237.328125 175.050781 237.488281 176.855469 " fill-opacity="1" fill-rule="nonzero"/><path fill="#32a7ca" d="M 211.667969 186.871094 C 211.203125 199.835938 208.148438 196.808594 206.402344 204.859375 C 205.976562 206.957031 205.625 208.378906 206.359375 211.363281 C 206.863281 209.96875 207.335938 208.640625 207.640625 207.304688 C 207.554688 206.234375 208.367188 204.566406 208.792969 203.351562 C 209.300781 202.082031 209.574219 200.71875 210.089844 199.425781 C 211.25 196.667969 212.125 197.398438 212.316406 194.449219 C 212.273438 192.378906 212.796875 192.4375 213.058594 191.246094 C 213.421875 189.089844 213.066406 186.9375 213.390625 184.816406 C 213.664062 182.761719 213.816406 180.003906 212.347656 178.441406 C 212.039062 178.847656 211.972656 179.183594 212.023438 179.527344 C 212.070312 179.699219 212.207031 179.863281 212.25 180.039062 C 212.351562 180.523438 212.074219 182.179688 212.027344 182.671875 C 211.878906 184.074219 211.691406 185.46875 211.667969 186.871094 " fill-opacity="1" fill-rule="nonzero"/></svg>