<svg xmlns="http://www.w3.org/2000/svg" xmlns:xlink="http://www.w3.org/1999/xlink" width="500" zoomAndPan="magnify" viewBox="0 0 375 374.999991" height="500" preserveAspectRatio="xMidYMid meet" version="1.0"><path fill="#32a7ca" d="M 125.457031 185.972656 C 125.6875 184.867188 126.113281 183.859375 126.5625 182.910156 C 127.042969 181.96875 127.628906 181.121094 128.265625 180.351562 C 128.929688 179.605469 129.613281 178.90625 130.378906 178.328125 C 131.863281 177.136719 133.480469 176.277344 135.054688 175.617188 C 140.808594 173.234375 148.910156 172.050781 159.007812 174.28125 C 175.953125 178.03125 177.535156 188.152344 177.589844 188.414062 C 177.890625 189.871094 177.847656 191.488281 177.28125 193.105469 C 176.730469 194.71875 175.703125 196.363281 174.296875 197.804688 C 171.476562 200.71875 167.039062 202.789062 161.785156 204.023438 C 156.535156 205.246094 150.371094 205.601562 143.785156 204.222656 C 137.261719 202.800781 131.40625 200.160156 128.082031 196.027344 C 126.445312 193.988281 125.4375 191.601562 125.21875 189.304688 C 125.101562 188.148438 125.179688 187.042969 125.457031 185.972656 Z M 123.292969 185.050781 C 122.910156 186.277344 122.726562 187.710938 122.792969 189.109375 C 122.941406 191.925781 123.988281 194.785156 125.824219 197.25 C 127.664062 199.726562 130.226562 201.726562 133.128906 203.257812 C 134.578125 204.023438 136.109375 204.691406 137.714844 205.25 C 139.3125 205.832031 140.988281 206.308594 142.726562 206.699219 C 145.980469 207.429688 149.167969 207.742188 152.199219 207.722656 C 155.234375 207.71875 158.117188 207.398438 160.804688 206.824219 C 166.140625 205.667969 170.875 203.777344 174.355469 200.800781 C 176.089844 199.324219 177.449219 197.585938 178.359375 195.765625 C 179.289062 193.949219 179.722656 191.96875 179.628906 190.152344 C 179.554688 188.320312 178.972656 186.699219 178.265625 185.34375 C 177.539062 183.988281 176.667969 182.878906 175.792969 181.933594 C 164.539062 169.914062 142.597656 171.03125 134.613281 173.84375 C 132.910156 174.46875 131.105469 175.289062 129.371094 176.53125 C 127.648438 177.769531 125.96875 179.417969 124.757812 181.566406 C 124.425781 182.082031 124.191406 182.667969 123.921875 183.238281 C 123.703125 183.828125 123.449219 184.421875 123.292969 185.050781 " fill-opacity="1" fill-rule="nonzero"/><path fill="#32a7ca" d="M 108.21875 146.652344 C 120.042969 156.464844 114.203125 172.730469 85.734375 170.25 C 82.566406 169.972656 79.636719 169.414062 76.953125 168.472656 C 70.953125 166.425781 68.378906 164 66.386719 160.941406 C 66.183594 160.441406 65.894531 159.972656 65.785156 159.457031 C 61.367188 143.601562 95.296875 136.359375 108.21875 146.652344 Z M 65.082031 163.503906 C 67.460938 166.988281 71.722656 169.355469 75.671875 170.804688 C 78.535156 171.847656 81.714844 172.527344 85.003906 172.839844 C 115.382812 175.703125 122.917969 156.972656 110.253906 146.597656 C 94.609375 133.738281 52.121094 143.746094 65.082031 163.503906 " fill-opacity="1" fill-rule="nonzero"/><path fill="#32a7ca" d="M 326.980469 202.761719 C 322.988281 207.171875 317.980469 211.246094 312.199219 214.953125 C 271.449219 241.113281 192.890625 244.703125 145.480469 239.914062 C 145.292969 239.742188 145.402344 239.84375 145.203125 239.691406 C 155.058594 240.527344 164.070312 238.421875 173.035156 234.621094 C 173.839844 236.761719 176.15625 238.558594 178.238281 239.5625 C 178.425781 239.652344 181.734375 237.824219 182.296875 237.660156 C 183.804688 237.210938 185.371094 237.003906 186.933594 236.925781 C 190.125 236.769531 193.3125 237.167969 196.5 237.285156 C 199.617188 237.402344 202.816406 237.265625 205.734375 236.050781 C 207.96875 235.128906 210.046875 233.867188 212.285156 232.925781 C 217.054688 230.917969 222.527344 228.945312 227.761719 228.828125 C 232.246094 228.726562 236.183594 229.84375 240.4375 230.789062 C 244.433594 231.679688 249.417969 230.433594 253.078125 228.824219 C 258.742188 226.335938 263.105469 221.796875 268.511719 218.867188 C 274.3125 215.730469 280.257812 215.742188 286.515625 215.558594 C 293.300781 215.992188 300.5 215.667969 305.179688 210.035156 C 306.320312 208.660156 307.214844 207.167969 307.980469 205.605469 C 309.710938 203.128906 310.925781 200.234375 311.441406 196.992188 C 311.714844 195.269531 313.117188 193.148438 314.050781 191.695312 C 314.964844 190.28125 316.0625 189.011719 317.375 187.964844 C 318.8125 186.816406 320.417969 186.105469 322.011719 185.234375 C 323.597656 184.359375 325.339844 183.804688 326.898438 182.875 C 327.9375 182.253906 329.84375 181.320312 330.355469 180.164062 C 330.683594 179.414062 330.273438 178.96875 329.972656 178.207031 C 329.488281 176.984375 328.867188 175.820312 328.128906 174.734375 C 325.039062 176.675781 321.976562 178.75 318.492188 179.929688 C 317.917969 180.125 317.339844 180.289062 316.757812 180.441406 C 320.011719 178.082031 321.582031 175.222656 322.074219 173.246094 C 321.753906 173.070312 321.066406 172.636719 320.460938 172.246094 C 320.488281 172.210938 320.523438 172.183594 320.535156 172.140625 C 320.453125 172.070312 320.371094 172.007812 320.296875 171.945312 C 319.699219 171.464844 319.085938 170.9375 318.480469 170.390625 C 312.0625 170.492188 308.179688 164.476562 302.789062 161.511719 C 304.640625 161.902344 306.5 162.199219 308.351562 162.382812 C 308.503906 162.183594 308.710938 162.074219 308.925781 161.960938 C 308.933594 161.878906 310.347656 152.042969 309.519531 150.269531 C 309.453125 150.125 309.46875 149.984375 309.527344 149.867188 C 309.5 149.871094 309.46875 149.871094 309.441406 149.882812 C 308.933594 149.425781 308.417969 148.984375 307.898438 148.546875 C 312.949219 151.152344 317.648438 153.984375 322 158.0625 C 326.199219 161.996094 329.425781 166.492188 332.378906 171.269531 C 332.984375 172.566406 333.511719 173.863281 333.953125 175.152344 C 337.910156 186.851562 335.003906 193.828125 326.980469 202.761719 Z M 29.605469 194.960938 C 61.699219 245.683594 240.824219 270.730469 327.574219 207.320312 C 276.851562 263.1875 65.433594 262.222656 29.605469 194.960938 Z M 29.113281 172.5625 C 27.371094 185.882812 35.292969 197.324219 56.246094 198.585938 C 63.914062 199.046875 72.105469 199.578125 79.390625 202.253906 C 80.964844 202.832031 82.578125 203.519531 83.902344 204.574219 C 86.230469 206.425781 86.328125 208.699219 86.132812 211.464844 C 85.894531 214.894531 86.394531 217.648438 88.949219 220.179688 C 93.085938 224.28125 99.589844 224.792969 104.949219 226.058594 C 109.515625 227.136719 120.964844 230.238281 124.957031 232.699219 C 132.382812 237.269531 134.339844 236.730469 140.089844 239.332031 C 72.285156 231.492188 15.347656 201.207031 29.113281 172.5625 Z M 38.4375 158.734375 C 39.640625 157.390625 40.914062 156.160156 42.214844 155.023438 C 44.847656 152.78125 47.589844 150.921875 50.292969 149.328125 C 52.996094 147.722656 55.65625 146.371094 58.203125 145.144531 C 69.6875 139.628906 88.472656 132.214844 101.222656 132.710938 C 100.097656 132.667969 102.0625 136.28125 102.328125 136.542969 C 103.582031 137.773438 105.285156 137.792969 106.859375 138.179688 C 111.339844 139.28125 115.867188 140.410156 120.386719 141.449219 C 127.035156 142.980469 133.707031 144.40625 140.394531 145.757812 C 142.902344 146.265625 145.417969 146.742188 147.933594 147.222656 C 148.03125 147.269531 148.128906 147.316406 148.226562 147.363281 C 148.554688 147.570312 148.882812 147.769531 149.203125 147.980469 C 155.597656 152.179688 159.023438 154.6875 164.824219 160.023438 C 107.140625 159.957031 108.101562 174.230469 106.925781 178.210938 C 104.488281 186.382812 105.046875 183.25 94.398438 195.074219 C 92.027344 197.667969 89.613281 200.800781 88.15625 203.992188 C 70.71875 191.738281 66.183594 197.300781 50.402344 194.828125 C 28.734375 191.277344 26.734375 172.09375 38.4375 158.734375 Z M 104.238281 128.4375 C 117.199219 129.820312 130.257812 133.261719 143.175781 135.316406 C 156.234375 137.390625 169.316406 139.304688 182.386719 141.316406 C 208.726562 145.371094 235.105469 149.207031 261.503906 152.863281 C 261.601562 152.878906 261.683594 152.863281 261.765625 152.851562 C 261.777344 154.152344 261.921875 155.460938 261.925781 156.761719 C 261.925781 157.261719 261.886719 157.765625 261.851562 158.277344 C 259.007812 157.746094 256.027344 157.785156 253.113281 157.71875 C 147.902344 149.835938 104.140625 135.195312 103.757812 134.613281 C 102.640625 132.925781 104.066406 130.359375 104.238281 128.4375 Z M 159.460938 117.527344 C 159.296875 118.351562 159.363281 119.257812 159.753906 119.878906 C 159.421875 120.589844 172.957031 124.816406 184.082031 128.179688 C 195.71875 132.785156 207.964844 136.230469 219.832031 139.976562 C 226.933594 142.21875 234.058594 144.394531 241.179688 146.570312 C 244.363281 147.542969 247.542969 148.503906 250.730469 149.464844 C 227.652344 146.308594 205.78125 143.457031 182.417969 139.851562 C 156.664062 135.878906 132.152344 130.921875 106.332031 127.4375 C 123.566406 125 140.832031 121.441406 159.460938 117.527344 Z M 291.09375 168.761719 C 287.988281 169.164062 285.007812 170.164062 281.96875 170.890625 C 277.429688 171.976562 273.515625 171.488281 269.027344 170.511719 C 269.011719 170.503906 268.992188 170.511719 268.976562 170.507812 C 268.125 170.246094 267.269531 169.972656 266.417969 169.695312 C 258.667969 167.222656 251.25 165.214844 245.449219 170.921875 C 243.292969 173.035156 243.054688 175.59375 241.644531 178.167969 C 237.679688 185.382812 228.769531 177.8125 225.929688 187.621094 C 223.902344 184.164062 222.039062 182.011719 227.308594 179.125 C 230.785156 177.222656 235.332031 178.882812 238.820312 176.921875 C 243.09375 174.515625 240.699219 168.171875 244.597656 165.074219 C 251.476562 159.609375 272.128906 177.632812 289.128906 164.277344 C 294.457031 160.089844 298.425781 160.640625 304.230469 164.613281 C 304.769531 164.980469 305.335938 165.410156 305.921875 165.855469 C 301.816406 170.71875 296.65625 168.035156 291.09375 168.761719 Z M 291.179688 171.933594 C 284.390625 172.941406 278.648438 179.007812 271.636719 176.960938 C 271.601562 176.800781 271.566406 176.644531 271.515625 176.484375 C 271.441406 176.246094 271.132812 176.140625 270.953125 176.335938 C 270.859375 176.433594 270.761719 176.527344 270.667969 176.621094 C 270.613281 176.601562 270.558594 176.578125 270.503906 176.554688 C 270.425781 175.578125 270.0625 174.644531 269.398438 173.867188 C 269.304688 173.753906 269.070312 173.714844 268.949219 173.808594 C 268.222656 174.367188 267.699219 175.007812 267.339844 175.796875 C 267.0625 175.421875 266.78125 175.050781 266.46875 174.699219 C 266.261719 174.464844 265.925781 174.617188 265.832031 174.867188 C 265.746094 175.09375 265.65625 175.332031 265.570312 175.566406 C 265.132812 175.460938 264.6875 175.363281 264.246094 175.265625 C 264.21875 175.257812 264.203125 175.238281 264.171875 175.238281 C 264.144531 175.234375 264.117188 175.230469 264.089844 175.230469 C 262.90625 174.96875 261.710938 174.722656 260.507812 174.503906 C 257.441406 173.578125 254.367188 172.207031 251.277344 172.929688 C 250.199219 173.1875 249.375 173.648438 248.738281 174.253906 C 248.527344 174.414062 248.324219 174.597656 248.136719 174.816406 C 247.390625 175.667969 247.097656 176.644531 247.003906 177.660156 C 246.441406 180.28125 246.808594 183.304688 246.585938 185.066406 C 245.800781 187.25 244.15625 188.339844 242.085938 188.828125 C 241.289062 188.855469 240.464844 188.789062 239.671875 188.710938 C 237.527344 188.5 235.289062 187.976562 233.179688 188.6875 C 228.191406 190.363281 228.378906 195.703125 226.625 199.75 C 224.996094 203.523438 221.523438 207.105469 217.21875 207.429688 C 214.457031 207.636719 211.703125 206.386719 209.003906 207.390625 C 206.683594 208.253906 205.539062 210.527344 203.570312 211.855469 C 200.113281 213.164062 196.5 211.195312 192.914062 212.410156 C 192.289062 212.621094 191.703125 212.917969 191.144531 213.253906 C 190.128906 213.714844 188.992188 214.421875 187.683594 215.496094 C 187.515625 215.628906 187.355469 215.742188 187.195312 215.863281 C 184.960938 217.503906 182.144531 217.515625 179.503906 217.242188 C 176.046875 216.882812 172.992188 216.195312 169.789062 217.984375 C 168.625 218.636719 168.039062 219.625 167.199219 220.613281 C 167.054688 220.78125 166.910156 220.945312 166.761719 221.128906 C 166.4375 220.339844 166.179688 219.507812 165.90625 218.640625 C 165.78125 218.261719 165.640625 217.863281 165.476562 217.464844 C 167.695312 215.242188 170.671875 213.816406 173.886719 214.023438 C 176.769531 214.203125 179.425781 216.507812 182.304688 215.125 C 183.78125 214.414062 184.589844 212.867188 185.628906 211.695312 C 188.859375 208.058594 192.449219 210.074219 196.414062 210.945312 C 201.191406 211.992188 203.082031 209.71875 206.132812 206.453125 C 210.636719 201.636719 216.84375 206.28125 222.105469 202.949219 C 231.121094 197.242188 223 184.902344 234.996094 183.289062 C 236.609375 183.070312 238.316406 182.941406 239.691406 181.984375 C 241.671875 180.601562 242.101562 178.742188 243.023438 176.742188 C 245.128906 172.15625 247.902344 169.640625 252.859375 169.25 C 260.5625 168.640625 267.859375 173.097656 276.265625 173.074219 C 277.546875 173.128906 278.832031 173.074219 280.082031 172.902344 C 284.542969 172.292969 288.175781 170.191406 292.78125 170.515625 C 296.167969 170.753906 299.914062 170.96875 302.988281 169.761719 C 304.121094 169.394531 305.144531 168.78125 306 167.824219 C 306.347656 167.480469 306.675781 167.09375 306.976562 166.667969 C 308.6875 168.003906 310.546875 169.457031 312.484375 170.539062 C 305.9375 176.515625 298.65625 170.828125 291.179688 171.933594 Z M 310.335938 176.109375 C 306.957031 177.179688 303.601562 177.003906 300.121094 176.644531 C 296.703125 176.292969 291.441406 175.546875 288.75 178.304688 C 288.269531 178.4375 287.8125 178.628906 287.390625 178.886719 C 287.46875 178.417969 287.390625 177.699219 286.917969 177.710938 C 286.28125 177.730469 285.125 178.273438 284.453125 179.058594 C 284.378906 178.757812 284.246094 178.460938 284.425781 178.171875 C 284.496094 178.058594 284.40625 177.863281 284.257812 177.878906 C 283.753906 177.933594 283.28125 178.367188 282.9375 178.714844 C 282.746094 178.910156 282.582031 179.132812 282.441406 179.367188 C 282.46875 179.058594 282.515625 178.75 282.59375 178.453125 C 282.667969 178.1875 282.351562 177.894531 282.101562 178.070312 C 281.101562 178.789062 280.335938 179.652344 279.871094 180.804688 C 279.589844 181.5 279.605469 182.457031 279.046875 183.019531 C 278.886719 183.179688 278.613281 183.242188 278.441406 183.097656 C 278.113281 182.824219 278.3125 182.128906 278.390625 181.785156 C 278.414062 181.679688 278.714844 180.320312 278.539062 180.394531 C 278.429688 180.4375 278.320312 180.484375 278.210938 180.527344 C 278.203125 179.792969 278.363281 179.058594 277.824219 178.441406 C 277.789062 178.398438 277.714844 178.394531 277.664062 178.421875 C 277.164062 178.699219 276.878906 179.179688 276.617188 179.675781 C 276.515625 179.25 276.40625 178.636719 276.046875 178.882812 C 275.597656 179.1875 275.378906 179.714844 275.171875 180.203125 C 275.082031 180.417969 275.003906 180.636719 274.929688 180.859375 C 274.824219 180.59375 274.703125 180.335938 274.535156 180.074219 C 274.351562 179.785156 273.992188 179.820312 273.800781 180.074219 C 272.984375 181.164062 272.421875 182.371094 272.054688 183.683594 C 271.644531 185.128906 271.542969 186.628906 270.828125 187.96875 C 270.578125 187.71875 270.160156 187.570312 269.882812 187.480469 C 269.421875 187.328125 268.96875 187.289062 268.503906 187.328125 C 268.753906 186.542969 269.355469 185.867188 269.84375 185.242188 C 270.667969 184.195312 271.460938 183.289062 271.796875 181.964844 C 271.847656 181.753906 271.695312 181.601562 271.496094 181.578125 C 271.050781 181.519531 270.675781 181.527344 270.308594 181.605469 C 271.382812 180.601562 271.871094 179.34375 271.796875 177.96875 C 273.71875 178.707031 275.8125 178.667969 277.941406 178.132812 C 282.960938 176.882812 286.605469 173.632812 292.050781 173.6875 C 298.808594 173.757812 308.234375 176.785156 313.695312 171.3125 C 313.730469 171.273438 313.746094 171.234375 313.769531 171.195312 C 314.882812 171.699219 316.007812 172.050781 317.140625 172.15625 C 315.03125 173.722656 313.023438 175.253906 310.335938 176.109375 Z M 313.386719 177.363281 C 309.3125 179.40625 304.757812 179.34375 300.320312 179.519531 C 296.316406 179.675781 292.277344 180.003906 288.882812 181.894531 C 289.167969 181.433594 288.769531 181.257812 288.558594 181.375 C 288.503906 181.402344 288.441406 181.421875 288.378906 181.4375 C 289.117188 180.9375 289.496094 180.011719 289.558594 179.113281 C 292.945312 177.335938 295.789062 177.082031 299.980469 177.691406 C 302.734375 178.09375 305.34375 178.46875 308.136719 178.035156 C 311.378906 177.53125 315.167969 176.113281 317.757812 173.730469 C 316.542969 175.136719 315.261719 176.425781 313.386719 177.363281 Z M 289.195312 201.03125 C 291.238281 199.066406 292.636719 196.542969 294.332031 194.296875 C 296.628906 191.257812 299.335938 189.292969 302.890625 188.121094 C 301.441406 188.839844 299.914062 189.785156 298.460938 191.136719 C 296.84375 192.621094 295.789062 194.304688 294.855469 195.738281 C 293.050781 197.699219 291.25 199.589844 289.195312 201.03125 Z M 312.066406 187.042969 C 310.789062 187.234375 309.527344 187.507812 308.300781 187.882812 C 307.070312 188.175781 305.859375 188.511719 304.695312 188.964844 C 300.789062 190.488281 299.359375 192.921875 297.777344 196.636719 C 297.398438 197.53125 296.957031 198.351562 296.472656 199.097656 C 295.855469 199.921875 295.1875 200.707031 294.414062 201.40625 C 290.527344 204.914062 285.515625 206.105469 280.171875 206.417969 C 279.996094 205.808594 279.703125 205.191406 279.273438 204.714844 C 282.96875 205.953125 286.332031 204.949219 289.386719 202.878906 C 290.476562 202.3125 291.664062 201.511719 292.867188 200.339844 C 293.570312 199.65625 294.226562 198.832031 294.878906 197.933594 C 297.039062 195.570312 299.015625 193.019531 300.828125 190.898438 C 303.136719 189.179688 305.492188 188.238281 307.457031 187.5625 C 309.214844 186.96875 310.714844 186.582031 311.972656 186.28125 C 313.953125 185.957031 315.96875 185.601562 317.902344 185.109375 C 316.074219 186.046875 314.085938 186.585938 312.066406 187.042969 Z M 174.121094 229.378906 C 174.242188 229.046875 174.472656 228.769531 174.757812 228.53125 C 182.460938 225.421875 190.609375 228.894531 198.621094 227.824219 C 202.097656 227.359375 204.84375 225.902344 207.585938 223.769531 C 210.949219 221.152344 213.683594 219.023438 217.628906 217.960938 C 219.476562 217.75 221.371094 217.953125 223.539062 218.597656 C 227.511719 219.773438 232.53125 220.527344 235.972656 217.671875 C 236.230469 217.457031 236.472656 217.234375 236.707031 217 C 238.914062 215.421875 240.730469 213.054688 242.503906 210.808594 C 245.0625 208.078125 247.824219 205.664062 251.664062 204.332031 C 255.492188 203.007812 259.035156 203.007812 262.574219 203.53125 C 263.589844 203.703125 264.605469 203.898438 265.621094 204.097656 C 267.296875 204.457031 268.996094 204.875 270.742188 205.28125 C 271.089844 205.691406 271.46875 206.078125 271.878906 206.410156 C 267.148438 206.234375 262.480469 205.941406 258.390625 206.472656 C 257.484375 206.59375 256.582031 206.75 255.695312 206.9375 C 253.230469 207.320312 250.820312 208.003906 248.789062 209.355469 C 248.285156 209.691406 247.804688 210.0625 247.347656 210.457031 C 246.9375 210.757812 246.527344 211.070312 246.140625 211.414062 C 241.269531 215.65625 238.621094 221.496094 231.1875 221.011719 C 226.527344 220.707031 222.253906 219.800781 217.746094 220.730469 C 216.957031 220.867188 216.214844 221.078125 215.5 221.359375 C 213.8125 221.96875 212.414062 222.941406 211.113281 224.039062 C 210.257812 224.722656 209.421875 225.460938 208.578125 226.214844 C 206.152344 228.382812 203.84375 230.082031 200.902344 230.753906 C 194.945312 231.800781 188.878906 228.191406 182.753906 228.546875 C 180.109375 228.699219 177.433594 229.632812 175.636719 231.460938 C 175.242188 231.832031 174.878906 232.238281 174.546875 232.695312 C 174.136719 231.554688 173.765625 230.355469 174.121094 229.378906 Z M 260.523438 178.789062 C 261.050781 178.710938 261.59375 178.660156 262.152344 178.648438 C 262.046875 179.058594 261.976562 179.472656 261.953125 179.890625 C 261.488281 179.511719 260.980469 179.175781 260.523438 178.789062 Z M 243.871094 204.421875 C 245.398438 202.40625 247.371094 200.480469 249.738281 199.429688 C 252.402344 198.25 255.382812 198.65625 258.132812 199.308594 C 258.167969 199.691406 258.304688 200.097656 258.402344 200.300781 C 258.65625 200.839844 259.085938 201.351562 259.636719 201.539062 C 258.085938 201.589844 256.511719 201.777344 254.953125 202.101562 C 252.859375 202.386719 250.839844 202.921875 248.980469 203.765625 C 248.15625 204.140625 247.375 204.644531 246.636719 205.230469 C 244.5 206.4375 242.585938 207.921875 241.03125 209.621094 C 241.851562 207.785156 242.699219 205.972656 243.871094 204.421875 Z M 233.929688 205.230469 C 233.9375 205.042969 233.941406 204.839844 233.945312 204.636719 C 234.503906 203.058594 235.355469 201.734375 237.246094 200.859375 C 239.730469 199.710938 242.941406 200.265625 245.625 200.054688 C 245.742188 200.046875 245.84375 199.984375 245.917969 199.894531 C 245.964844 199.898438 246.011719 199.898438 246.058594 199.898438 C 245.242188 200.476562 244.460938 201.140625 243.703125 201.902344 C 241.894531 203.726562 240.402344 205.8125 239.21875 208.085938 C 237.757812 210.894531 236.527344 214.710938 233.652344 216.40625 C 228.6875 219.34375 222.226562 215.371094 216.886719 216.847656 C 216.84375 216.855469 216.800781 216.875 216.753906 216.886719 C 209.683594 217.6875 204.523438 225.910156 197.039062 226.371094 C 194.707031 226.511719 192.34375 226.246094 189.988281 225.949219 C 187.65625 225.65625 185.398438 225.09375 183.03125 225.128906 C 180.945312 225.15625 178.898438 226.308594 176.851562 226.078125 C 176.679688 222.476562 184.292969 221.5 186.765625 221.371094 C 191.625 221.117188 196.714844 223.488281 201.550781 222.570312 C 205.625 221.796875 207.945312 218.195312 211.09375 215.886719 C 214.898438 213.101562 219.597656 213.996094 223.992188 214.394531 C 230.46875 214.980469 233.609375 211.390625 233.929688 205.230469 Z M 236.210938 195.488281 C 237.523438 195.121094 238.800781 196.605469 239.992188 197.132812 C 240.25 197.25 240.511719 197.351562 240.777344 197.445312 C 239.933594 197.222656 239.089844 197.007812 238.210938 196.898438 C 236.207031 196.640625 234.609375 197.335938 233.566406 199.023438 C 233.574219 198.972656 233.578125 198.921875 233.585938 198.871094 C 234.320312 197.378906 235.289062 195.746094 236.210938 195.488281 Z M 256.960938 181.722656 C 256.964844 181.769531 256.976562 181.820312 256.980469 181.867188 C 254.257812 181.785156 253.007812 184.558594 252.382812 186.914062 C 251.625 189.738281 251.4375 192.4375 249.09375 194.515625 C 247.027344 196.347656 244.234375 196.988281 241.570312 196.328125 C 239.667969 195.859375 236.871094 193.179688 234.777344 194.605469 C 237.257812 192.917969 239.722656 193.78125 242.191406 194.734375 C 243.335938 195.175781 244.351562 195.558594 245.597656 195.351562 C 248.792969 194.828125 249.339844 191.484375 250.089844 188.875 C 251.234375 184.875 253.6875 181.566406 257.132812 179.863281 C 256.882812 180.425781 256.894531 181.203125 256.960938 181.722656 Z M 260.496094 191.34375 C 260.601562 191.296875 260.679688 191.230469 260.75 191.167969 C 261.464844 192.230469 262.109375 193.390625 262.164062 194.445312 C 262.285156 196.761719 261.097656 197.328125 259.753906 198.433594 C 258.710938 198.171875 257.671875 197.917969 256.644531 197.710938 C 256.027344 197.582031 255.332031 197.363281 254.703125 197.324219 C 254.214844 197.296875 252.730469 197.324219 252.316406 197.542969 C 253.980469 196.675781 254.949219 195.390625 256.289062 194.152344 C 257.535156 193 258.957031 192.050781 260.496094 191.34375 Z M 255.128906 192.1875 C 253.703125 194.925781 251.820312 196.8125 248.851562 197.800781 C 248.8125 197.8125 248.785156 197.835938 248.753906 197.855469 C 247.539062 198.128906 246.304688 198.300781 245.011719 198.261719 C 244.0625 198.230469 243.160156 198.054688 242.269531 197.835938 C 243.777344 198.113281 245.347656 198.054688 246.816406 197.582031 C 248.851562 196.925781 250.699219 195.472656 251.890625 193.707031 C 254.335938 190.082031 253.09375 185.679688 256.671875 182.730469 C 256.34375 184.957031 257.457031 186.601562 258.703125 188.316406 C 256.886719 188.855469 255.984375 190.546875 255.128906 192.1875 Z M 263.042969 199.316406 C 263.550781 199.003906 264.078125 198.789062 264.621094 198.597656 C 264.863281 198.5625 265.105469 198.546875 265.351562 198.5625 C 266.679688 198.640625 267.417969 199.375 267.964844 200.320312 C 266.34375 200.066406 264.71875 199.703125 263.105469 199.296875 C 263.09375 199.304688 263.089844 199.3125 263.082031 199.316406 C 263.070312 199.316406 263.054688 199.316406 263.042969 199.316406 Z M 264.335938 200.96875 C 265.75 201.296875 267.199219 201.574219 268.65625 201.761719 C 268.84375 202.195312 269.023438 202.625 269.230469 203.023438 C 269.335938 203.226562 269.453125 203.425781 269.574219 203.625 C 267.015625 202.238281 263.984375 201.578125 260.816406 201.535156 C 261.214844 201.101562 261.558594 200.652344 261.949219 200.234375 C 261.988281 200.285156 262.042969 200.328125 262.117188 200.335938 C 262.136719 200.339844 262.152344 200.34375 262.171875 200.34375 C 262.160156 200.359375 262.144531 200.371094 262.132812 200.386719 C 262.882812 200.597656 263.617188 200.800781 264.335938 200.96875 Z M 275.027344 206.503906 C 274.667969 206.496094 274.3125 206.488281 273.953125 206.476562 C 273.976562 206.304688 273.992188 206.128906 274 205.96875 C 274.003906 205.851562 274.011719 205.730469 274.011719 205.605469 C 274.3125 205.941406 274.65625 206.230469 275.027344 206.503906 Z M 276.820312 205.832031 C 277.242188 206.082031 277.679688 206.296875 278.121094 206.503906 C 277.484375 206.515625 276.84375 206.519531 276.199219 206.515625 C 276.246094 206.269531 276.261719 206.03125 276.300781 205.777344 C 276.371094 205.316406 276.039062 205.367188 276.820312 205.832031 Z M 287.027344 186.125 C 286.703125 186.605469 286.171875 186.65625 285.628906 186.691406 C 285.585938 186.695312 285.535156 186.695312 285.484375 186.695312 C 286.035156 186.554688 286.5625 186.351562 287.066406 186.035156 C 287.054688 186.066406 287.050781 186.09375 287.027344 186.125 Z M 283.730469 188.050781 C 283.164062 188.027344 282.027344 188.148438 281.914062 188.011719 C 281.40625 187.363281 283.273438 187.171875 283.539062 187.113281 C 284.085938 186.996094 284.617188 186.902344 285.132812 186.785156 C 284.597656 187.175781 284.0625 187.570312 283.558594 187.96875 C 283.621094 187.988281 283.671875 188.027344 283.730469 188.050781 Z M 281.507812 194.257812 C 281.449219 194.234375 281.386719 194.214844 281.328125 194.191406 C 279.679688 193.59375 278.117188 193.429688 276.386719 193.691406 C 275.777344 193.785156 270.746094 196.109375 271.117188 194.1875 C 271.28125 193.34375 272.953125 193.117188 273.597656 192.988281 C 276.839844 192.351562 281.128906 194.382812 284.015625 192.335938 C 284.109375 192.269531 284.144531 192.164062 284.136719 192.066406 C 284.1875 192.023438 284.242188 191.984375 284.304688 191.925781 C 284.46875 191.757812 284.433594 191.46875 284.230469 191.355469 C 284.058594 191.257812 283.886719 191.171875 283.714844 191.089844 C 284.277344 190.859375 284.980469 190.738281 285.53125 190.640625 C 285.734375 190.601562 285.804688 190.304688 285.652344 190.171875 C 285.144531 189.71875 284.519531 189.410156 283.855469 189.230469 C 284.082031 189.054688 284.289062 188.84375 284.457031 188.59375 C 284.472656 188.570312 284.46875 188.542969 284.476562 188.515625 C 288.601562 186.023438 292.304688 183.503906 297.414062 183.207031 C 298.574219 183.136719 299.742188 183.171875 300.910156 183.238281 C 298.191406 183.960938 295.59375 185.023438 293.148438 186.800781 C 289.332031 189.574219 286.1875 193.515625 282.503906 196.527344 C 281.777344 196.292969 281.007812 196.214844 280.28125 195.988281 C 280.390625 195.839844 281.722656 194.335938 281.507812 194.257812 Z M 268.398438 188.210938 C 268.96875 188.273438 269.519531 188.429688 270.042969 188.667969 C 270.105469 188.699219 270.183594 188.726562 270.265625 188.75 C 269.546875 189.429688 268.488281 189.558594 268.398438 188.210938 Z M 267.316406 176.894531 C 267.824219 177.105469 267.769531 176.820312 267.996094 176.523438 C 268.109375 176.371094 269.035156 174.84375 269.003906 174.769531 C 269.417969 175.78125 269.582031 176.734375 269.40625 177.882812 C 269.320312 178.429688 270.011719 178.792969 270.332031 178.277344 C 270.496094 178.019531 270.667969 177.773438 270.847656 177.53125 C 270.886719 177.554688 270.933594 177.570312 270.972656 177.59375 C 271.027344 179.269531 270.238281 180.515625 269.347656 181.847656 C 270.417969 182.53125 271.144531 182.410156 270.109375 183.824219 C 269.800781 184.242188 269.460938 184.636719 269.152344 185.050781 C 268.585938 185.792969 267.964844 186.609375 267.777344 187.550781 C 267.726562 187.632812 267.714844 187.734375 267.738281 187.839844 C 267.648438 188.753906 267.941406 189.871094 268.929688 190.101562 C 270.121094 190.371094 271.039062 188.992188 271.496094 188.089844 C 272.679688 185.765625 272.636719 183.257812 274.121094 181.066406 C 274.300781 181.46875 274.402344 181.898438 274.414062 182.355469 C 274.453125 182.886719 275.277344 182.898438 275.246094 182.355469 C 275.238281 182.214844 275.222656 182.082031 275.203125 181.953125 C 275.398438 181.449219 275.558594 180.949219 275.800781 180.46875 C 275.914062 180.253906 276.046875 180.050781 276.171875 179.839844 C 276.21875 179.949219 276.277344 180.0625 276.351562 180.164062 C 276.289062 180.269531 276.230469 180.371094 276.164062 180.472656 C 276.027344 180.675781 276.351562 180.859375 276.492188 180.664062 C 276.859375 180.152344 277.316406 179.714844 277.664062 179.1875 C 277.824219 179.828125 277.519531 180.539062 277.785156 181.144531 C 277.878906 181.128906 278.003906 181.171875 278.097656 181.15625 C 278.195312 181.96875 277.1875 184.21875 279.03125 183.761719 C 280.496094 183.394531 279.578125 181.398438 281.835938 179.195312 C 281.824219 180.371094 282.378906 180.859375 282.414062 180.410156 C 282.5625 180.34375 282.761719 179.5 283.917969 178.632812 C 283.710938 179.519531 284.152344 179.535156 284.203125 179.617188 C 284.441406 179.914062 284.75 179.203125 286.652344 178.164062 C 286.566406 178.542969 286.660156 179.011719 286.828125 179.289062 C 286.726562 179.371094 286.617188 179.449219 286.523438 179.546875 C 286.421875 179.648438 286.550781 179.824219 286.675781 179.742188 C 287.15625 179.4375 287.640625 179.203125 288.160156 179.042969 C 288.015625 179.253906 287.882812 179.472656 287.761719 179.71875 C 287.679688 179.886719 287.855469 180.101562 288.035156 179.988281 C 288.277344 179.839844 288.511719 179.699219 288.75 179.5625 C 288.441406 180.570312 287.707031 181.472656 287.71875 181.597656 C 287.609375 181.640625 287.5 181.679688 287.394531 181.734375 C 287.28125 181.796875 287.382812 181.945312 287.488281 181.898438 C 287.671875 181.824219 288 181.699219 288.257812 181.726562 C 287.925781 181.707031 286.355469 183.5 286.097656 183.734375 C 286.261719 183.839844 286.429688 183.957031 286.59375 184.0625 C 286.5625 184.292969 286.320312 184.414062 286.125 184.535156 C 285.226562 185.074219 286.757812 185.269531 286.09375 185.949219 C 285.609375 186.449219 284.199219 186.359375 283.554688 186.484375 C 282.726562 186.636719 281.773438 186.871094 281.273438 187.625 C 280.613281 188.609375 281.957031 188.636719 282.992188 188.496094 C 283.160156 188.519531 283.335938 188.546875 283.511719 188.578125 C 283.253906 188.753906 282.992188 188.917969 282.722656 189.097656 C 282.464844 189.265625 282.589844 189.640625 282.871094 189.652344 C 282.882812 189.652344 282.890625 189.644531 282.902344 189.644531 C 282.917969 189.640625 282.933594 189.644531 282.949219 189.636719 C 283.742188 189.457031 284.40625 189.652344 284.941406 190.1875 C 284.667969 190.242188 284.402344 190.3125 284.140625 190.410156 C 283.796875 190.539062 283.542969 190.769531 283.210938 190.921875 C 283.09375 190.972656 283.109375 191.121094 283.171875 191.203125 C 283.296875 191.355469 283.429688 191.5 283.554688 191.644531 C 283.433594 191.769531 283.308594 191.882812 283.1875 192 C 281.59375 192.421875 280.15625 192.726562 278.421875 192.574219 C 277.0625 192.457031 275.710938 192.210938 274.339844 192.273438 C 273.15625 192.332031 270.792969 192.574219 270.300781 193.945312 C 269.921875 195 270.792969 195.621094 271.769531 195.703125 C 272.667969 195.773438 273.582031 195.292969 274.386719 194.976562 C 276.480469 194.15625 278.34375 193.976562 280.550781 194.578125 C 281.148438 194.742188 278.5625 196.324219 279.585938 196.457031 C 280.445312 196.566406 281.273438 196.765625 282.097656 197 C 282.046875 197.0625 281.984375 197.144531 281.875 197.289062 C 281.75 197.449219 281.761719 197.734375 282.003906 197.78125 C 283.15625 198.015625 284.082031 198.511719 284.902344 199.273438 C 283.941406 199.40625 282.992188 199.457031 282.027344 199.597656 C 281.886719 199.617188 281.867188 199.816406 281.953125 199.90625 C 281.945312 199.949219 281.945312 200.003906 281.972656 200.054688 C 282.292969 200.714844 282.726562 201.289062 283.175781 201.863281 C 282.332031 201.636719 281.480469 201.421875 280.636719 201.238281 C 280.359375 201.179688 280.144531 201.359375 280.121094 201.628906 C 280.121094 201.644531 280.121094 201.660156 280.117188 201.675781 C 278.550781 200.960938 276.949219 200.355469 275.296875 199.914062 C 275.839844 200.71875 276.722656 201.195312 277.417969 201.839844 C 277.804688 202.199219 278.164062 202.59375 278.46875 203.019531 C 278.433594 203.132812 278.460938 203.261719 278.582031 203.339844 C 278.625 203.367188 278.675781 203.386719 278.71875 203.417969 C 278.746094 203.453125 278.769531 203.496094 278.789062 203.53125 C 278.652344 203.59375 278.558594 203.695312 278.503906 203.820312 C 278.265625 203.808594 278.019531 203.8125 277.765625 203.851562 C 277.589844 203.878906 277.558594 204.125 277.675781 204.242188 C 278.34375 205.015625 279.023438 205.527344 279.421875 206.410156 C 278.238281 206.074219 277.152344 205.550781 276.03125 205.003906 C 275.957031 204.964844 275.859375 205.011719 275.855469 205.105469 C 275.828125 205.421875 275.738281 205.714844 275.621094 206 C 274.945312 205.585938 274.292969 205.125 273.65625 204.65625 C 273.535156 204.566406 273.386719 204.722656 273.4375 204.847656 C 273.308594 205.183594 273.382812 205.511719 273.390625 205.878906 C 273.398438 206.074219 273.375 206.269531 273.347656 206.460938 C 273.320312 206.460938 273.292969 206.460938 273.265625 206.457031 C 271.679688 204.691406 270.394531 203.183594 269.433594 200.847656 C 268.96875 199.71875 268.703125 198.722656 267.523438 198.132812 C 267.410156 198.078125 267.300781 198.035156 267.1875 197.992188 C 268.363281 198.203125 269.496094 198.535156 270.546875 199.007812 C 270.550781 199.015625 270.550781 199.023438 270.554688 199.035156 C 270.898438 199.605469 271.546875 199.90625 271.886719 200.527344 C 272.324219 201.3125 272.429688 202.136719 272.253906 203.011719 C 272.207031 203.242188 272.554688 203.339844 272.605469 203.109375 C 272.796875 202.257812 272.703125 201.324219 272.347656 200.523438 C 272.238281 200.277344 272.085938 199.984375 271.894531 199.710938 C 273.6875 200.789062 275.191406 202.335938 276.234375 204.429688 C 276.28125 204.523438 276.421875 204.441406 276.378906 204.347656 C 274.066406 199.703125 269.554688 196.566406 264.246094 197.515625 C 264.128906 197.53125 264.160156 197.710938 264.273438 197.710938 C 264.46875 197.714844 264.667969 197.726562 264.863281 197.734375 C 264.304688 197.828125 263.714844 198.035156 263.148438 198.328125 C 263.410156 198.058594 263.679688 197.785156 263.945312 197.523438 C 265.410156 197.230469 266.890625 197.015625 268.378906 196.902344 C 270.429688 196.75 272.300781 196.488281 273.816406 198.175781 C 273.890625 198.253906 274 198.140625 273.933594 198.058594 C 273.570312 197.636719 273.121094 197.191406 272.628906 196.886719 C 275.621094 197.109375 278.582031 197.824219 281.761719 199.09375 C 281.898438 199.148438 281.976562 198.929688 281.863281 198.863281 C 276.820312 195.84375 270.101562 195.089844 264.484375 197 C 265.273438 196.257812 266.082031 195.550781 266.914062 194.878906 C 267.082031 194.792969 267.230469 194.667969 267.359375 194.523438 C 268.816406 192.890625 271.308594 191.546875 273.453125 191.160156 C 274.632812 190.945312 275.835938 191.179688 276.972656 191.492188 C 277.15625 191.542969 277.222656 191.277344 277.050781 191.210938 C 275.792969 190.742188 274.542969 190.707031 273.222656 190.828125 C 273.007812 190.847656 272.789062 190.859375 272.570312 190.878906 C 273.476562 190.316406 274.390625 189.753906 275.339844 189.207031 C 275.359375 189.195312 275.378906 189.183594 275.398438 189.175781 C 276.195312 189.355469 277.113281 189.113281 277.925781 189.160156 C 279.070312 189.226562 280.105469 189.695312 281.105469 190.230469 C 281.25 190.308594 281.359375 190.105469 281.230469 190.011719 C 280.210938 189.242188 279.070312 188.894531 277.832031 188.660156 C 277.417969 188.578125 276.957031 188.511719 276.507812 188.53125 C 279.9375 186.539062 283.5 184.371094 285.835938 181.15625 C 285.914062 181.046875 285.753906 180.957031 285.667969 181.027344 C 281.660156 184.203125 277.597656 186.859375 273.328125 189.53125 C 275.03125 187.722656 276.070312 185.308594 276.289062 182.820312 C 276.289062 182.800781 276.257812 182.796875 276.25 182.816406 C 275.171875 186.242188 273.164062 188.917969 270.550781 191.269531 C 269.765625 191.769531 268.992188 192.285156 268.230469 192.824219 C 268.398438 192.210938 268.390625 191.644531 268.355469 190.925781 C 268.34375 190.769531 268.121094 190.769531 268.113281 190.925781 C 268.074219 191.644531 267.699219 192.628906 267.339844 193.25 C 267.246094 193.417969 267.132812 193.570312 267.011719 193.722656 C 265.855469 194.613281 264.769531 195.574219 263.785156 196.632812 C 264.015625 196.289062 264.207031 195.933594 264.355469 195.570312 C 264.601562 195.125 264.734375 194.652344 264.785156 194.148438 C 265.171875 192.277344 265.019531 190.265625 265.492188 188.328125 C 266.382812 184.679688 268.832031 181.527344 268.765625 177.664062 C 268.765625 177.535156 268.558594 177.496094 268.535156 177.632812 C 268.074219 179.945312 267.203125 182.046875 266.355469 184.179688 C 266.222656 183.277344 265.792969 182.394531 265.195312 181.796875 C 265.105469 181.703125 264.949219 181.820312 265.015625 181.929688 C 265.773438 183.195312 265.878906 184.328125 265.785156 185.644531 C 265.613281 186.109375 265.441406 186.578125 265.28125 187.054688 C 264.730469 188.699219 264.75 190.578125 264.640625 192.394531 C 263.898438 189.226562 260.894531 185.65625 259.898438 183.570312 C 259.835938 183.429688 259.644531 183.53125 259.667969 183.667969 C 260.023438 185.578125 261.117188 187.054688 262.140625 188.671875 C 263.8125 191.328125 264.355469 193.519531 263.320312 196.554688 C 263.292969 196.644531 263.410156 196.695312 263.472656 196.640625 C 263.628906 196.503906 263.765625 196.367188 263.890625 196.222656 C 263.796875 196.4375 263.691406 196.652344 263.566406 196.859375 C 263.351562 197.097656 263.152344 197.351562 262.949219 197.605469 C 262.941406 197.609375 262.933594 197.617188 262.929688 197.625 C 262.496094 198.160156 262.082031 198.722656 261.703125 199.3125 C 261.554688 199.445312 261.410156 199.582031 261.277344 199.722656 C 260.832031 200.136719 260.472656 200.511719 259.875 200.238281 C 259.359375 200 259.097656 199.375 259.664062 199.101562 C 259.839844 199.015625 260.199219 199.175781 260.394531 199.148438 C 260.734375 199.097656 261.042969 198.941406 261.332031 198.765625 C 262.5 198.058594 263.195312 196.835938 263.238281 195.472656 C 263.34375 191.925781 260.457031 189.839844 258.839844 187.054688 C 258.125 185.828125 257.773438 184.390625 257.53125 183.003906 C 257.8125 183.144531 258.046875 183.359375 258.339844 183.480469 C 258.488281 183.300781 258.46875 183.082031 258.328125 182.878906 C 257.875 182.242188 257.726562 182.234375 257.800781 181.476562 C 257.835938 181.121094 258.257812 179.664062 258.097656 179.40625 C 258.375 179.847656 258.773438 180.210938 259.238281 180.445312 C 259.160156 179.757812 259.269531 179.050781 259.558594 178.425781 C 260.101562 179.050781 260.621094 179.714844 261.242188 180.261719 C 262.085938 181 262.226562 181.96875 262.886719 182.8125 C 262.945312 182.886719 263.199219 181.417969 263.203125 181.28125 C 263.203125 180.726562 263.089844 180.214844 263.046875 179.664062 C 262.953125 178.457031 263.285156 177.214844 263.988281 176.230469 C 264.4375 176.667969 264.785156 177.195312 265.007812 177.777344 C 265.144531 178.132812 265.648438 179.097656 265.644531 179.433594 C 265.65625 178.492188 265.722656 177.582031 265.847656 176.660156 C 265.890625 176.332031 265.941406 176 266 175.667969 C 266.03125 175.5 267.296875 176.886719 267.316406 176.894531 Z M 252.675781 174.882812 C 254.859375 174.667969 257.671875 175.574219 259.871094 175.894531 C 260.976562 176.050781 262.074219 176.226562 263.175781 176.382812 C 262.882812 176.832031 262.617188 177.304688 262.421875 177.808594 C 261.511719 177.773438 260.613281 177.804688 259.734375 177.929688 C 259.273438 177.25 259.109375 177.523438 258.867188 178.082031 C 256.238281 178.621094 253.828125 179.910156 251.945312 182.03125 C 250.910156 183.199219 250.089844 184.550781 249.535156 186.011719 C 248.105469 189.765625 248.96875 195.117188 242.355469 193.425781 C 239.132812 192.601562 236.539062 190.550781 233.964844 194.035156 C 232.792969 195.621094 232.609375 197.511719 232.300781 199.40625 C 231.597656 203.746094 230.136719 207.789062 225.789062 209.753906 C 220.40625 212.183594 214.3125 209.03125 209.003906 212.25 C 206.859375 213.550781 205.113281 215.449219 202.925781 216.695312 C 196.980469 220.066406 191.765625 217.742188 184.433594 218.578125 C 185.953125 218.160156 187.355469 217.367188 188.691406 216.554688 C 190.121094 215.679688 191.617188 214.691406 193.25 214.148438 C 195.058594 213.539062 196.835938 213.792969 198.707031 213.855469 C 200.84375 213.929688 202.828125 213.679688 204.609375 212.414062 C 205.609375 211.707031 206.238281 210.664062 207.152344 209.882812 C 209.367188 207.980469 210.820312 208.003906 213.40625 208.191406 C 218.636719 208.570312 222.128906 208 225.601562 203.679688 C 227.628906 201.160156 228.117188 197.753906 229.308594 194.828125 C 229.875 193.421875 230.605469 192.023438 231.777344 191.027344 C 233.429688 189.625 235.191406 189.472656 237.316406 189.792969 C 238.816406 190.015625 240.300781 190.40625 241.820312 190.433594 C 244.832031 190.484375 247.582031 188.667969 248.429688 185.753906 C 249.667969 181.503906 245.828125 175.550781 252.675781 174.882812 Z M 185 219.386719 C 189.867188 218.503906 194.882812 220.21875 199.691406 218.96875 C 204.683594 217.679688 207.875 213.011719 213.027344 211.996094 C 218.074219 211 223.269531 213.089844 227.835938 209.945312 C 229.953125 208.496094 231.378906 206.515625 232.300781 204.261719 C 232.132812 206.589844 232.007812 208.898438 230.242188 210.652344 C 226.511719 214.359375 220.027344 211.378906 215.371094 212.003906 C 211.949219 212.46875 210.261719 214.460938 207.863281 216.707031 C 203.601562 220.695312 198.441406 220.9375 192.882812 220.519531 C 186.683594 220.054688 177.269531 218.789062 175.023438 226.484375 C 174.679688 226.382812 174.324219 226.308594 173.964844 226.253906 C 175.910156 221.914062 180.484375 220.207031 185 219.386719 Z M 168.75 224.074219 C 168.308594 223.683594 167.953125 223.253906 167.652344 222.804688 C 169.546875 217.394531 175.332031 218.386719 179.894531 218.453125 C 180.878906 218.675781 181.84375 218.839844 182.800781 218.816406 C 178.375 219.605469 174.308594 221.621094 173.167969 226.167969 C 173.136719 226.167969 173.105469 226.164062 173.074219 226.164062 C 171.558594 225.550781 170.042969 225.230469 168.75 224.074219 Z M 224.117188 198.070312 C 223.929688 198.574219 223.71875 199.066406 223.445312 199.53125 C 221.953125 202.066406 220.476562 203.273438 217.601562 203.648438 C 213.476562 204.191406 210.667969 200.589844 206.535156 203.925781 C 204.992188 205.175781 204.007812 206.957031 202.546875 208.289062 C 197.515625 212.859375 191.328125 205.4375 186.21875 209.566406 C 184.050781 211.324219 183.625 215.308594 176.175781 213.273438 C 171.976562 212.121094 167.785156 213.398438 165.054688 216.582031 C 164.734375 215.988281 164.332031 215.449219 163.851562 215.035156 C 166.914062 211.992188 170.824219 209.375 175.300781 209.402344 C 178.9375 209.421875 182.246094 210.140625 185.441406 207.875 C 186.167969 207.355469 186.839844 206.757812 187.46875 206.128906 C 192.15625 201.441406 194.695312 208.375 199.308594 206.34375 C 200.585938 205.78125 201.046875 204.699219 201.632812 203.519531 C 202.558594 201.660156 202.679688 197.261719 209.921875 198.945312 C 214.238281 199.949219 218.023438 201.824219 222.246094 199.453125 C 222.917969 199.078125 223.542969 198.605469 224.117188 198.070312 Z M 204.003906 162.25 C 204.082031 162.257812 225.855469 164.679688 227.695312 177.015625 C 226.574219 177.453125 225.363281 178.132812 224.40625 178.898438 C 224.488281 178.789062 224.570312 178.683594 224.664062 178.585938 C 223.082031 174.324219 220.21875 170.980469 215.523438 168.703125 C 212.617188 167.285156 209.8125 166.542969 207.257812 166.027344 C 204.699219 165.523438 202.382812 165.308594 200.316406 165.199219 C 196.175781 164.988281 193.035156 165.203125 190.6875 165.359375 C 188.339844 165.539062 186.777344 165.722656 185.800781 165.847656 C 184.824219 165.972656 184.433594 166.039062 184.433594 166.039062 C 184.433594 166.039062 184.820312 166.082031 185.796875 166.125 C 186.769531 166.167969 188.324219 166.203125 190.644531 166.246094 C 192.960938 166.308594 196.054688 166.316406 200.0625 166.675781 C 202.066406 166.859375 204.296875 167.128906 206.738281 167.644531 C 209.164062 168.167969 211.84375 168.90625 214.542969 170.195312 C 219.101562 172.363281 221.796875 175.433594 223.460938 179.777344 C 220.316406 183.160156 222.867188 185.796875 223.789062 187.652344 C 225.683594 191.476562 225.03125 195.226562 221.136719 197.550781 C 214.949219 201.246094 205.878906 193.1875 201.164062 199.277344 C 199.339844 201.636719 199.101562 206.632812 194.585938 204.550781 C 192.050781 203.382812 189.777344 201.640625 187.082031 203.472656 C 184.820312 205.019531 184.777344 207.605469 181.554688 208.25 C 178.8125 208.796875 175.863281 207.53125 173.035156 208.019531 C 170.125 208.566406 167.167969 210.554688 164.867188 212.375 C 164.25 212.867188 162.566406 213.902344 162.363281 214.6875 C 162.140625 215.550781 163.460938 216.695312 163.808594 217.414062 C 164.300781 218.4375 164.46875 219.546875 164.988281 220.554688 C 166.699219 223.867188 168.910156 227.398438 172.90625 227.894531 C 172.625 227.863281 172.796875 232.027344 172.496094 232.398438 C 171.222656 233.960938 167.589844 234.429688 165.828125 234.933594 C 155.921875 237.777344 145.714844 238.261719 135.980469 234.570312 C 128.890625 231.878906 122.445312 227.109375 114.832031 225.941406 C 106.144531 223.574219 91.539062 222.414062 89.429688 213.847656 C 89.171875 213.082031 89.027344 211.457031 89.089844 210.75 C 89.277344 208.871094 89.003906 210.269531 89.546875 207.660156 C 90.105469 205.652344 91.078125 203.78125 92.191406 202.046875 C 93.296875 200.308594 94.582031 198.710938 95.90625 197.199219 C 106.050781 185.5 106.613281 187.804688 108.949219 179.265625 C 109.8125 175.992188 110.738281 173.449219 116.246094 169.113281 C 125.003906 161.683594 176.953125 160.359375 204.003906 162.25 Z M 264.414062 154.03125 C 268.867188 155.796875 273.992188 156.476562 278.582031 157.515625 C 282.816406 158.480469 287.382812 159.980469 291.824219 160.464844 C 287.222656 162.015625 284.546875 167.722656 272.644531 168.066406 C 264.277344 168.308594 257.40625 162.121094 249.0625 162.835938 C 245.90625 163.105469 242.839844 164.671875 241.214844 167.453125 C 239.621094 170.191406 240.355469 173.929688 237.605469 176.046875 C 234.921875 176.386719 232.289062 175.976562 229.65625 176.460938 C 225.519531 156.71875 179.902344 159.484375 167.515625 160.035156 C 162.707031 155.242188 158.050781 151.390625 153.152344 148.191406 C 155.929688 148.699219 158.902344 149.195312 162.015625 149.679688 C 177.917969 153.859375 194.9375 155.511719 211.222656 157.171875 C 219.882812 158.054688 228.558594 158.75 237.246094 159.261719 C 241.460938 159.507812 245.675781 159.714844 249.894531 159.84375 C 256.242188 160.039062 250.546875 160.128906 263.359375 160.089844 C 263.460938 160.089844 264.976562 157.324219 264.414062 154.03125 Z M 308.460938 200.476562 C 308.183594 201.207031 307.898438 201.925781 307.59375 202.632812 C 304.980469 207.007812 301.257812 210.488281 296.011719 212.09375 C 289.652344 214.050781 282.867188 212.683594 276.371094 213.730469 C 263.917969 215.742188 253.703125 231.308594 237.734375 228.15625 C 250.070312 227.765625 261.371094 214.972656 272.890625 212.082031 C 273.164062 212.046875 273.4375 212.011719 273.714844 211.984375 C 281.976562 211.140625 290.722656 212.554688 298.417969 208.8125 C 302.109375 207.015625 305.761719 204.042969 308.460938 200.476562 Z M 304.859375 202.378906 C 301.539062 205.105469 297.761719 207.132812 293.386719 208.328125 C 286.386719 210.25 279.125 208.855469 272.125 210.460938 C 271.363281 210.640625 270.621094 210.847656 269.886719 211.085938 C 268.816406 211.300781 267.75 211.582031 266.699219 211.957031 C 264.113281 212.875 261.882812 214.355469 259.757812 216.007812 C 253.707031 220.71875 247.671875 224.46875 239.953125 225.691406 C 234.972656 226.480469 230.117188 225.324219 225.117188 225.863281 C 219.460938 226.476562 214.089844 228.660156 209.113281 231.335938 C 203.273438 234.472656 198.261719 236.792969 191.539062 234.667969 C 188.632812 233.75 185.628906 233.449219 182.738281 234.6875 C 182.523438 234.78125 182.328125 234.894531 182.136719 235.023438 C 180.863281 235.496094 179.59375 236.242188 178.589844 237.046875 C 177.386719 237.140625 175.945312 235.382812 175.238281 234.242188 C 180.445312 226.695312 189.632812 231.976562 196.921875 232.621094 C 202.738281 233.128906 206.136719 230.488281 210.09375 226.636719 C 212.59375 224.207031 214.996094 222.679688 217.980469 222.171875 C 220.4375 221.878906 222.945312 222.375 225.507812 222.925781 C 230.078125 223.902344 234.367188 224.074219 238.449219 221.464844 C 241.105469 219.765625 242.960938 217.359375 244.910156 215.011719 C 255.742188 203.085938 272.332031 210.371094 286.109375 207.375 C 291.609375 206.179688 295.757812 203.234375 298.828125 198.558594 C 301.070312 195.140625 302.9375 191.886719 306.796875 190.054688 C 307.089844 189.914062 307.386719 189.792969 307.691406 189.667969 C 309.835938 189.0625 311.996094 188.621094 314.078125 187.972656 C 314.28125 187.933594 314.488281 187.898438 314.691406 187.863281 C 314.171875 188.367188 313.679688 188.921875 313.242188 189.5625 C 311.3125 192.378906 309.261719 197.773438 304.859375 202.378906 Z M 328.648438 177.851562 C 328.867188 178.328125 329.015625 178.855469 329.113281 179.417969 C 327.636719 180.867188 325.886719 181.847656 324.050781 182.691406 C 325.976562 181.527344 327.574219 179.976562 328.648438 177.851562 Z M 302.160156 187.019531 C 298.4375 188.316406 295.671875 190.589844 293.285156 193.6875 C 289.679688 198.367188 286.066406 204.558594 279.222656 202.941406 C 278.882812 202.453125 278.503906 201.980469 278.078125 201.550781 C 279.140625 202.046875 280.089844 202.511719 280.265625 202.601562 C 280.550781 202.75 280.824219 202.558594 280.859375 202.261719 C 280.867188 202.203125 280.875 202.144531 280.878906 202.089844 C 281.875 202.234375 282.839844 202.300781 283.820312 202.605469 C 284.042969 202.671875 284.273438 202.398438 284.136719 202.195312 C 283.613281 201.4375 283.136719 200.664062 282.511719 200 C 283.542969 200.085938 284.613281 199.980469 285.625 199.84375 C 285.910156 199.804688 286.078125 199.496094 285.867188 199.265625 C 285.292969 198.636719 284.648438 198.171875 283.941406 197.820312 C 287.054688 195.332031 289.824219 192.160156 292.867188 189.773438 C 298.898438 185.039062 305.679688 184.714844 312.941406 183.5 C 318.410156 182.582031 323.972656 180.804688 327.597656 176.4375 C 327.699219 176.527344 327.804688 176.617188 327.898438 176.710938 C 321.691406 185.558594 311.34375 183.828125 302.160156 187.019531 Z M 320.214844 172.910156 C 318.867188 175.730469 317.621094 178.238281 314.589844 180.003906 C 310.085938 182.632812 305.828125 181.125 301.011719 180.8125 C 296.265625 180.503906 291.453125 182.59375 287.28125 185.300781 C 287.101562 185.207031 286.90625 185.125 286.707031 185.0625 C 287.007812 184.804688 287.378906 184.175781 287.257812 183.878906 C 293.4375 178.9375 301.53125 181.15625 308.867188 180.078125 C 313.007812 179.472656 318.261719 176.980469 320.214844 172.910156 Z M 161.144531 115.558594 C 161.363281 114.296875 161.785156 113.023438 161.957031 111.746094 C 185.910156 119.644531 210.257812 126.5 234.609375 133.050781 C 259.054688 139.625 283.613281 146.089844 308.367188 151.40625 C 308.226562 153.355469 308.195312 155.3125 308 157.261719 C 307.910156 158.125 307.652344 159.011719 307.644531 159.84375 C 301.675781 158.472656 296.175781 158.183594 290.882812 156.921875 C 268.433594 151.570312 248.789062 145.929688 231.902344 141.046875 C 228.359375 139.945312 224.816406 138.847656 221.273438 137.746094 C 209.136719 133.972656 196.949219 129.59375 184.578125 126.429688 C 173.851562 122.953125 165.910156 120.34375 160.753906 119.003906 C 161.011719 117.890625 160.964844 116.609375 161.144531 115.558594 Z M 205.644531 109.589844 C 219.679688 108.832031 235.921875 105.574219 249.058594 111.515625 C 254.75 114.085938 260.75 117.019531 266.207031 120.023438 C 272.695312 123.585938 278.347656 127.992188 284.445312 132.066406 C 284.96875 132.417969 285.710938 132.726562 286.191406 133.136719 C 288.140625 134.792969 287.148438 135.546875 288.296875 137.222656 C 289.128906 138.441406 290.640625 138.882812 292.011719 139.277344 C 292.835938 139.515625 293.636719 139.839844 294.421875 140.21875 C 294.441406 140.257812 294.464844 140.292969 294.496094 140.328125 C 296.40625 142.402344 299.144531 143.8125 301.378906 145.535156 C 302.851562 146.667969 304.300781 148.179688 305.902344 149.261719 C 284.621094 144.726562 262.21875 138.96875 163.574219 111.75 C 177.601562 111.371094 191.636719 110.34375 205.644531 109.589844 Z M 305.023438 145.664062 C 304.796875 145.59375 304.574219 145.523438 304.34375 145.460938 C 304.128906 145.308594 303.910156 145.160156 303.695312 145.011719 C 304.148438 145.230469 304.589844 145.449219 305.023438 145.664062 Z M 318.941406 153.019531 C 318.386719 152.59375 317.828125 152.199219 317.273438 151.835938 C 317.09375 151.714844 316.925781 151.601562 316.75 151.480469 C 316.449219 151.269531 316.144531 151.066406 315.835938 150.863281 C 315.78125 150.828125 315.71875 150.785156 315.667969 150.75 C 315.625 150.726562 315.582031 150.699219 315.539062 150.671875 C 314.882812 150.246094 314.21875 149.835938 313.550781 149.445312 C 313.238281 149.257812 312.925781 149.074219 312.617188 148.910156 C 309.6875 147.222656 306.269531 145.566406 302.199219 143.976562 C 301.300781 143.332031 300.371094 142.640625 299.402344 141.984375 C 294.367188 138.433594 294.792969 140.058594 292.492188 138.914062 C 289 137.179688 290.910156 136.554688 289.539062 134.328125 C 288.445312 132.546875 285.585938 131.234375 284.035156 130.023438 C 273.25 121.617188 261.320312 114.992188 248.75 109.625 C 236.179688 104.261719 220.824219 106.886719 207.585938 107.621094 C 192.476562 108.460938 177.269531 109.105469 162.210938 110.65625 C 161.882812 110.796875 161.542969 110.921875 161.195312 111.027344 C 161.179688 111.085938 161.15625 111.140625 161.15625 111.199219 C 160.328125 112.816406 160.078125 114.863281 159.6875 116.519531 C 159.089844 115.914062 125.65625 122.234375 124.578125 122.445312 C 118.976562 123.539062 113.261719 124.496094 107.742188 125.972656 C 106.164062 126.390625 104.1875 126.707031 102.992188 127.976562 C 102.671875 128.316406 101.089844 131.394531 101.613281 131.417969 C 94.402344 131.0625 75.746094 134.789062 57.617188 142.949219 C 52.457031 145.3125 46.628906 148.15625 40.980469 152.761719 C 36.523438 156.414062 18.390625 174.765625 26.210938 193.503906 C 30.523438 203.824219 40.269531 212.125 49.324219 218.238281 C 71.773438 233.40625 99.460938 240.558594 125.804688 245.238281 C 154.375 250.3125 170.734375 251.933594 211.382812 249.265625 C 338.859375 240.886719 359.683594 182.789062 318.941406 153.019531 " fill-opacity="1" fill-rule="nonzero"/><path fill="#32a7ca" d="M 166.167969 116.777344 C 166.242188 116.738281 166.320312 116.703125 166.402344 116.675781 C 166.316406 116.710938 166.234375 116.746094 166.148438 116.785156 C 166.152344 116.78125 166.164062 116.78125 166.167969 116.777344 " fill-opacity="1" fill-rule="nonzero"/><path fill="#32a7ca" d="M 191.726562 128.199219 C 192.066406 128.523438 191.84375 128.289062 191.726562 128.199219 " fill-opacity="1" fill-rule="nonzero"/><path fill="#32a7ca" d="M 129.96875 194.285156 C 130.460938 194.984375 131.046875 195.691406 131.78125 196.347656 C 132.484375 197.015625 133.375 197.632812 134.320312 198.152344 C 138.035156 200.253906 143.160156 202.175781 149.699219 202.539062 C 152.753906 202.714844 155.535156 202.480469 158.019531 202.085938 C 160.480469 201.667969 162.675781 201.164062 164.605469 200.550781 C 166.535156 199.9375 168.195312 199.21875 169.582031 198.429688 C 170.285156 198.058594 170.886719 197.605469 171.453125 197.210938 C 171.722656 196.988281 171.976562 196.757812 172.222656 196.550781 C 172.339844 196.441406 172.460938 196.335938 172.578125 196.234375 C 172.683594 196.117188 172.785156 196.003906 172.882812 195.890625 C 173.082031 195.667969 173.273438 195.449219 173.457031 195.246094 C 173.621094 195.023438 173.753906 194.792969 173.894531 194.582031 C 174.023438 194.367188 174.175781 194.175781 174.269531 193.96875 C 174.359375 193.753906 174.445312 193.554688 174.527344 193.363281 C 174.605469 193.171875 174.679688 192.988281 174.753906 192.820312 C 174.792969 192.636719 174.828125 192.464844 174.863281 192.300781 C 174.929688 191.980469 174.988281 191.699219 175.03125 191.453125 C 175.042969 190.449219 175.027344 190.046875 175.027344 190.046875 C 175.027344 190.046875 174.941406 190.332031 174.78125 191.128906 C 174.757812 191.332031 174.683594 191.554688 174.574219 191.808594 C 174.472656 192.058594 174.378906 192.347656 174.246094 192.664062 C 174.074219 192.957031 173.878906 193.289062 173.667969 193.65625 C 173.402344 193.992188 173.113281 194.359375 172.773438 194.742188 C 172.035156 195.460938 171.082031 196.234375 169.796875 196.9375 C 168.511719 197.628906 166.9375 198.28125 165.054688 198.851562 C 163.167969 199.414062 160.980469 199.910156 158.46875 200.300781 C 155.96875 200.707031 153.160156 200.9375 150.027344 200.789062 C 143.753906 200.480469 138.816406 198.773438 135.15625 196.910156 C 133.316406 196.039062 131.992188 194.847656 130.996094 193.648438 C 130.019531 192.425781 129.394531 191.203125 129.007812 190.105469 C 128.226562 187.894531 128.296875 186.246094 128.355469 185.265625 C 128.371094 184.761719 128.457031 184.417969 128.480469 184.1875 C 128.507812 183.960938 128.519531 183.859375 128.519531 183.859375 C 128.519531 183.859375 128.484375 183.957031 128.40625 184.164062 C 128.339844 184.382812 128.183594 184.703125 128.082031 185.203125 C 127.859375 186.171875 127.546875 187.859375 128.136719 190.292969 C 128.441406 191.503906 128.992188 192.878906 129.96875 194.285156 " fill-opacity="1" fill-rule="nonzero"/><path fill="#32a7ca" d="M 101.503906 166.507812 C 111.738281 163.03125 111.414062 157.480469 111.480469 157.398438 C 110.710938 158.183594 111.207031 163.273438 95.972656 166.28125 C 93.765625 166.707031 91.265625 167.007812 88.472656 167.003906 C 82.875 166.984375 78.375 165.796875 74.992188 164.410156 C 68.867188 161.910156 67.160156 157.261719 68.332031 153.964844 C 68.394531 153.773438 68.425781 153.683594 68.425781 153.683594 C 68.414062 153.765625 65.375 158.023438 70 162.761719 C 74.453125 167.414062 87.25 171.351562 101.503906 166.507812 " fill-opacity="1" fill-rule="nonzero"/><path fill="#32a7ca" d="M 131.789062 190.703125 C 132.570312 192.054688 133.796875 193.640625 135.773438 195.027344 C 137.628906 196.324219 139.398438 196.933594 140.832031 197.257812 C 142.285156 197.558594 143.425781 197.582031 144.269531 197.523438 C 145.117188 197.460938 145.675781 197.335938 146.023438 197.242188 C 146.367188 197.140625 146.507812 197.082031 146.507812 197.082031 C 146.507812 197.082031 146.402344 197.027344 146.105469 196.957031 C 145.8125 196.886719 145.324219 196.796875 144.582031 196.65625 C 143.84375 196.503906 142.839844 196.320312 141.539062 195.898438 C 140.246094 195.488281 138.632812 194.859375 136.863281 193.640625 C 135.105469 192.417969 133.917969 191.078125 133.066406 189.933594 C 132.207031 188.78125 131.675781 187.800781 131.289062 187.054688 C 130.90625 186.304688 130.671875 185.78125 130.519531 185.449219 C 130.367188 185.117188 130.289062 184.984375 130.289062 184.984375 C 130.289062 184.984375 130.257812 185.132812 130.246094 185.503906 C 130.238281 185.875 130.265625 186.464844 130.449219 187.332031 C 130.640625 188.195312 131 189.34375 131.789062 190.703125 " fill-opacity="1" fill-rule="nonzero"/><path fill="#32a7ca" d="M 75.917969 163.648438 C 79.820312 165.300781 82.8125 164.980469 86.132812 164.761719 C 86.132812 164.761719 85.808594 164.320312 84.367188 164.132812 C 69.914062 162.214844 71.304688 156.269531 69.945312 154.964844 C 69.457031 159.082031 72.539062 162.199219 75.917969 163.648438 " fill-opacity="1" fill-rule="nonzero"/><path fill="#32a7ca" d="M 94.828125 211.730469 C 94.382812 210.699219 94.226562 209.804688 94.199219 209.113281 C 94.1875 208.417969 94.238281 207.917969 94.3125 207.609375 C 94.363281 207.289062 94.390625 207.144531 94.390625 207.144531 C 94.390625 207.144531 94.332031 207.273438 94.203125 207.570312 C 94.0625 207.863281 93.902344 208.339844 93.785156 209.0625 C 93.691406 209.785156 93.683594 210.769531 94.011719 211.957031 C 94.339844 213.140625 95.019531 214.507812 96.183594 215.871094 C 101.984375 222.582031 111.023438 220.332031 118.8125 222.734375 C 125.835938 224.742188 133.210938 230.027344 140.433594 232.449219 C 149.355469 235.449219 159.898438 235.480469 169.722656 230.859375 C 170.964844 230.226562 171.464844 229.933594 171.464844 229.933594 C 171.464844 229.933594 171.054688 230.003906 169.9375 230.324219 C 168.804688 230.605469 166.960938 231.179688 163.996094 231.734375 C 142.117188 235.6875 132.492188 223.835938 119.773438 220.371094 C 118.851562 220.089844 117.917969 219.921875 117.027344 219.71875 C 109.867188 218.480469 98.519531 220.238281 94.828125 211.730469 " fill-opacity="1" fill-rule="nonzero"/><path fill="#32a7ca" d="M 54.472656 193.148438 C 62.917969 193.058594 73.253906 190.898438 82.625 196.15625 C 83.464844 196.65625 83.820312 196.863281 83.820312 196.863281 C 83.625 196.695312 82.371094 195.183594 79.289062 193.691406 C 71.167969 189.777344 61.175781 191.296875 54.699219 191.378906 C 41.234375 191.609375 35.238281 184.128906 35.453125 172.496094 C 35.453125 172.496094 35.421875 172.59375 35.359375 172.8125 C 35.308594 173.03125 35.1875 173.367188 35.113281 173.867188 C 34.214844 178.761719 35.882812 184.175781 39.414062 187.933594 C 43.421875 192.148438 48.640625 193.195312 54.472656 193.148438 " fill-opacity="1" fill-rule="nonzero"/><path fill="#32a7ca" d="M 40.128906 162.730469 C 41.515625 161.050781 43.457031 158.871094 46.332031 156.375 C 49.199219 153.871094 53.019531 151.058594 58.132812 148.28125 C 65 144.570312 71.507812 142.125 83.800781 137.488281 C 83.722656 137.515625 70.050781 140.382812 57.695312 147.015625 C 52.457031 149.839844 48.5625 152.789062 45.691406 155.449219 C 42.800781 158.101562 40.933594 160.457031 39.640625 162.277344 C 37.59375 165.214844 36.960938 166.835938 36.652344 167.4375 C 36.652344 167.4375 36.878906 167.140625 37.394531 166.382812 C 37.910156 165.628906 38.757812 164.429688 40.128906 162.730469 " fill-opacity="1" fill-rule="nonzero"/><path fill="#32a7ca" d="M 88.90625 175.121094 C 70.953125 174.90625 54.960938 164.222656 63.402344 150.332031 C 63.246094 150.511719 61.132812 151.894531 60.289062 155.601562 C 57.4375 168.441406 73.414062 176.832031 88.027344 176.605469 C 91.859375 176.546875 94.765625 176.003906 96.917969 175.527344 C 99.070312 175.03125 100.488281 174.554688 101.367188 174.238281 C 102.25 173.914062 102.605469 173.761719 102.605469 173.761719 C 100.078125 174.148438 97.578125 174.519531 97.472656 174.535156 C 95.453125 174.804688 92.671875 175.125 88.90625 175.121094 " fill-opacity="1" fill-rule="nonzero"/><path fill="#32a7ca" d="M 121.445312 196.285156 C 122.597656 198.484375 124.359375 200.703125 126.730469 202.664062 C 129.097656 204.625 132.035156 206.378906 135.492188 207.722656 C 141.964844 210.285156 147.753906 210.71875 152.308594 210.5625 C 156.898438 210.34375 160.351562 209.523438 162.863281 208.710938 C 165.378906 207.871094 167 207.121094 167.992188 206.59375 C 168.988281 206.070312 169.386719 205.839844 169.386719 205.839844 C 169.386719 205.839844 169.066406 205.917969 168.175781 206.214844 C 167.730469 206.363281 167.148438 206.574219 166.367188 206.796875 C 165.980469 206.914062 165.546875 207.046875 165.070312 207.195312 C 164.585938 207.324219 164.046875 207.464844 163.453125 207.617188 C 162.273438 207.910156 160.863281 208.226562 159.1875 208.488281 C 158.355469 208.648438 157.4375 208.710938 156.46875 208.84375 C 155.484375 208.90625 154.441406 209.035156 153.316406 209.035156 C 151.070312 209.109375 148.519531 209.027344 145.679688 208.613281 C 142.84375 208.199219 139.703125 207.492188 136.386719 206.179688 C 129.71875 203.632812 125.121094 199.703125 122.828125 195.714844 C 122.25 194.714844 121.820312 193.730469 121.492188 192.765625 C 121.191406 191.796875 120.96875 190.863281 120.863281 189.976562 C 120.613281 188.199219 120.730469 186.628906 120.960938 185.320312 C 121.464844 182.613281 122.453125 181 123.886719 179.242188 C 124.054688 179.046875 124.128906 178.957031 124.128906 178.957031 C 124.078125 179.039062 119.097656 182.1875 119.644531 189.972656 C 119.777344 191.878906 120.273438 194.074219 121.445312 196.285156 " fill-opacity="1" fill-rule="nonzero"/><path fill="#32a7ca" d="M 107.652344 134.3125 C 108.140625 133.480469 107.363281 132.425781 106.160156 132.839844 C 105.765625 132.976562 105.507812 133.363281 105.625 133.785156 C 105.964844 135.03125 107.203125 135.078125 107.652344 134.3125 " fill-opacity="1" fill-rule="nonzero"/><path fill="#32a7ca" d="M 119.007812 135.441406 C 119.753906 135.640625 120.589844 135.535156 121.152344 134.976562 C 121.4375 134.695312 121.4375 134.210938 121.152344 133.929688 C 120.589844 133.371094 119.753906 133.261719 119.007812 133.464844 C 118.035156 133.726562 118.03125 135.179688 119.007812 135.441406 " fill-opacity="1" fill-rule="nonzero"/><path fill="#32a7ca" d="M 132.652344 138.949219 C 132.835938 139.433594 133.269531 139.734375 133.800781 139.605469 C 133.839844 139.59375 133.875 139.585938 133.914062 139.574219 C 134.460938 139.445312 134.675781 138.800781 134.421875 138.335938 C 134.398438 138.300781 134.382812 138.261719 134.359375 138.230469 C 134.179688 137.898438 133.675781 137.652344 133.304688 137.800781 C 133.230469 137.824219 133.160156 137.855469 133.085938 137.886719 C 132.75 138.019531 132.433594 138.378906 132.582031 138.773438 C 132.605469 138.828125 132.628906 138.890625 132.652344 138.949219 " fill-opacity="1" fill-rule="nonzero"/><path fill="#32a7ca" d="M 149.152344 140.628906 C 149.148438 140.617188 149.140625 140.609375 149.136719 140.597656 C 149.324219 140.828125 149.5625 140.976562 149.90625 141.117188 C 150.714844 141.460938 151.570312 140.625 151.570312 139.851562 C 151.570312 139.074219 150.710938 138.242188 149.90625 138.582031 C 149.5625 138.726562 149.320312 138.878906 149.132812 139.109375 C 149.140625 139.097656 149.148438 139.085938 149.152344 139.074219 C 149.125 139.097656 149.101562 139.125 149.074219 139.152344 C 148.695312 139.523438 148.695312 140.175781 149.074219 140.550781 C 149.101562 140.578125 149.125 140.601562 149.152344 140.628906 " fill-opacity="1" fill-rule="nonzero"/><path fill="#32a7ca" d="M 155.707031 143.847656 C 156.070312 143.839844 156.363281 143.839844 156.691406 143.671875 C 157.128906 143.441406 157.128906 142.734375 156.691406 142.507812 C 156.367188 142.339844 156.066406 142.335938 155.707031 142.332031 C 154.730469 142.308594 154.726562 143.867188 155.707031 143.847656 " fill-opacity="1" fill-rule="nonzero"/><path fill="#32a7ca" d="M 180.527344 145.835938 C 181.019531 146.417969 182.007812 146.554688 182.554688 145.949219 C 182.589844 145.910156 182.601562 145.890625 182.609375 145.882812 C 182.601562 145.898438 182.609375 145.914062 182.726562 145.855469 C 182.867188 145.78125 182.996094 145.664062 183.09375 145.542969 C 183.386719 145.179688 183.390625 144.78125 183.09375 144.414062 C 183.003906 144.304688 182.859375 144.164062 182.726562 144.101562 C 182.554688 144.027344 182.667969 144.136719 182.554688 144.007812 C 182.007812 143.402344 181.019531 143.539062 180.527344 144.121094 C 179.699219 144.433594 179.699219 145.527344 180.527344 145.835938 " fill-opacity="1" fill-rule="nonzero"/><path fill="#32a7ca" d="M 195.234375 149.945312 C 195.285156 149.816406 195.324219 149.710938 195.335938 149.566406 C 195.347656 149.445312 195.21875 149.316406 195.097656 149.328125 C 194.953125 149.34375 194.851562 149.378906 194.71875 149.433594 C 193.933594 149.757812 194.910156 150.730469 195.234375 149.945312 " fill-opacity="1" fill-rule="nonzero"/><path fill="#32a7ca" d="M 166.746094 131.65625 C 166.664062 131.644531 166.574219 131.632812 166.488281 131.621094 C 165.871094 131.535156 165.253906 131.875 165.253906 132.5625 C 165.253906 133.25 165.871094 133.59375 166.488281 133.507812 C 166.574219 133.492188 166.664062 133.480469 166.746094 133.46875 C 167.644531 133.34375 167.644531 131.785156 166.746094 131.65625 " fill-opacity="1" fill-rule="nonzero"/><path fill="#32a7ca" d="M 203.195312 150.207031 C 204.363281 150.207031 204.367188 148.386719 203.195312 148.386719 C 202.019531 148.386719 202.019531 150.207031 203.195312 150.207031 " fill-opacity="1" fill-rule="nonzero"/><path fill="#32a7ca" d="M 221.734375 151.859375 C 221.75 151.847656 221.761719 151.839844 221.796875 151.8125 C 221.769531 151.828125 221.753906 151.859375 221.726562 151.875 C 221.730469 151.871094 221.730469 151.863281 221.734375 151.859375 Z M 221.617188 153.222656 C 221.933594 153.566406 222.378906 153.621094 222.8125 153.503906 C 223.167969 153.402344 223.507812 153.101562 223.585938 152.730469 C 223.589844 152.710938 223.597656 152.6875 223.597656 152.667969 C 223.695312 152.222656 223.570312 151.761719 223.195312 151.480469 C 222.859375 151.230469 222.304688 151.125 221.941406 151.390625 C 222.140625 151.246094 221.808594 151.453125 221.753906 151.488281 C 221.597656 151.578125 221.492188 151.71875 221.390625 151.867188 C 221.207031 152.152344 221.230469 152.457031 221.367188 152.707031 C 221.398438 152.898438 221.488281 153.082031 221.617188 153.222656 " fill-opacity="1" fill-rule="nonzero"/><path fill="#32a7ca" d="M 239.890625 153.894531 C 240.9375 153.894531 240.941406 152.261719 239.890625 152.261719 C 238.835938 152.261719 238.835938 153.894531 239.890625 153.894531 " fill-opacity="1" fill-rule="nonzero"/><path fill="#32a7ca" d="M 168.578125 117.492188 C 168.53125 117.480469 168.488281 117.46875 168.4375 117.460938 C 167.933594 117.335938 167.398438 117.542969 167.128906 117.992188 C 167.035156 118.152344 167.003906 118.300781 166.984375 118.484375 C 166.976562 118.515625 166.972656 118.546875 166.972656 118.582031 C 166.929688 118.949219 167.21875 119.421875 167.546875 119.582031 C 167.589844 119.601562 167.628906 119.625 167.671875 119.644531 C 168.179688 119.886719 168.671875 119.824219 169.097656 119.457031 C 169.449219 119.160156 169.476562 118.738281 169.398438 118.3125 C 169.332031 117.929688 168.945312 117.582031 168.578125 117.492188 " fill-opacity="1" fill-rule="nonzero"/><path fill="#32a7ca" d="M 189.972656 124.523438 C 191.085938 124.523438 191.085938 122.796875 189.972656 122.796875 C 188.863281 122.796875 188.859375 124.523438 189.972656 124.523438 " fill-opacity="1" fill-rule="nonzero"/><path fill="#32a7ca" d="M 182.710938 122.308594 C 182.714844 122.351562 182.714844 122.398438 182.71875 122.441406 C 182.796875 123.441406 184.195312 123.441406 184.273438 122.441406 C 184.277344 122.398438 184.28125 122.351562 184.28125 122.308594 C 184.363281 121.296875 182.628906 121.296875 182.710938 122.308594 " fill-opacity="1" fill-rule="nonzero"/><path fill="#32a7ca" d="M 209.6875 132.914062 C 209.71875 132.933594 209.753906 132.953125 209.792969 132.96875 C 210.519531 133.332031 211.4375 132.894531 211.4375 132.023438 C 211.4375 131.152344 210.519531 130.714844 209.792969 131.078125 C 209.753906 131.097656 209.71875 131.117188 209.6875 131.128906 C 209.011719 131.46875 209.011719 132.582031 209.6875 132.914062 " fill-opacity="1" fill-rule="nonzero"/><path fill="#32a7ca" d="M 223.96875 133.992188 C 224.761719 133.992188 224.765625 132.757812 223.96875 132.757812 C 223.171875 132.757812 223.171875 133.992188 223.96875 133.992188 " fill-opacity="1" fill-rule="nonzero"/><path fill="#32a7ca" d="M 226.933594 137.644531 C 228.269531 137.644531 228.269531 135.578125 226.933594 135.578125 C 225.605469 135.578125 225.601562 137.644531 226.933594 137.644531 " fill-opacity="1" fill-rule="nonzero"/><path fill="#32a7ca" d="M 240.699219 141.417969 C 241.675781 141.417969 241.675781 139.902344 240.699219 139.902344 C 239.722656 139.902344 239.71875 141.417969 240.699219 141.417969 " fill-opacity="1" fill-rule="nonzero"/><path fill="#32a7ca" d="M 250.277344 141.628906 C 250.921875 141.628906 251.542969 141.058594 251.511719 140.390625 C 251.484375 139.71875 250.96875 139.152344 250.277344 139.152344 C 249.625 139.152344 249.003906 139.722656 249.035156 140.390625 C 249.066406 141.0625 249.582031 141.628906 250.277344 141.628906 " fill-opacity="1" fill-rule="nonzero"/><path fill="#32a7ca" d="M 258.148438 145.921875 C 258.195312 145.917969 258.238281 145.910156 258.28125 145.90625 C 258.929688 145.808594 258.929688 144.691406 258.28125 144.589844 C 258.238281 144.585938 258.195312 144.578125 258.148438 144.570312 C 257.019531 144.398438 257.011719 146.097656 258.148438 145.921875 " fill-opacity="1" fill-rule="nonzero"/><path fill="#32a7ca" d="M 271.726562 147.660156 C 273.09375 147.660156 273.09375 145.535156 271.726562 145.535156 C 270.359375 145.535156 270.355469 147.660156 271.726562 147.660156 " fill-opacity="1" fill-rule="nonzero"/><path fill="#32a7ca" d="M 291.980469 154 C 292.480469 154.28125 293.121094 153.925781 293.121094 153.34375 C 293.121094 152.761719 292.480469 152.40625 291.980469 152.6875 C 291.949219 152.710938 291.914062 152.726562 291.878906 152.75 C 291.429688 153.003906 291.429688 153.6875 291.878906 153.945312 C 291.914062 153.960938 291.949219 153.984375 291.980469 154 " fill-opacity="1" fill-rule="nonzero"/><path fill="#32a7ca" d="M 301.132812 153.28125 C 302.441406 153.28125 302.445312 151.25 301.132812 151.25 C 299.828125 151.25 299.824219 153.28125 301.132812 153.28125 " fill-opacity="1" fill-rule="nonzero"/><path fill="#32a7ca" d="M 209.316406 114.6875 C 201.5625 118.167969 199.898438 119.746094 199.898438 119.746094 C 199.898438 119.746094 202.230469 119.804688 209.949219 116.332031 C 217.175781 113.082031 218.835938 111.5 218.835938 111.5 C 218.835938 111.5 217.070312 111.203125 209.316406 114.6875 " fill-opacity="1" fill-rule="nonzero"/><path fill="#32a7ca" d="M 232.542969 117.589844 C 223.921875 122.109375 222.082031 123.929688 222.082031 123.929688 C 222.082031 123.929688 224.6875 123.707031 233.265625 119.199219 C 241.300781 114.976562 243.136719 113.15625 243.136719 113.15625 C 243.136719 113.15625 241.160156 113.066406 232.542969 117.589844 " fill-opacity="1" fill-rule="nonzero"/><path fill="#32a7ca" d="M 257.433594 118.546875 C 257.433594 118.546875 256.992188 118.515625 255.632812 119.023438 C 254.28125 119.542969 251.996094 120.59375 248.441406 122.90625 C 244.882812 125.230469 242.832031 126.9375 241.648438 128.019531 C 240.460938 129.101562 240.144531 129.578125 240.144531 129.578125 C 240.144531 129.578125 240.710938 129.46875 242.136719 128.753906 C 243.5625 128.046875 245.820312 126.730469 249.320312 124.4375 C 252.601562 122.296875 254.644531 120.859375 255.851562 119.917969 C 257.0625 118.976562 257.433594 118.546875 257.433594 118.546875 " fill-opacity="1" fill-rule="nonzero"/><path fill="#32a7ca" d="M 271.316406 126.820312 C 270.1875 127.085938 268.273438 127.710938 265.304688 129.355469 C 262.347656 131.003906 260.660156 132.324219 259.691406 133.167969 C 258.726562 134.019531 258.480469 134.417969 258.480469 134.417969 C 258.480469 134.417969 258.96875 134.394531 260.148438 133.929688 C 261.332031 133.46875 263.195312 132.554688 266.085938 130.9375 C 268.796875 129.425781 270.496094 128.402344 271.5 127.707031 C 272.507812 127.015625 272.824219 126.667969 272.824219 126.667969 C 272.824219 126.667969 272.453125 126.558594 271.316406 126.820312 " fill-opacity="1" fill-rule="nonzero"/><path fill="#32a7ca" d="M 146.515625 122.78125 C 145.53125 123.117188 143.882812 123.855469 141.484375 125.707031 C 139.09375 127.570312 137.839844 129.023438 137.148438 129.933594 C 136.457031 130.859375 136.324219 131.265625 136.324219 131.265625 C 136.324219 131.265625 136.761719 131.179688 137.734375 130.601562 C 138.566406 130.113281 139.777344 129.253906 141.542969 127.890625 C 141.53125 128.039062 141.539062 128.1875 141.609375 128.34375 C 141.761719 128.691406 142.09375 128.933594 142.488281 128.933594 C 142.871094 128.933594 143.347656 128.640625 143.410156 128.230469 C 143.421875 128.152344 143.464844 128.058594 143.515625 127.992188 C 143.785156 127.636719 143.417969 127.132812 143.027344 127.136719 C 143.003906 127.136719 142.980469 127.136719 142.960938 127.136719 C 142.9375 127.132812 142.90625 127.121094 142.878906 127.117188 C 142.796875 127.082031 142.71875 127.054688 142.636719 127.042969 C 144.714844 125.425781 146.042969 124.347656 146.824219 123.625 C 147.625 122.890625 147.855469 122.535156 147.855469 122.535156 C 147.855469 122.535156 147.507812 122.453125 146.515625 122.78125 " fill-opacity="1" fill-rule="nonzero"/><path fill="#32a7ca" d="M 160.6875 129.109375 C 156.574219 133.222656 156.058594 134.808594 156.058594 134.808594 C 156.058594 134.808594 157.785156 134.511719 161.875 130.417969 C 165.703125 126.582031 166.214844 124.996094 166.214844 124.996094 C 166.214844 124.996094 164.796875 125.003906 160.6875 129.109375 " fill-opacity="1" fill-rule="nonzero"/><path fill="#32a7ca" d="M 183.765625 138.773438 C 183.765625 138.773438 184.089844 138.75 184.667969 138.425781 C 185.25 138.09375 186.066406 137.460938 187.210938 136.296875 C 188.289062 135.210938 188.929688 134.445312 189.28125 133.914062 C 189.636719 133.386719 189.699219 133.101562 189.699219 133.101562 C 189.699219 133.101562 189.441406 132.988281 188.832031 133.148438 C 188.234375 133.3125 187.261719 133.761719 186.019531 134.996094 C 184.785156 136.234375 184.25 137.222656 183.992188 137.851562 C 183.742188 138.480469 183.765625 138.773438 183.765625 138.773438 " fill-opacity="1" fill-rule="nonzero"/><path fill="#32a7ca" d="M 215.917969 141.59375 C 216.894531 140.6875 216.683594 139.851562 216.683594 139.851562 C 216.683594 139.851562 215.875 139.238281 214.828125 140.207031 C 213.773438 141.171875 213.984375 142.011719 213.984375 142.011719 C 213.984375 142.011719 214.878906 142.558594 215.917969 141.59375 " fill-opacity="1" fill-rule="nonzero"/><path fill="#32a7ca" d="M 281.367188 136.496094 C 278.855469 138.65625 278.691406 139.792969 278.691406 139.792969 C 278.691406 139.792969 279.957031 140.042969 282.453125 137.886719 C 284.789062 135.871094 284.953125 134.730469 284.953125 134.730469 C 284.953125 134.730469 283.878906 134.335938 281.367188 136.496094 " fill-opacity="1" fill-rule="nonzero"/><path fill="#32a7ca" d="M 209.15625 112.382812 C 209.15625 112.382812 208.046875 112.367188 202.953125 114.847656 C 197.863281 117.328125 196.734375 118.300781 196.734375 118.300781 C 196.734375 118.300781 198.222656 118.140625 203.285156 115.667969 C 208.03125 113.351562 209.15625 112.382812 209.15625 112.382812 " fill-opacity="1" fill-rule="nonzero"/><path fill="#32a7ca" d="M 230.386719 116.605469 C 231.429688 116.046875 231.78125 115.804688 231.78125 115.804688 C 231.78125 115.804688 231.464844 115.792969 230.394531 116.125 C 229.328125 116.464844 227.488281 117.125 224.578125 118.699219 C 221.675781 120.289062 220 121.527344 219.019531 122.285156 C 218.039062 123.058594 217.757812 123.378906 217.757812 123.378906 C 217.757812 123.378906 218.164062 123.246094 219.246094 122.667969 C 220.335938 122.097656 222.09375 121.074219 224.941406 119.507812 C 227.613281 118.050781 229.347656 117.175781 230.386719 116.605469 " fill-opacity="1" fill-rule="nonzero"/><path fill="#32a7ca" d="M 248.273438 120.996094 C 248.273438 120.996094 247.167969 121.101562 242.402344 124.113281 C 237.636719 127.128906 236.628906 128.210938 236.628906 128.210938 C 236.628906 128.210938 238.078125 127.890625 242.824219 124.890625 C 247.265625 122.082031 248.273438 120.996094 248.273438 120.996094 " fill-opacity="1" fill-rule="nonzero"/><path fill="#32a7ca" d="M 264.425781 127.414062 C 264.425781 127.414062 263.515625 127.410156 259.875 129.78125 C 256.234375 132.152344 255.515625 133.074219 255.515625 133.074219 C 255.515625 133.074219 256.695312 132.910156 260.316406 130.546875 C 263.707031 128.335938 264.425781 127.414062 264.425781 127.414062 " fill-opacity="1" fill-rule="nonzero"/><path fill="#32a7ca" d="M 280.359375 134.992188 C 280.359375 134.992188 279.78125 134.820312 278.257812 136.082031 C 276.734375 137.34375 276.582031 137.960938 276.582031 137.960938 C 276.582031 137.960938 277.273438 138.042969 278.789062 136.789062 C 280.207031 135.613281 280.359375 134.992188 280.359375 134.992188 " fill-opacity="1" fill-rule="nonzero"/><path fill="#32a7ca" d="M 139.882812 125.375 C 139.882812 125.375 139.203125 125.359375 137.335938 127.261719 C 135.464844 129.167969 135.257812 129.921875 135.257812 129.921875 C 135.257812 129.921875 136.078125 129.808594 137.933594 127.910156 C 139.675781 126.128906 139.882812 125.375 139.882812 125.375 " fill-opacity="1" fill-rule="nonzero"/><path fill="#32a7ca" d="M 161.585938 126.824219 C 161.585938 126.824219 160.84375 126.777344 158.355469 128.75 C 155.867188 130.722656 155.464844 131.523438 155.464844 131.523438 C 155.464844 131.523438 156.394531 131.433594 158.871094 129.46875 C 161.1875 127.625 161.585938 126.824219 161.585938 126.824219 " fill-opacity="1" fill-rule="nonzero"/><path fill="#32a7ca" d="M 183.371094 135.316406 C 184.179688 134.503906 184.703125 133.984375 185.011719 133.636719 C 185.316406 133.292969 185.398438 133.125 185.398438 133.125 C 185.398438 133.125 185.238281 133.082031 184.816406 133.234375 C 184.398438 133.390625 183.699219 133.746094 182.773438 134.664062 C 181.855469 135.589844 181.449219 136.3125 181.238281 136.753906 C 181.03125 137.203125 181.023438 137.390625 181.023438 137.390625 C 181.023438 137.390625 181.210938 137.328125 181.585938 137.027344 C 181.964844 136.730469 182.507812 136.1875 183.371094 135.316406 " fill-opacity="1" fill-rule="nonzero"/><path fill="#32a7ca" d="M 212.191406 140.242188 C 213.394531 138.863281 213.445312 138.230469 213.445312 138.230469 C 213.445312 138.230469 212.847656 138.152344 211.550781 139.628906 C 210.257812 141.109375 210.207031 141.738281 210.207031 141.738281 C 210.207031 141.738281 210.902344 141.714844 212.191406 140.242188 " fill-opacity="1" fill-rule="nonzero"/></svg>