<svg xmlns="http://www.w3.org/2000/svg" xmlns:xlink="http://www.w3.org/1999/xlink" width="500" zoomAndPan="magnify" viewBox="0 0 375 374.999991" height="500" preserveAspectRatio="xMidYMid meet" version="1.0"><path fill="#32a7ca" d="M 136.832031 119.8125 C 138.648438 115.636719 141.753906 112.859375 145.289062 110.390625 C 150.734375 106.582031 155.488281 107.515625 161.765625 111.597656 C 162.53125 112.097656 163.207031 112.742188 163.898438 113.300781 C 168.035156 109.316406 172.589844 107.226562 178.375 109.136719 C 180.28125 105.9375 183.171875 103.949219 186.238281 102.074219 C 189.84375 99.863281 193.3125 100.199219 196.859375 102.011719 C 197.839844 102.511719 198.664062 103 199.925781 102.441406 C 207.175781 99.210938 214.839844 101.621094 218.800781 108.441406 C 219.65625 109.914062 220.527344 110.277344 222.167969 110.351562 C 226.125 110.523438 229.921875 111.429688 232.835938 114.457031 C 233.265625 114.90625 233.730469 115.160156 234.421875 114.875 C 240.191406 112.496094 244.183594 115.808594 247.890625 119.386719 C 248.980469 120.4375 249.707031 121.128906 251.269531 120.796875 C 258.769531 119.203125 264.640625 121.835938 268.976562 127.976562 C 270.085938 129.550781 271.582031 129.664062 273.164062 129.917969 C 285.136719 131.816406 296.5625 135.640625 307.777344 140.070312 C 312.714844 142.023438 316.441406 145.667969 319.191406 150.257812 C 320.351562 152.195312 320.929688 154.019531 319.527344 156.175781 C 318.363281 157.96875 318.070312 160.15625 317.597656 162.21875 C 314.570312 175.445312 310.023438 188.160156 303.742188 200.148438 C 299.613281 208.023438 294.460938 215.355469 290.011719 223.070312 C 283.292969 234.730469 274.859375 245.03125 264.945312 254.015625 C 257.269531 260.96875 249.171875 267.5625 238.882812 270.488281 C 232.398438 272.332031 225.648438 272.6875 219.046875 273.875 C 210.355469 275.445312 201.585938 274.652344 192.84375 274.835938 C 183.746094 275.023438 174.664062 274.804688 165.59375 274.222656 C 155.15625 273.554688 144.664062 272.664062 134.894531 268.644531 C 128.628906 266.070312 122.902344 262.316406 117.226562 258.535156 C 100.90625 247.65625 89.4375 232.601562 79.347656 216.132812 C 74.265625 207.835938 70.398438 199.003906 66.0625 190.371094 C 63.578125 185.425781 61.003906 180.542969 59.28125 175.28125 C 57.042969 168.425781 55.246094 161.449219 54.269531 154.300781 C 53.816406 150.992188 54.929688 147.976562 56.746094 145.164062 C 60.050781 140.039062 64.984375 137.074219 70.519531 135.210938 C 79.773438 132.101562 89.15625 129.382812 99.007812 128.878906 C 100.523438 128.800781 101.878906 128.433594 102.886719 127.273438 C 106.417969 123.207031 110.914062 122.074219 116.03125 123.011719 C 117.046875 123.195312 117.554688 122.960938 118.136719 122.167969 C 122.503906 116.230469 126.785156 115.148438 133.574219 118.222656 C 134.578125 118.675781 135.558594 119.1875 136.832031 119.8125 Z M 219.542969 116 C 219.714844 115.90625 219.886719 115.8125 220.058594 115.71875 C 221.222656 115.570312 221.894531 114.121094 223.40625 114.546875 C 223.476562 115.546875 223.910156 116.484375 224.648438 117.289062 C 223.238281 119.074219 221.925781 120.738281 220.515625 122.523438 C 222.101562 123.40625 223.117188 123.140625 223.5 121.382812 C 223.855469 119.761719 224.59375 118.757812 226.3125 118.890625 C 226.828125 120.160156 225.335938 120.714844 225.910156 121.839844 C 228.597656 121.667969 231.171875 122.355469 233.699219 123.503906 C 233.230469 115.175781 226.195312 112.3125 220.101562 113.796875 C 220.101562 114.441406 220.101562 115.101562 220.097656 115.761719 C 219.925781 115.859375 219.753906 115.953125 219.574219 116.058594 C 219.351562 116.359375 219.125 116.664062 218.902344 116.964844 L 218.789062 117.003906 C 218.789062 117.003906 218.863281 116.902344 218.867188 116.890625 C 218.898438 116.449219 219.128906 116.152344 219.542969 116 Z M 220.25 258.828125 C 220.523438 258.75 220.792969 258.667969 221.066406 258.585938 C 221.96875 258.300781 222.640625 257.875 222.355469 256.519531 C 221.453125 257.128906 220.867188 257.628906 221.097656 258.621094 C 220.796875 258.714844 220.5 258.804688 220.210938 258.894531 C 220.234375 258.933594 220.261719 258.972656 220.289062 259.011719 C 220.277344 258.949219 220.265625 258.890625 220.25 258.828125 Z M 144.558594 146.238281 C 144.722656 146.089844 144.886719 145.941406 145.050781 145.796875 C 146.09375 145.765625 146.746094 145.976562 146.1875 147.257812 C 144.675781 150.738281 144.230469 150.960938 140.644531 149.964844 C 139.101562 149.539062 139.148438 147.875 138.230469 146.972656 C 138.144531 146.882812 138.027344 146.828125 137.835938 146.691406 C 137.78125 147.492188 136.511719 147.230469 136.707031 148.289062 C 137.703125 149.230469 138.796875 150.175781 139.546875 151.433594 C 139.867188 151.96875 140.277344 152.335938 140.988281 152.257812 C 144.125 151.921875 147.535156 152.445312 148.714844 148.082031 C 149.347656 145.75 152.0625 144.636719 153.429688 142.488281 C 150.023438 138.550781 145.792969 136.777344 140.878906 137.804688 C 136.855469 138.644531 133.964844 141.242188 132.945312 145.472656 C 133.523438 146.203125 134.152344 146.691406 134.96875 146.699219 C 136.421875 144.058594 138.507812 142.078125 140.601562 140.105469 C 141.089844 139.644531 142.097656 139.019531 142.34375 139.492188 C 143.242188 141.214844 144.695312 140.039062 146.019531 140.3125 C 145.644531 141.492188 145.300781 142.609375 146.425781 143.273438 C 146.140625 144.355469 144.933594 144.738281 145.105469 145.847656 C 144.9375 145.992188 144.773438 146.132812 144.605469 146.28125 C 144.335938 146.523438 144.066406 146.765625 143.792969 147.007812 C 143.65625 147.214844 143.515625 147.421875 143.378906 147.625 L 143.285156 147.6875 C 143.285156 147.6875 143.34375 147.570312 143.347656 147.554688 C 143.480469 147.355469 143.617188 147.15625 143.757812 146.953125 C 144.027344 146.714844 144.292969 146.476562 144.558594 146.238281 Z M 220.714844 118.894531 C 220.359375 118.976562 220 119.058594 219.640625 119.144531 C 219.523438 119.554688 219.40625 119.964844 219.261719 120.460938 C 220.035156 120.09375 219.785156 119.617188 219.636719 119.15625 C 220.023438 119.046875 220.40625 118.941406 220.78125 118.847656 C 220.738281 118.839844 220.699219 118.832031 220.65625 118.828125 C 220.691406 118.804688 220.726562 118.785156 220.761719 118.765625 C 220.746094 118.808594 220.730469 118.851562 220.714844 118.894531 Z M 125.460938 158.757812 C 125.460938 158.757812 125.410156 158.703125 125.414062 158.699219 C 125.695312 158.460938 125.976562 158.226562 126.257812 157.988281 C 126.890625 157.257812 127.417969 156.292969 128.859375 156.867188 C 128.195312 159.035156 126.535156 160.449219 125.550781 162.242188 C 124.082031 164.90625 122.484375 166.25 119.570312 164.273438 C 119.152344 163.984375 118.6875 164.167969 118.488281 164.566406 C 118.21875 165.105469 118.476562 165.667969 119.03125 165.761719 C 122.648438 166.386719 126.253906 167.257812 130.039062 166.929688 C 129.855469 165.25 129.714844 163.953125 129.566406 162.605469 C 127.886719 163.128906 127.949219 165.34375 126.308594 165.613281 C 125.328125 164.828125 125.773438 164.074219 126.246094 163.523438 C 129.007812 160.292969 131.464844 156.695312 135.226562 154.535156 C 137.222656 153.386719 136.972656 152.542969 135.699219 151.070312 C 134.222656 149.359375 132.066406 149.09375 130.289062 148.074219 C 128.292969 146.929688 126.394531 146.644531 124.21875 147.042969 C 120.5625 147.71875 118.226562 149.992188 116.566406 153.140625 C 116.585938 153.273438 116.605469 153.40625 116.625 153.535156 C 116.613281 153.398438 116.601562 153.261719 116.589844 153.125 C 117.585938 153.347656 117.992188 152.5625 118.351562 151.949219 C 119.902344 149.300781 121.871094 150.507812 124.007812 151.074219 C 121.855469 155.535156 117.8125 158.535156 116.566406 163.226562 C 117.96875 160.820312 119.714844 158.675781 121.390625 156.480469 C 122.96875 154.40625 124.296875 151.785156 127.703125 154.21875 C 127.269531 155.40625 126.785156 156.722656 126.296875 158.046875 C 126.019531 158.28125 125.742188 158.519531 125.460938 158.757812 Z M 94.148438 231.242188 L 94.261719 231.128906 L 94.089844 231.21875 L 94.144531 231.109375 C 94.144531 231.109375 94.136719 231.253906 94.148438 231.242188 Z M 122.757812 162.835938 C 122.683594 162.851562 122.609375 162.867188 122.535156 162.886719 C 122.621094 162.835938 122.707031 162.785156 122.785156 162.742188 C 122.75 162.722656 122.714844 162.703125 122.675781 162.683594 C 122.703125 162.734375 122.730469 162.785156 122.757812 162.835938 Z M 141.742188 142.257812 C 141.800781 142.292969 141.855469 142.328125 141.914062 142.363281 C 141.839844 142.355469 141.765625 142.347656 141.703125 142.328125 L 141.863281 142.332031 Z M 87.402344 142.105469 L 87.539062 142.105469 C 87.539062 142.105469 87.445312 142.164062 87.441406 142.171875 C 87.191406 142.410156 86.945312 142.652344 86.699219 142.894531 C 86.382812 142.964844 85.960938 142.925781 85.761719 143.121094 C 82.542969 146.257812 79.339844 149.417969 76.164062 152.597656 C 75.832031 152.933594 75.542969 153.453125 76.277344 153.949219 C 78.9375 151.535156 81.621094 149.109375 84.292969 146.671875 C 85.441406 145.625 86.300781 144.390625 86.664062 142.847656 C 86.910156 142.601562 87.15625 142.355469 87.402344 142.105469 Z M 221.390625 141.570312 C 221.632812 141.425781 221.878906 141.28125 222.121094 141.136719 C 224.164062 141.339844 224.457031 142.125 222.996094 143.601562 C 222.246094 144.363281 221.386719 145.074219 221.152344 146.226562 C 221.488281 146.777344 221.136719 146.792969 220.726562 146.769531 C 220.453125 147.019531 220.179688 147.269531 219.90625 147.519531 C 219.90625 147.519531 219.855469 147.46875 219.863281 147.464844 C 220.136719 147.214844 220.414062 146.964844 220.6875 146.710938 C 220.839844 146.523438 220.992188 146.332031 221.144531 146.144531 C 222.414062 145.050781 223.675781 143.945312 224.964844 142.875 C 225.347656 142.558594 225.828125 142.269531 226.316406 142.726562 C 226.9375 143.304688 226.550781 143.785156 226.101562 144.207031 C 225.238281 145.023438 224.445312 145.875 224.242188 147.09375 C 224.199219 147.0625 224.152344 147.035156 224.109375 147.003906 C 224.117188 147.050781 224.125 147.09375 224.132812 147.136719 C 224.625 146.167969 225.195312 145.367188 226.5625 146.035156 C 226.433594 148.042969 224.234375 148.972656 223.753906 151.144531 C 226.574219 150.375 229.089844 150.503906 231.546875 151.28125 C 232.59375 151.609375 233.21875 151.265625 233.523438 150.320312 C 233.804688 149.4375 234.113281 148.523438 234.136719 147.613281 C 234.285156 142.65625 231.339844 139.355469 227.414062 137.335938 C 223.277344 135.207031 218.808594 135.589844 214.851562 138.417969 C 213.972656 139.046875 213.953125 140.566406 212.460938 140.550781 C 212.828125 141.515625 212.714844 142.472656 213.78125 142.847656 C 215.097656 141.433594 216.234375 139.507812 218.03125 139.003906 C 219.476562 138.597656 221.265625 139.359375 222.769531 138.753906 C 223.300781 140.058594 222.277344 140.453125 222.160156 141.183594 C 221.878906 141.335938 221.597656 141.488281 221.332031 141.632812 C 221.339844 141.65625 221.351562 141.683594 221.363281 141.707031 C 221.371094 141.664062 221.382812 141.617188 221.390625 141.570312 Z M 173.902344 146.582031 C 173.859375 146.578125 174.078125 146.976562 173.8125 146.652344 C 173.832031 146.679688 173.851562 146.707031 173.871094 146.730469 C 173.882812 146.679688 173.894531 146.628906 173.902344 146.582031 Z M 214.117188 145.695312 C 214.199219 145.824219 213.816406 146.136719 214.28125 146.113281 C 214.214844 145.972656 214.148438 145.832031 214.101562 145.699219 C 214.386719 145.566406 214.671875 145.433594 214.957031 145.300781 C 216.289062 144.328125 217.382812 143.152344 218.21875 141.75 C 217.132812 142.933594 215.277344 143.464844 214.996094 145.335938 C 214.703125 145.457031 214.410156 145.578125 214.117188 145.695312 Z M 96.710938 221.234375 C 96.714844 220.617188 96.714844 219.996094 96.71875 219.375 C 95.113281 217.691406 95.421875 214.84375 93.0625 213.621094 C 93.730469 215.875 94.289062 218.195312 96.707031 219.402344 C 96.707031 220.011719 96.707031 220.617188 96.707031 221.230469 C 96.753906 221.28125 96.800781 221.335938 96.847656 221.390625 C 96.800781 221.347656 96.75 221.304688 96.710938 221.234375 Z M 203.367188 114.652344 C 203.390625 114.65625 203.410156 114.65625 203.417969 114.660156 C 203.34375 114.683594 203.269531 114.707031 203.195312 114.726562 C 203.253906 114.703125 203.308594 114.679688 203.367188 114.652344 Z M 206.867188 130.300781 C 204.636719 132.746094 204.636719 132.746094 205.476562 134.480469 C 205.566406 132.742188 207.203125 131.929688 206.867188 130.304688 C 208.671875 130.054688 209.890625 128.929688 210.957031 127.574219 C 211.574219 127.554688 212.328125 127.105469 212.722656 128.273438 C 211 130.589844 208.214844 132.148438 207.066406 135.15625 C 208.101562 135.9375 209.292969 136.835938 210.289062 137.589844 C 213.140625 136.578125 214.445312 134.289062 215.515625 132.128906 C 216.8125 132.640625 215.511719 133.65625 216.710938 133.996094 C 217.726562 132.636719 220.496094 134.222656 220.898438 131.683594 C 221.175781 129.917969 220.773438 128.203125 220.074219 126.480469 C 218.058594 121.523438 209.796875 118.398438 204.09375 122.292969 C 200.933594 124.449219 199.648438 126.855469 200.550781 130.476562 C 201.875 129.0625 202.816406 127.480469 204.101562 126.175781 C 206.519531 123.71875 207.066406 123.433594 208.71875 124.847656 C 206.019531 127.09375 202.9375 129.039062 202.144531 132.8125 C 204.546875 129.960938 207.296875 127.492188 210.121094 125.101562 C 210.933594 124.414062 211.78125 123.558594 212.8125 124.574219 C 212.976562 126.300781 210.996094 126.125 210.710938 127.347656 C 209.429688 128.332031 208.148438 129.316406 206.867188 130.300781 Z M 217.242188 114.359375 C 216.339844 115.546875 214.046875 115.890625 214.894531 118.144531 C 215.183594 116.617188 217.574219 116.347656 217.171875 114.414062 C 217.1875 114.453125 217.207031 114.488281 217.222656 114.523438 C 217.230469 114.46875 217.234375 114.414062 217.242188 114.359375 Z M 225.089844 167.277344 C 224.339844 167.269531 223.519531 167.460938 222.855469 167.214844 C 221.082031 166.5625 221.203125 167.707031 220.921875 169.164062 C 222.476562 168.296875 224.425781 169.429688 225.058594 167.25 C 225.371094 167.109375 225.6875 166.96875 226.003906 166.828125 C 226.621094 165.265625 227.578125 164.023438 229.347656 163.1875 C 229.546875 165.164062 227.910156 166.207031 227.632812 167.8125 C 229.445312 167.8125 231.121094 167.769531 232.792969 167.828125 C 234.046875 167.871094 234.8125 167.300781 235.492188 166.296875 C 238.539062 161.808594 236.511719 158.707031 232.457031 154.941406 C 230.3125 152.945312 224.914062 153.652344 222.351562 156.085938 C 220.507812 157.835938 220.734375 159.554688 223.003906 160.988281 C 223.40625 157.003906 225.390625 154.8125 228.734375 154.59375 C 230.5625 156.757812 229.433594 158.148438 227.632812 159.554688 C 226.59375 160.367188 225.324219 161.136719 224.855469 162.90625 C 226.472656 162.402344 227.113281 160.824219 228.78125 160.554688 C 228.375 162.203125 227.390625 163.128906 226.5 164.105469 C 225.761719 164.914062 225.238281 165.734375 225.996094 166.808594 C 225.695312 166.964844 225.390625 167.121094 225.089844 167.277344 Z M 232.730469 126.808594 L 232.804688 126.886719 C 232.394531 126.457031 232.042969 125.949219 231.566406 125.621094 C 229.832031 124.417969 225.097656 124.28125 223.796875 125.554688 C 222.082031 127.238281 224.050781 128.863281 223.792969 131.027344 C 225.21875 129.394531 226.230469 128.183594 227.304688 127.035156 C 227.640625 126.675781 228.171875 126.382812 228.660156 126.792969 C 228.875 126.972656 229.109375 127.492188 229.011719 127.632812 C 228.058594 129.007812 226.902344 130.210938 226.152344 131.757812 C 225.773438 132.542969 224.78125 131.425781 223.390625 132.3125 C 226.222656 134.035156 229.320312 134.507812 231.71875 136.785156 C 232.5625 135.800781 233.191406 134.878906 234 134.164062 C 236.804688 131.683594 236.894531 131.082031 234.457031 128.289062 C 233.964844 127.722656 233.3125 127.300781 232.730469 126.808594 Z M 241.539062 140.234375 C 242.5 140.171875 243.109375 138.800781 244.265625 139.453125 C 244.839844 140.890625 242.566406 141.109375 243.066406 142.601562 C 247.738281 141.527344 251.90625 142.535156 255.386719 146.109375 C 256.113281 144.339844 255.609375 143.097656 254.726562 142.019531 C 253.332031 140.316406 252.035156 138.453125 250.351562 137.078125 C 244.730469 132.488281 240.0625 133.179688 235.417969 137.332031 C 234.609375 138.054688 233.761719 139.03125 235.070312 140.261719 C 236.535156 138.792969 237.464844 137.113281 239.046875 136.0625 C 239.496094 135.765625 239.945312 135.53125 240.429688 135.917969 C 241.078125 136.433594 240.8125 136.945312 240.371094 137.441406 C 240.359375 137.46875 240.347656 137.492188 240.332031 137.515625 C 240.363281 137.472656 240.394531 137.425781 240.425781 137.382812 C 241.675781 137.863281 242.671875 135.335938 244.101562 137.019531 C 243.625 138.457031 241.808594 138.761719 241.589844 140.28125 C 240.902344 140.195312 240.3125 140.5 240.183594 141.113281 C 239.675781 143.535156 238.378906 142.921875 237.085938 141.9375 C 235.921875 143.171875 236.558594 144.152344 237.203125 145.203125 C 238.730469 144.328125 240.835938 144.164062 240.496094 141.609375 C 240.441406 141.203125 241.171875 140.695312 241.539062 140.234375 Z M 176.042969 131.6875 C 177.378906 130.195312 178.257812 128.203125 180.429688 127.394531 C 181.171875 129.738281 177.617188 130.414062 178.699219 132.636719 C 180.816406 133.335938 180.796875 130.378906 182.507812 130.410156 C 183.160156 131.351562 181.875 132.003906 182.308594 132.9375 C 183.296875 133.484375 184.429688 133.644531 185.59375 133.582031 C 187.058594 129.933594 185.429688 124.746094 182.316406 123.011719 C 178.722656 121.007812 172.042969 121.820312 169.953125 124.515625 C 169.464844 125.144531 169.007812 125.847656 169.644531 126.570312 C 171.652344 128.84375 173.160156 131.457031 174.675781 134 C 176.273438 133.734375 176.617188 132.898438 176.128906 131.597656 Z M 109.796875 137.226562 C 110.777344 137.066406 111.660156 137.132812 111.132812 138.457031 C 110.726562 139.46875 110.085938 140.382812 109.542969 141.339844 C 108.773438 142.695312 108.867188 143.832031 110.316406 144.792969 C 111.042969 143.707031 110.175781 141.714844 112.335938 141.753906 C 113.203125 143.003906 111.84375 144.019531 112.070312 145.167969 C 112.8125 145.535156 113.496094 146.042969 114.507812 145.835938 C 114.171875 142.816406 113.527344 139.851562 115.199219 136.9375 C 116.824219 134.109375 119.597656 132.570312 121.84375 130.492188 C 119.703125 126.582031 115.339844 124.847656 111.355469 126.21875 C 111.40625 127.625 112.070312 128.609375 113.769531 129.035156 C 112.464844 130.417969 111.390625 131.5625 110.328125 132.6875 C 111.175781 134.03125 111.175781 134.03125 109.605469 137.046875 C 108.664062 137.8125 107.707031 138.570312 107.484375 140.660156 C 108.523438 139.121094 109.160156 138.171875 109.796875 137.226562 Z M 196.820312 143.53125 C 198.246094 143.773438 198.546875 142.402344 199.378906 141.785156 C 200.480469 140.960938 201.058594 139.210938 203.433594 139.609375 C 200.921875 143.375 197.285156 145.902344 195.464844 149.738281 C 198.226562 147.367188 200.148438 144.175781 203.375 142.046875 C 203.925781 143.597656 202.984375 144.128906 202.476562 144.839844 C 200.804688 147.183594 198.234375 148.824219 196.992188 151.460938 C 196.109375 153.332031 195.449219 154.226562 193.960938 151.5625 C 194.15625 153.597656 195.335938 154.414062 196.8125 155.457031 C 199.507812 151.855469 200.304688 146.820312 205.273438 144.632812 C 204.632812 147.433594 202.183594 148.492188 201.324219 151.394531 C 203.0625 150.011719 204.574219 149.816406 206.035156 149.503906 C 209.992188 148.664062 211.644531 145.214844 209.652344 141.605469 C 207.816406 138.285156 205.152344 136.382812 201.132812 137.160156 C 199.519531 134.835938 197.832031 136.171875 196.082031 136.996094 C 193.132812 138.382812 194.351562 140.550781 194.777344 143.09375 C 195.867188 141.804688 196.617188 140.792969 197.5 139.914062 C 198.589844 138.824219 199.234375 137.105469 201.175781 137.113281 C 201.15625 138.058594 200.964844 138.863281 200.226562 139.609375 C 198.988281 140.855469 197.90625 142.261719 196.769531 143.597656 C 196.785156 143.632812 196.804688 143.664062 196.824219 143.695312 C 196.824219 143.640625 196.820312 143.585938 196.820312 143.53125 Z M 176.074219 149.832031 L 176.015625 149.757812 C 176.285156 151.78125 176.144531 153.949219 177.84375 155.5 C 181.011719 153.703125 182.5625 150.335938 185.820312 148.859375 C 185.503906 149.601562 185.183594 150.347656 184.78125 151.296875 C 186.230469 151.222656 187.515625 150.929688 188.707031 151.144531 C 190.839844 151.53125 191.632812 150.464844 192.039062 148.679688 C 192.929688 144.789062 192.007812 141.449219 188.984375 138.773438 C 186.023438 136.15625 182.648438 135.109375 178.675781 135.867188 C 175.546875 136.46875 173.957031 139.109375 171.761719 140.878906 C 170.363281 142.007812 170.203125 144.035156 171.535156 144.902344 C 174.195312 142.664062 176.667969 140.621094 179.09375 138.523438 C 179.847656 137.875 180.445312 137.273438 181.492188 138.082031 C 182.59375 138.929688 182.160156 139.585938 181.480469 140.394531 C 179.898438 142.277344 178.28125 144.140625 176.855469 146.136719 C 176.113281 147.175781 174.789062 148.285156 176.074219 149.832031 Z M 121.460938 251.441406 C 121.542969 251.605469 121.542969 251.996094 121.835938 251.582031 C 121.699219 251.554688 121.558594 251.527344 121.417969 251.5 C 120.863281 249.953125 119.46875 249.207031 118.238281 248.382812 C 111.929688 244.160156 106.84375 238.617188 102.457031 232.597656 C 96.332031 224.191406 90.695312 215.425781 86.929688 205.585938 C 86.128906 203.5 85.277344 200.574219 81.636719 200.835938 C 86.046875 212.707031 91.230469 223.960938 98.589844 233.617188 C 97.984375 234.863281 97.214844 233.5 96.902344 234.59375 C 98.460938 236.476562 99.984375 238.410156 101.605469 240.261719 C 114.75 255.289062 130.054688 266.648438 150.542969 269.476562 C 165.164062 271.492188 179.832031 271.941406 194.566406 271.917969 C 198.367188 271.910156 199.863281 270.050781 201.445312 267.496094 C 199.121094 265.9375 198.277344 268.472656 196.875 269.085938 C 195.941406 268.519531 196.277344 267.101562 194.695312 267.148438 C 191.824219 267.234375 188.871094 267.214844 186.082031 266.621094 C 183.3125 266.03125 180.726562 267.210938 177.875 266.539062 C 174.476562 265.738281 170.785156 266.222656 167.21875 266.078125 C 166.089844 266.03125 164.847656 266.105469 163.804688 264.9375 C 169.328125 265.300781 174.597656 263.949219 180.300781 265.472656 C 179.367188 263.5625 177.34375 264.601562 177.011719 262.65625 C 180.386719 264.160156 180.738281 261.929688 181.476562 259.574219 C 182.703125 255.65625 183.1875 251.632812 183.828125 247.625 C 183.9375 246.9375 183.710938 246.007812 185.171875 246.007812 C 185.464844 251.816406 183.699219 257.304688 182.507812 262.867188 C 185.441406 262.867188 188.054688 262.859375 190.664062 262.875 C 191.570312 262.878906 192.769531 263.496094 193.3125 262.613281 C 194.691406 260.355469 196.265625 258.15625 197.074219 255.453125 C 193.957031 254.800781 190.894531 256.167969 188.222656 254.429688 C 189.597656 254.507812 190.933594 254.035156 192.214844 254.121094 C 195.050781 254.3125 197.847656 253.480469 200.710938 254.058594 C 201.898438 254.300781 203.667969 254.859375 204.480469 253.449219 C 205.890625 251.007812 206.972656 248.378906 208.203125 245.796875 C 204.257812 244.648438 200.464844 246.449219 196.605469 245.164062 C 197.03125 244.761719 197.140625 244.558594 197.269531 244.550781 C 200.148438 244.332031 203.023438 244.117188 205.90625 243.9375 C 209.472656 243.71875 211.027344 241.734375 210.527344 237.976562 C 207.695312 237.027344 204.675781 238.882812 201.832031 237.480469 C 204.1875 236.796875 206.554688 236.277344 208.933594 236.222656 C 214.875 236.09375 220.820312 235.839844 226.761719 236.222656 C 228.46875 236.335938 229.976562 236.085938 230.621094 234.179688 C 230.644531 234.113281 230.921875 234.132812 231.097656 234.109375 C 231.808594 234.648438 230.714844 235.648438 231.601562 236.132812 C 237.8125 236.273438 238.488281 235.847656 239.644531 230.949219 C 230.007812 230.308594 220.382812 229.882812 210.734375 230.089844 C 210.765625 229.160156 211.105469 229.035156 211.429688 228.980469 C 214.953125 228.402344 218.503906 228.441406 222.058594 228.449219 C 227.332031 228.457031 232.578125 228.914062 237.816406 229.476562 C 240.125 229.726562 241.738281 229.074219 242.546875 226.703125 C 242.808594 225.9375 242.9375 224.578125 244.429688 224.835938 C 245.03125 226.585938 243.035156 227.554688 243.269531 229.230469 C 245.882812 229.171875 248.640625 229.566406 249.328125 225.578125 C 250.265625 227.132812 249.066406 228.085938 249.65625 229.070312 C 251 229.050781 252.570312 229.875 253.402344 228.046875 C 254.40625 225.847656 255.371094 223.628906 256.417969 221.269531 C 253.484375 221.269531 250.878906 221.234375 248.277344 221.28125 C 245.554688 221.332031 242.816406 221.710938 240.121094 221.5 C 237.476562 221.289062 234.921875 221.914062 232.304688 221.792969 C 229.789062 221.679688 227.203125 222.574219 224.769531 221.433594 C 228.851562 219.800781 233.097656 220.152344 237.257812 219.957031 C 243.183594 219.683594 249.128906 220.011719 255.050781 219.285156 C 256.410156 219.121094 257.246094 218.730469 257.652344 217.375 C 258.058594 216.019531 258.691406 214.722656 258.589844 213.261719 C 258.246094 213.140625 258.007812 212.976562 257.773438 212.984375 C 249.710938 213.289062 241.648438 213.589844 233.589844 213.957031 C 232.59375 214 231.707031 214.226562 231.511719 212.945312 C 231.90625 212.097656 232.640625 212.207031 233.308594 212.167969 C 241.109375 211.730469 248.914062 211.269531 256.71875 210.871094 C 259.871094 210.710938 260.65625 209.820312 260.539062 205.886719 C 247.808594 207.667969 234.980469 205.472656 222.230469 207.722656 C 222.25 206.527344 222.65625 206.378906 223.070312 206.296875 C 227.578125 205.398438 232.164062 204.734375 236.71875 204.941406 C 246.066406 205.363281 255.335938 204.707031 264.601562 203.71875 C 270.277344 203.113281 275.800781 201.710938 281.378906 200.585938 C 285.160156 199.824219 286.722656 197.472656 286.058594 193.445312 C 280.855469 194.53125 275.6875 195.894531 270.433594 196.628906 C 263.308594 197.625 256.113281 197.996094 248.917969 198.363281 C 237.644531 198.945312 226.351562 199.414062 215.140625 200.894531 C 214.164062 201.023438 212.980469 201.269531 212.339844 200.003906 C 213.414062 198.9375 214.59375 199.535156 215.632812 199.359375 C 227.285156 197.40625 239.074219 197.050781 250.835938 196.523438 C 261.007812 196.074219 271.132812 195.46875 281.046875 192.957031 C 286.882812 191.480469 287.929688 190.351562 287.683594 185.417969 C 284.039062 186.496094 280.410156 187.410156 276.707031 188.015625 C 271.769531 188.824219 266.953125 190.417969 261.933594 190.65625 C 252.945312 191.078125 244.054688 192.28125 235.164062 193.546875 C 234.058594 193.707031 233.183594 193.769531 232.917969 192.53125 C 233.289062 191.839844 233.820312 191.871094 234.324219 191.789062 C 238.003906 191.164062 241.800781 191.175781 245.421875 190.539062 C 252.875 189.230469 260.480469 189.691406 267.886719 188.175781 C 273.429688 187.042969 279.058594 186.449219 284.53125 184.816406 C 287.488281 183.933594 289.152344 182.71875 288.972656 179.546875 C 288.964844 179.441406 289.199219 179.324219 289.375 179.167969 C 291.683594 179.222656 290.667969 181.273438 291.214844 182.367188 C 294.933594 181.710938 295.679688 180.546875 295.03125 175.945312 C 274.394531 182.09375 253.132812 184.636719 231.945312 187.667969 C 236.59375 186.042969 241.269531 184.515625 246.058594 183.589844 C 260.054688 180.882812 274.167969 178.761719 287.949219 175.019531 C 293.667969 173.464844 299.632812 172.703125 304.929688 169.753906 C 306.738281 168.746094 308.671875 167.96875 310.734375 167 C 311.089844 169.640625 308.890625 169.605469 307.765625 170.390625 C 306.519531 171.257812 305.5625 171.875 305.65625 173.714844 C 305.730469 175.125 306.109375 177.054688 305.609375 177.929688 C 304.015625 180.722656 303.65625 183.796875 302.648438 186.703125 C 302.171875 188.074219 301.539062 189.65625 300.121094 190.445312 C 299.234375 190.09375 300.007812 188.984375 298.996094 188.746094 C 297.246094 189.3125 295.273438 189.667969 293.59375 190.570312 C 291.9375 191.457031 292.695312 194.1875 290.816406 195.277344 C 290.046875 193.90625 291.699219 192.996094 291.183594 191.8125 C 289.019531 191.890625 287.785156 194.585938 287.945312 198.945312 C 290.324219 198.242188 292.664062 197.492188 295.035156 196.890625 C 295.789062 196.699219 296.75 196.113281 297.417969 196.964844 C 297.996094 197.699219 297.71875 198.578125 297.359375 199.378906 C 297.117188 199.921875 296.945312 200.503906 296.644531 201.007812 C 293.960938 205.519531 291.355469 210.078125 288.542969 214.503906 C 281.730469 225.207031 273.960938 235.171875 265.195312 244.351562 C 259.917969 249.878906 255.054688 255.835938 248.789062 260.347656 C 247.859375 261.011719 246.683594 262.65625 245.605469 261.214844 C 244.636719 259.914062 246.519531 259.273438 247.34375 258.667969 C 254.421875 253.445312 260.355469 246.996094 266.273438 240.597656 C 271.90625 234.503906 277.152344 228.035156 281.972656 221.253906 C 285.136719 216.804688 288.175781 212.265625 291.40625 207.5625 C 286.761719 208.164062 285.132812 209.507812 284.050781 213.40625 C 283.460938 215.539062 282.714844 217.601562 281.617188 219.535156 C 281.003906 220.613281 280.28125 221.273438 278.863281 220.550781 C 279.625 219.085938 280.859375 217.792969 280.632812 215.980469 C 275.148438 215.910156 270.207031 219.519531 268.082031 225.285156 C 270.539062 224.371094 272.808594 223.558594 275.054688 222.671875 C 275.714844 222.410156 276.367188 221.984375 276.796875 222.832031 C 277.265625 223.742188 276.398438 224.054688 275.828125 224.285156 C 273.554688 225.21875 271.292969 226.210938 268.945312 226.914062 C 265.847656 227.839844 264.078125 229.941406 262.765625 232.796875 C 266.289062 233.335938 269.085938 229.976562 273.246094 231.53125 C 270.453125 233.199219 267.9375 234.007812 265.441406 234.367188 C 261.164062 234.984375 258.480469 237.246094 256.8125 241.316406 C 259.195312 241.1875 261.347656 239.835938 264.3125 240.539062 C 261.753906 241.972656 259.605469 242.9375 257.398438 243.066406 C 254.992188 243.207031 253.742188 244.410156 252.5625 246.195312 C 251.214844 248.242188 250.117188 250.917969 248.582031 252.246094 C 245.660156 254.773438 243.386719 257.75 240.867188 260.546875 C 238.839844 262.792969 236.789062 264.988281 234.324219 266.742188 C 233.414062 267.390625 232.410156 268.289062 231.167969 266.960938 C 231.566406 266.273438 231.933594 265.644531 232.371094 264.894531 C 227.242188 264.007812 224.550781 267.863281 221.074219 270.148438 C 225.914062 269.660156 230.648438 268.839844 235.390625 268.046875 C 238.546875 267.515625 241.628906 267.0625 244.542969 265.367188 C 253.742188 260.015625 261.738281 253.253906 269.054688 245.59375 C 276.417969 237.878906 282.558594 229.273438 288.078125 220.191406 C 292.261719 213.3125 296.613281 206.519531 300.535156 199.492188 C 305.773438 190.109375 309 179.847656 312.765625 169.835938 C 313.941406 166.71875 314.605469 163.40625 315.648438 159.65625 C 314.75 160.179688 314.386719 160.363281 314.054688 160.585938 C 307.535156 165.027344 300.578125 168.542969 292.800781 170.125 C 280.652344 172.597656 268.519531 175.175781 256.308594 177.289062 C 238.976562 180.289062 221.613281 183.246094 203.933594 183.191406 C 200.957031 183.183594 198.070312 184.210938 195.140625 183.851562 C 191.007812 183.339844 186.882812 182.90625 182.71875 182.664062 C 169.140625 181.875 155.566406 180.964844 141.996094 180.011719 C 132.335938 179.335938 122.664062 178.953125 113.152344 176.707031 C 101.660156 173.988281 90.054688 171.761719 78.515625 169.238281 C 76.121094 168.714844 73.675781 168.089844 71.484375 167.042969 C 65.921875 164.378906 60.167969 161.859375 57.195312 155.765625 C 63.796875 182.460938 76.71875 206.023438 92.113281 228.386719 C 91.957031 227.292969 91.402344 226.390625 90.878906 225.472656 C 84.648438 214.527344 80.976562 202.433594 75.40625 191.195312 C 73.316406 186.976562 73.046875 181.785156 68.316406 178.4375 C 70.226562 178.058594 69.660156 176.589844 70.09375 174.738281 C 70.691406 176.992188 71.222656 178.519531 72.976562 178.832031 C 76.179688 179.398438 79.113281 180.828125 82.242188 181.609375 C 90.0625 183.554688 97.890625 185.464844 105.691406 187.484375 C 106.453125 187.683594 107.976562 187.257812 107.796875 188.96875 L 107.808594 188.984375 C 101.066406 187.332031 94.324219 185.683594 87.566406 184.03125 C 86.792969 188.664062 87.460938 189.65625 91.574219 190.390625 C 92.992188 190.644531 94.449219 190.832031 95.804688 191.300781 C 102.332031 193.574219 109.09375 194.851562 115.890625 195.851562 C 120.320312 196.503906 124.84375 196.539062 129.328125 196.78125 C 129.9375 196.8125 130.566406 196.109375 131.191406 196.789062 C 131.4375 197.058594 131.519531 197.390625 131.292969 197.707031 C 130.789062 198.410156 130.039062 198.523438 129.246094 198.46875 C 121.183594 197.882812 113.148438 197.109375 105.242188 195.300781 C 99.804688 194.054688 94.347656 192.90625 88.859375 191.710938 C 88.445312 198.183594 92.835938 202.886719 98.632812 202.367188 C 98.875 201.027344 97.402344 199.648438 98.554688 198.03125 C 99.046875 199.210938 99.40625 200.144531 99.820312 201.050781 C 100.332031 202.160156 100.410156 203.554688 101.976562 203.945312 C 104.109375 204.472656 106.238281 205.042969 108.328125 205.722656 C 110.558594 206.453125 112.625 207.019531 113.183594 203.746094 C 114.757812 204.59375 114.039062 206.957031 116.09375 207.199219 C 120.316406 207.691406 124.53125 207.855469 128.734375 207.101562 C 129.398438 206.984375 130.214844 205.945312 130.636719 207.082031 C 131.132812 208.410156 129.828125 208.523438 128.972656 208.730469 C 128.234375 208.90625 127.457031 208.957031 126.695312 208.972656 C 123.246094 209.054688 119.796875 209.5625 116.144531 208.644531 C 116.550781 211.066406 117.820312 212.761719 118.292969 214.691406 C 118.886719 217.09375 120.433594 217.632812 122.578125 217.769531 C 123.769531 217.847656 125.214844 217.308594 126.296875 218.648438 C 124.320312 219.460938 122.4375 218.390625 120.351562 218.988281 C 121.390625 221.265625 122.445312 223.449219 123.394531 225.679688 C 124.582031 228.484375 125.742188 231.238281 129.648438 230.515625 C 129.714844 230.503906 129.828125 230.761719 129.953125 230.9375 C 129.40625 232.15625 127.929688 231.550781 127.007812 232.5 C 128.226562 234.148438 128.085938 236.90625 130.625 237.546875 C 132.660156 238.054688 134.832031 238.015625 137.542969 238.277344 C 135.050781 239.929688 132.855469 238.40625 130.550781 239.210938 C 131.765625 241.046875 133.023438 242.628906 133.929688 244.394531 C 135.152344 246.773438 137.007812 247.515625 139.535156 247.460938 C 140.648438 247.4375 141.964844 247.136719 143.09375 248.058594 C 141.449219 249.300781 139.542969 247.675781 137.90625 249.09375 C 141.582031 254.359375 146.402344 258.484375 150.984375 262.917969 C 146.988281 261.496094 144.285156 256.691406 138.945312 259.011719 C 140.949219 260.949219 143.804688 261.945312 145.472656 264.476562 C 143.902344 265.070312 143.328125 264 142.558594 263.4375 C 139.34375 261.089844 136.230469 258.222656 132.285156 257.585938 C 129.714844 257.175781 127.507812 256.480469 125.257812 255.300781 C 123.019531 254.121094 120.449219 253.582031 118.441406 251.921875 C 117.5 251.140625 116.402344 250.390625 116.910156 248.652344 C 118.660156 249.40625 119.574219 251.273438 121.460938 251.441406 Z M 99.671875 132.03125 C 87.460938 133.195312 75.699219 135.648438 64.984375 141.5625 C 60.945312 143.796875 58.050781 147.5625 59.191406 151.332031 C 59.988281 153.960938 61.183594 156.355469 63.257812 158.265625 C 66.824219 161.554688 71 163.917969 75.558594 165.277344 C 84.921875 168.070312 94.550781 169.828125 104.117188 171.789062 C 111.351562 173.273438 118.4375 175.460938 125.867188 176.070312 C 134.5 176.773438 143.152344 177.117188 151.796875 177.679688 C 159.0625 178.148438 166.316406 179.097656 173.589844 179.246094 C 182.152344 179.417969 190.695312 180.007812 199.285156 179.941406 C 210.777344 179.851562 222.183594 179.332031 233.535156 177.589844 C 242.433594 176.222656 251.304688 174.703125 260.171875 173.132812 C 271.71875 171.089844 283.277344 169.070312 294.664062 166.289062 C 302.902344 164.273438 310.335938 160.410156 316.460938 154.300781 C 316.105469 153.5 315.265625 152.96875 315.578125 152.132812 C 316.132812 150.65625 315.257812 149.664062 314.453125 148.710938 C 312.6875 146.625 310.667969 144.851562 308.3125 143.398438 C 304.265625 140.898438 299.695312 139.824219 295.273438 138.347656 C 288.035156 135.925781 280.75 133.679688 273.097656 132.34375 C 275.199219 133.699219 276.3125 136.292969 278.441406 137.1875 C 282.09375 138.722656 286.054688 139.519531 289.878906 140.652344 C 294.675781 142.074219 299.613281 143.257812 303.648438 146.402344 C 307.832031 149.65625 307.03125 155.335938 301.941406 156.921875 C 289.785156 160.707031 277.652344 164.640625 265.144531 167.121094 C 249.292969 170.269531 233.082031 170.679688 217.132812 173.191406 C 208.332031 174.578125 199.40625 174.238281 190.515625 173.902344 C 184.832031 173.6875 179.144531 173.589844 173.46875 173.261719 C 163.292969 172.667969 153.183594 171.359375 142.972656 171.007812 C 131.511719 170.609375 120.046875 169.8125 108.867188 166.789062 C 99.765625 164.328125 90.589844 162.140625 81.476562 159.710938 C 77.023438 158.523438 72.789062 156.738281 68.988281 154.066406 C 66.785156 152.515625 65.960938 150.253906 65.992188 147.671875 C 66.023438 145.046875 68.207031 144.132812 70.070312 143.324219 C 78.597656 139.617188 87.476562 137.007812 96.765625 136.230469 C 99.628906 135.992188 100.21875 134.859375 99.671875 132.03125 Z M 203.707031 154.226562 C 199.949219 155.320312 196.890625 160.269531 197.273438 164.285156 C 197.628906 168.042969 199.46875 169.742188 203.117188 170.363281 C 206.539062 170.941406 209.898438 170.515625 213.261719 170.230469 C 217.21875 169.894531 220.640625 164.042969 218.761719 160.503906 C 216.96875 157.132812 214.535156 154.121094 210.589844 152.90625 C 209.015625 152.421875 207.453125 152.253906 205.734375 153.121094 C 206.554688 153.765625 206.777344 154.605469 206.675781 155.503906 C 207.644531 155.460938 208.375 154.296875 209.140625 155.488281 C 209.363281 156.867188 207.101562 156.851562 207.460938 157.988281 C 208.0625 159.890625 206.664062 160.554688 205.746094 161.578125 C 204.671875 162.769531 203.542969 163.925781 202.589844 165.207031 C 202.179688 165.757812 202.359375 166.917969 201.25 166.625 C 200.351562 166.386719 199.355469 165.6875 199.449219 164.738281 C 199.730469 161.855469 198.773438 158.582031 201.851562 156.453125 C 202.558594 155.960938 203 155.09375 203.707031 154.226562 Z M 179.234375 170.328125 C 175.898438 166.433594 175.898438 166.433594 175.675781 161.328125 C 175.449219 156.058594 174.222656 153.773438 170.792969 152.816406 C 167.105469 151.789062 163.5625 152.34375 160.210938 154.222656 C 156.777344 156.144531 155.4375 159.132812 155.742188 162.929688 C 155.894531 164.847656 156.453125 166.664062 158.425781 167.492188 C 161 168.578125 163.644531 169.382812 166.496094 169.5 C 170.523438 169.667969 174.546875 170.015625 179.234375 170.328125 Z M 246.667969 165.96875 C 251.269531 165.859375 255.855469 160.199219 255.765625 154.863281 C 255.671875 149.007812 252.074219 145.101562 246.820312 145.265625 C 242.3125 145.40625 236.757812 148.320312 236.683594 153.109375 C 238.796875 151.273438 240.902344 149.566406 242.863281 147.699219 C 244.570312 146.082031 246.179688 146.066406 247.925781 147.390625 C 247.878906 148.703125 246.449219 148.882812 246.125 150.125 C 249.851562 149.816406 245.703125 153.191406 248.160156 153.566406 C 245.363281 156.464844 242.269531 158.707031 240.628906 162.222656 C 243.339844 160.71875 245.25 157.960938 248.492188 157.160156 C 248.808594 158.699219 247.796875 159.070312 247.1875 159.730469 C 245.945312 161.070312 243.976562 161.792969 243.441406 163.71875 C 242.785156 166.09375 241.410156 166.28125 239.539062 165.195312 C 239.132812 165.832031 238.554688 166.328125 239.207031 167.136719 C 240.175781 167.050781 241.1875 166.992188 242.191406 166.863281 C 243.265625 166.722656 244.398438 166.96875 245.410156 166.417969 C 244.730469 163.789062 245.921875 161.886719 249.488281 160.011719 C 249.753906 162.597656 247.019531 163.742188 246.667969 165.96875 Z M 196.347656 169.792969 C 193.722656 166.347656 193.820312 162.648438 194.828125 158.832031 C 195.058594 157.957031 194.714844 157.128906 194.046875 156.523438 C 192.234375 154.882812 190.019531 153.875 187.640625 154.082031 C 181.910156 154.578125 178.050781 159.480469 178.570312 165.21875 C 178.824219 168.011719 181.238281 170.25 183.992188 170.28125 C 186.539062 170.304688 189.085938 170.425781 191.632812 170.390625 C 193.097656 170.371094 194.65625 170.816406 196.347656 169.792969 Z M 160.484375 125.316406 C 155.855469 125.273438 150.832031 128.851562 149.339844 133.203125 C 148.894531 134.492188 149.054688 135.457031 150.273438 136.261719 C 154.320312 138.9375 158.050781 141.480469 163.542969 141.550781 C 167.164062 141.597656 168.605469 140.589844 169.894531 137.992188 C 170.433594 136.914062 171.707031 136.238281 171.410156 134.65625 C 170.570312 130.171875 165.035156 125.359375 160.484375 125.316406 Z M 156.742188 168.496094 C 155.5 166.667969 154.464844 165.445312 154.265625 163.9375 C 154.046875 162.261719 153.128906 160.953125 152.421875 159.527344 C 150.265625 155.179688 145.449219 153.574219 141.019531 155.707031 C 141.417969 156.816406 141.402344 158.125 142.699219 158.75 C 140.78125 161.726562 137.796875 163.730469 136.695312 167.226562 C 143.1875 168.414062 149.648438 167.871094 156.742188 168.496094 Z M 105.921875 144.523438 C 102.976562 140.371094 97.804688 139.285156 93.558594 141.511719 C 89.246094 143.777344 87.183594 148.703125 88.695312 153.140625 C 90.125 157.34375 92.679688 159.386719 95.890625 158.765625 C 96.0625 151.976562 97.289062 145.785156 105.921875 144.523438 Z M 164.089844 123.089844 C 164.96875 117.472656 161.199219 112.972656 154.644531 111.398438 C 150.144531 110.320312 142.640625 115.121094 140.996094 120.210938 C 144.957031 120.46875 148.707031 121.300781 151.757812 124.039062 C 152.191406 124.429688 152.679688 124.476562 153.15625 124.167969 C 156.550781 121.992188 160.207031 122.078125 164.089844 123.089844 Z M 113.664062 164.636719 C 110.21875 160.285156 111.78125 156.4375 113.273438 152.625 C 114.195312 150.261719 113.613281 148.714844 111.277344 147.828125 C 108.132812 146.632812 103.59375 147.640625 101.347656 150.035156 C 99.597656 151.902344 98.753906 157.84375 99.84375 160.230469 C 100.105469 160.8125 100.402344 161.257812 101.019531 161.453125 C 104.953125 162.703125 108.898438 163.933594 113.664062 164.636719 Z M 264.246094 132.578125 C 264.402344 135.105469 262.226562 135.617188 260.824219 136.640625 C 259.242188 137.796875 258.355469 139.265625 257.746094 141.074219 C 260.875 139.148438 262.960938 135.582031 267.128906 135.367188 C 265.417969 137.953125 262.351562 139.253906 260.941406 142.035156 C 265.9375 138.183594 266.953125 137.644531 269.257812 138.042969 C 267 140.898438 262.84375 141.945312 261.839844 146.0625 C 264.417969 146.089844 263.742188 143.453125 265.367188 142.882812 C 266.855469 142.363281 267.839844 140.582031 270.140625 141.003906 C 268.414062 142.605469 267.910156 144.71875 266.355469 146.308594 C 270.40625 145.964844 273.191406 142.003906 277.527344 142.894531 C 276.167969 136.820312 271.371094 133.140625 264.246094 132.578125 Z M 255.589844 130.808594 C 253.234375 126.410156 247.054688 122.941406 242.414062 123.371094 C 240.574219 123.539062 239.023438 124.417969 237.589844 125.511719 C 237.011719 125.953125 236.671875 126.484375 237.179688 127.253906 C 237.832031 128.246094 238.417969 129.277344 239.011719 130.304688 C 239.347656 130.882812 239.773438 131.160156 240.472656 131.027344 C 241.335938 130.859375 241.046875 130.300781 241.121094 129.710938 C 241.40625 127.539062 244.09375 125.773438 245.972656 126.523438 C 245.378906 128.210938 242.953125 128.742188 242.980469 130.976562 C 246.988281 131.03125 249.855469 133.363281 253.066406 135.734375 C 252.917969 133.34375 254.4375 132.144531 255.589844 130.808594 Z M 266.335938 157.507812 C 265.722656 159.730469 268.542969 160.792969 267.40625 162.921875 C 271.140625 162.214844 273.375 158.632812 272.414062 155.265625 C 271.746094 152.917969 270.484375 151.378906 268.074219 150.234375 C 265.367188 148.949219 262.164062 148.601562 259.679688 150.578125 C 257.390625 152.398438 258.496094 154.585938 258.804688 156.976562 C 260.714844 155.585938 261.347656 153.214844 263.96875 152.484375 C 263.9375 153.855469 264.625 154.816406 265.3125 155.660156 C 264.566406 157.042969 263.347656 157.917969 262.886719 159.472656 C 264.226562 158.984375 264.84375 157.773438 266.335938 157.507812 Z M 118.15625 145.871094 C 121.636719 144.289062 125.03125 143.039062 128.78125 144.257812 C 129.320312 144.429688 129.808594 144.125 129.972656 143.574219 C 130.996094 140.167969 133.226562 137.746094 136.273438 136.042969 C 132.890625 131.21875 127.386719 131.417969 122.808594 134.007812 C 117.867188 136.800781 116.113281 141.167969 118.15625 145.871094 Z M 210.042969 109.410156 C 209.164062 111.097656 207.496094 111.429688 206.734375 112.828125 C 206.054688 114.074219 205.714844 115.972656 203.742188 116.097656 C 203.992188 117.578125 204.472656 118.367188 205.980469 117.703125 C 207.09375 117.210938 208.308594 117.308594 209.496094 117.328125 C 210.09375 117.339844 210.839844 117.4375 211.050781 116.765625 C 211.949219 113.894531 214.242188 112.320312 216.597656 110.941406 C 214.890625 106.390625 211.109375 104.023438 205.863281 104.03125 C 202.183594 104.039062 198.179688 106.910156 196.933594 110.527344 C 197.871094 110.984375 198.820312 111.445312 199.734375 111.894531 C 200.359375 111.167969 200.320312 110.625 200.007812 109.90625 C 199.140625 107.902344 200.585938 106.785156 202.070312 106.707031 C 203.386719 106.640625 204.527344 106.847656 205.636719 105.871094 C 206.222656 105.359375 207.113281 105.660156 207.0625 106.570312 C 206.964844 108.441406 208.199219 108.949219 210.042969 109.410156 Z M 72.824219 180.945312 C 74.75 187.179688 77.863281 192.359375 80.121094 197.90625 C 80.40625 198.605469 80.839844 199.003906 81.699219 198.683594 C 82.597656 198.347656 82.902344 197.792969 82.542969 196.917969 C 81.363281 194.019531 80.980469 190.703125 77.933594 188.632812 C 80.882812 186.460938 83.738281 189.46875 86.984375 188.40625 C 85.519531 186.9375 87.589844 184.308594 85.039062 183.59375 C 81.152344 182.507812 77.148438 181.859375 72.824219 180.945312 Z M 230.953125 262.695312 C 233.203125 262.894531 235.386719 263.253906 237.054688 261.507812 C 238.277344 260.222656 239.371094 258.800781 240.675781 257.605469 C 242.679688 255.773438 243.75 253.234375 245.980469 251.480469 C 248.191406 249.738281 249.800781 247.183594 251.308594 244.65625 C 243.835938 243.167969 242.507812 249.511719 239.140625 253.089844 C 239.640625 254.152344 240.765625 253.191406 241.304688 254.429688 C 235.710938 254.519531 234.207031 259.589844 230.953125 262.695312 Z M 279.132812 146.402344 C 282.226562 149.765625 277.339844 150.277344 277.175781 152.757812 C 278.492188 152.539062 279.226562 151.578125 279.683594 151.65625 C 283.355469 154.125 281.441406 155.769531 279.332031 157.808594 C 278.765625 155.542969 276.019531 156.234375 275.335938 154.082031 C 275.417969 156.421875 276.128906 158.628906 275.140625 160.871094 C 277.175781 160.699219 285.863281 158.371094 287.085938 157.777344 C 288.355469 157.164062 288.316406 156.011719 288.226562 154.9375 C 287.933594 151.453125 283.535156 147.089844 279.132812 146.402344 Z M 191.558594 137.167969 C 192.71875 135.0625 194.703125 134.019531 196.933594 133.324219 C 197.757812 133.066406 198.222656 132.480469 197.898438 131.554688 C 197.074219 129.203125 197.371094 126.894531 198.09375 124.578125 C 198.386719 123.640625 198.328125 122.78125 197.207031 122.246094 C 195.167969 121.265625 190.4375 121.828125 188.691406 123.351562 C 187.675781 124.238281 187.40625 125.265625 187.929688 126.546875 C 188.835938 128.777344 189.351562 131.167969 189.011719 133.511719 C 188.707031 135.628906 189.664062 136.4375 191.558594 137.167969 Z M 228.625 237.699219 C 223.589844 237.699219 218.566406 237.703125 213.539062 237.699219 C 212.828125 237.699219 212.121094 237.742188 211.90625 238.570312 C 211.476562 240.234375 211.097656 241.910156 210.589844 244.027344 C 215.261719 243 219.527344 243.542969 223.800781 243.652344 C 226.855469 243.730469 228.535156 241.632812 228.625 237.699219 Z M 122.914062 228.414062 C 121.390625 225.429688 119.890625 222.433594 118.328125 219.472656 C 118.113281 219.0625 117.632812 218.558594 117.226562 218.511719 C 113.933594 218.121094 110.632812 217.832031 106.644531 217.441406 C 108.464844 220.0625 108.296875 223.089844 110.675781 224.421875 C 114.351562 226.476562 118.449219 227.554688 122.914062 228.414062 Z M 116.898438 216.71875 C 116.394531 213.980469 115.140625 211.859375 114.167969 209.640625 C 113.898438 209.027344 113.628906 208.296875 112.859375 208.191406 C 109.453125 207.726562 106.125 206.847656 102.207031 205.804688 C 103.171875 209.152344 103.460938 212.675781 105.78125 214.164062 C 108.875 216.15625 112.875 216.53125 116.898438 216.71875 Z M 152.457031 154.460938 C 153.324219 155.390625 153.976562 155.964844 155.074219 154.589844 C 157.105469 152.042969 159.964844 150.800781 163.0625 149.972656 C 165.867188 149.226562 168.710938 149.910156 171.679688 149.871094 C 168.4375 143.796875 160.621094 143.269531 156.585938 145.019531 C 152.875 146.632812 150.257812 150.355469 151.085938 152.753906 C 152.265625 151.433594 153.429688 150.226562 154.492188 148.9375 C 156.152344 146.925781 157.84375 145.605469 160.070312 148.175781 C 158.75 151.6875 153.824219 150.644531 152.457031 154.460938 Z M 145.949219 134.734375 C 145.832031 130.976562 148.074219 128.621094 149.734375 125.925781 C 146.996094 123.789062 144.347656 122.625 140.910156 123.808594 C 139.570312 124.269531 138.3125 125.253906 136.578125 124.832031 C 135.394531 124.542969 132.472656 127.746094 132.523438 128.96875 C 132.59375 130.605469 134.15625 130.289062 134.96875 130.855469 C 136.804688 129.625 137.65625 127.25 140.378906 126.976562 C 140.070312 129.492188 137.566406 130.308594 137.316406 132.433594 C 139.414062 135.792969 142.800781 133.953125 145.949219 134.734375 Z M 97.222656 214.464844 C 96.949219 215.605469 97.570312 216.28125 97.890625 217.035156 C 99.371094 220.578125 101.9375 223.515625 103.5625 226.949219 C 105.234375 230.480469 107.882812 231.59375 111.648438 231.128906 C 110.65625 228.707031 109.574219 226.503906 106.855469 225.574219 C 105.910156 225.25 104.332031 225.324219 104.425781 223.828125 C 104.523438 222.230469 106.195312 223.007812 107.066406 222.507812 C 107.1875 222.4375 107.238281 222.238281 107.042969 222.566406 C 106.328125 216.519531 101.828125 215.539062 97.222656 214.464844 Z M 223.617188 265.988281 C 218.101562 263.410156 215.394531 268.445312 211.855469 270.347656 C 209.601562 268.09375 212.5 266.925781 212.546875 265.242188 C 208.269531 264.277344 207 264.460938 205.960938 266.132812 C 206.902344 267.332031 208.3125 265.769531 209.875 266.996094 C 206.050781 267.339844 202.453125 267.4375 201.277344 271.84375 C 206.933594 272.128906 212.394531 271.660156 217.839844 270.894531 C 218.089844 270.859375 218.519531 270.804688 218.546875 270.6875 C 219.15625 268.003906 222.054688 267.78125 223.617188 265.988281 Z M 132.65625 246.359375 C 131.886719 244.976562 131.332031 243.734375 130.558594 242.640625 C 129.496094 241.136719 128.769531 239 127.0625 238.417969 C 123.761719 237.289062 120.171875 237.199219 116.652344 235.941406 C 118.082031 242.148438 125.445312 246.824219 132.65625 246.359375 Z M 213.410156 254.835938 C 220.503906 255.746094 223.515625 253.355469 225.28125 245.5625 C 222.347656 245.160156 219.4375 245.285156 216.625 245.40625 C 215.53125 248.617188 214.503906 251.628906 213.410156 254.835938 Z M 124.617188 247.238281 C 129.425781 252.671875 134.3125 257.902344 142.847656 257.285156 C 140.789062 254.953125 138.847656 252.765625 136.921875 250.570312 C 136.199219 249.746094 135.609375 248.574219 134.433594 248.535156 C 131.132812 248.425781 127.957031 247.550781 124.617188 247.238281 Z M 261.769531 210.601562 C 265.296875 211.070312 268.464844 210.273438 271.648438 210 C 274.761719 209.730469 276.871094 206.917969 276.878906 203.515625 C 272.625 204.1875 268.367188 204.882812 264.101562 205.515625 C 263.21875 205.648438 262.683594 206.019531 262.507812 206.871094 C 262.265625 208.015625 262.050781 209.167969 261.769531 210.601562 Z M 171.523438 113.101562 C 172.046875 116.378906 173.953125 113.652344 175.148438 114.390625 C 175.582031 116.160156 172.714844 116.894531 173.851562 118.894531 C 175.210938 118.191406 174.746094 115.964844 176.515625 115.882812 C 177.628906 116.890625 176.066406 117.679688 176.589844 118.671875 C 179.191406 118.902344 181.695312 119.851562 184.1875 121 C 184.339844 117.078125 181.285156 113.410156 176.832031 111.988281 C 173.355469 110.878906 168.875 112.339844 167.046875 115.125 C 166.25 116.34375 166.59375 117.273438 167.464844 118.234375 C 169.15625 117.042969 169.738281 115.15625 171.523438 113.101562 Z M 120.328125 124.800781 C 122.003906 125.851562 123.449219 127.230469 124.753906 128.792969 C 125.585938 129.792969 129.316406 129.40625 129.515625 128.367188 C 130.066406 125.46875 132.1875 123.804688 134.234375 122.046875 C 128.96875 118.125 122.976562 119.277344 120.328125 124.800781 Z M 185.121094 114.160156 C 186.539062 110.609375 189.007812 109.089844 192.601562 109.453125 C 193.253906 109.523438 193.679688 109.257812 193.96875 108.59375 C 194.5 107.382812 195.15625 106.226562 195.734375 105.089844 C 195.027344 104.296875 194.222656 104.085938 193.375 103.914062 C 189.984375 103.222656 183.167969 106.703125 181.714844 109.875 C 181.433594 110.492188 181.4375 110.964844 182.015625 111.4375 C 182.988281 112.230469 183.910156 113.089844 185.121094 114.160156 Z M 255.46875 228.039062 C 261.800781 227.78125 267.042969 226.484375 268.578125 219.527344 C 265.46875 219.425781 262.363281 220.320312 259.199219 220.613281 C 258.613281 220.667969 258.253906 220.9375 258.050781 221.453125 C 257.21875 223.566406 256.390625 225.683594 255.46875 228.039062 Z M 259.378906 218.566406 C 265.960938 218.949219 272.355469 217.597656 273.074219 211.734375 C 269.34375 212.171875 265.667969 212.8125 261.933594 212.652344 C 261.394531 212.628906 260.957031 212.878906 260.824219 213.480469 C 260.445312 215.199219 259.335938 216.71875 259.378906 218.566406 Z M 103.082031 213.367188 C 101.566406 206.050781 99.414062 204.019531 92.664062 203.378906 C 92.628906 208.835938 96.445312 212.5625 103.082031 213.367188 Z M 291.957031 156.25 C 293.40625 155.980469 294.835938 155.96875 296.03125 155.433594 C 298.371094 154.394531 301.265625 154.421875 302.847656 151.847656 C 303.875 150.175781 302.746094 149.355469 301.785156 148.40625 C 300.6875 147.324219 299.910156 148.148438 299.257812 148.945312 C 298.347656 150.050781 297.554688 151.257812 296.699219 152.410156 C 296.195312 153.089844 296.019531 154.449219 294.714844 153.707031 C 293.441406 152.984375 294.054688 151.9375 294.605469 151.074219 C 295.570312 149.546875 296.617188 148.070312 297.710938 146.453125 C 294.398438 146.222656 290.691406 152.605469 291.957031 156.25 Z M 220.0625 263.449219 C 226.035156 264.648438 230.574219 262.117188 233.75 256.148438 C 232.566406 256.03125 232.277344 257.535156 231.1875 257.53125 C 229.375 256.308594 227.234375 255.511719 225.503906 257.019531 C 223.5 258.769531 222.003906 261.097656 220.0625 263.449219 Z M 207.742188 263.421875 C 214.222656 264.34375 216.707031 262.859375 219.238281 256.707031 C 217.367188 256.074219 215.363281 256.710938 213.503906 256.0625 C 212.753906 255.796875 212.3125 256.515625 211.933594 257.089844 C 210.589844 259.128906 209.238281 261.160156 207.742188 263.421875 Z M 189.910156 118.578125 C 192.164062 118.222656 192.847656 115.589844 195.148438 115.292969 C 196.429688 116.957031 193.792969 117.253906 194.132812 118.585938 C 195.699219 118.910156 197.273438 119.320312 198.644531 120.164062 C 199.636719 120.777344 200.375 120.636719 201.113281 119.863281 C 201.867188 119.070312 201.554688 118.238281 201.042969 117.542969 C 198.957031 114.707031 196.398438 112.574219 192.644531 112.554688 C 189.460938 112.535156 187.410156 114.679688 187.25 118.269531 C 189.132812 117.023438 189.816406 113.867188 192.511719 114.28125 C 192.679688 114.53125 192.847656 114.78125 193.015625 115.035156 C 191.980469 116.214844 190.945312 117.394531 189.910156 118.578125 Z M 112.730469 228.5625 C 113.5625 232.519531 121.429688 236.515625 126.675781 235.75 C 125.21875 234.390625 125.328125 232.070312 123.203125 231.449219 C 119.816406 230.464844 116.40625 229.570312 112.730469 228.5625 Z M 215.367188 245.488281 C 213.066406 245.511719 210.851562 244.625 209.964844 245.902344 C 208.257812 248.371094 207.316406 251.355469 206.304688 254.976562 C 208.328125 254.007812 210.164062 255.632812 211.324219 253.953125 C 213.046875 251.46875 213.425781 248.363281 215.367188 245.488281 Z M 117.144531 241.589844 C 114.777344 235.507812 110.605469 232.453125 105.515625 233.332031 C 108.945312 236.921875 110.96875 242.066406 117.144531 241.589844 Z M 292.125 206.003906 C 293.617188 203.726562 295.097656 201.476562 296.777344 198.925781 C 293.984375 199.265625 291.691406 200.054688 289.371094 200.746094 C 286.507812 201.597656 285.578125 203.214844 286.234375 206.296875 C 288.242188 207.074219 289.9375 203.15625 292.125 206.003906 Z M 294.214844 188.644531 C 300.046875 188.097656 302.882812 184.996094 301.898438 180.238281 C 295.296875 181.917969 295.800781 181.746094 294.214844 188.644531 Z M 227.082031 255.21875 C 228.847656 254.875 230.046875 255.894531 231.0625 254.929688 C 233.855469 252.257812 235.734375 248.921875 238.253906 245.199219 C 236.15625 245.847656 234.492188 244.714844 233.34375 246.347656 C 231.410156 249.089844 229.472656 251.832031 227.082031 255.21875 Z M 266.761719 129.980469 C 263.496094 123.917969 257.488281 121.210938 252.476562 123.414062 C 253.910156 124.621094 255.285156 125.78125 256.699219 126.972656 C 257.980469 125.964844 259.046875 124.183594 260.71875 126.253906 C 260.1875 127.390625 258.914062 128.074219 259.011719 129.480469 C 261.191406 130.011719 260.316406 125.773438 263.058594 127.191406 C 263.058594 127.824219 263.058594 128.542969 263.058594 129.355469 C 264.265625 129.558594 265.328125 129.738281 266.761719 129.980469 Z M 262.40625 229.484375 C 256.546875 228.351562 253.078125 230.25 252.230469 235.183594 C 256.378906 234.539062 260.902344 234.765625 262.40625 229.484375 Z M 247.246094 242.675781 C 252.222656 243.140625 255.433594 241.09375 257.132812 236.625 C 250.835938 236.460938 249.523438 237.253906 247.246094 242.675781 Z M 284.296875 201.824219 C 282.394531 202.234375 280.542969 202.636719 278.515625 203.074219 C 279.214844 205.246094 277.320312 206.789062 277.277344 208.808594 C 284.203125 208.089844 284.027344 207.984375 284.296875 201.824219 Z M 201.4375 262.886719 C 204.960938 263.773438 208.667969 260.492188 209.636719 255.945312 C 208.101562 256.039062 206.367188 254.660156 205.175781 256.328125 C 203.769531 258.300781 202.746094 260.550781 201.4375 262.886719 Z M 304.167969 173.101562 C 302.683594 173.640625 301.199219 174.203125 299.699219 174.71875 C 296.652344 175.765625 296.011719 177.039062 296.882812 180.230469 C 301.179688 179.929688 304.050781 178.027344 304.167969 173.101562 Z M 196.136719 262.910156 C 197.359375 263.171875 198.527344 263.863281 199.480469 262.375 C 200.835938 260.269531 202.179688 258.167969 203.019531 255.589844 C 201.664062 255.457031 200.453125 255.339844 199.3125 255.226562 C 198.683594 256.644531 198.160156 257.878906 197.59375 259.09375 C 197.039062 260.289062 196.148438 261.351562 196.136719 262.910156 Z M 235.9375 238.078125 C 230.15625 237.554688 229.769531 237.859375 228.875 243.476562 C 232.792969 244.335938 233.78125 243.597656 235.9375 238.078125 Z M 82.402344 142.523438 C 81.835938 142.523438 81.570312 142.449219 81.375 142.53125 C 77.3125 144.28125 75.007812 148.121094 71.660156 150.730469 C 71.234375 151.0625 71.394531 151.660156 71.847656 152.054688 C 72.433594 152.566406 73.035156 152.675781 73.632812 152.085938 C 74.414062 151.3125 75.234375 150.574219 75.949219 149.746094 C 78.003906 147.382812 80.570312 145.453125 82.402344 142.523438 Z M 282.414062 210.015625 C 280.410156 210.875 278.390625 210.582031 276.640625 211.171875 C 274.585938 211.867188 274.375 214.074219 273.492188 216.140625 C 275.796875 215.363281 277.59375 214.359375 279.453125 214.21875 C 282.261719 214.011719 282.40625 212.410156 282.414062 210.015625 Z M 236.800781 122.214844 C 239.160156 120.527344 241.699219 120.222656 244.480469 120.25 C 241.1875 116.886719 238.160156 116.207031 235.414062 118.121094 C 235.828125 119.34375 236.25 120.59375 236.800781 122.214844 Z M 223.261719 254.523438 C 223.515625 254.675781 223.765625 254.828125 224.019531 254.976562 C 227.066406 252.386719 229.015625 248.953125 231.40625 245.453125 C 229.71875 245.402344 228.164062 244.835938 227.449219 246.078125 C 225.886719 248.800781 224.636719 251.699219 223.261719 254.523438 Z M 258.023438 160.476562 C 256.816406 161.765625 255.988281 163.230469 255.246094 165.25 C 258.566406 164.6875 261.542969 164.167969 264.527344 163.683594 C 265.832031 163.472656 265.789062 162.859375 265.15625 161.988281 C 262.667969 162.484375 259.457031 162.351562 258.023438 160.476562 Z M 235.742188 243.511719 C 239.367188 243.757812 241.132812 242.257812 242.503906 237.9375 C 238.339844 237.378906 238.15625 237.53125 235.742188 243.511719 Z M 135.886719 167.515625 C 131.933594 162.460938 137.769531 160.886719 138.394531 157.59375 C 136.039062 157.167969 133.808594 158.863281 133.082031 161.492188 C 132.230469 164.566406 132.777344 166.199219 135.886719 167.515625 Z M 239.984375 235.84375 C 244.214844 236.058594 244.457031 235.875 246.558594 231.042969 C 242.582031 230.136719 241.714844 230.75 239.984375 235.84375 Z M 88.234375 199.207031 C 88.121094 193.71875 86.554688 190.808594 83.824219 191.023438 C 85.332031 197.628906 86.113281 199.074219 88.234375 199.207031 Z M 251.863281 230.921875 C 248.601562 230.21875 246.785156 231.988281 246.605469 235.859375 C 250.28125 236.222656 250.804688 233.359375 251.863281 230.921875 Z M 235.246094 254.171875 C 238.292969 251.855469 240.527344 248.839844 242.59375 245.5 C 240.316406 245.128906 239.355469 246.25 235.246094 254.171875 Z M 118.402344 244.847656 C 118.214844 245.070312 118.03125 245.292969 117.84375 245.519531 C 121.632812 248.683594 125.421875 251.847656 129.210938 255.011719 C 129.363281 254.824219 129.519531 254.640625 129.671875 254.453125 C 125.773438 251.421875 122.902344 247.15625 118.402344 244.847656 Z M 289.832031 190.042969 C 292.496094 189.527344 292.691406 189.191406 293.523438 183.710938 C 290.382812 183.839844 290.285156 184.003906 289.832031 190.042969 Z M 242.332031 243.261719 C 245.949219 243.089844 246.160156 239.773438 248.027344 237.929688 C 245.089844 237.050781 243.617188 238.476562 242.332031 243.261719 Z M 278.105469 146.25 C 274.761719 145.769531 272.625 146.730469 271.605469 148.953125 C 272.132812 149.578125 272.625 150.253906 273.636719 150.671875 C 274.53125 148.8125 276.339844 147.824219 278.105469 146.25 Z M 87.859375 202.351562 C 88.773438 205.625 89.859375 208.496094 91.925781 211.34375 C 92.515625 208.207031 89.941406 202.511719 87.859375 202.351562 Z M 78.855469 155.117188 C 79.710938 155.800781 80.886719 156.292969 81.074219 155.738281 C 81.8125 153.550781 85 152.910156 84.738281 149.691406 C 82.355469 151.324219 80.453125 152.890625 78.855469 155.117188 Z M 215.890625 152.152344 C 216.628906 153.386719 217.398438 154.328125 218.742188 154.703125 C 219.507812 154.050781 220.292969 153.457031 220.679688 152.296875 C 219.132812 151.605469 217.699219 150.828125 215.890625 152.152344 Z M 288.878906 150.011719 C 291.359375 148.726562 292.988281 146.582031 293.007812 144.65625 C 291.367188 146.234375 289.292969 147.457031 288.878906 150.011719 Z M 182.460938 264.382812 C 182.457031 264.632812 182.449219 264.882812 182.441406 265.132812 C 185.839844 265.132812 189.238281 265.132812 192.636719 265.132812 C 189.253906 264.472656 185.875 263.925781 182.460938 264.382812 Z M 109.703125 126.8125 C 106.8125 127.539062 104.304688 130.25 104.15625 132.9375 C 106.066406 130.828125 107.847656 128.859375 109.703125 126.8125 Z M 84.128906 156.878906 C 85.105469 157.488281 85.996094 157.796875 87.074219 157.378906 C 86.84375 156.308594 86.5625 155.308594 85.546875 154.539062 C 84.679688 155.023438 84.207031 155.703125 84.128906 156.878906 Z M 167.683594 121.976562 C 171.402344 119.316406 171.402344 119.316406 170.195312 117.578125 C 170.507812 120.003906 167.652344 119.558594 167.683594 121.976562 Z M 69.480469 149.253906 C 71.125 148.355469 71.96875 147.464844 73.171875 146.015625 C 71.261719 146.644531 69.734375 146.707031 69.480469 149.253906 Z M 203.238281 265.414062 C 202.105469 264.367188 201.1875 264.328125 200.097656 265.441406 C 201.1875 265.933594 202.105469 265.898438 203.238281 265.414062 Z M 285.9375 142.65625 C 284.644531 143.210938 284.042969 143.847656 283.863281 145.308594 C 284.9375 144.566406 285.664062 144.023438 285.9375 142.65625 Z M 281.035156 143.109375 C 281.746094 142.675781 282.21875 142.335938 281.886719 141.65625 C 281.785156 141.453125 281.238281 141.238281 281.074219 141.332031 C 280.390625 141.726562 280.703125 142.304688 281.035156 143.109375 Z M 222.253906 165.683594 C 223.140625 165.089844 223.710938 164.8125 223.113281 163.84375 C 222.15625 164.035156 222.359375 164.699219 222.253906 165.683594 Z M 104.109375 137.390625 C 104.101562 137.847656 103.652344 138.492188 104.558594 138.675781 C 104.847656 138.144531 104.535156 137.75 104.109375 137.390625 Z M 197.375 264.921875 C 196.472656 264.628906 195.800781 264.203125 195.242188 265.101562 C 195.925781 265.621094 196.507812 265.546875 197.375 264.921875 Z M 204.175781 157.886719 C 204.125 157.855469 204.058594 157.792969 204.019531 157.804688 C 203.953125 157.824219 203.875 157.886719 203.855469 157.945312 C 203.785156 158.171875 203.863281 158.21875 204.046875 158.070312 C 204.101562 158.023438 204.132812 157.949219 204.175781 157.886719 Z M 256.085938 139.316406 C 256.421875 138.582031 256.546875 138.375 256.613281 138.152344 C 256.679688 137.917969 256.636719 137.675781 256.3125 137.726562 C 256.183594 137.746094 256 137.882812 255.972656 138 C 255.929688 138.183594 255.996094 138.394531 256.085938 139.316406 Z M 214.269531 151.03125 C 214.3125 150.902344 214.34375 150.816406 214.375 150.726562 C 214.304688 150.746094 214.238281 150.765625 214.171875 150.785156 C 214.199219 150.851562 214.222656 150.917969 214.269531 151.03125 Z M 212.679688 150.167969 C 212.5625 150.121094 212.488281 150.089844 212.414062 150.0625 C 212.425781 150.117188 212.441406 150.171875 212.453125 150.226562 C 212.507812 150.214844 212.566406 150.199219 212.679688 150.167969 Z M 212.679688 150.167969 " fill-opacity="1" fill-rule="nonzero"/><path fill="#32a7ca" d="M 219.695312 188.445312 C 216.9375 190.457031 213.78125 190.4375 210.730469 190.734375 C 198.847656 191.898438 187.226562 189.835938 175.574219 187.917969 C 168.972656 186.828125 162.277344 186.296875 155.628906 185.464844 C 152.289062 185.050781 148.960938 184.53125 145.644531 183.828125 C 147.335938 183.164062 149.050781 183.597656 150.722656 183.683594 C 157.3125 184.023438 163.910156 184.304688 170.46875 184.972656 C 175.179688 185.453125 179.824219 186.585938 184.519531 187.289062 C 194.785156 188.828125 205.078125 189.78125 215.464844 188.46875 C 216.851562 188.292969 218.28125 188.445312 219.695312 188.445312 Z M 219.695312 188.445312 " fill-opacity="1" fill-rule="nonzero"/><path fill="#32a7ca" d="M 126.570312 182.726562 C 118.949219 183.175781 111.445312 182.761719 104 181.425781 C 95.484375 179.898438 86.894531 178.75 78.566406 176.3125 C 76.367188 175.671875 74.191406 174.949219 72.035156 174.179688 C 71.113281 173.851562 70.050781 173.472656 70.476562 171.765625 C 88.789062 177.496094 107.320312 181.972656 126.570312 182.726562 Z M 126.570312 182.726562 " fill-opacity="1" fill-rule="nonzero"/><path fill="#32a7ca" d="M 133.773438 223.28125 C 135.515625 225.089844 135.972656 226.824219 136.703125 228.375 C 140.5625 236.582031 143.976562 245 148.679688 252.796875 C 151.289062 257.128906 155.101562 260.183594 159.175781 262.988281 C 159.449219 263.175781 159.765625 263.320312 160.015625 263.535156 C 160.109375 263.617188 160.078125 263.847656 160.128906 264.1875 C 158.835938 264.820312 157.960938 263.9375 157.046875 263.304688 C 150.714844 258.9375 146.382812 252.960938 143.273438 246.035156 C 140.257812 239.308594 137.296875 232.558594 134.339844 225.808594 C 134.089844 225.234375 134.050781 224.570312 133.773438 223.28125 Z M 133.773438 223.28125 " fill-opacity="1" fill-rule="nonzero"/><path fill="#32a7ca" d="M 154.140625 237.628906 C 158.308594 245.933594 161.210938 254.855469 168.171875 261.699219 C 166.285156 262.515625 165.421875 261.261719 164.75 260.273438 C 161.953125 256.136719 159.25 251.9375 157.308594 247.304688 C 155.988281 244.152344 154.269531 241.144531 154.140625 237.628906 Z M 154.140625 237.628906 " fill-opacity="1" fill-rule="nonzero"/><path fill="#32a7ca" d="M 170.46875 256.796875 C 168.03125 257.410156 168.042969 255.804688 167.203125 254.242188 C 169.015625 254.746094 169.644531 255.65625 170.46875 256.796875 Z M 170.46875 256.796875 " fill-opacity="1" fill-rule="nonzero"/><path fill="#32a7ca" d="M 123.175781 190.519531 C 121.269531 190.851562 119.578125 190.300781 117.621094 189.949219 C 119.6875 189.832031 121.515625 189.753906 123.175781 190.519531 Z M 123.175781 190.519531 " fill-opacity="1" fill-rule="nonzero"/><path fill="#32a7ca" d="M 115.457031 189.382812 C 113.96875 189.875 112.972656 189.59375 111.457031 189.265625 C 113.089844 188.390625 114.042969 189.09375 115.457031 189.382812 Z M 115.457031 189.382812 " fill-opacity="1" fill-rule="nonzero"/><path fill="#32a7ca" d="M 136.453125 191.039062 C 137.226562 190.828125 138 190.636719 138.824219 191.25 C 137.738281 192.253906 137.1875 191.070312 136.453125 191.039062 Z M 136.453125 191.039062 " fill-opacity="1" fill-rule="nonzero"/><path fill="#32a7ca" d="M 125.8125 190.535156 C 126.53125 191.125 127.386719 190.488281 128.542969 190.882812 C 127.316406 191.28125 126.574219 191 125.84375 190.554688 Z M 125.8125 190.535156 " fill-opacity="1" fill-rule="nonzero"/><path fill="#32a7ca" d="M 131.050781 184.019531 C 130.132812 184.285156 129.886719 184.441406 129.75 184.375 C 129.617188 184.3125 129.570312 184.019531 129.550781 183.820312 C 129.546875 183.773438 129.8125 183.644531 129.941406 183.65625 C 130.164062 183.683594 130.375 183.789062 131.050781 184.019531 Z M 131.050781 184.019531 " fill-opacity="1" fill-rule="nonzero"/><path fill="#32a7ca" d="M 132.480469 191.03125 C 132.292969 191.03125 132.105469 191.03125 131.917969 191.03125 C 131.914062 191.015625 131.910156 191 131.910156 190.984375 C 132.097656 190.976562 132.285156 190.964844 132.476562 190.957031 C 132.476562 190.980469 132.476562 191.003906 132.480469 191.03125 Z M 132.480469 191.03125 " fill-opacity="1" fill-rule="nonzero"/><path fill="#32a7ca" d="M 284.003906 188.792969 C 284.222656 188.527344 284.367188 188.355469 284.507812 188.1875 C 284.613281 188.351562 284.769531 188.503906 284.804688 188.683594 C 284.832031 188.808594 284.691406 188.964844 284.625 189.105469 C 284.445312 189.015625 284.261719 188.921875 284.003906 188.792969 Z M 284.003906 188.792969 " fill-opacity="1" fill-rule="nonzero"/><path fill="#32a7ca" d="M 107.796875 188.96875 C 108.066406 188.917969 108.335938 188.871094 108.605469 188.820312 C 108.609375 188.835938 108.613281 188.851562 108.613281 188.867188 C 108.347656 188.90625 108.078125 188.945312 107.808594 188.984375 Z M 107.796875 188.96875 " fill-opacity="1" fill-rule="nonzero"/><path fill="#32a7ca" d="M 125.84375 190.554688 L 125.707031 190.644531 C 125.707031 190.644531 125.800781 190.539062 125.804688 190.539062 C 125.8125 190.535156 125.84375 190.554688 125.84375 190.554688 Z M 125.84375 190.554688 " fill-opacity="1" fill-rule="nonzero"/><path fill="#32a7ca" d="M 208.699219 161.855469 C 208.28125 164.101562 205.917969 164.925781 206.351562 167.15625 C 206.429688 167.574219 204.609375 168.617188 203.542969 167.941406 C 202.433594 167.234375 202.90625 166.15625 203.582031 165.304688 C 204.800781 163.765625 206.222656 162.507812 208.699219 161.855469 Z M 208.699219 161.855469 " fill-opacity="1" fill-rule="nonzero"/><path fill="#32a7ca" d="M 210.023438 164.019531 C 210.347656 165.875 209.101562 166.863281 208.972656 168.164062 C 208.933594 168.582031 208.390625 168.75 207.953125 168.613281 C 207.40625 168.4375 207.199219 167.945312 207.1875 167.433594 C 207.148438 165.675781 208.253906 164.828125 210.023438 164.019531 Z M 210.023438 164.019531 " fill-opacity="1" fill-rule="nonzero"/><path fill="#32a7ca" d="M 176.074219 149.832031 C 177.441406 145.914062 180.292969 143.46875 184.011719 141.839844 C 182.53125 145.109375 178.96875 146.828125 177.980469 150.277344 C 177.097656 150.621094 176.582031 150.109375 176.015625 149.761719 C 176.015625 149.757812 176.074219 149.832031 176.074219 149.832031 Z M 176.074219 149.832031 " fill-opacity="1" fill-rule="nonzero"/><path fill="#32a7ca" d="M 185.75 144.214844 C 186.011719 145.703125 184.855469 146.144531 184.304688 146.925781 C 183.121094 148.613281 181.03125 149.582031 180.480469 151.800781 C 180.347656 152.347656 179.804688 152.5625 179.269531 152.214844 C 178.695312 151.84375 178.652344 151.304688 178.855469 150.664062 C 179.449219 148.8125 183.324219 145.113281 185.75 144.214844 Z M 185.75 144.214844 " fill-opacity="1" fill-rule="nonzero"/><path fill="#32a7ca" d="M 161.84375 163.671875 C 160.433594 163.886719 159.816406 165.035156 159.257812 166.382812 C 156.929688 164.59375 156.230469 162.167969 157.070312 160.199219 C 158.367188 157.148438 160.980469 154.980469 164.257812 153.789062 C 163.8125 156.527344 160.914062 157.292969 159.804688 159.460938 C 159.605469 159.753906 159.40625 160.042969 159.207031 160.332031 C 159.207031 160.332031 159.152344 160.273438 159.15625 160.269531 C 159.355469 159.96875 159.558594 159.675781 159.757812 159.382812 C 161.847656 158.871094 162.894531 156.90625 164.628906 155.882812 C 165.550781 155.335938 166.253906 154.367188 167.546875 154.523438 C 168.390625 157.132812 167.113281 158.726562 165.0625 160.054688 C 164.082031 160.691406 163.101562 161.433594 162.816406 162.707031 L 162.867188 162.621094 C 162.667969 162.820312 162.46875 163.019531 162.269531 163.21875 L 162.359375 163.132812 C 162.160156 163.332031 161.960938 163.53125 161.761719 163.730469 Z M 161.84375 163.671875 " fill-opacity="1" fill-rule="nonzero"/><path fill="#32a7ca" d="M 162.816406 162.707031 C 165.046875 161.296875 166.5 158.652344 169.945312 158.039062 C 168.3125 161.226562 165.441406 162.566406 163.59375 165.40625 C 166.816406 164.445312 167.828125 160.898438 171.144531 160.417969 C 170.824219 162.199219 169.453125 162.914062 168.675781 164.023438 C 168.394531 164.425781 167.671875 164.621094 167.558594 165.023438 C 166.519531 168.800781 163.992188 166.976562 162.027344 166.378906 C 160.300781 165.851562 161.523438 164.617188 161.84375 163.671875 L 161.761719 163.730469 C 161.960938 163.53125 162.160156 163.332031 162.359375 163.132812 L 162.269531 163.21875 C 162.46875 163.019531 162.667969 162.820312 162.867188 162.621094 Z M 162.816406 162.707031 " fill-opacity="1" fill-rule="nonzero"/><path fill="#32a7ca" d="M 168.796875 166.957031 C 169.144531 164.757812 170.875 163.875 172.574219 162.953125 C 172.152344 165.03125 171.125 166.570312 168.796875 166.957031 Z M 168.796875 166.957031 " fill-opacity="1" fill-rule="nonzero"/><path fill="#32a7ca" d="M 188.964844 159.699219 C 187.335938 161.144531 187.179688 163.121094 186.523438 165 C 187.164062 165.339844 187.90625 165.585938 188.4375 166.066406 C 188.871094 166.453125 188.945312 167.15625 188.625 167.726562 C 188.394531 168.136719 187.914062 168.269531 187.511719 168.105469 C 184.839844 167.011719 182.101562 166.121094 181.070312 162.847656 C 180.542969 161.175781 180.679688 160.085938 182.113281 159.15625 C 182.183594 159.109375 182.242188 159.046875 182.308594 158.992188 C 185.832031 155.925781 185.832031 155.925781 188.964844 159.699219 Z M 188.964844 159.699219 " fill-opacity="1" fill-rule="nonzero"/><path fill="#32a7ca" d="M 160.457031 128.382812 C 162.246094 128.441406 162.246094 128.441406 161.355469 130.472656 C 161.890625 130.921875 162.722656 130.167969 163.242188 131.011719 C 163.542969 132.3125 162.191406 132.722656 161.59375 133.550781 C 161 134.367188 159.796875 134.972656 159.625 135.824219 C 158.914062 139.367188 156.574219 137.976562 154.582031 137.695312 C 154.03125 137.617188 153.660156 137.25 153.71875 136.632812 C 153.75 136.300781 154.042969 135.804688 153.917969 135.667969 C 150.972656 132.523438 154.65625 131.511719 155.851562 129.761719 C 156.417969 128.9375 157.308594 128.34375 158.03125 127.625 C 159.398438 126.261719 160.183594 126.609375 160.488281 128.441406 C 160.636719 129.136719 160.367188 129.375 159.691406 129.179688 C 159.523438 129.328125 159.351562 129.476562 159.183594 129.625 C 159.070312 129.847656 158.960938 130.070312 158.847656 130.292969 C 158.585938 130.351562 158.328125 130.410156 158.066406 130.46875 C 157.957031 130.664062 157.851562 130.859375 157.746094 131.058594 C 157.328125 131.089844 157.234375 131.332031 157.332031 131.699219 C 156.984375 131.578125 156.773438 131.714844 156.667969 132.046875 C 155.941406 132.316406 155.234375 132.613281 155.078125 133.503906 C 155.003906 133.667969 154.929688 133.832031 154.855469 133.996094 C 155 133.890625 155.140625 133.785156 155.28125 133.683594 C 156 133.335938 156.621094 132.914062 156.625 132 C 156.839844 131.878906 157.054688 131.757812 157.265625 131.628906 C 157.40625 131.421875 157.550781 131.21875 157.695312 131.015625 C 158.027344 130.945312 158.117188 130.746094 158.015625 130.441406 C 158.285156 130.363281 158.542969 130.28125 158.800781 130.191406 C 158.90625 129.976562 159.019531 129.773438 159.136719 129.566406 C 159.304688 129.425781 159.472656 129.289062 159.644531 129.148438 C 159.921875 128.894531 160.1875 128.636719 160.457031 128.382812 Z M 156.769531 135.902344 C 156.644531 135.859375 156.519531 135.816406 156.394531 135.773438 C 156.414062 135.875 156.429688 135.976562 156.449219 136.074219 C 156.554688 135.996094 156.660156 135.917969 156.753906 135.820312 L 156.738281 135.707031 Z M 156.769531 135.902344 " fill-opacity="1" fill-rule="nonzero"/><path fill="#32a7ca" d="M 166.457031 132.3125 C 166.09375 134.03125 164.613281 134.871094 163.628906 136.046875 C 162.820312 137.011719 161.796875 137.792969 161.378906 139.058594 C 161.183594 139.65625 160.675781 139.757812 160.144531 139.535156 C 159.644531 139.328125 159.355469 138.941406 159.371094 138.355469 C 159.417969 136.636719 164.4375 132.269531 166.457031 132.3125 Z M 166.457031 132.3125 " fill-opacity="1" fill-rule="nonzero"/><path fill="#32a7ca" d="M 165.589844 136.367188 C 165.972656 137.070312 165.828125 137.566406 165.53125 137.972656 C 165.007812 138.683594 165.03125 139.816406 163.984375 140.105469 C 163.527344 140.234375 163.136719 139.910156 163.035156 139.484375 C 162.753906 138.324219 163.660156 137.667969 164.261719 136.90625 C 164.570312 136.519531 164.960938 136.171875 165.589844 136.367188 Z M 165.589844 136.367188 " fill-opacity="1" fill-rule="nonzero"/><path fill="#32a7ca" d="M 214.628906 129.804688 C 213.5 131.585938 212.453125 132.535156 212.042969 133.96875 C 211.824219 134.734375 210.652344 135.320312 209.726562 134.601562 C 208.820312 133.902344 209.28125 133.011719 209.953125 132.46875 C 211.179688 131.472656 212.027344 129.746094 214.628906 129.804688 Z M 214.628906 129.804688 " fill-opacity="1" fill-rule="nonzero"/><path fill="#32a7ca" d="M 144.085938 163.058594 C 144.757812 162.8125 145.125 161.898438 146.046875 162.15625 C 143.714844 167.171875 145.378906 166.972656 139.265625 166.421875 C 139.417969 164.101562 143.195312 159.859375 145.804688 159.214844 C 146.183594 160.949219 143.679688 161.449219 144.125 163.117188 C 144.15625 163.644531 143.90625 163.917969 143.382812 163.9375 L 143.234375 163.980469 C 143.234375 163.980469 143.335938 163.898438 143.34375 163.894531 C 143.59375 163.613281 143.839844 163.335938 144.085938 163.058594 Z M 144.085938 163.058594 " fill-opacity="1" fill-rule="nonzero"/><path fill="#32a7ca" d="M 146.363281 166.390625 C 146.722656 164.628906 147.4375 163.738281 148.855469 163.089844 C 148.863281 164.816406 148.394531 165.902344 146.363281 166.390625 Z M 146.363281 166.390625 " fill-opacity="1" fill-rule="nonzero"/><path fill="#32a7ca" d="M 91.699219 152.773438 C 89.519531 152.335938 88.851562 151.289062 90.148438 149.261719 C 91.289062 147.480469 92.253906 145.589844 93.398438 143.808594 C 93.882812 143.050781 94.507812 142.265625 96.125 142.523438 C 94.929688 146.160156 91.273438 148.730469 91.660156 152.851562 Z M 91.699219 152.773438 " fill-opacity="1" fill-rule="nonzero"/><path fill="#32a7ca" d="M 91.660156 152.851562 C 93.363281 151.160156 93.433594 148.355469 95.78125 146.460938 C 96.195312 149.90625 94.167969 151.980469 93.230469 154.398438 C 93.160156 154.578125 92.628906 154.722656 92.363281 154.65625 C 91.222656 154.378906 91.925781 153.398438 91.703125 152.765625 C 91.699219 152.773438 91.660156 152.851562 91.660156 152.851562 Z M 91.660156 152.851562 " fill-opacity="1" fill-rule="nonzero"/><path fill="#32a7ca" d="M 152.59375 117.734375 C 154.324219 117.496094 154.890625 115.257812 156.734375 115.140625 C 157.640625 116.488281 156.601562 117.160156 155.996094 117.855469 C 155.105469 118.871094 153.941406 119.664062 153.59375 121.082031 C 153.554688 121.238281 153.453125 121.394531 153.34375 121.519531 C 152.949219 121.957031 148.871094 121.492188 148.371094 120.867188 C 147.371094 119.625 148.484375 118.875 149.144531 118.042969 C 149.605469 117.460938 150.296875 117.046875 150.511719 115.972656 C 148.984375 116.53125 147.980469 117.511719 147.019531 118.503906 C 146.324219 119.222656 145.523438 120.039062 144.707031 119.101562 C 143.972656 118.257812 144.960938 117.570312 145.625 117.074219 C 148.238281 115.132812 150.800781 113.058594 154.5 113.191406 C 155.226562 115.230469 152.78125 116.082031 152.632812 117.777344 C 152.460938 117.917969 152.285156 118.054688 152.113281 118.199219 C 151.894531 118.367188 151.675781 118.535156 151.453125 118.703125 C 151.238281 119.027344 151.023438 119.355469 150.671875 119.894531 C 151.589844 119.5625 151.652344 119.167969 151.386719 118.652344 C 151.800781 118.707031 152 118.5 152.054688 118.121094 C 152.371094 118.183594 152.574219 118.085938 152.59375 117.734375 Z M 152.59375 117.734375 " fill-opacity="1" fill-rule="nonzero"/><path fill="#32a7ca" d="M 159.121094 116.644531 C 159.796875 119.191406 157.859375 120.183594 156.890625 121.59375 C 156.609375 122 155.941406 121.816406 155.539062 121.421875 C 155.117188 121.007812 155.078125 120.402344 155.457031 120.0625 C 156.613281 119.03125 157.273438 117.472656 159.121094 116.644531 Z M 159.121094 116.644531 " fill-opacity="1" fill-rule="nonzero"/><path fill="#32a7ca" d="M 108.917969 155.046875 C 108.273438 156.554688 111.183594 156.910156 109.800781 158.667969 C 108.894531 159.816406 108.777344 161.960938 107.082031 162.019531 C 105.046875 162.085938 103.390625 160.726562 102.257812 159.015625 C 100.582031 156.492188 102.128906 151.355469 104.863281 149.835938 C 106.652344 148.839844 106.800781 151.652344 108.441406 150.886719 C 108.28125 152.742188 107.078125 153.703125 106.402344 154.917969 C 105.773438 156.050781 104.921875 157.066406 104.167969 158.128906 C 104.363281 158.292969 104.558594 158.453125 104.75 158.613281 C 105.796875 157.265625 106.847656 155.925781 107.894531 154.582031 C 108.234375 154.734375 108.574219 154.890625 108.917969 155.046875 Z M 108.917969 155.046875 " fill-opacity="1" fill-rule="nonzero"/><path fill="#32a7ca" d="M 248.054688 129.496094 C 248.085938 130.097656 247.972656 130.460938 247.4375 130.503906 C 246.972656 130.539062 246.605469 130.347656 246.542969 129.871094 C 246.46875 129.316406 246.75 128.839844 247.3125 128.816406 C 247.710938 128.800781 248.0625 129.136719 248.054688 129.496094 Z M 248.054688 129.496094 " fill-opacity="1" fill-rule="nonzero"/><path fill="#32a7ca" d="M 127.574219 139.175781 C 128.074219 139.457031 129.308594 139.046875 128.964844 140.058594 C 128.585938 141.167969 127.859375 142.683594 126.554688 142.53125 C 125.613281 142.425781 125.253906 142.378906 124.453125 143.015625 C 123.28125 143.949219 122.765625 142.765625 122.464844 141.738281 C 123.070312 141.421875 122.9375 141.023438 122.597656 140.601562 C 123 140.457031 123.40625 140.3125 123.804688 140.175781 C 123.761719 140.167969 123.730469 140.148438 123.691406 140.132812 C 123.714844 140.175781 123.738281 140.21875 123.757812 140.261719 C 123.371094 140.371094 122.984375 140.476562 122.59375 140.585938 C 122.570312 140.984375 122.542969 141.378906 122.515625 141.777344 C 121.859375 141.671875 121.027344 142.558594 120.550781 141.472656 C 120.246094 140.773438 120.539062 140.132812 121.007812 139.617188 C 122.644531 137.808594 124.285156 135.996094 126.261719 134.539062 C 127.113281 133.910156 128.023438 133.5 128.992188 134.621094 C 127.925781 135.972656 128.449219 137.78125 127.605469 139.207031 L 127.496094 139.28125 Z M 127.574219 139.175781 " fill-opacity="1" fill-rule="nonzero"/><path fill="#32a7ca" d="M 175.5625 127.464844 C 177.140625 126.738281 177.886719 124.773438 180.0625 124.1875 C 179.597656 127.507812 175.742188 128.484375 176.042969 131.683594 C 176.042969 131.6875 176.128906 131.597656 176.128906 131.601562 C 173.417969 131.457031 173.417969 131.457031 175.101562 127.941406 L 175.015625 128.019531 C 175.21875 127.820312 175.417969 127.621094 175.621094 127.421875 Z M 175.5625 127.464844 " fill-opacity="1" fill-rule="nonzero"/><path fill="#32a7ca" d="M 175.101562 127.941406 C 174.1875 127.785156 173.039062 128.917969 172.371094 127.617188 C 171.742188 126.402344 172.8125 125.601562 173.449219 124.777344 C 173.847656 124.257812 174.371094 123.746094 174.949219 123.464844 C 175.679688 123.113281 176.355469 121.714844 177.261719 122.765625 C 178.308594 123.988281 176.734375 124.285156 176.125 124.707031 C 174.960938 125.511719 175.890625 126.585938 175.5625 127.464844 L 175.621094 127.421875 C 175.417969 127.621094 175.21875 127.820312 175.015625 128.019531 Z M 175.101562 127.941406 " fill-opacity="1" fill-rule="nonzero"/><path fill="#32a7ca" d="M 212.496094 111.347656 C 211.027344 113.496094 210.058594 115.445312 207.972656 116.46875 C 206.683594 115.507812 207.296875 114.476562 208.039062 113.890625 C 209.242188 112.9375 210 111.015625 212.496094 111.347656 Z M 212.496094 111.347656 " fill-opacity="1" fill-rule="nonzero"/><path fill="#32a7ca" d="M 191.957031 130.503906 C 190.761719 130.683594 190.03125 130.351562 190.566406 129.007812 C 191.332031 127.097656 192.574219 125.589844 194.605469 124.644531 C 195.445312 126.265625 194.09375 126.921875 193.453125 127.695312 C 192.851562 128.421875 192.019531 128.917969 192.40625 130.039062 L 192.5 129.949219 C 192.300781 130.144531 192.097656 130.347656 191.898438 130.546875 Z M 191.957031 130.503906 " fill-opacity="1" fill-rule="nonzero"/><path fill="#32a7ca" d="M 192.40625 130.039062 C 193.734375 129.761719 194.085938 127.859375 195.980469 128.066406 C 195.53125 129.960938 193.960938 131.050781 193.058594 132.527344 C 192.878906 132.824219 192.25 132.679688 191.914062 132.367188 C 191.246094 131.738281 191.820312 131.121094 191.957031 130.503906 L 191.898438 130.546875 C 192.097656 130.347656 192.300781 130.144531 192.5 129.949219 Z M 192.40625 130.039062 " fill-opacity="1" fill-rule="nonzero"/><path fill="#32a7ca" d="M 144.296875 126.089844 C 145.09375 126.859375 143.300781 128.863281 145.773438 128.714844 C 145.265625 130.871094 143.6875 131.972656 142.527344 133.453125 C 141.71875 133.105469 140.96875 132.773438 140.214844 132.457031 C 139.585938 132.191406 139.316406 131.753906 139.421875 131.058594 C 139.613281 129.816406 142.882812 126.449219 144.296875 126.089844 Z M 144.296875 126.089844 " fill-opacity="1" fill-rule="nonzero"/><path fill="#32a7ca" d="M 127.933594 123.171875 C 127.648438 124.769531 126.453125 125.601562 125.902344 126.808594 C 125.710938 127.230469 125.304688 127.445312 124.867188 127.320312 C 124.441406 127.203125 124.210938 126.828125 124.148438 126.378906 C 123.929688 124.789062 126.070312 122.871094 127.933594 123.171875 Z M 127.933594 123.171875 " fill-opacity="1" fill-rule="nonzero"/><path fill="#32a7ca" d="M 232.730469 126.808594 C 233.234375 128.117188 231.847656 128.871094 231.792969 130.015625 C 231.558594 130.15625 231.324219 130.292969 231.089844 130.433594 C 230.558594 130.925781 229.640625 131.136719 229.707031 132.296875 C 230.613281 131.808594 231.3125 131.421875 231.023438 130.386719 C 231.371094 130.421875 231.667969 130.378906 231.75 129.96875 C 233.074219 130.058594 233.675781 130.480469 232.746094 131.828125 C 231.671875 133.382812 231.046875 135.226562 228.367188 133.675781 C 227.007812 132.890625 226.632812 132.308594 227.460938 131.324219 C 228.957031 129.546875 230.40625 127.621094 232.804688 126.886719 C 232.804688 126.886719 232.730469 126.808594 232.730469 126.808594 Z M 232.730469 126.808594 " fill-opacity="1" fill-rule="nonzero"/></svg>