<svg xmlns="http://www.w3.org/2000/svg" xmlns:xlink="http://www.w3.org/1999/xlink" width="453" zoomAndPan="magnify" viewBox="0 0 340.08 56.999996" height="75" preserveAspectRatio="xMidYMid meet" version="1.0"><defs><clipPath id="id1"><path d="M 5.644531 5.722656 L 50.082031 5.722656 L 50.082031 50.160156 L 5.644531 50.160156 Z M 5.644531 5.722656 " clip-rule="nonzero"/></clipPath><clipPath id="id2"><path d="M 56.871094 5.722656 L 101.308594 5.722656 L 101.308594 50.160156 L 56.871094 50.160156 Z M 56.871094 5.722656 " clip-rule="nonzero"/></clipPath><clipPath id="id3"><path d="M 107.964844 5.722656 L 152.402344 5.722656 L 152.402344 50.160156 L 107.964844 50.160156 Z M 107.964844 5.722656 " clip-rule="nonzero"/></clipPath><clipPath id="id4"><path d="M 17.863281 15.316406 L 38.027344 15.316406 L 38.027344 40.710938 L 17.863281 40.710938 Z M 17.863281 15.316406 " clip-rule="nonzero"/></clipPath><clipPath id="id5"><path d="M 72.160156 23 L 80 23 L 80 30 L 72.160156 30 Z M 72.160156 23 " clip-rule="nonzero"/></clipPath><clipPath id="id6"><path d="M 72.160156 29 L 80 29 L 80 37 L 72.160156 37 Z M 72.160156 29 " clip-rule="nonzero"/></clipPath><clipPath id="id7"><path d="M 76 15.753906 L 83 15.753906 L 83 26 L 76 26 Z M 76 15.753906 " clip-rule="nonzero"/></clipPath><clipPath id="id8"><path d="M 78 22 L 86.351562 22 L 86.351562 31 L 78 31 Z M 78 22 " clip-rule="nonzero"/></clipPath><clipPath id="id9"><path d="M 78 28 L 86.351562 28 L 86.351562 37 L 78 37 Z M 78 28 " clip-rule="nonzero"/></clipPath><clipPath id="id10"><path d="M 72.160156 22 L 80 22 L 80 31 L 72.160156 31 Z M 72.160156 22 " clip-rule="nonzero"/></clipPath><clipPath id="id11"><path d="M 72.160156 28 L 80 28 L 80 37 L 72.160156 37 Z M 72.160156 28 " clip-rule="nonzero"/></clipPath><clipPath id="id12"><path d="M 78 24 L 80 24 L 80 42.640625 L 78 42.640625 Z M 78 24 " clip-rule="nonzero"/></clipPath><clipPath id="id13"><path d="M 123.40625 13.25 L 136.851562 13.25 L 136.851562 42.375 L 123.40625 42.375 Z M 123.40625 13.25 " clip-rule="nonzero"/></clipPath><clipPath id="id14"><path d="M 159.054688 5.722656 L 203.492188 5.722656 L 203.492188 50.160156 L 159.054688 50.160156 Z M 159.054688 5.722656 " clip-rule="nonzero"/></clipPath><clipPath id="id15"><path d="M 174 15 L 189 15 L 189 42 L 174 42 Z M 174 15 " clip-rule="nonzero"/></clipPath><clipPath id="id16"><path d="M 165.378906 27.847656 L 181.515625 12.304688 L 197.058594 28.445312 L 180.917969 43.984375 Z M 165.378906 27.847656 " clip-rule="nonzero"/></clipPath><clipPath id="id17"><path d="M 165.378906 27.847656 L 181.515625 12.304688 L 197.058594 28.445312 L 180.917969 43.984375 Z M 165.378906 27.847656 " clip-rule="nonzero"/></clipPath><clipPath id="id18"><path d="M 165.421875 27.804688 L 181.472656 12.347656 L 197.300781 28.785156 L 181.253906 44.242188 Z M 165.421875 27.804688 " clip-rule="nonzero"/></clipPath><clipPath id="id19"><path d="M 165.421875 27.804688 L 181.472656 12.347656 L 197.007812 28.480469 L 180.957031 43.9375 Z M 165.421875 27.804688 " clip-rule="nonzero"/></clipPath><clipPath id="id20"><path d="M 181 31 L 186 31 L 186 40 L 181 40 Z M 181 31 " clip-rule="nonzero"/></clipPath><clipPath id="id21"><path d="M 165.378906 27.847656 L 181.515625 12.304688 L 197.058594 28.445312 L 180.917969 43.984375 Z M 165.378906 27.847656 " clip-rule="nonzero"/></clipPath><clipPath id="id22"><path d="M 165.378906 27.847656 L 181.515625 12.304688 L 197.058594 28.445312 L 180.917969 43.984375 Z M 165.378906 27.847656 " clip-rule="nonzero"/></clipPath><clipPath id="id23"><path d="M 176 31 L 180 31 L 180 39 L 176 39 Z M 176 31 " clip-rule="nonzero"/></clipPath><clipPath id="id24"><path d="M 165.378906 27.847656 L 181.515625 12.304688 L 197.058594 28.445312 L 180.917969 43.984375 Z M 165.378906 27.847656 " clip-rule="nonzero"/></clipPath><clipPath id="id25"><path d="M 165.378906 27.847656 L 181.515625 12.304688 L 197.058594 28.445312 L 180.917969 43.984375 Z M 165.378906 27.847656 " clip-rule="nonzero"/></clipPath><clipPath id="id26"><path d="M 183 17 L 186 17 L 186 26 L 183 26 Z M 183 17 " clip-rule="nonzero"/></clipPath><clipPath id="id27"><path d="M 165.378906 27.847656 L 181.515625 12.304688 L 197.058594 28.445312 L 180.917969 43.984375 Z M 165.378906 27.847656 " clip-rule="nonzero"/></clipPath><clipPath id="id28"><path d="M 165.378906 27.847656 L 181.515625 12.304688 L 197.058594 28.445312 L 180.917969 43.984375 Z M 165.378906 27.847656 " clip-rule="nonzero"/></clipPath><clipPath id="id29"><path d="M 179 18 L 181 18 L 181 26 L 179 26 Z M 179 18 " clip-rule="nonzero"/></clipPath><clipPath id="id30"><path d="M 165.378906 27.847656 L 181.515625 12.304688 L 197.058594 28.445312 L 180.917969 43.984375 Z M 165.378906 27.847656 " clip-rule="nonzero"/></clipPath><clipPath id="id31"><path d="M 165.378906 27.847656 L 181.515625 12.304688 L 197.058594 28.445312 L 180.917969 43.984375 Z M 165.378906 27.847656 " clip-rule="nonzero"/></clipPath><clipPath id="id32"><path d="M 177 19 L 180 19 L 180 27 L 177 27 Z M 177 19 " clip-rule="nonzero"/></clipPath><clipPath id="id33"><path d="M 165.378906 27.847656 L 181.515625 12.304688 L 197.058594 28.445312 L 180.917969 43.984375 Z M 165.378906 27.847656 " clip-rule="nonzero"/></clipPath><clipPath id="id34"><path d="M 165.378906 27.847656 L 181.515625 12.304688 L 197.058594 28.445312 L 180.917969 43.984375 Z M 165.378906 27.847656 " clip-rule="nonzero"/></clipPath><clipPath id="id35"><path d="M 180 31 L 182 31 L 182 38 L 180 38 Z M 180 31 " clip-rule="nonzero"/></clipPath><clipPath id="id36"><path d="M 165.378906 27.847656 L 181.515625 12.304688 L 197.058594 28.445312 L 180.917969 43.984375 Z M 165.378906 27.847656 " clip-rule="nonzero"/></clipPath><clipPath id="id37"><path d="M 165.378906 27.847656 L 181.515625 12.304688 L 197.058594 28.445312 L 180.917969 43.984375 Z M 165.378906 27.847656 " clip-rule="nonzero"/></clipPath><clipPath id="id38"><path d="M 178 35 L 181 35 L 181 37 L 178 37 Z M 178 35 " clip-rule="nonzero"/></clipPath><clipPath id="id39"><path d="M 165.378906 27.847656 L 181.515625 12.304688 L 197.058594 28.445312 L 180.917969 43.984375 Z M 165.378906 27.847656 " clip-rule="nonzero"/></clipPath><clipPath id="id40"><path d="M 165.378906 27.847656 L 181.515625 12.304688 L 197.058594 28.445312 L 180.917969 43.984375 Z M 165.378906 27.847656 " clip-rule="nonzero"/></clipPath><clipPath id="id41"><path d="M 178 33 L 180 33 L 180 35 L 178 35 Z M 178 33 " clip-rule="nonzero"/></clipPath><clipPath id="id42"><path d="M 165.378906 27.847656 L 181.515625 12.304688 L 197.058594 28.445312 L 180.917969 43.984375 Z M 165.378906 27.847656 " clip-rule="nonzero"/></clipPath><clipPath id="id43"><path d="M 165.378906 27.847656 L 181.515625 12.304688 L 197.058594 28.445312 L 180.917969 43.984375 Z M 165.378906 27.847656 " clip-rule="nonzero"/></clipPath><clipPath id="id44"><path d="M 182 32 L 184 32 L 184 34 L 182 34 Z M 182 32 " clip-rule="nonzero"/></clipPath><clipPath id="id45"><path d="M 165.378906 27.847656 L 181.515625 12.304688 L 197.058594 28.445312 L 180.917969 43.984375 Z M 165.378906 27.847656 " clip-rule="nonzero"/></clipPath><clipPath id="id46"><path d="M 165.378906 27.847656 L 181.515625 12.304688 L 197.058594 28.445312 L 180.917969 43.984375 Z M 165.378906 27.847656 " clip-rule="nonzero"/></clipPath><clipPath id="id47"><path d="M 181 21 L 184 21 L 184 23 L 181 23 Z M 181 21 " clip-rule="nonzero"/></clipPath><clipPath id="id48"><path d="M 165.378906 27.847656 L 181.515625 12.304688 L 197.058594 28.445312 L 180.917969 43.984375 Z M 165.378906 27.847656 " clip-rule="nonzero"/></clipPath><clipPath id="id49"><path d="M 165.378906 27.847656 L 181.515625 12.304688 L 197.058594 28.445312 L 180.917969 43.984375 Z M 165.378906 27.847656 " clip-rule="nonzero"/></clipPath><clipPath id="id50"><path d="M 182 34 L 184 34 L 184 36 L 182 36 Z M 182 34 " clip-rule="nonzero"/></clipPath><clipPath id="id51"><path d="M 165.378906 27.847656 L 181.515625 12.304688 L 197.058594 28.445312 L 180.917969 43.984375 Z M 165.378906 27.847656 " clip-rule="nonzero"/></clipPath><clipPath id="id52"><path d="M 165.378906 27.847656 L 181.515625 12.304688 L 197.058594 28.445312 L 180.917969 43.984375 Z M 165.378906 27.847656 " clip-rule="nonzero"/></clipPath><clipPath id="id53"><path d="M 181 23 L 184 23 L 184 25 L 181 25 Z M 181 23 " clip-rule="nonzero"/></clipPath><clipPath id="id54"><path d="M 165.378906 27.847656 L 181.515625 12.304688 L 197.058594 28.445312 L 180.917969 43.984375 Z M 165.378906 27.847656 " clip-rule="nonzero"/></clipPath><clipPath id="id55"><path d="M 165.378906 27.847656 L 181.515625 12.304688 L 197.058594 28.445312 L 180.917969 43.984375 Z M 165.378906 27.847656 " clip-rule="nonzero"/></clipPath><clipPath id="id56"><path d="M 178 31 L 181 31 L 181 33 L 178 33 Z M 178 31 " clip-rule="nonzero"/></clipPath><clipPath id="id57"><path d="M 165.378906 27.847656 L 181.515625 12.304688 L 197.058594 28.445312 L 180.917969 43.984375 Z M 165.378906 27.847656 " clip-rule="nonzero"/></clipPath><clipPath id="id58"><path d="M 165.378906 27.847656 L 181.515625 12.304688 L 197.058594 28.445312 L 180.917969 43.984375 Z M 165.378906 27.847656 " clip-rule="nonzero"/></clipPath><clipPath id="id59"><path d="M 179 37 L 181 37 L 181 38 L 179 38 Z M 179 37 " clip-rule="nonzero"/></clipPath><clipPath id="id60"><path d="M 165.378906 27.847656 L 181.515625 12.304688 L 197.058594 28.445312 L 180.917969 43.984375 Z M 165.378906 27.847656 " clip-rule="nonzero"/></clipPath><clipPath id="id61"><path d="M 165.378906 27.847656 L 181.515625 12.304688 L 197.058594 28.445312 L 180.917969 43.984375 Z M 165.378906 27.847656 " clip-rule="nonzero"/></clipPath><clipPath id="id62"><path d="M 176 33 L 178 33 L 178 35 L 176 35 Z M 176 33 " clip-rule="nonzero"/></clipPath><clipPath id="id63"><path d="M 165.378906 27.847656 L 181.515625 12.304688 L 197.058594 28.445312 L 180.917969 43.984375 Z M 165.378906 27.847656 " clip-rule="nonzero"/></clipPath><clipPath id="id64"><path d="M 165.378906 27.847656 L 181.515625 12.304688 L 197.058594 28.445312 L 180.917969 43.984375 Z M 165.378906 27.847656 " clip-rule="nonzero"/></clipPath><clipPath id="id65"><path d="M 183 28 L 185 28 L 185 31 L 183 31 Z M 183 28 " clip-rule="nonzero"/></clipPath><clipPath id="id66"><path d="M 165.378906 27.847656 L 181.515625 12.304688 L 197.058594 28.445312 L 180.917969 43.984375 Z M 165.378906 27.847656 " clip-rule="nonzero"/></clipPath><clipPath id="id67"><path d="M 165.378906 27.847656 L 181.515625 12.304688 L 197.058594 28.445312 L 180.917969 43.984375 Z M 165.378906 27.847656 " clip-rule="nonzero"/></clipPath><clipPath id="id68"><path d="M 185 35 L 187 35 L 187 36 L 185 36 Z M 185 35 " clip-rule="nonzero"/></clipPath><clipPath id="id69"><path d="M 165.378906 27.847656 L 181.515625 12.304688 L 197.058594 28.445312 L 180.917969 43.984375 Z M 165.378906 27.847656 " clip-rule="nonzero"/></clipPath><clipPath id="id70"><path d="M 165.378906 27.847656 L 181.515625 12.304688 L 197.058594 28.445312 L 180.917969 43.984375 Z M 165.378906 27.847656 " clip-rule="nonzero"/></clipPath><clipPath id="id71"><path d="M 176 30 L 178 30 L 178 32 L 176 32 Z M 176 30 " clip-rule="nonzero"/></clipPath><clipPath id="id72"><path d="M 165.378906 27.847656 L 181.515625 12.304688 L 197.058594 28.445312 L 180.917969 43.984375 Z M 165.378906 27.847656 " clip-rule="nonzero"/></clipPath><clipPath id="id73"><path d="M 165.378906 27.847656 L 181.515625 12.304688 L 197.058594 28.445312 L 180.917969 43.984375 Z M 165.378906 27.847656 " clip-rule="nonzero"/></clipPath><clipPath id="id74"><path d="M 178 28 L 179 28 L 179 31 L 178 31 Z M 178 28 " clip-rule="nonzero"/></clipPath><clipPath id="id75"><path d="M 165.378906 27.847656 L 181.515625 12.304688 L 197.058594 28.445312 L 180.917969 43.984375 Z M 165.378906 27.847656 " clip-rule="nonzero"/></clipPath><clipPath id="id76"><path d="M 165.378906 27.847656 L 181.515625 12.304688 L 197.058594 28.445312 L 180.917969 43.984375 Z M 165.378906 27.847656 " clip-rule="nonzero"/></clipPath><clipPath id="id77"><path d="M 178 21 L 180 21 L 180 23 L 178 23 Z M 178 21 " clip-rule="nonzero"/></clipPath><clipPath id="id78"><path d="M 165.378906 27.847656 L 181.515625 12.304688 L 197.058594 28.445312 L 180.917969 43.984375 Z M 165.378906 27.847656 " clip-rule="nonzero"/></clipPath><clipPath id="id79"><path d="M 165.378906 27.847656 L 181.515625 12.304688 L 197.058594 28.445312 L 180.917969 43.984375 Z M 165.378906 27.847656 " clip-rule="nonzero"/></clipPath><clipPath id="id80"><path d="M 176 21 L 177 21 L 177 23 L 176 23 Z M 176 21 " clip-rule="nonzero"/></clipPath><clipPath id="id81"><path d="M 165.378906 27.847656 L 181.515625 12.304688 L 197.058594 28.445312 L 180.917969 43.984375 Z M 165.378906 27.847656 " clip-rule="nonzero"/></clipPath><clipPath id="id82"><path d="M 165.378906 27.847656 L 181.515625 12.304688 L 197.058594 28.445312 L 180.917969 43.984375 Z M 165.378906 27.847656 " clip-rule="nonzero"/></clipPath><clipPath id="id83"><path d="M 180 28 L 181 28 L 181 31 L 180 31 Z M 180 28 " clip-rule="nonzero"/></clipPath><clipPath id="id84"><path d="M 165.378906 27.847656 L 181.515625 12.304688 L 197.058594 28.445312 L 180.917969 43.984375 Z M 165.378906 27.847656 " clip-rule="nonzero"/></clipPath><clipPath id="id85"><path d="M 165.378906 27.847656 L 181.515625 12.304688 L 197.058594 28.445312 L 180.917969 43.984375 Z M 165.378906 27.847656 " clip-rule="nonzero"/></clipPath><clipPath id="id86"><path d="M 185 32 L 187 32 L 187 34 L 185 34 Z M 185 32 " clip-rule="nonzero"/></clipPath><clipPath id="id87"><path d="M 165.378906 27.847656 L 181.515625 12.304688 L 197.058594 28.445312 L 180.917969 43.984375 Z M 165.378906 27.847656 " clip-rule="nonzero"/></clipPath><clipPath id="id88"><path d="M 165.378906 27.847656 L 181.515625 12.304688 L 197.058594 28.445312 L 180.917969 43.984375 Z M 165.378906 27.847656 " clip-rule="nonzero"/></clipPath><clipPath id="id89"><path d="M 182 27 L 184 27 L 184 28 L 182 28 Z M 182 27 " clip-rule="nonzero"/></clipPath><clipPath id="id90"><path d="M 165.378906 27.847656 L 181.515625 12.304688 L 197.058594 28.445312 L 180.917969 43.984375 Z M 165.378906 27.847656 " clip-rule="nonzero"/></clipPath><clipPath id="id91"><path d="M 165.378906 27.847656 L 181.515625 12.304688 L 197.058594 28.445312 L 180.917969 43.984375 Z M 165.378906 27.847656 " clip-rule="nonzero"/></clipPath><clipPath id="id92"><path d="M 179 30 L 181 30 L 181 32 L 179 32 Z M 179 30 " clip-rule="nonzero"/></clipPath><clipPath id="id93"><path d="M 165.378906 27.847656 L 181.515625 12.304688 L 197.058594 28.445312 L 180.917969 43.984375 Z M 165.378906 27.847656 " clip-rule="nonzero"/></clipPath><clipPath id="id94"><path d="M 165.378906 27.847656 L 181.515625 12.304688 L 197.058594 28.445312 L 180.917969 43.984375 Z M 165.378906 27.847656 " clip-rule="nonzero"/></clipPath><clipPath id="id95"><path d="M 210.355469 5.722656 L 254.792969 5.722656 L 254.792969 50.160156 L 210.355469 50.160156 Z M 210.355469 5.722656 " clip-rule="nonzero"/></clipPath><clipPath id="id96"><path d="M 261.652344 6.414062 L 306.089844 6.414062 L 306.089844 50.851562 L 261.652344 50.851562 Z M 261.652344 6.414062 " clip-rule="nonzero"/></clipPath><clipPath id="id97"><path d="M 226 13 L 239 13 L 239 43 L 226 43 Z M 226 13 " clip-rule="nonzero"/></clipPath><clipPath id="id98"><path d="M 236.347656 12.0625 L 248.929688 29.691406 L 228.871094 44.011719 L 216.285156 26.382812 Z M 236.347656 12.0625 " clip-rule="nonzero"/></clipPath><clipPath id="id99"><path d="M 236.347656 12.0625 L 248.929688 29.691406 L 228.871094 44.011719 L 216.285156 26.382812 Z M 236.347656 12.0625 " clip-rule="nonzero"/></clipPath><clipPath id="id100"><path d="M 236.347656 12.0625 L 248.929688 29.691406 L 228.871094 44.011719 L 216.285156 26.382812 Z M 236.347656 12.0625 " clip-rule="nonzero"/></clipPath><clipPath id="id101"><path d="M 231 17 L 237 17 L 237 24 L 231 24 Z M 231 17 " clip-rule="nonzero"/></clipPath><clipPath id="id102"><path d="M 236.347656 12.0625 L 248.929688 29.691406 L 228.871094 44.011719 L 216.285156 26.382812 Z M 236.347656 12.0625 " clip-rule="nonzero"/></clipPath><clipPath id="id103"><path d="M 236.347656 12.0625 L 248.929688 29.691406 L 228.871094 44.011719 L 216.285156 26.382812 Z M 236.347656 12.0625 " clip-rule="nonzero"/></clipPath><clipPath id="id104"><path d="M 236.347656 12.0625 L 248.929688 29.691406 L 228.871094 44.011719 L 216.285156 26.382812 Z M 236.347656 12.0625 " clip-rule="nonzero"/></clipPath><clipPath id="id105"><path d="M 232 18 L 235 18 L 235 21 L 232 21 Z M 232 18 " clip-rule="nonzero"/></clipPath><clipPath id="id106"><path d="M 236.347656 12.0625 L 248.929688 29.691406 L 228.871094 44.011719 L 216.285156 26.382812 Z M 236.347656 12.0625 " clip-rule="nonzero"/></clipPath><clipPath id="id107"><path d="M 236.347656 12.0625 L 248.929688 29.691406 L 228.871094 44.011719 L 216.285156 26.382812 Z M 236.347656 12.0625 " clip-rule="nonzero"/></clipPath><clipPath id="id108"><path d="M 236.347656 12.0625 L 248.929688 29.691406 L 228.871094 44.011719 L 216.285156 26.382812 Z M 236.347656 12.0625 " clip-rule="nonzero"/></clipPath><clipPath id="id109"><path d="M 230 24 L 235 24 L 235 32 L 230 32 Z M 230 24 " clip-rule="nonzero"/></clipPath><clipPath id="id110"><path d="M 236.347656 12.0625 L 248.929688 29.691406 L 228.871094 44.011719 L 216.285156 26.382812 Z M 236.347656 12.0625 " clip-rule="nonzero"/></clipPath><clipPath id="id111"><path d="M 236.347656 12.0625 L 248.929688 29.691406 L 228.871094 44.011719 L 216.285156 26.382812 Z M 236.347656 12.0625 " clip-rule="nonzero"/></clipPath><clipPath id="id112"><path d="M 236.347656 12.0625 L 248.929688 29.691406 L 228.871094 44.011719 L 216.285156 26.382812 Z M 236.347656 12.0625 " clip-rule="nonzero"/></clipPath><clipPath id="id113"><path d="M 231 25 L 234 25 L 234 28 L 231 28 Z M 231 25 " clip-rule="nonzero"/></clipPath><clipPath id="id114"><path d="M 236.347656 12.0625 L 248.929688 29.691406 L 228.871094 44.011719 L 216.285156 26.382812 Z M 236.347656 12.0625 " clip-rule="nonzero"/></clipPath><clipPath id="id115"><path d="M 236.347656 12.0625 L 248.929688 29.691406 L 228.871094 44.011719 L 216.285156 26.382812 Z M 236.347656 12.0625 " clip-rule="nonzero"/></clipPath><clipPath id="id116"><path d="M 236.347656 12.0625 L 248.929688 29.691406 L 228.871094 44.011719 L 216.285156 26.382812 Z M 236.347656 12.0625 " clip-rule="nonzero"/></clipPath><clipPath id="id117"><path d="M 229 32 L 234 32 L 234 39 L 229 39 Z M 229 32 " clip-rule="nonzero"/></clipPath><clipPath id="id118"><path d="M 236.347656 12.0625 L 248.929688 29.691406 L 228.871094 44.011719 L 216.285156 26.382812 Z M 236.347656 12.0625 " clip-rule="nonzero"/></clipPath><clipPath id="id119"><path d="M 236.347656 12.0625 L 248.929688 29.691406 L 228.871094 44.011719 L 216.285156 26.382812 Z M 236.347656 12.0625 " clip-rule="nonzero"/></clipPath><clipPath id="id120"><path d="M 236.347656 12.0625 L 248.929688 29.691406 L 228.871094 44.011719 L 216.285156 26.382812 Z M 236.347656 12.0625 " clip-rule="nonzero"/></clipPath><clipPath id="id121"><path d="M 230 33 L 232 33 L 232 36 L 230 36 Z M 230 33 " clip-rule="nonzero"/></clipPath><clipPath id="id122"><path d="M 236.347656 12.0625 L 248.929688 29.691406 L 228.871094 44.011719 L 216.285156 26.382812 Z M 236.347656 12.0625 " clip-rule="nonzero"/></clipPath><clipPath id="id123"><path d="M 236.347656 12.0625 L 248.929688 29.691406 L 228.871094 44.011719 L 216.285156 26.382812 Z M 236.347656 12.0625 " clip-rule="nonzero"/></clipPath><clipPath id="id124"><path d="M 236.347656 12.0625 L 248.929688 29.691406 L 228.871094 44.011719 L 216.285156 26.382812 Z M 236.347656 12.0625 " clip-rule="nonzero"/></clipPath><clipPath id="id125"><path d="M 271 14.933594 L 296.824219 14.933594 L 296.824219 41.074219 L 271 41.074219 Z M 271 14.933594 " clip-rule="nonzero"/></clipPath></defs><g clip-path="url(#id1)"><path fill="#919191" d="M 27.863281 50.160156 C 21.933594 50.160156 16.347656 47.851562 12.15625 43.652344 C 7.953125 39.460938 5.644531 33.875 5.644531 27.941406 C 5.644531 22.007812 7.953125 16.421875 12.15625 12.230469 C 16.347656 8.03125 21.933594 5.722656 27.863281 5.722656 C 33.796875 5.722656 39.382812 8.03125 43.574219 12.230469 C 47.773438 16.433594 50.082031 22.007812 50.082031 27.941406 C 50.082031 33.875 47.773438 39.460938 43.574219 43.652344 C 39.382812 47.851562 33.796875 50.160156 27.863281 50.160156 Z M 27.863281 7.054688 C 22.289062 7.054688 17.039062 9.230469 13.097656 13.171875 C 9.152344 17.117188 6.976562 22.363281 6.976562 27.941406 C 6.976562 33.519531 9.152344 38.765625 13.097656 42.710938 C 17.039062 46.652344 22.289062 48.828125 27.863281 48.828125 C 33.441406 48.828125 38.691406 46.652344 42.632812 42.710938 C 46.574219 38.765625 48.75 33.519531 48.75 27.941406 C 48.75 22.363281 46.574219 17.117188 42.632812 13.171875 C 38.691406 9.230469 33.441406 7.054688 27.863281 7.054688 Z M 27.863281 7.054688 " fill-opacity="1" fill-rule="nonzero"/></g><g clip-path="url(#id2)"><path fill="#919191" d="M 79.089844 50.160156 C 73.160156 50.160156 67.574219 47.851562 63.382812 43.652344 C 59.179688 39.460938 56.871094 33.875 56.871094 27.941406 C 56.871094 22.007812 59.179688 16.421875 63.382812 12.230469 C 67.574219 8.03125 73.160156 5.722656 79.089844 5.722656 C 85.023438 5.722656 90.609375 8.03125 94.800781 12.230469 C 99 16.433594 101.308594 22.007812 101.308594 27.941406 C 101.308594 33.875 99 39.460938 94.800781 43.652344 C 90.609375 47.851562 85.023438 50.160156 79.089844 50.160156 Z M 79.089844 7.054688 C 73.515625 7.054688 68.265625 9.230469 64.324219 13.171875 C 60.378906 17.117188 58.203125 22.363281 58.203125 27.941406 C 58.203125 33.519531 60.378906 38.765625 64.324219 42.710938 C 68.265625 46.652344 73.515625 48.828125 79.089844 48.828125 C 84.667969 48.828125 89.917969 46.652344 93.859375 42.710938 C 97.800781 38.765625 99.976562 33.519531 99.976562 27.941406 C 99.976562 22.363281 97.800781 17.117188 93.859375 13.171875 C 89.917969 9.230469 84.667969 7.054688 79.089844 7.054688 Z M 79.089844 7.054688 " fill-opacity="1" fill-rule="nonzero"/></g><g clip-path="url(#id3)"><path fill="#919191" d="M 130.183594 50.160156 C 124.25 50.160156 118.664062 47.851562 114.472656 43.652344 C 110.273438 39.460938 107.964844 33.875 107.964844 27.941406 C 107.964844 22.007812 110.273438 16.421875 114.472656 12.230469 C 118.664062 8.03125 124.25 5.722656 130.183594 5.722656 C 136.113281 5.722656 141.699219 8.03125 145.890625 12.230469 C 150.09375 16.433594 152.402344 22.007812 152.402344 27.941406 C 152.402344 33.875 150.09375 39.460938 145.890625 43.652344 C 141.699219 47.851562 136.113281 50.160156 130.183594 50.160156 Z M 130.183594 7.054688 C 124.605469 7.054688 119.359375 9.230469 115.414062 13.171875 C 111.472656 17.117188 109.296875 22.363281 109.296875 27.941406 C 109.296875 33.519531 111.472656 38.765625 115.414062 42.710938 C 119.359375 46.652344 124.605469 48.828125 130.183594 48.828125 C 135.761719 48.828125 141.007812 46.652344 144.949219 42.710938 C 148.894531 38.765625 151.070312 33.519531 151.070312 27.941406 C 151.070312 22.363281 148.894531 17.117188 144.949219 13.171875 C 141.007812 9.230469 135.761719 7.054688 130.183594 7.054688 Z M 130.183594 7.054688 " fill-opacity="1" fill-rule="nonzero"/></g><g clip-path="url(#id4)"><path fill="#919191" d="M 27.945312 15.34375 C 22.585938 15.34375 18.558594 23.863281 17.945312 29.3125 C 17.851562 29.445312 17.835938 29.585938 17.902344 29.734375 C 17.878906 30.054688 17.863281 30.367188 17.863281 30.660156 C 17.863281 31.320312 17.925781 31.976562 18.054688 32.625 C 18.183594 33.273438 18.375 33.902344 18.628906 34.511719 C 18.882812 35.121094 19.195312 35.703125 19.5625 36.25 C 19.929688 36.800781 20.347656 37.308594 20.816406 37.777344 C 21.285156 38.246094 21.792969 38.660156 22.34375 39.027344 C 22.894531 39.394531 23.476562 39.707031 24.085938 39.957031 C 24.699219 40.210938 25.328125 40.402344 25.976562 40.53125 C 26.628906 40.660156 27.28125 40.726562 27.945312 40.726562 C 28.605469 40.726562 29.261719 40.660156 29.914062 40.53125 C 30.5625 40.402344 31.191406 40.210938 31.804688 39.957031 C 32.414062 39.707031 32.996094 39.394531 33.546875 39.027344 C 34.097656 38.660156 34.605469 38.246094 35.074219 37.777344 C 35.542969 37.308594 35.960938 36.800781 36.328125 36.25 C 36.695312 35.703125 37.007812 35.121094 37.261719 34.511719 C 37.515625 33.902344 37.703125 33.273438 37.835938 32.625 C 37.964844 31.976562 38.027344 31.320312 38.027344 30.660156 C 38.027344 25.417969 33.769531 15.34375 27.945312 15.34375 Z M 27.945312 16.21875 C 32.035156 16.21875 35.707031 22.484375 36.8125 27.722656 L 33.214844 29.71875 L 29.050781 27.222656 C 28.886719 27.125 28.726562 27.128906 28.574219 27.238281 L 24.445312 30.121094 L 21.195312 27.683594 C 21.039062 27.570312 20.878906 27.558594 20.710938 27.65625 L 18.902344 28.710938 C 19.714844 23.3125 23.59375 16.21875 27.945312 16.21875 Z M 27.945312 39.851562 C 27.339844 39.847656 26.742188 39.789062 26.148438 39.671875 C 25.558594 39.554688 24.980469 39.378906 24.421875 39.148438 C 23.867188 38.917969 23.335938 38.632812 22.832031 38.296875 C 22.332031 37.960938 21.867188 37.582031 21.4375 37.15625 C 21.011719 36.730469 20.628906 36.265625 20.292969 35.761719 C 19.957031 35.261719 19.675781 34.730469 19.441406 34.175781 C 19.210938 33.617188 19.035156 33.042969 18.917969 32.453125 C 18.800781 31.859375 18.738281 31.261719 18.738281 30.660156 C 18.738281 30.382812 18.753906 30.089844 18.773438 29.796875 L 20.902344 28.558594 L 24.175781 31.011719 C 24.34375 31.136719 24.515625 31.140625 24.6875 31.019531 L 28.839844 28.117188 L 32.980469 30.597656 C 33.125 30.683594 33.269531 30.6875 33.417969 30.605469 L 36.980469 28.628906 C 37.089844 29.300781 37.144531 29.980469 37.152344 30.660156 C 37.152344 31.261719 37.089844 31.859375 36.972656 32.453125 C 36.855469 33.042969 36.679688 33.617188 36.449219 34.175781 C 36.214844 34.730469 35.933594 35.261719 35.597656 35.761719 C 35.261719 36.265625 34.878906 36.730469 34.453125 37.15625 C 34.023438 37.582031 33.558594 37.960938 33.058594 38.296875 C 32.554688 38.632812 32.023438 38.917969 31.464844 39.148438 C 30.910156 39.378906 30.332031 39.554688 29.742188 39.671875 C 29.148438 39.789062 28.550781 39.847656 27.945312 39.851562 Z M 27.945312 39.851562 " fill-opacity="1" fill-rule="nonzero"/></g><path fill="#ffffff" d="M 85.738281 23.4375 C 85.738281 23.4375 77.945312 23.097656 79.464844 29.570312 C 86.085938 31.054688 85.738281 23.4375 85.738281 23.4375 " fill-opacity="1" fill-rule="nonzero"/><g clip-path="url(#id5)"><path fill="#ffffff" d="M 72.796875 23.4375 C 72.796875 23.4375 80.589844 23.097656 79.074219 29.570312 C 72.449219 31.054688 72.796875 23.4375 72.796875 23.4375 " fill-opacity="1" fill-rule="nonzero"/></g><path fill="#ffffff" d="M 85.738281 29.765625 C 85.738281 29.765625 77.945312 29.425781 79.464844 35.902344 C 86.085938 37.386719 85.738281 29.765625 85.738281 29.765625 " fill-opacity="1" fill-rule="nonzero"/><g clip-path="url(#id6)"><path fill="#ffffff" d="M 72.796875 29.765625 C 72.796875 29.765625 80.589844 29.425781 79.074219 35.902344 C 72.449219 37.386719 72.796875 29.765625 72.796875 29.765625 " fill-opacity="1" fill-rule="nonzero"/></g><path fill="#ffffff" d="M 79.269531 16.316406 C 79.269531 16.316406 73.511719 21.460938 79.269531 24.992188 C 85.023438 21.460938 79.269531 16.316406 79.269531 16.316406 " fill-opacity="1" fill-rule="nonzero"/><g clip-path="url(#id7)"><path fill="#919191" d="M 81.246094 21.25 C 81.242188 21.335938 81.238281 21.421875 81.230469 21.507812 C 81.230469 21.523438 81.226562 21.574219 81.222656 21.589844 C 81.21875 21.621094 81.214844 21.648438 81.210938 21.675781 C 81.171875 21.875 81.121094 22.070312 81.054688 22.257812 C 80.757812 23.074219 80.042969 23.78125 79.265625 24.3125 C 78.5625 23.828125 77.945312 23.238281 77.570312 22.472656 C 77.292969 21.898438 77.234375 21.128906 77.34375 20.554688 C 77.410156 20.203125 77.519531 19.863281 77.648438 19.53125 C 77.65625 19.519531 77.660156 19.507812 77.664062 19.496094 C 77.664062 19.496094 77.664062 19.492188 77.667969 19.488281 C 77.683594 19.445312 77.703125 19.40625 77.722656 19.363281 C 77.753906 19.296875 77.785156 19.230469 77.820312 19.167969 C 77.902344 19.003906 77.988281 18.847656 78.078125 18.695312 C 78.242188 18.421875 78.421875 18.15625 78.613281 17.898438 C 78.65625 17.84375 78.695312 17.789062 78.738281 17.734375 C 78.742188 17.730469 78.742188 17.730469 78.746094 17.726562 C 78.765625 17.703125 78.785156 17.679688 78.800781 17.65625 C 78.886719 17.554688 78.972656 17.453125 79.0625 17.351562 C 79.128906 17.277344 79.199219 17.199219 79.269531 17.125 C 79.296875 17.15625 79.324219 17.1875 79.355469 17.21875 C 79.429688 17.300781 79.503906 17.382812 79.574219 17.46875 C 79.621094 17.519531 79.664062 17.570312 79.707031 17.625 C 79.726562 17.648438 79.792969 17.730469 79.804688 17.746094 C 79.988281 17.980469 80.160156 18.222656 80.320312 18.472656 C 80.503906 18.757812 80.667969 19.054688 80.8125 19.363281 C 80.832031 19.40625 80.851562 19.445312 80.871094 19.488281 C 80.871094 19.492188 80.871094 19.496094 80.875 19.496094 C 80.878906 19.507812 80.882812 19.519531 80.886719 19.53125 C 80.914062 19.601562 80.941406 19.671875 80.96875 19.742188 C 81.03125 19.917969 81.085938 20.097656 81.132812 20.277344 C 81.226562 20.652344 81.253906 20.839844 81.246094 21.25 Z M 82.347656 20.472656 C 82.140625 19.03125 81.316406 17.730469 80.371094 16.636719 C 80.152344 16.382812 79.925781 16.136719 79.679688 15.914062 C 79.550781 15.796875 79.40625 15.753906 79.269531 15.761719 C 79.132812 15.753906 78.988281 15.796875 78.859375 15.914062 C 78.171875 16.53125 77.578125 17.292969 77.105469 18.074219 C 76.265625 19.460938 75.789062 21.179688 76.429688 22.734375 C 76.921875 23.925781 77.882812 24.804688 78.976562 25.484375 C 79.144531 25.585938 79.394531 25.585938 79.5625 25.484375 C 80.519531 24.886719 81.433594 24.117188 81.941406 23.101562 C 82.355469 22.277344 82.480469 21.382812 82.347656 20.472656 " fill-opacity="1" fill-rule="nonzero"/></g><g clip-path="url(#id8)"><path fill="#919191" d="M 85.074219 24.890625 C 85.070312 24.925781 85.066406 24.960938 85.058594 24.996094 C 85.046875 25.074219 85.035156 25.152344 85.019531 25.230469 C 84.992188 25.386719 84.957031 25.542969 84.921875 25.699219 C 84.84375 26.03125 84.742188 26.355469 84.621094 26.675781 C 84.601562 26.71875 84.523438 26.902344 84.542969 26.863281 C 84.511719 26.9375 84.476562 27.011719 84.441406 27.082031 C 84.359375 27.242188 84.273438 27.398438 84.175781 27.550781 C 84.132812 27.625 84.082031 27.695312 84.03125 27.765625 C 84.007812 27.800781 83.980469 27.835938 83.957031 27.871094 C 83.949219 27.878906 83.945312 27.886719 83.941406 27.890625 C 83.9375 27.894531 83.933594 27.902344 83.925781 27.910156 C 83.804688 28.050781 83.683594 28.183594 83.550781 28.308594 C 83.484375 28.371094 83.417969 28.429688 83.347656 28.484375 C 83.335938 28.496094 83.316406 28.507812 83.304688 28.519531 C 83.269531 28.546875 83.230469 28.570312 83.191406 28.597656 C 83.03125 28.707031 82.859375 28.800781 82.683594 28.882812 C 82.660156 28.894531 82.640625 28.902344 82.617188 28.914062 C 82.613281 28.914062 82.613281 28.914062 82.609375 28.917969 C 82.558594 28.9375 82.507812 28.953125 82.457031 28.972656 C 82.339844 29.015625 82.214844 29.050781 82.089844 29.082031 C 81.96875 29.109375 81.847656 29.132812 81.722656 29.15625 C 81.703125 29.15625 81.683594 29.160156 81.664062 29.164062 C 81.65625 29.164062 81.644531 29.164062 81.628906 29.167969 C 81.5625 29.171875 81.496094 29.179688 81.425781 29.183594 C 80.90625 29.21875 80.4375 29.179688 79.957031 29.089844 C 79.878906 28.6875 79.839844 28.296875 79.851562 27.855469 C 79.855469 27.742188 79.863281 27.625 79.871094 27.511719 C 79.875 27.492188 79.882812 27.433594 79.882812 27.414062 C 79.890625 27.363281 79.898438 27.308594 79.910156 27.257812 C 79.953125 27.042969 80.007812 26.828125 80.085938 26.621094 C 80.101562 26.574219 80.121094 26.53125 80.140625 26.484375 C 80.140625 26.480469 80.140625 26.480469 80.140625 26.480469 C 80.144531 26.472656 80.148438 26.460938 80.160156 26.445312 C 80.203125 26.355469 80.25 26.265625 80.300781 26.179688 C 80.347656 26.097656 80.394531 26.023438 80.449219 25.945312 C 80.472656 25.910156 80.5 25.871094 80.527344 25.835938 C 80.535156 25.824219 80.539062 25.820312 80.539062 25.816406 C 80.546875 25.808594 80.550781 25.800781 80.5625 25.792969 C 80.683594 25.652344 80.808594 25.519531 80.945312 25.394531 C 81.011719 25.335938 81.078125 25.277344 81.144531 25.222656 C 81.15625 25.214844 81.167969 25.207031 81.179688 25.199219 C 81.21875 25.171875 81.253906 25.144531 81.292969 25.117188 C 81.59375 24.914062 81.914062 24.746094 82.246094 24.601562 C 82.246094 24.597656 82.246094 24.597656 82.25 24.597656 C 82.261719 24.59375 82.273438 24.589844 82.285156 24.582031 C 82.328125 24.566406 82.367188 24.550781 82.40625 24.539062 C 82.492188 24.503906 82.582031 24.476562 82.667969 24.445312 C 82.832031 24.390625 83 24.34375 83.167969 24.300781 C 83.484375 24.21875 83.804688 24.152344 84.125 24.105469 C 84.179688 24.097656 84.335938 24.074219 84.273438 24.082031 C 84.328125 24.078125 84.382812 24.070312 84.441406 24.0625 C 84.570312 24.050781 84.699219 24.039062 84.828125 24.027344 C 84.9375 24.019531 85.042969 24.015625 85.152344 24.007812 C 85.152344 24.054688 85.148438 24.105469 85.144531 24.152344 C 85.132812 24.398438 85.105469 24.644531 85.074219 24.890625 Z M 83.285156 28.535156 Z M 81.1875 25.191406 C 81.207031 25.175781 81.21875 25.167969 81.1875 25.191406 Z M 86.320312 23.4375 C 86.3125 23.265625 86.242188 23.136719 86.140625 23.046875 C 86.050781 22.945312 85.914062 22.875 85.738281 22.867188 C 84.820312 22.828125 83.867188 22.957031 82.980469 23.171875 C 81.378906 23.566406 79.792969 24.445312 79.105469 25.980469 C 78.574219 27.171875 78.617188 28.476562 78.902344 29.722656 C 78.945312 29.90625 79.121094 30.078125 79.308594 30.121094 C 80.421875 30.363281 81.625 30.449219 82.71875 30.082031 C 83.609375 29.789062 84.34375 29.242188 84.90625 28.515625 C 85.808594 27.351562 86.167969 25.84375 86.289062 24.414062 C 86.316406 24.089844 86.335938 23.761719 86.320312 23.4375 " fill-opacity="1" fill-rule="nonzero"/></g><g clip-path="url(#id9)"><path fill="#919191" d="M 85.074219 30.738281 C 85.070312 30.773438 85.066406 30.808594 85.058594 30.84375 C 85.046875 30.921875 85.035156 31 85.019531 31.078125 C 84.992188 31.234375 84.957031 31.390625 84.921875 31.546875 C 84.84375 31.878906 84.742188 32.203125 84.621094 32.523438 C 84.601562 32.566406 84.523438 32.75 84.542969 32.710938 C 84.511719 32.785156 84.476562 32.859375 84.441406 32.929688 C 84.359375 33.089844 84.273438 33.246094 84.175781 33.398438 C 84.132812 33.472656 84.082031 33.542969 84.03125 33.613281 C 84.007812 33.648438 83.980469 33.683594 83.957031 33.71875 C 83.949219 33.726562 83.945312 33.734375 83.941406 33.738281 C 83.9375 33.742188 83.933594 33.75 83.925781 33.757812 C 83.804688 33.898438 83.683594 34.03125 83.550781 34.15625 C 83.484375 34.21875 83.417969 34.273438 83.347656 34.332031 C 83.335938 34.34375 83.316406 34.355469 83.304688 34.363281 C 83.269531 34.390625 83.230469 34.417969 83.191406 34.445312 C 83.03125 34.554688 82.859375 34.644531 82.683594 34.730469 C 82.660156 34.742188 82.640625 34.75 82.617188 34.761719 C 82.613281 34.761719 82.613281 34.761719 82.609375 34.761719 C 82.558594 34.78125 82.507812 34.800781 82.457031 34.820312 C 82.339844 34.859375 82.214844 34.898438 82.089844 34.925781 C 81.96875 34.957031 81.847656 34.980469 81.722656 35 C 81.703125 35.003906 81.683594 35.007812 81.664062 35.011719 C 81.65625 35.011719 81.644531 35.011719 81.628906 35.015625 C 81.5625 35.019531 81.496094 35.027344 81.425781 35.03125 C 80.90625 35.066406 80.4375 35.023438 79.957031 34.9375 C 79.878906 34.53125 79.839844 34.144531 79.851562 33.703125 C 79.855469 33.585938 79.863281 33.472656 79.871094 33.359375 C 79.875 33.339844 79.882812 33.28125 79.882812 33.261719 C 79.890625 33.210938 79.898438 33.15625 79.910156 33.105469 C 79.953125 32.886719 80.007812 32.675781 80.085938 32.46875 C 80.101562 32.421875 80.121094 32.378906 80.140625 32.332031 C 80.140625 32.328125 80.140625 32.328125 80.140625 32.328125 C 80.144531 32.320312 80.148438 32.308594 80.160156 32.292969 C 80.203125 32.203125 80.25 32.113281 80.300781 32.023438 C 80.347656 31.945312 80.394531 31.867188 80.449219 31.792969 C 80.472656 31.753906 80.5 31.71875 80.527344 31.683594 C 80.535156 31.671875 80.539062 31.667969 80.539062 31.664062 C 80.546875 31.65625 80.550781 31.648438 80.5625 31.640625 C 80.683594 31.5 80.808594 31.367188 80.945312 31.242188 C 81.011719 31.183594 81.078125 31.125 81.144531 31.070312 C 81.15625 31.0625 81.167969 31.054688 81.179688 31.042969 C 81.21875 31.015625 81.253906 30.992188 81.292969 30.964844 C 81.59375 30.757812 81.914062 30.59375 82.246094 30.445312 C 82.246094 30.445312 82.246094 30.445312 82.25 30.445312 C 82.261719 30.441406 82.273438 30.433594 82.285156 30.429688 C 82.328125 30.414062 82.367188 30.398438 82.40625 30.382812 C 82.492188 30.351562 82.582031 30.320312 82.667969 30.292969 C 82.832031 30.238281 83 30.191406 83.167969 30.144531 C 83.484375 30.0625 83.804688 30 84.125 29.949219 C 84.179688 29.941406 84.335938 29.921875 84.273438 29.929688 C 84.328125 29.921875 84.382812 29.917969 84.441406 29.910156 C 84.570312 29.894531 84.699219 29.886719 84.828125 29.875 C 84.9375 29.867188 85.042969 29.863281 85.152344 29.855469 C 85.152344 29.902344 85.148438 29.949219 85.144531 29.996094 C 85.132812 30.246094 85.105469 30.492188 85.074219 30.738281 Z M 83.285156 34.378906 Z M 81.1875 31.039062 C 81.207031 31.023438 81.21875 31.015625 81.1875 31.039062 Z M 86.320312 29.285156 C 86.3125 29.113281 86.242188 28.984375 86.140625 28.894531 C 86.050781 28.792969 85.914062 28.722656 85.738281 28.714844 C 84.820312 28.675781 83.867188 28.804688 82.980469 29.019531 C 81.378906 29.414062 79.792969 30.289062 79.105469 31.828125 C 78.574219 33.019531 78.617188 34.324219 78.902344 35.570312 C 78.945312 35.753906 79.121094 35.925781 79.308594 35.964844 C 80.421875 36.210938 81.625 36.296875 82.71875 35.929688 C 83.609375 35.636719 84.34375 35.089844 84.90625 34.359375 C 85.808594 33.195312 86.167969 31.691406 86.289062 30.261719 C 86.316406 29.9375 86.335938 29.609375 86.320312 29.285156 " fill-opacity="1" fill-rule="nonzero"/></g><g clip-path="url(#id10)"><path fill="#919191" d="M 77.316406 29.195312 C 77.199219 29.191406 77.082031 29.183594 76.964844 29.171875 C 76.945312 29.171875 76.886719 29.164062 76.867188 29.164062 C 76.8125 29.15625 76.757812 29.144531 76.707031 29.136719 C 76.484375 29.097656 76.265625 29.039062 76.054688 28.964844 C 76.007812 28.949219 75.960938 28.929688 75.914062 28.910156 C 75.914062 28.910156 75.910156 28.910156 75.910156 28.910156 C 75.902344 28.90625 75.890625 28.902344 75.875 28.894531 C 75.785156 28.847656 75.691406 28.804688 75.601562 28.753906 C 75.519531 28.710938 75.441406 28.660156 75.363281 28.609375 C 75.328125 28.585938 75.289062 28.558594 75.25 28.53125 C 75.242188 28.527344 75.234375 28.523438 75.230469 28.519531 C 75.226562 28.515625 75.21875 28.507812 75.207031 28.5 C 75.066406 28.378906 74.925781 28.257812 74.800781 28.125 C 74.738281 28.058594 74.683594 27.996094 74.625 27.925781 C 74.617188 27.917969 74.605469 27.90625 74.597656 27.894531 C 74.570312 27.859375 74.542969 27.820312 74.515625 27.785156 C 74.308594 27.492188 74.136719 27.175781 73.988281 26.851562 C 73.988281 26.851562 73.988281 26.851562 73.984375 26.851562 C 73.980469 26.835938 73.976562 26.824219 73.96875 26.8125 C 73.953125 26.773438 73.9375 26.734375 73.921875 26.695312 C 73.890625 26.609375 73.859375 26.523438 73.828125 26.4375 C 73.773438 26.277344 73.722656 26.113281 73.679688 25.949219 C 73.597656 25.640625 73.53125 25.328125 73.480469 25.015625 C 73.472656 24.960938 73.453125 24.808594 73.457031 24.871094 C 73.453125 24.816406 73.445312 24.761719 73.4375 24.707031 C 73.425781 24.582031 73.414062 24.453125 73.402344 24.328125 C 73.394531 24.222656 73.386719 24.117188 73.382812 24.007812 C 73.433594 24.011719 73.480469 24.015625 73.527344 24.015625 C 73.78125 24.03125 74.035156 24.058594 74.285156 24.085938 C 74.320312 24.089844 74.355469 24.097656 74.394531 24.101562 C 74.472656 24.113281 74.550781 24.125 74.632812 24.140625 C 74.792969 24.167969 74.953125 24.199219 75.113281 24.238281 C 75.449219 24.3125 75.785156 24.410156 76.109375 24.53125 C 76.15625 24.546875 76.34375 24.625 76.304688 24.605469 C 76.378906 24.636719 76.453125 24.671875 76.527344 24.707031 C 76.691406 24.785156 76.851562 24.871094 77.003906 24.964844 C 77.082031 25.007812 77.152344 25.054688 77.226562 25.105469 C 77.261719 25.128906 77.296875 25.15625 77.332031 25.179688 C 77.34375 25.1875 77.347656 25.191406 77.351562 25.195312 C 77.359375 25.199219 77.363281 25.203125 77.375 25.210938 C 77.515625 25.328125 77.652344 25.445312 77.78125 25.578125 C 77.84375 25.640625 77.902344 25.707031 77.960938 25.773438 C 77.972656 25.789062 77.984375 25.804688 77.996094 25.816406 C 78.023438 25.851562 78.050781 25.890625 78.074219 25.925781 C 78.1875 26.085938 78.28125 26.253906 78.367188 26.425781 C 78.378906 26.445312 78.386719 26.46875 78.398438 26.488281 C 78.398438 26.492188 78.402344 26.492188 78.402344 26.496094 C 78.421875 26.546875 78.441406 26.59375 78.460938 26.644531 C 78.503906 26.761719 78.539062 26.882812 78.570312 27.003906 C 78.601562 27.121094 78.625 27.242188 78.644531 27.363281 C 78.648438 27.382812 78.652344 27.402344 78.65625 27.421875 C 78.65625 27.429688 78.65625 27.441406 78.660156 27.457031 C 78.664062 27.523438 78.671875 27.585938 78.675781 27.652344 C 78.710938 28.160156 78.667969 28.621094 78.582031 29.089844 C 78.167969 29.167969 77.769531 29.207031 77.316406 29.195312 Z M 74.59375 27.886719 C 74.578125 27.867188 74.570312 27.855469 74.59375 27.886719 Z M 78.011719 25.835938 Z M 79.597656 26.386719 C 79.292969 25.519531 78.734375 24.800781 77.992188 24.25 C 76.800781 23.371094 75.261719 23.015625 73.796875 22.898438 C 73.464844 22.871094 73.128906 22.855469 72.796875 22.867188 C 72.625 22.875 72.492188 22.945312 72.398438 23.042969 C 72.296875 23.132812 72.222656 23.265625 72.21875 23.4375 C 72.175781 24.332031 72.308594 25.269531 72.527344 26.136719 C 72.929688 27.699219 73.828125 29.25 75.402344 29.921875 C 76.617188 30.441406 77.953125 30.398438 79.226562 30.121094 C 79.414062 30.078125 79.589844 29.90625 79.632812 29.722656 C 79.882812 28.636719 79.96875 27.460938 79.597656 26.386719 " fill-opacity="1" fill-rule="nonzero"/></g><g clip-path="url(#id11)"><path fill="#919191" d="M 77.316406 35.039062 C 77.199219 35.039062 77.082031 35.03125 76.964844 35.019531 C 76.945312 35.019531 76.886719 35.011719 76.867188 35.007812 C 76.8125 35 76.757812 34.992188 76.707031 34.984375 C 76.484375 34.941406 76.265625 34.886719 76.054688 34.8125 C 76.007812 34.792969 75.960938 34.777344 75.914062 34.757812 C 75.914062 34.757812 75.910156 34.757812 75.910156 34.757812 C 75.902344 34.753906 75.890625 34.75 75.875 34.742188 C 75.785156 34.695312 75.691406 34.652344 75.601562 34.601562 C 75.519531 34.554688 75.441406 34.507812 75.363281 34.457031 C 75.328125 34.433594 75.289062 34.40625 75.25 34.378906 C 75.242188 34.371094 75.234375 34.367188 75.230469 34.367188 C 75.226562 34.359375 75.21875 34.355469 75.207031 34.347656 C 75.066406 34.226562 74.925781 34.105469 74.800781 33.96875 C 74.738281 33.90625 74.683594 33.839844 74.625 33.773438 C 74.617188 33.765625 74.605469 33.75 74.597656 33.742188 C 74.570312 33.703125 74.542969 33.667969 74.515625 33.632812 C 74.308594 33.339844 74.136719 33.023438 73.988281 32.699219 C 73.988281 32.699219 73.988281 32.699219 73.984375 32.695312 C 73.980469 32.683594 73.976562 32.671875 73.96875 32.660156 C 73.953125 32.621094 73.9375 32.582031 73.921875 32.542969 C 73.890625 32.457031 73.859375 32.371094 73.828125 32.285156 C 73.773438 32.125 73.722656 31.960938 73.679688 31.796875 C 73.597656 31.488281 73.53125 31.175781 73.480469 30.859375 C 73.472656 30.808594 73.453125 30.65625 73.457031 30.714844 C 73.453125 30.664062 73.445312 30.609375 73.4375 30.554688 C 73.425781 30.429688 73.414062 30.300781 73.402344 30.175781 C 73.394531 30.070312 73.386719 29.964844 73.382812 29.855469 C 73.433594 29.859375 73.480469 29.863281 73.527344 29.863281 C 73.78125 29.878906 74.035156 29.902344 74.285156 29.933594 C 74.320312 29.9375 74.355469 29.941406 74.394531 29.949219 C 74.472656 29.960938 74.550781 29.972656 74.632812 29.988281 C 74.792969 30.015625 74.953125 30.046875 75.113281 30.082031 C 75.449219 30.160156 75.785156 30.257812 76.109375 30.378906 C 76.15625 30.394531 76.34375 30.472656 76.304688 30.453125 C 76.378906 30.484375 76.453125 30.519531 76.527344 30.554688 C 76.691406 30.632812 76.851562 30.71875 77.003906 30.8125 C 77.082031 30.855469 77.152344 30.902344 77.226562 30.953125 C 77.261719 30.976562 77.296875 31.003906 77.332031 31.027344 C 77.34375 31.035156 77.347656 31.039062 77.351562 31.039062 C 77.359375 31.042969 77.363281 31.050781 77.375 31.058594 C 77.515625 31.171875 77.652344 31.292969 77.78125 31.425781 C 77.84375 31.488281 77.902344 31.554688 77.960938 31.621094 C 77.972656 31.636719 77.984375 31.652344 77.996094 31.664062 C 78.023438 31.699219 78.050781 31.738281 78.074219 31.773438 C 78.1875 31.933594 78.28125 32.101562 78.367188 32.273438 C 78.378906 32.292969 78.386719 32.316406 78.398438 32.335938 C 78.398438 32.339844 78.402344 32.339844 78.402344 32.34375 C 78.421875 32.390625 78.441406 32.441406 78.460938 32.492188 C 78.503906 32.609375 78.539062 32.730469 78.570312 32.851562 C 78.601562 32.96875 78.625 33.089844 78.644531 33.210938 C 78.648438 33.230469 78.652344 33.246094 78.65625 33.265625 C 78.65625 33.277344 78.65625 33.289062 78.660156 33.304688 C 78.664062 33.367188 78.671875 33.433594 78.675781 33.5 C 78.710938 34.007812 78.667969 34.46875 78.582031 34.9375 C 78.167969 35.015625 77.769531 35.050781 77.316406 35.039062 Z M 74.59375 33.734375 C 74.578125 33.714844 74.570312 33.703125 74.59375 33.734375 Z M 78.011719 31.683594 Z M 79.597656 32.234375 C 79.292969 31.367188 78.734375 30.648438 77.992188 30.097656 C 76.800781 29.21875 75.261719 28.863281 73.796875 28.746094 C 73.464844 28.71875 73.128906 28.703125 72.796875 28.714844 C 72.625 28.722656 72.492188 28.789062 72.398438 28.890625 C 72.296875 28.980469 72.222656 29.113281 72.21875 29.285156 C 72.175781 30.179688 72.308594 31.117188 72.527344 31.984375 C 72.929688 33.546875 73.828125 35.097656 75.402344 35.769531 C 76.617188 36.289062 77.953125 36.246094 79.226562 35.964844 C 79.414062 35.925781 79.589844 35.753906 79.632812 35.570312 C 79.882812 34.484375 79.96875 33.308594 79.597656 32.234375 " fill-opacity="1" fill-rule="nonzero"/></g><g clip-path="url(#id12)"><path fill="#919191" d="M 78.6875 24.992188 C 78.6875 26.90625 78.6875 28.824219 78.6875 30.738281 C 78.6875 33.769531 78.6875 36.796875 78.6875 39.824219 C 78.6875 40.519531 78.6875 41.214844 78.6875 41.90625 C 78.6875 42.636719 79.847656 42.640625 79.847656 41.90625 C 79.847656 39.992188 79.847656 38.074219 79.847656 36.160156 C 79.847656 33.132812 79.847656 30.101562 79.847656 27.074219 C 79.847656 26.378906 79.847656 25.6875 79.847656 24.992188 C 79.847656 24.261719 78.6875 24.261719 78.6875 24.992188 " fill-opacity="1" fill-rule="nonzero"/></g><g clip-path="url(#id13)"><path fill="#919191" d="M 133.613281 14.820312 C 133.816406 14.785156 134.710938 14.6875 134.925781 14.453125 C 134.683594 14.175781 133.570312 14.074219 133.339844 14.039062 C 132.351562 13.90625 131.351562 13.847656 130.351562 13.855469 C 129.359375 13.863281 128.347656 13.886719 127.363281 14.039062 C 127.175781 14.070312 125.890625 14.5 125.824219 14.464844 C 127.214844 15.171875 129.222656 15.078125 130.734375 15.046875 C 131.695312 15.027344 132.667969 14.996094 133.613281 14.820312 Z M 134.484375 17.214844 C 134.515625 17.132812 134.535156 17.042969 134.539062 16.953125 C 134.273438 17.003906 134.003906 17.023438 133.808594 17.039062 C 132.972656 17.101562 132.140625 17.054688 131.304688 17.054688 C 129.644531 17.058594 127.867188 17.160156 126.242188 16.765625 C 126.230469 16.761719 126.226562 16.757812 126.214844 16.757812 C 126.1875 16.902344 126.160156 17.074219 126.183594 17.207031 C 126.648438 17.699219 127.832031 17.839844 128.414062 17.925781 C 129.246094 18.054688 130.074219 18.019531 130.910156 18.023438 C 131.761719 18.027344 133.964844 18.15625 134.484375 17.214844 Z M 134.859375 40.605469 C 134.71875 40.65625 134.582031 40.703125 134.441406 40.75 C 133.171875 41.140625 131.867188 41.226562 130.542969 41.222656 C 129.300781 41.21875 128.050781 41.207031 126.835938 40.890625 C 126.515625 40.808594 126.242188 40.6875 125.980469 40.546875 C 127.050781 41.332031 128.496094 41.644531 129.847656 41.679688 C 131.277344 41.71875 133.582031 41.632812 134.859375 40.605469 Z M 133.503906 23.921875 C 134.183594 23.796875 135.261719 23.671875 135.859375 23.238281 C 135.109375 22.652344 133.664062 22.6875 132.796875 22.648438 C 131.828125 22.601562 130.859375 22.601562 129.890625 22.601562 C 128.242188 22.597656 126.332031 22.339844 124.945312 23.398438 C 126.585938 24.304688 128.429688 24.390625 130.285156 24.363281 C 131.371094 24.347656 132.441406 24.121094 133.503906 23.921875 Z M 135.054688 15.75 C 135.085938 15.527344 135.140625 15.269531 135.136719 15.023438 C 134.789062 15.214844 134.316406 15.296875 134.027344 15.351562 C 132.695312 15.59375 131.324219 15.671875 129.96875 15.644531 C 129.429688 15.632812 126.925781 15.710938 125.75 15.167969 C 125.75 15.640625 125.867188 16.101562 126.402344 16.1875 C 126.914062 16.273438 127.433594 16.351562 127.953125 16.386719 C 128.945312 16.457031 129.9375 16.460938 130.929688 16.460938 C 131.878906 16.457031 132.859375 16.558594 133.808594 16.441406 C 134.246094 16.386719 134.960938 16.335938 135.054688 15.75 Z M 134.242188 22.480469 C 134.738281 22.542969 135.347656 22.617188 135.820312 22.867188 C 135.46875 21.1875 134.898438 19.574219 134.183594 17.96875 C 134.175781 17.953125 134.171875 17.933594 134.164062 17.917969 C 133.339844 18.359375 132.015625 18.328125 131.289062 18.324219 C 130.066406 18.320312 128.851562 18.378906 127.65625 18.082031 C 127.289062 17.992188 126.847656 17.910156 126.46875 17.742188 C 126.339844 18.730469 125.898438 19.714844 125.605469 20.667969 C 125.367188 21.464844 125.117188 22.246094 124.917969 23.046875 C 126.449219 22.015625 128.484375 22.300781 130.253906 22.300781 C 131.585938 22.304688 132.917969 22.316406 134.242188 22.480469 Z M 136.078125 34.203125 C 136.140625 31.378906 136.332031 28.542969 136.195312 25.722656 C 136.15625 24.976562 136.074219 24.25 135.949219 23.535156 C 135.292969 23.949219 134.289062 24.078125 133.585938 24.210938 C 132.5 24.410156 131.394531 24.675781 130.285156 24.664062 C 128.347656 24.640625 126.496094 24.601562 124.78125 23.648438 C 124.734375 23.882812 124.6875 24.121094 124.648438 24.363281 C 124.253906 27.03125 124.316406 29.730469 124.339844 32.417969 C 124.355469 34.460938 123.921875 36.859375 124.65625 38.8125 C 124.738281 39.035156 124.84375 39.242188 124.960938 39.433594 C 125.667969 40.007812 126.28125 40.492188 127.230469 40.675781 C 128.21875 40.867188 129.1875 40.921875 130.191406 40.921875 C 131.230469 40.925781 132.308594 40.945312 133.335938 40.726562 C 133.914062 40.601562 134.835938 40.441406 135.40625 40.007812 C 135.417969 39.988281 135.4375 39.972656 135.449219 39.949219 C 136.453125 38.277344 136.039062 36.0625 136.078125 34.203125 Z M 136.824219 26.878906 C 136.863281 29.882812 136.609375 32.886719 136.679688 35.894531 C 136.71875 37.6875 136.773438 39.722656 135.292969 41 C 133.957031 42.160156 131.53125 42.363281 129.847656 42.277344 C 127.988281 42.183594 125.992188 41.730469 124.753906 40.242188 C 123.414062 38.640625 123.679688 36.152344 123.730469 34.222656 C 123.804688 31.375 123.589844 28.523438 123.886719 25.683594 C 124.03125 24.269531 124.25 22.839844 124.710938 21.484375 C 124.925781 20.84375 125.09375 20.191406 125.304688 19.550781 C 125.488281 18.972656 125.757812 18.410156 125.855469 17.808594 C 125.503906 17.503906 125.597656 17.003906 125.644531 16.574219 C 125.648438 16.550781 125.652344 16.527344 125.660156 16.503906 C 125.132812 16.109375 125.121094 15.421875 125.1875 14.671875 C 125.160156 14.601562 125.144531 14.53125 125.144531 14.453125 C 125.144531 13.886719 126.035156 13.691406 126.441406 13.605469 C 127.722656 13.335938 129.046875 13.25 130.351562 13.257812 C 131.644531 13.269531 133 13.292969 134.261719 13.605469 C 134.632812 13.695312 135.253906 13.816406 135.476562 14.191406 C 135.484375 14.203125 135.492188 14.207031 135.5 14.21875 C 135.917969 14.785156 135.816406 16.082031 135.355469 16.597656 C 135.296875 16.660156 135.222656 16.71875 135.132812 16.761719 C 135.140625 17.210938 135.078125 17.570312 134.796875 17.882812 C 134.921875 18.164062 135.042969 18.445312 135.160156 18.726562 C 136.25 21.371094 136.792969 24.023438 136.824219 26.878906 " fill-opacity="1" fill-rule="nonzero"/></g><g clip-path="url(#id14)"><path fill="#919191" d="M 181.273438 50.160156 C 175.34375 50.160156 169.757812 47.851562 165.566406 43.652344 C 161.363281 39.460938 159.054688 33.875 159.054688 27.941406 C 159.054688 22.007812 161.363281 16.421875 165.566406 12.230469 C 169.757812 8.03125 175.34375 5.722656 181.273438 5.722656 C 187.207031 5.722656 192.792969 8.03125 196.984375 12.230469 C 201.183594 16.433594 203.492188 22.007812 203.492188 27.941406 C 203.492188 33.875 201.183594 39.460938 196.984375 43.652344 C 192.792969 47.851562 187.207031 50.160156 181.273438 50.160156 Z M 181.273438 7.054688 C 175.699219 7.054688 170.449219 9.230469 166.507812 13.171875 C 162.5625 17.117188 160.386719 22.363281 160.386719 27.941406 C 160.386719 33.519531 162.5625 38.765625 166.507812 42.710938 C 170.449219 46.652344 175.699219 48.828125 181.273438 48.828125 C 186.851562 48.828125 192.101562 46.652344 196.042969 42.710938 C 199.984375 38.765625 202.160156 33.519531 202.160156 27.941406 C 202.160156 22.363281 199.984375 17.117188 196.042969 13.171875 C 192.101562 9.230469 186.851562 7.054688 181.273438 7.054688 Z M 181.273438 7.054688 " fill-opacity="1" fill-rule="nonzero"/></g><g clip-path="url(#id15)"><g clip-path="url(#id16)"><g clip-path="url(#id17)"><g clip-path="url(#id18)"><g clip-path="url(#id19)"><path fill="#919191" d="M 184.410156 17.292969 C 184.277344 17.15625 184.175781 17.050781 184.042969 16.914062 C 183.976562 16.84375 183.878906 16.808594 183.777344 16.769531 C 182.542969 16.230469 181.277344 15.859375 179.902344 16.25 C 178.53125 16.644531 177.355469 17.308594 176.546875 18.488281 C 176.34375 18.75 176.207031 19.011719 175.972656 19.242188 C 175.265625 20.121094 174.65625 21.039062 175.015625 22.289062 C 175.050781 22.390625 175.011719 22.488281 175.015625 22.554688 C 175.175781 23.128906 175.238281 23.734375 175.433594 24.273438 C 175.832031 25.222656 176.292969 26.105469 176.71875 27.023438 C 176.785156 27.15625 176.785156 27.359375 176.816406 27.527344 C 176.773438 28.894531 176.296875 30.085938 175.6875 31.269531 C 175.144531 32.324219 175.003906 33.457031 175.132812 34.53125 C 175.289062 36.039062 175.914062 37.429688 177.042969 38.601562 C 177.871094 39.464844 178.703125 39.992188 179.90625 39.894531 C 180.039062 39.898438 180.207031 39.9375 180.34375 39.941406 C 181.578125 40.078125 182.746094 40.015625 183.789062 39.34375 C 184.828125 38.671875 185.605469 37.660156 186.644531 36.992188 C 186.679688 36.960938 186.714844 36.925781 186.714844 36.859375 C 186.886719 36.230469 187.125 35.601562 187.296875 34.972656 C 187.398438 34.609375 187.433594 34.171875 187.402344 33.804688 C 187.242188 33.03125 186.980469 32.21875 186.683594 31.507812 C 186.324219 30.660156 185.824219 29.808594 185.398438 28.960938 C 185.101562 28.316406 184.636719 27.566406 184.710938 26.898438 C 184.816406 25.800781 185.292969 24.808594 185.601562 23.78125 C 185.738281 23.320312 185.976562 22.890625 186.078125 22.394531 C 186.695312 20.339844 185.535156 18.800781 184.410156 17.292969 Z M 177.09375 16.566406 C 178.773438 15.28125 180.648438 14.738281 182.851562 15.269531 C 183.488281 15.390625 184.054688 15.578125 184.617188 15.894531 C 186.316406 16.984375 187.242188 18.484375 187.394531 20.394531 C 187.457031 21.332031 187.117188 22.257812 186.875 23.152344 C 186.601562 24.148438 186.125 25.070312 185.851562 26.066406 C 185.578125 26.992188 185.707031 27.933594 186.203125 28.785156 C 186.796875 29.871094 187.589844 30.832031 187.984375 31.984375 C 188.441406 33.335938 188.699219 34.8125 187.65625 36.085938 C 187.589844 36.152344 187.554688 36.25 187.519531 36.347656 C 187.175781 37.742188 186.265625 38.75 185.324219 39.726562 C 184.617188 40.472656 183.644531 40.8125 182.609375 40.949219 C 181.972656 41.027344 181.367188 41.34375 180.734375 41.289062 C 179.53125 41.183594 178.332031 40.949219 177.332031 40.117188 C 176.300781 39.25 175.640625 38.222656 175.316406 36.945312 C 175.183594 36.472656 174.921875 35.992188 174.792969 35.523438 C 174.167969 33.53125 174.683594 31.773438 175.628906 30.066406 C 176.003906 29.375 176.175781 28.609375 176.414062 27.847656 C 176.480469 27.648438 176.382812 27.34375 176.25 27.140625 C 175.855469 26.328125 175.328125 25.507812 175.03125 24.660156 C 174.804688 23.953125 174.777344 23.183594 174.648438 22.441406 C 174.582031 22.171875 174.617188 21.875 174.550781 21.605469 C 174.226562 20.257812 174.96875 19.277344 175.675781 18.261719 C 176.183594 17.707031 176.621094 17.152344 177.09375 16.566406 " fill-opacity="1" fill-rule="nonzero"/></g></g></g></g></g><g clip-path="url(#id20)"><g clip-path="url(#id21)"><g clip-path="url(#id22)"><path fill="#919191" d="M 184.714844 31.347656 C 185.101562 33.230469 185.257812 35.074219 184.507812 36.992188 C 184.910156 37.003906 185.277344 36.984375 185.609375 36.992188 C 185.574219 37.625 184.9375 37.839844 184.371094 37.523438 C 183.765625 38.039062 183.160156 38.554688 182.554688 39.074219 C 182.519531 39.039062 182.519531 39.039062 182.488281 39.003906 C 182.589844 38.839844 182.691406 38.675781 182.792969 38.511719 C 182.757812 38.476562 182.722656 38.441406 182.691406 38.40625 C 182.558594 38.46875 182.421875 38.597656 182.1875 38.761719 C 182.527344 38.167969 182.832031 37.675781 183.101562 37.152344 C 181.964844 37.113281 181.933594 37.082031 182.035156 36.382812 C 182.839844 36.605469 183.609375 36.394531 184.445312 35.988281 C 185.027344 34.632812 184.703125 32.953125 184.714844 31.347656 " fill-opacity="1" fill-rule="nonzero"/></g></g></g><g clip-path="url(#id23)"><g clip-path="url(#id24)"><g clip-path="url(#id25)"><path fill="#919191" d="M 177.160156 36.164062 C 177.800781 35.28125 177.105469 34.15625 177.277344 33.191406 C 176.914062 33.078125 176.578125 33.070312 176.3125 32.925781 C 176.179688 32.855469 176.148438 32.554688 176.015625 32.148438 C 176.28125 32.292969 176.382812 32.328125 176.484375 32.367188 C 176.980469 32.679688 177.386719 32.5625 177.554688 31.996094 C 177.589844 31.964844 177.554688 31.929688 177.589844 31.898438 C 177.726562 31.703125 177.824219 31.46875 178.027344 31.273438 C 177.992188 31.574219 177.921875 31.90625 177.886719 32.207031 C 177.816406 32.738281 177.746094 33.273438 177.8125 33.808594 C 177.871094 34.613281 178.03125 35.457031 178.09375 36.261719 C 178.1875 37.234375 178.917969 37.855469 179.515625 38.542969 C 179.480469 38.644531 179.480469 38.777344 179.480469 38.84375 C 179.347656 38.773438 179.25 38.671875 179.179688 38.601562 C 178.78125 38.1875 178.417969 37.808594 178.054688 37.363281 C 177.886719 37.191406 177.886719 36.921875 177.789062 36.753906 C 177.625 36.578125 177.390625 36.40625 177.160156 36.164062 " fill-opacity="1" fill-rule="nonzero"/></g></g></g><g clip-path="url(#id26)"><g clip-path="url(#id27)"><g clip-path="url(#id28)"><path fill="#919191" d="M 183.820312 25.101562 C 184.0625 24.070312 184.402344 23.078125 184.476562 22.078125 C 184.585938 20.507812 184.164062 19.058594 183.167969 17.757812 C 183.070312 17.652344 183.035156 17.484375 183.039062 17.351562 C 183.039062 17.285156 183.207031 17.1875 183.207031 17.1875 C 183.339844 17.261719 183.503906 17.363281 183.570312 17.5 C 183.867188 18.214844 184.433594 18.730469 184.527344 19.570312 C 184.558594 19.941406 184.921875 20.316406 185.085938 20.691406 C 185.285156 21.234375 185.414062 21.769531 185.175781 22.332031 C 185.039062 22.664062 184.9375 23.027344 184.902344 23.394531 C 184.730469 24.226562 184.730469 24.226562 183.820312 25.101562 " fill-opacity="1" fill-rule="nonzero"/></g></g></g><g clip-path="url(#id29)"><g clip-path="url(#id30)"><g clip-path="url(#id31)"><path fill="#919191" d="M 180.171875 20.976562 C 179.136719 20.777344 179.003906 20.640625 179.242188 20.011719 C 179.511719 20.152344 179.742188 20.324219 180.074219 20.535156 C 180.214844 19.804688 180.351562 19.140625 180.457031 18.441406 C 180.554688 18.480469 180.625 18.480469 180.757812 18.484375 C 180.039062 20.769531 180.992188 23.105469 180.707031 25.4375 C 180.25 23.953125 180.195312 22.480469 180.171875 20.976562 " fill-opacity="1" fill-rule="nonzero"/></g></g></g><g clip-path="url(#id32)"><g clip-path="url(#id33)"><g clip-path="url(#id34)"><path fill="#919191" d="M 178.765625 26.382812 C 178.5 25.839844 178.203125 25.261719 177.941406 24.71875 C 177.875 24.582031 177.84375 24.414062 177.742188 24.308594 C 177.113281 23.320312 177.15625 22.21875 177.261719 21.121094 C 177.300781 20.617188 177.605469 20.195312 177.808594 19.664062 C 178.105469 20.175781 178.105469 20.175781 177.867188 20.539062 C 177.363281 21.355469 177.421875 22.226562 177.75 23.042969 C 178.082031 23.917969 178.609375 24.738281 179.003906 25.621094 C 179.066406 25.824219 179.066406 26.089844 179.097656 26.324219 C 178.964844 26.320312 178.863281 26.351562 178.765625 26.382812 " fill-opacity="1" fill-rule="nonzero"/></g></g></g><g clip-path="url(#id35)"><g clip-path="url(#id36)"><g clip-path="url(#id37)"><path fill="#919191" d="M 181.128906 37.390625 C 180.972656 35.546875 180.753906 33.699219 180.597656 31.855469 C 180.664062 31.855469 180.765625 31.828125 180.867188 31.863281 C 181.019531 33.710938 181.308594 35.554688 181.429688 37.367188 C 181.296875 37.363281 181.195312 37.390625 181.128906 37.390625 " fill-opacity="1" fill-rule="nonzero"/></g></g></g><g clip-path="url(#id38)"><g clip-path="url(#id39)"><g clip-path="url(#id40)"><path fill="#919191" d="M 178.800781 35.445312 C 179.332031 35.863281 179.800781 35.8125 180.273438 35.425781 C 180.570312 36.003906 180.164062 36.324219 178.960938 36.417969 C 178.863281 36.117188 178.765625 35.8125 178.667969 35.507812 C 178.667969 35.507812 178.769531 35.476562 178.800781 35.445312 " fill-opacity="1" fill-rule="nonzero"/></g></g></g><g clip-path="url(#id41)"><g clip-path="url(#id42)"><g clip-path="url(#id43)"><path fill="#919191" d="M 178.8125 33.640625 C 179.148438 33.785156 179.515625 33.894531 179.8125 34.074219 C 179.847656 34.109375 179.878906 34.410156 179.777344 34.507812 C 179.675781 34.605469 179.476562 34.664062 179.34375 34.726562 C 179.144531 34.386719 178.476562 34.296875 178.8125 33.640625 " fill-opacity="1" fill-rule="nonzero"/></g></g></g><g clip-path="url(#id44)"><g clip-path="url(#id45)"><g clip-path="url(#id46)"><path fill="#919191" d="M 182.230469 32.609375 C 182.699219 32.554688 183.132812 32.46875 183.570312 32.449219 C 183.53125 32.882812 183.0625 33.269531 182.628906 33.222656 C 182.328125 33.179688 182.226562 33.011719 182.230469 32.609375 " fill-opacity="1" fill-rule="nonzero"/></g></g></g><g clip-path="url(#id47)"><g clip-path="url(#id48)"><g clip-path="url(#id49)"><path fill="#919191" d="M 183.042969 21.464844 C 182.90625 21.996094 182.570312 22.253906 181.902344 22.230469 C 181.902344 22.03125 181.871094 21.796875 181.871094 21.527344 C 182.308594 21.507812 182.675781 21.488281 183.042969 21.464844 " fill-opacity="1" fill-rule="nonzero"/></g></g></g><g clip-path="url(#id50)"><g clip-path="url(#id51)"><g clip-path="url(#id52)"><path fill="#919191" d="M 182.351562 34.621094 C 182.851562 34.601562 183.21875 34.578125 183.65625 34.558594 C 183.585938 34.6875 183.515625 34.957031 183.351562 35.050781 C 183.117188 35.144531 182.78125 35.199219 182.515625 35.125 C 182.449219 35.058594 182.417969 34.6875 182.351562 34.621094 " fill-opacity="1" fill-rule="nonzero"/></g></g></g><g clip-path="url(#id53)"><g clip-path="url(#id54)"><g clip-path="url(#id55)"><path fill="#919191" d="M 183.195312 23.507812 C 183.128906 23.90625 182.691406 24.261719 182.289062 24.117188 C 182.125 24.011719 182.058594 23.675781 181.960938 23.4375 C 182.460938 23.421875 182.828125 23.464844 183.195312 23.507812 " fill-opacity="1" fill-rule="nonzero"/></g></g></g><g clip-path="url(#id56)"><g clip-path="url(#id57)"><g clip-path="url(#id58)"><path fill="#919191" d="M 178.929688 31.539062 C 179.429688 31.921875 179.429688 31.921875 180.03125 31.671875 C 179.929688 31.902344 179.859375 32.167969 179.726562 32.296875 C 179.558594 32.390625 179.257812 32.417969 179.089844 32.308594 C 178.890625 32.171875 178.859375 31.871094 178.695312 31.632812 C 178.792969 31.601562 178.898438 31.570312 178.929688 31.539062 " fill-opacity="1" fill-rule="nonzero"/></g></g></g><g clip-path="url(#id59)"><g clip-path="url(#id60)"><g clip-path="url(#id61)"><path fill="#919191" d="M 179.257812 37.398438 C 179.894531 37.316406 180.292969 37.265625 180.695312 37.277344 C 180.59375 37.707031 180.1875 38.03125 179.722656 37.882812 C 179.523438 37.808594 179.421875 37.570312 179.257812 37.398438 " fill-opacity="1" fill-rule="nonzero"/></g></g></g><g clip-path="url(#id62)"><g clip-path="url(#id63)"><g clip-path="url(#id64)"><path fill="#919191" d="M 176.039062 33.921875 C 176.269531 34.03125 176.472656 34.105469 176.707031 34.210938 C 176.839844 34.28125 176.902344 34.417969 177.003906 34.519531 C 176.835938 34.617188 176.734375 34.78125 176.566406 34.808594 C 176.164062 34.796875 175.964844 34.457031 176.039062 33.921875 " fill-opacity="1" fill-rule="nonzero"/></g></g></g><g clip-path="url(#id65)"><g clip-path="url(#id66)"><g clip-path="url(#id67)"><path fill="#919191" d="M 183.859375 28.980469 C 183.988281 29.519531 184.691406 29.90625 184.214844 30.695312 C 183.988281 30.054688 183.488281 29.605469 183.859375 28.980469 " fill-opacity="1" fill-rule="nonzero"/></g></g></g><g clip-path="url(#id68)"><g clip-path="url(#id69)"><g clip-path="url(#id70)"><path fill="#919191" d="M 186.457031 35.046875 C 186.488281 35.347656 186.085938 35.871094 185.75 35.859375 C 185.351562 35.847656 185.316406 35.613281 185.355469 35.3125 C 185.753906 35.191406 186.089844 35.136719 186.457031 35.046875 " fill-opacity="1" fill-rule="nonzero"/></g></g></g><g clip-path="url(#id71)"><g clip-path="url(#id72)"><g clip-path="url(#id73)"><path fill="#919191" d="M 176.894531 30.773438 C 177.265625 30.617188 177.53125 30.492188 177.832031 30.398438 C 177.933594 30.636719 177.863281 30.902344 177.5625 31.128906 C 177.460938 31.226562 177.191406 31.28125 177.160156 31.246094 C 176.992188 31.074219 176.929688 30.875 176.894531 30.773438 " fill-opacity="1" fill-rule="nonzero"/></g></g></g><g clip-path="url(#id74)"><g clip-path="url(#id75)"><g clip-path="url(#id76)"><path fill="#919191" d="M 178.367188 30.484375 C 178.304688 29.746094 178.511719 29.21875 178.648438 28.550781 C 178.980469 29.03125 178.875 29.863281 178.367188 30.484375 " fill-opacity="1" fill-rule="nonzero"/></g></g></g><g clip-path="url(#id77)"><g clip-path="url(#id78)"><g clip-path="url(#id79)"><path fill="#919191" d="M 178.664062 21.363281 C 178.964844 21.472656 179.199219 21.582031 179.429688 21.6875 C 179.53125 21.722656 179.628906 21.894531 179.695312 21.964844 C 179.5625 22.023438 179.460938 22.121094 179.328125 22.117188 C 178.894531 22.140625 178.527344 21.960938 178.664062 21.363281 " fill-opacity="1" fill-rule="nonzero"/></g></g></g><g clip-path="url(#id80)"><g clip-path="url(#id81)"><g clip-path="url(#id82)"><path fill="#919191" d="M 176.683594 22.40625 C 176.285156 22.195312 175.820312 21.976562 176.09375 21.382812 C 176.59375 21.566406 176.824219 22.007812 176.683594 22.40625 " fill-opacity="1" fill-rule="nonzero"/></g></g></g><g clip-path="url(#id83)"><g clip-path="url(#id84)"><g clip-path="url(#id85)"><path fill="#919191" d="M 180.542969 30.316406 C 180.546875 29.847656 180.582031 29.347656 180.585938 28.878906 C 180.652344 28.882812 180.71875 28.882812 180.785156 28.886719 C 180.78125 29.351562 180.8125 29.855469 180.808594 30.324219 C 180.742188 30.324219 180.644531 30.285156 180.542969 30.316406 " fill-opacity="1" fill-rule="nonzero"/></g></g></g><g clip-path="url(#id86)"><g clip-path="url(#id87)"><g clip-path="url(#id88)"><path fill="#919191" d="M 186.578125 32.207031 C 186.640625 32.808594 186.238281 32.867188 185.871094 33.019531 C 185.804688 32.820312 185.773438 32.71875 185.707031 32.515625 C 186.007812 32.421875 186.242188 32.332031 186.578125 32.207031 " fill-opacity="1" fill-rule="nonzero"/></g></g></g><g clip-path="url(#id89)"><g clip-path="url(#id90)"><g clip-path="url(#id91)"><path fill="#919191" d="M 183.136719 27.421875 C 183.066406 27.617188 183.066406 27.820312 183 27.816406 C 182.796875 27.878906 182.597656 27.871094 182.363281 27.898438 C 182.367188 27.765625 182.332031 27.460938 182.398438 27.464844 C 182.601562 27.402344 182.835938 27.445312 183.136719 27.421875 " fill-opacity="1" fill-rule="nonzero"/></g></g></g><g clip-path="url(#id92)"><g clip-path="url(#id93)"><g clip-path="url(#id94)"><path fill="#919191" d="M 180.375 30.679688 C 180.171875 30.875 180.035156 31.003906 179.933594 31.167969 C 179.800781 31.027344 179.667969 30.890625 179.535156 30.753906 C 179.570312 30.71875 179.605469 30.621094 179.636719 30.585938 C 179.835938 30.59375 180.003906 30.632812 180.375 30.679688 " fill-opacity="1" fill-rule="nonzero"/></g></g></g><g clip-path="url(#id95)"><path fill="#919191" d="M 232.574219 50.160156 C 226.640625 50.160156 221.054688 47.851562 216.863281 43.652344 C 212.664062 39.460938 210.355469 33.875 210.355469 27.941406 C 210.355469 22.007812 212.664062 16.421875 216.863281 12.230469 C 221.054688 8.03125 226.640625 5.722656 232.574219 5.722656 C 238.503906 5.722656 244.089844 8.03125 248.28125 12.230469 C 252.484375 16.433594 254.792969 22.007812 254.792969 27.941406 C 254.792969 33.875 252.484375 39.460938 248.28125 43.652344 C 244.089844 47.851562 238.503906 50.160156 232.574219 50.160156 Z M 232.574219 7.054688 C 226.996094 7.054688 221.746094 9.230469 217.804688 13.171875 C 213.863281 17.117188 211.6875 22.363281 211.6875 27.941406 C 211.6875 33.519531 213.863281 38.765625 217.804688 42.710938 C 221.746094 46.652344 226.996094 48.828125 232.574219 48.828125 C 238.148438 48.828125 243.398438 46.652344 247.339844 42.710938 C 251.285156 38.765625 253.460938 33.519531 253.460938 27.941406 C 253.460938 22.363281 251.285156 17.117188 247.339844 13.171875 C 243.398438 9.230469 238.148438 7.054688 232.574219 7.054688 Z M 232.574219 7.054688 " fill-opacity="1" fill-rule="nonzero"/></g><g clip-path="url(#id96)"><path fill="#919191" d="M 283.871094 50.851562 C 277.9375 50.851562 272.351562 48.542969 268.160156 44.34375 C 263.960938 40.152344 261.652344 34.566406 261.652344 28.632812 C 261.652344 22.703125 263.960938 17.117188 268.160156 12.925781 C 272.351562 8.722656 277.9375 6.414062 283.871094 6.414062 C 289.804688 6.414062 295.390625 8.722656 299.582031 12.925781 C 303.78125 17.125 306.089844 22.703125 306.089844 28.632812 C 306.089844 34.566406 303.78125 40.152344 299.582031 44.34375 C 295.390625 48.542969 289.804688 50.851562 283.871094 50.851562 Z M 283.871094 7.746094 C 278.292969 7.746094 273.046875 9.921875 269.101562 13.867188 C 265.160156 17.808594 262.984375 23.058594 262.984375 28.632812 C 262.984375 34.210938 265.160156 39.460938 269.101562 43.402344 C 273.046875 47.34375 278.292969 49.519531 283.871094 49.519531 C 289.449219 49.519531 294.695312 47.34375 298.640625 43.402344 C 302.582031 39.460938 304.757812 34.210938 304.757812 28.632812 C 304.757812 23.058594 302.582031 17.808594 298.640625 13.867188 C 294.695312 9.921875 289.449219 7.746094 283.871094 7.746094 Z M 283.871094 7.746094 " fill-opacity="1" fill-rule="nonzero"/></g><g clip-path="url(#id97)"><g clip-path="url(#id98)"><g clip-path="url(#id99)"><g clip-path="url(#id100)"><path stroke-linecap="round" transform="matrix(0.00432013, 0.00605205, 0.00605871, -0.00432489, 210.574918, 24.351879)" fill="none" stroke-linejoin="round" d="M 2100.001602 2817.686059 C 2083.893093 2974.881774 2010.0719 3141.637314 1858.942478 3293.241214 C 1398.713057 3752.930964 776.384924 3479.091209 776.384924 3479.091209 C 776.384924 3479.091209 489.974197 2869.662062 962.909784 2397.043848 C 1114.039207 2245.439948 1280.778673 2171.67852 1438.157054 2156.170593 C 1456.220568 1996.291406 1531.324477 1828.621231 1680.071323 1680.005681 C 1831.200745 1528.401781 1997.940211 1454.640352 2155.013379 1438.705324 C 2173.382107 1279.253239 2248.486015 1111.583064 2396.927647 962.540412 C 2869.863234 489.922198 3479.4852 776.690417 3479.4852 776.690417 C 3479.4852 776.690417 3752.884547 1398.620927 3292.96034 1858.737778 C 3144.641067 2007.048451 2976.80174 2082.883595 2817.16314 2100.647891 C 2801.054631 2257.843607 2727.661011 2424.294269 2575.798802 2575.775946 C 2427.051956 2724.391496 2259.640202 2799.921762 2100.001602 2817.686059 Z M 2100.001602 2817.686059 " stroke="#1b181a" stroke-width="40.581001" stroke-opacity="1" stroke-miterlimit="10"/></g></g></g></g><g clip-path="url(#id101)"><g clip-path="url(#id102)"><g clip-path="url(#id103)"><g clip-path="url(#id104)"><path stroke-linecap="round" transform="matrix(0.00432013, 0.00605205, 0.00605871, -0.00432489, 210.574918, 24.351879)" fill="none" stroke-linejoin="round" d="M 1683.832385 2572.213073 C 1586.701615 2475.130599 1395.68376 2459.822689 1210.345847 2644.845039 C 1025.313147 2830.294491 1038.626162 3032.274089 1131.239222 3124.841099 C 1223.547067 3216.981008 1431.238869 3224.912776 1610.773629 3045.3178 C 1790.308389 2865.722824 1780.963155 2669.295548 1683.832385 2572.213073 Z M 1683.832385 2572.213073 " stroke="#1b181a" stroke-width="40.581001" stroke-opacity="1" stroke-miterlimit="10"/></g></g></g></g><g clip-path="url(#id105)"><g clip-path="url(#id106)"><g clip-path="url(#id107)"><g clip-path="url(#id108)"><path stroke-linecap="round" transform="matrix(0.00432013, 0.00605205, 0.00605871, -0.00432489, 210.574918, 24.351879)" fill="none" stroke-linejoin="round" d="M 1296.487555 2731.065955 C 1157.086797 2871.083127 1166.452481 2999.798872 1211.32437 3044.526409 " stroke="#1b181a" stroke-width="40.581001" stroke-opacity="1" stroke-miterlimit="10"/></g></g></g></g><g clip-path="url(#id109)"><g clip-path="url(#id110)"><g clip-path="url(#id111)"><g clip-path="url(#id112)"><path stroke-linecap="round" transform="matrix(0.00432013, 0.00605205, 0.00605871, -0.00432489, 210.574918, 24.351879)" fill="none" stroke-linejoin="round" d="M 2400.993923 1855.174906 C 2303.863153 1758.092432 2112.967657 1742.052542 1927.507385 1927.806872 C 1742.169472 2112.829222 1756.215272 2314.931044 1848.095546 2407.375831 C 1940.708606 2499.942841 2148.827979 2507.569731 2328.36274 2327.974755 C 2507.8975 2148.379779 2497.819479 1951.830279 2400.993923 1855.174906 Z M 2400.993923 1855.174906 " stroke="#1b181a" stroke-width="40.581001" stroke-opacity="1" stroke-miterlimit="10"/></g></g></g></g><g clip-path="url(#id113)"><g clip-path="url(#id114)"><g clip-path="url(#id115)"><g clip-path="url(#id116)"><path stroke-linecap="round" transform="matrix(0.00432013, 0.00605205, 0.00605871, -0.00432489, 210.574918, 24.351879)" fill="none" stroke-linejoin="round" d="M 2014.076665 2013.72291 C 1873.943121 2153.617858 1884.041592 2282.455826 1928.91348 2327.183364 " stroke="#1b181a" stroke-width="40.581001" stroke-opacity="1" stroke-miterlimit="10"/></g></g></g></g><g clip-path="url(#id117)"><g clip-path="url(#id118)"><g clip-path="url(#id119)"><g clip-path="url(#id120)"><path stroke-linecap="round" transform="matrix(0.00432013, 0.00605205, 0.00605871, -0.00432489, 210.574918, 24.351879)" fill="none" stroke-linejoin="round" d="M 3117.850248 1137.709637 C 3021.024692 1041.054265 2830.129195 1025.014375 2645.096496 1210.463827 C 2459.33101 1395.791055 2473.071597 1597.465775 2565.684657 1690.032785 C 2658.297716 1782.599796 2865.989518 1790.531563 3045.524278 1610.936588 C 3225.059038 1431.341612 3214.981018 1234.792112 3117.850248 1137.709637 Z M 3117.850248 1137.709637 " stroke="#1b181a" stroke-width="40.581001" stroke-opacity="1" stroke-miterlimit="10"/></g></g></g></g><g clip-path="url(#id121)"><g clip-path="url(#id122)"><g clip-path="url(#id123)"><g clip-path="url(#id124)"><path stroke-linecap="round" transform="matrix(0.00432013, 0.00605205, 0.00605871, -0.00432489, 210.574918, 24.351879)" fill="none" stroke-linejoin="round" d="M 2731.238204 1296.684743 C 2591.10466 1436.579691 2601.20313 1565.417659 2646.075019 1610.145197 " stroke="#1b181a" stroke-width="40.581001" stroke-opacity="1" stroke-miterlimit="10"/></g></g></g></g><path fill="#919191" d="M 277.328125 37.769531 C 276.925781 37.121094 276.683594 36.265625 276.453125 35.5625 C 276.15625 34.648438 275.933594 33.707031 275.832031 32.75 C 275.640625 30.972656 275.878906 29.121094 276.714844 27.546875 C 277.816406 25.46875 279.839844 24.050781 281.121094 22.078125 C 281.378906 21.679688 281.222656 21.320312 281.632812 21.089844 L 281.664062 21.132812 C 281.675781 21.152344 281.683594 21.167969 281.691406 21.1875 L 281.707031 21.222656 L 281.71875 21.25 C 281.726562 21.273438 281.738281 21.304688 281.746094 21.347656 C 281.765625 21.433594 281.773438 21.546875 281.761719 21.660156 C 281.628906 22.863281 280.371094 24.089844 279.621094 24.960938 C 278.726562 26.007812 277.785156 27.050781 277.210938 28.328125 C 276.621094 29.628906 276.457031 31.09375 276.550781 32.523438 C 276.652344 34.050781 276.996094 35.601562 277.5 37.039062 C 277.53125 37.128906 277.5625 37.210938 277.589844 37.28125 L 277.664062 37.480469 L 277.707031 37.582031 C 277.707031 37.582031 277.769531 37.742188 277.78125 37.773438 C 277.785156 37.785156 277.480469 37.925781 277.445312 37.941406 C 277.402344 37.886719 277.363281 37.828125 277.328125 37.769531 " fill-opacity="1" fill-rule="nonzero"/><path fill="#919191" d="M 283.304688 38.796875 C 283.246094 38.492188 283.109375 38.15625 283.042969 37.875 C 283.007812 37.726562 282.972656 37.566406 282.933594 37.390625 C 282.859375 37.039062 282.777344 36.648438 282.699219 36.230469 C 282.519531 35.265625 282.367188 34.28125 282.25 33.300781 C 282.222656 33.066406 282.191406 32.8125 282.160156 32.476562 L 282.117188 32.058594 L 282.113281 32.015625 C 282.101562 31.886719 282.089844 31.761719 282.078125 31.632812 C 282.027344 31.035156 282 30.449219 281.988281 29.894531 C 281.984375 29.628906 281.984375 29.34375 281.996094 29.015625 C 282.003906 28.757812 282.019531 28.480469 282.046875 28.140625 L 282.078125 27.84375 L 282.101562 27.652344 L 282.125 27.488281 C 282.136719 27.414062 282.148438 27.34375 282.164062 27.273438 C 282.210938 27.007812 282.273438 26.726562 282.34375 26.445312 C 282.429688 26.109375 282.523438 25.789062 282.613281 25.476562 C 282.667969 25.296875 282.71875 25.121094 282.765625 24.945312 C 282.910156 24.417969 283.007812 24 283.066406 23.625 C 283.101562 23.429688 283.125 23.230469 283.140625 23.039062 C 283.152344 22.871094 283.160156 22.695312 283.160156 22.503906 C 283.15625 22.214844 283.136719 21.921875 283.101562 21.628906 C 283.078125 21.417969 283.046875 21.21875 283.019531 21.0625 C 282.996094 20.933594 282.980469 20.863281 282.980469 20.863281 L 283.34375 20.765625 L 283.359375 20.816406 C 283.371094 20.851562 283.386719 20.902344 283.40625 20.96875 C 284.195312 23.667969 282.960938 26.585938 282.796875 29.304688 C 282.601562 32.542969 283.535156 35.738281 283.644531 38.976562 C 283.542969 39.003906 283.4375 39.027344 283.332031 39.054688 C 283.332031 38.972656 283.320312 38.886719 283.304688 38.796875 " fill-opacity="1" fill-rule="nonzero"/><path fill="#919191" d="M 289.691406 37.695312 L 289.769531 37.386719 C 290.457031 34.574219 290.582031 31.46875 289.378906 28.777344 C 288.722656 27.316406 287.65625 26.363281 286.667969 25.171875 C 285.792969 24.117188 285.113281 22.902344 284.664062 21.601562 L 284.582031 21.363281 L 284.929688 21.214844 C 284.929688 21.214844 285.015625 21.398438 285.019531 21.402344 C 285.539062 22.492188 286.121094 23.464844 286.925781 24.367188 C 287.800781 25.355469 288.78125 26.257812 289.507812 27.367188 C 291.1875 29.929688 291.46875 33.777344 290.4375 36.65625 L 290.402344 36.765625 C 290.371094 36.871094 290.34375 36.96875 290.3125 37.058594 L 290.261719 37.226562 L 290.164062 37.507812 L 290.125 37.617188 L 290.050781 37.808594 L 289.691406 37.695312 " fill-opacity="1" fill-rule="nonzero"/><g clip-path="url(#id125)"><path fill="#919191" d="M 295.636719 34.847656 C 295.367188 35.824219 294.785156 37.136719 293.535156 37.820312 C 293.328125 37.933594 293.105469 38.027344 292.875 38.097656 C 292.289062 38.28125 291.632812 38.359375 290.753906 38.359375 C 290.441406 38.359375 290.121094 38.351562 289.847656 38.339844 C 289.824219 38.339844 289.796875 38.339844 289.765625 38.339844 C 289.679688 38.339844 289.546875 38.347656 289.410156 38.414062 C 289.261719 38.488281 289.167969 38.601562 289.109375 38.679688 C 289.054688 38.746094 289.003906 38.8125 288.953125 38.875 C 288.511719 39.429688 288.195312 39.832031 287.597656 40.066406 C 287.246094 40.203125 286.835938 40.273438 286.378906 40.273438 C 286.195312 40.273438 286 40.261719 285.800781 40.238281 C 285.320312 40.183594 284.8125 40.058594 284.292969 39.875 C 284.273438 39.867188 284.199219 39.828125 284.15625 39.804688 C 283.882812 39.664062 283.6875 39.570312 283.511719 39.570312 C 283.46875 39.570312 283.425781 39.574219 283.382812 39.585938 C 282.886719 39.722656 282.363281 39.792969 281.828125 39.792969 C 281.0625 39.792969 280.28125 39.65625 279.503906 39.382812 C 278.496094 39.03125 277.847656 38.582031 277.820312 38.5625 L 277.671875 38.457031 L 277.5 38.5 C 277.496094 38.503906 277.253906 38.558594 276.871094 38.558594 C 276.457031 38.558594 276.042969 38.496094 275.644531 38.367188 C 274.246094 37.917969 273.117188 36.703125 272.378906 34.855469 C 271.523438 32.726562 271.652344 30.765625 272.773438 28.855469 C 273.726562 27.222656 275.421875 25.574219 278.101562 23.671875 C 279.699219 22.53125 280.929688 21.097656 281.746094 19.410156 C 282.132812 18.613281 282.394531 17.78125 282.605469 16.921875 C 282.40625 17.726562 285.09375 18.007812 285.519531 17.316406 C 285.574219 17.394531 285.625 17.496094 285.640625 17.589844 C 285.664062 17.753906 285.691406 17.914062 285.722656 18.070312 C 285.953125 19.242188 286.328125 20.265625 286.871094 21.207031 C 287.628906 22.515625 288.726562 23.667969 290.234375 24.730469 L 290.632812 25.011719 C 292.859375 26.574219 295.167969 28.195312 295.746094 30.929688 C 296.011719 32.1875 295.96875 33.613281 295.636719 34.847656 Z M 283.296875 16.136719 C 283.328125 15.960938 283.738281 15.886719 284.210938 15.976562 C 284.6875 16.0625 285.046875 16.273438 285.015625 16.449219 C 284.984375 16.625 284.574219 16.695312 284.097656 16.609375 C 283.625 16.523438 283.265625 16.308594 283.296875 16.136719 Z M 296.519531 30.761719 C 296.230469 29.390625 295.535156 28.15625 294.394531 26.988281 C 293.40625 25.980469 292.222656 25.152344 291.082031 24.347656 L 290.6875 24.070312 C 288.210938 22.324219 286.902344 20.335938 286.449219 17.628906 C 286.386719 17.261719 286.339844 16.878906 286.308594 16.484375 L 286.304688 16.433594 L 286.277344 16.394531 C 286.257812 16.363281 286.234375 16.328125 286.210938 16.300781 L 286.195312 16.277344 C 285.886719 15.863281 285.410156 15.5 284.851562 15.253906 C 284.382812 15.046875 283.902344 14.933594 283.457031 14.933594 C 282.742188 14.933594 282.210938 15.214844 282 15.703125 C 281.925781 15.878906 281.898438 16.070312 281.917969 16.273438 C 281.613281 18.183594 280.621094 20.894531 277.644531 23.011719 C 274.871094 24.984375 273.105469 26.710938 272.09375 28.445312 C 270.835938 30.585938 270.691406 32.78125 271.644531 35.160156 C 272.105469 36.308594 272.703125 37.238281 273.421875 37.929688 C 274.007812 38.492188 274.675781 38.898438 275.402344 39.132812 C 275.882812 39.285156 276.375 39.363281 276.871094 39.363281 C 277.148438 39.363281 277.371094 39.339844 277.507812 39.316406 C 277.78125 39.488281 278.390625 39.84375 279.230469 40.136719 C 280.097656 40.441406 280.972656 40.597656 281.828125 40.597656 C 282.40625 40.597656 282.972656 40.523438 283.511719 40.382812 C 283.558594 40.402344 283.640625 40.441406 283.796875 40.519531 C 283.898438 40.574219 283.964844 40.609375 284.023438 40.628906 C 284.605469 40.835938 285.171875 40.972656 285.710938 41.035156 C 285.941406 41.0625 286.164062 41.078125 286.378906 41.078125 C 286.929688 41.078125 287.4375 40.988281 287.882812 40.816406 C 288.683594 40.503906 289.113281 39.957031 289.570312 39.375 C 289.621094 39.3125 289.671875 39.25 289.722656 39.183594 C 289.730469 39.171875 289.746094 39.15625 289.757812 39.144531 L 289.769531 39.144531 C 289.785156 39.144531 289.804688 39.144531 289.820312 39.144531 C 290.089844 39.152344 290.410156 39.164062 290.734375 39.164062 C 291.710938 39.164062 292.441406 39.074219 293.105469 38.867188 C 293.386719 38.78125 293.65625 38.667969 293.914062 38.527344 C 295.097656 37.878906 295.957031 36.679688 296.398438 35.0625 C 296.769531 33.707031 296.8125 32.140625 296.519531 30.761719 " fill-opacity="1" fill-rule="nonzero"/></g></svg>