<svg xmlns="http://www.w3.org/2000/svg" xmlns:xlink="http://www.w3.org/1999/xlink" width="453" zoomAndPan="magnify" viewBox="0 0 340.08 56.999996" height="75" preserveAspectRatio="xMidYMid meet" version="1.0"><defs><clipPath id="id1"><path d="M 5.644531 5.722656 L 49.410156 5.722656 L 49.410156 49.488281 L 5.644531 49.488281 Z M 5.644531 5.722656 " clip-rule="nonzero"/></clipPath><clipPath id="id2"><path d="M 20 14 L 35 14 L 35 41 L 20 41 Z M 20 14 " clip-rule="nonzero"/></clipPath><clipPath id="id3"><path d="M 11.875 27.515625 L 28.011719 11.972656 L 43.035156 27.574219 L 26.898438 43.117188 Z M 11.875 27.515625 " clip-rule="nonzero"/></clipPath><clipPath id="id4"><path d="M 11.875 27.515625 L 28.011719 11.972656 L 43.035156 27.574219 L 26.898438 43.117188 Z M 11.875 27.515625 " clip-rule="nonzero"/></clipPath><clipPath id="id5"><path d="M 11.921875 27.46875 L 27.964844 12.015625 L 43.269531 27.90625 L 27.222656 43.359375 Z M 11.921875 27.46875 " clip-rule="nonzero"/></clipPath><clipPath id="id6"><path d="M 11.921875 27.46875 L 27.964844 12.015625 L 42.984375 27.609375 L 26.9375 43.0625 Z M 11.921875 27.46875 " clip-rule="nonzero"/></clipPath><clipPath id="id7"><path d="M 28 30 L 32 30 L 32 39 L 28 39 Z M 28 30 " clip-rule="nonzero"/></clipPath><clipPath id="id8"><path d="M 11.875 27.515625 L 28.011719 11.972656 L 43.035156 27.574219 L 26.898438 43.117188 Z M 11.875 27.515625 " clip-rule="nonzero"/></clipPath><clipPath id="id9"><path d="M 11.875 27.515625 L 28.011719 11.972656 L 43.035156 27.574219 L 26.898438 43.117188 Z M 11.875 27.515625 " clip-rule="nonzero"/></clipPath><clipPath id="id10"><path d="M 22 30 L 26 30 L 26 39 L 22 39 Z M 22 30 " clip-rule="nonzero"/></clipPath><clipPath id="id11"><path d="M 11.875 27.515625 L 28.011719 11.972656 L 43.035156 27.574219 L 26.898438 43.117188 Z M 11.875 27.515625 " clip-rule="nonzero"/></clipPath><clipPath id="id12"><path d="M 11.875 27.515625 L 28.011719 11.972656 L 43.035156 27.574219 L 26.898438 43.117188 Z M 11.875 27.515625 " clip-rule="nonzero"/></clipPath><clipPath id="id13"><path d="M 29 16 L 32 16 L 32 25 L 29 25 Z M 29 16 " clip-rule="nonzero"/></clipPath><clipPath id="id14"><path d="M 11.875 27.515625 L 28.011719 11.972656 L 43.035156 27.574219 L 26.898438 43.117188 Z M 11.875 27.515625 " clip-rule="nonzero"/></clipPath><clipPath id="id15"><path d="M 11.875 27.515625 L 28.011719 11.972656 L 43.035156 27.574219 L 26.898438 43.117188 Z M 11.875 27.515625 " clip-rule="nonzero"/></clipPath><clipPath id="id16"><path d="M 25 18 L 28 18 L 28 25 L 25 25 Z M 25 18 " clip-rule="nonzero"/></clipPath><clipPath id="id17"><path d="M 11.875 27.515625 L 28.011719 11.972656 L 43.035156 27.574219 L 26.898438 43.117188 Z M 11.875 27.515625 " clip-rule="nonzero"/></clipPath><clipPath id="id18"><path d="M 11.875 27.515625 L 28.011719 11.972656 L 43.035156 27.574219 L 26.898438 43.117188 Z M 11.875 27.515625 " clip-rule="nonzero"/></clipPath><clipPath id="id19"><path d="M 23 19 L 26 19 L 26 26 L 23 26 Z M 23 19 " clip-rule="nonzero"/></clipPath><clipPath id="id20"><path d="M 11.875 27.515625 L 28.011719 11.972656 L 43.035156 27.574219 L 26.898438 43.117188 Z M 11.875 27.515625 " clip-rule="nonzero"/></clipPath><clipPath id="id21"><path d="M 11.875 27.515625 L 28.011719 11.972656 L 43.035156 27.574219 L 26.898438 43.117188 Z M 11.875 27.515625 " clip-rule="nonzero"/></clipPath><clipPath id="id22"><path d="M 26 31 L 28 31 L 28 37 L 26 37 Z M 26 31 " clip-rule="nonzero"/></clipPath><clipPath id="id23"><path d="M 11.875 27.515625 L 28.011719 11.972656 L 43.035156 27.574219 L 26.898438 43.117188 Z M 11.875 27.515625 " clip-rule="nonzero"/></clipPath><clipPath id="id24"><path d="M 11.875 27.515625 L 28.011719 11.972656 L 43.035156 27.574219 L 26.898438 43.117188 Z M 11.875 27.515625 " clip-rule="nonzero"/></clipPath><clipPath id="id25"><path d="M 24 34 L 27 34 L 27 36 L 24 36 Z M 24 34 " clip-rule="nonzero"/></clipPath><clipPath id="id26"><path d="M 11.875 27.515625 L 28.011719 11.972656 L 43.035156 27.574219 L 26.898438 43.117188 Z M 11.875 27.515625 " clip-rule="nonzero"/></clipPath><clipPath id="id27"><path d="M 11.875 27.515625 L 28.011719 11.972656 L 43.035156 27.574219 L 26.898438 43.117188 Z M 11.875 27.515625 " clip-rule="nonzero"/></clipPath><clipPath id="id28"><path d="M 24 32 L 27 32 L 27 35 L 24 35 Z M 24 32 " clip-rule="nonzero"/></clipPath><clipPath id="id29"><path d="M 11.875 27.515625 L 28.011719 11.972656 L 43.035156 27.574219 L 26.898438 43.117188 Z M 11.875 27.515625 " clip-rule="nonzero"/></clipPath><clipPath id="id30"><path d="M 11.875 27.515625 L 28.011719 11.972656 L 43.035156 27.574219 L 26.898438 43.117188 Z M 11.875 27.515625 " clip-rule="nonzero"/></clipPath><clipPath id="id31"><path d="M 28 31 L 30 31 L 30 33 L 28 33 Z M 28 31 " clip-rule="nonzero"/></clipPath><clipPath id="id32"><path d="M 11.875 27.515625 L 28.011719 11.972656 L 43.035156 27.574219 L 26.898438 43.117188 Z M 11.875 27.515625 " clip-rule="nonzero"/></clipPath><clipPath id="id33"><path d="M 11.875 27.515625 L 28.011719 11.972656 L 43.035156 27.574219 L 26.898438 43.117188 Z M 11.875 27.515625 " clip-rule="nonzero"/></clipPath><clipPath id="id34"><path d="M 28 20 L 30 20 L 30 22 L 28 22 Z M 28 20 " clip-rule="nonzero"/></clipPath><clipPath id="id35"><path d="M 11.875 27.515625 L 28.011719 11.972656 L 43.035156 27.574219 L 26.898438 43.117188 Z M 11.875 27.515625 " clip-rule="nonzero"/></clipPath><clipPath id="id36"><path d="M 11.875 27.515625 L 28.011719 11.972656 L 43.035156 27.574219 L 26.898438 43.117188 Z M 11.875 27.515625 " clip-rule="nonzero"/></clipPath><clipPath id="id37"><path d="M 28 33 L 30 33 L 30 35 L 28 35 Z M 28 33 " clip-rule="nonzero"/></clipPath><clipPath id="id38"><path d="M 11.875 27.515625 L 28.011719 11.972656 L 43.035156 27.574219 L 26.898438 43.117188 Z M 11.875 27.515625 " clip-rule="nonzero"/></clipPath><clipPath id="id39"><path d="M 11.875 27.515625 L 28.011719 11.972656 L 43.035156 27.574219 L 26.898438 43.117188 Z M 11.875 27.515625 " clip-rule="nonzero"/></clipPath><clipPath id="id40"><path d="M 28 22 L 30 22 L 30 24 L 28 24 Z M 28 22 " clip-rule="nonzero"/></clipPath><clipPath id="id41"><path d="M 11.875 27.515625 L 28.011719 11.972656 L 43.035156 27.574219 L 26.898438 43.117188 Z M 11.875 27.515625 " clip-rule="nonzero"/></clipPath><clipPath id="id42"><path d="M 11.875 27.515625 L 28.011719 11.972656 L 43.035156 27.574219 L 26.898438 43.117188 Z M 11.875 27.515625 " clip-rule="nonzero"/></clipPath><clipPath id="id43"><path d="M 24 30 L 27 30 L 27 32 L 24 32 Z M 24 30 " clip-rule="nonzero"/></clipPath><clipPath id="id44"><path d="M 11.875 27.515625 L 28.011719 11.972656 L 43.035156 27.574219 L 26.898438 43.117188 Z M 11.875 27.515625 " clip-rule="nonzero"/></clipPath><clipPath id="id45"><path d="M 11.875 27.515625 L 28.011719 11.972656 L 43.035156 27.574219 L 26.898438 43.117188 Z M 11.875 27.515625 " clip-rule="nonzero"/></clipPath><clipPath id="id46"><path d="M 25 36 L 27 36 L 27 38 L 25 38 Z M 25 36 " clip-rule="nonzero"/></clipPath><clipPath id="id47"><path d="M 11.875 27.515625 L 28.011719 11.972656 L 43.035156 27.574219 L 26.898438 43.117188 Z M 11.875 27.515625 " clip-rule="nonzero"/></clipPath><clipPath id="id48"><path d="M 11.875 27.515625 L 28.011719 11.972656 L 43.035156 27.574219 L 26.898438 43.117188 Z M 11.875 27.515625 " clip-rule="nonzero"/></clipPath><clipPath id="id49"><path d="M 22 33 L 24 33 L 24 35 L 22 35 Z M 22 33 " clip-rule="nonzero"/></clipPath><clipPath id="id50"><path d="M 11.875 27.515625 L 28.011719 11.972656 L 43.035156 27.574219 L 26.898438 43.117188 Z M 11.875 27.515625 " clip-rule="nonzero"/></clipPath><clipPath id="id51"><path d="M 11.875 27.515625 L 28.011719 11.972656 L 43.035156 27.574219 L 26.898438 43.117188 Z M 11.875 27.515625 " clip-rule="nonzero"/></clipPath><clipPath id="id52"><path d="M 29 28 L 31 28 L 31 30 L 29 30 Z M 29 28 " clip-rule="nonzero"/></clipPath><clipPath id="id53"><path d="M 11.875 27.515625 L 28.011719 11.972656 L 43.035156 27.574219 L 26.898438 43.117188 Z M 11.875 27.515625 " clip-rule="nonzero"/></clipPath><clipPath id="id54"><path d="M 11.875 27.515625 L 28.011719 11.972656 L 43.035156 27.574219 L 26.898438 43.117188 Z M 11.875 27.515625 " clip-rule="nonzero"/></clipPath><clipPath id="id55"><path d="M 31 34 L 33 34 L 33 36 L 31 36 Z M 31 34 " clip-rule="nonzero"/></clipPath><clipPath id="id56"><path d="M 11.875 27.515625 L 28.011719 11.972656 L 43.035156 27.574219 L 26.898438 43.117188 Z M 11.875 27.515625 " clip-rule="nonzero"/></clipPath><clipPath id="id57"><path d="M 11.875 27.515625 L 28.011719 11.972656 L 43.035156 27.574219 L 26.898438 43.117188 Z M 11.875 27.515625 " clip-rule="nonzero"/></clipPath><clipPath id="id58"><path d="M 23 29 L 25 29 L 25 31 L 23 31 Z M 23 29 " clip-rule="nonzero"/></clipPath><clipPath id="id59"><path d="M 11.875 27.515625 L 28.011719 11.972656 L 43.035156 27.574219 L 26.898438 43.117188 Z M 11.875 27.515625 " clip-rule="nonzero"/></clipPath><clipPath id="id60"><path d="M 11.875 27.515625 L 28.011719 11.972656 L 43.035156 27.574219 L 26.898438 43.117188 Z M 11.875 27.515625 " clip-rule="nonzero"/></clipPath><clipPath id="id61"><path d="M 24 27 L 26 27 L 26 30 L 24 30 Z M 24 27 " clip-rule="nonzero"/></clipPath><clipPath id="id62"><path d="M 11.875 27.515625 L 28.011719 11.972656 L 43.035156 27.574219 L 26.898438 43.117188 Z M 11.875 27.515625 " clip-rule="nonzero"/></clipPath><clipPath id="id63"><path d="M 11.875 27.515625 L 28.011719 11.972656 L 43.035156 27.574219 L 26.898438 43.117188 Z M 11.875 27.515625 " clip-rule="nonzero"/></clipPath><clipPath id="id64"><path d="M 25 20 L 27 20 L 27 22 L 25 22 Z M 25 20 " clip-rule="nonzero"/></clipPath><clipPath id="id65"><path d="M 11.875 27.515625 L 28.011719 11.972656 L 43.035156 27.574219 L 26.898438 43.117188 Z M 11.875 27.515625 " clip-rule="nonzero"/></clipPath><clipPath id="id66"><path d="M 11.875 27.515625 L 28.011719 11.972656 L 43.035156 27.574219 L 26.898438 43.117188 Z M 11.875 27.515625 " clip-rule="nonzero"/></clipPath><clipPath id="id67"><path d="M 22 20 L 24 20 L 24 22 L 22 22 Z M 22 20 " clip-rule="nonzero"/></clipPath><clipPath id="id68"><path d="M 11.875 27.515625 L 28.011719 11.972656 L 43.035156 27.574219 L 26.898438 43.117188 Z M 11.875 27.515625 " clip-rule="nonzero"/></clipPath><clipPath id="id69"><path d="M 11.875 27.515625 L 28.011719 11.972656 L 43.035156 27.574219 L 26.898438 43.117188 Z M 11.875 27.515625 " clip-rule="nonzero"/></clipPath><clipPath id="id70"><path d="M 26 28 L 28 28 L 28 30 L 26 30 Z M 26 28 " clip-rule="nonzero"/></clipPath><clipPath id="id71"><path d="M 11.875 27.515625 L 28.011719 11.972656 L 43.035156 27.574219 L 26.898438 43.117188 Z M 11.875 27.515625 " clip-rule="nonzero"/></clipPath><clipPath id="id72"><path d="M 11.875 27.515625 L 28.011719 11.972656 L 43.035156 27.574219 L 26.898438 43.117188 Z M 11.875 27.515625 " clip-rule="nonzero"/></clipPath><clipPath id="id73"><path d="M 31 31 L 33 31 L 33 33 L 31 33 Z M 31 31 " clip-rule="nonzero"/></clipPath><clipPath id="id74"><path d="M 11.875 27.515625 L 28.011719 11.972656 L 43.035156 27.574219 L 26.898438 43.117188 Z M 11.875 27.515625 " clip-rule="nonzero"/></clipPath><clipPath id="id75"><path d="M 11.875 27.515625 L 28.011719 11.972656 L 43.035156 27.574219 L 26.898438 43.117188 Z M 11.875 27.515625 " clip-rule="nonzero"/></clipPath><clipPath id="id76"><path d="M 28 26 L 30 26 L 30 28 L 28 28 Z M 28 26 " clip-rule="nonzero"/></clipPath><clipPath id="id77"><path d="M 11.875 27.515625 L 28.011719 11.972656 L 43.035156 27.574219 L 26.898438 43.117188 Z M 11.875 27.515625 " clip-rule="nonzero"/></clipPath><clipPath id="id78"><path d="M 11.875 27.515625 L 28.011719 11.972656 L 43.035156 27.574219 L 26.898438 43.117188 Z M 11.875 27.515625 " clip-rule="nonzero"/></clipPath><clipPath id="id79"><path d="M 25 29 L 27 29 L 27 31 L 25 31 Z M 25 29 " clip-rule="nonzero"/></clipPath><clipPath id="id80"><path d="M 11.875 27.515625 L 28.011719 11.972656 L 43.035156 27.574219 L 26.898438 43.117188 Z M 11.875 27.515625 " clip-rule="nonzero"/></clipPath><clipPath id="id81"><path d="M 11.875 27.515625 L 28.011719 11.972656 L 43.035156 27.574219 L 26.898438 43.117188 Z M 11.875 27.515625 " clip-rule="nonzero"/></clipPath><clipPath id="id82"><path d="M 53.488281 6.40625 L 97.257812 6.40625 L 97.257812 50.171875 L 53.488281 50.171875 Z M 53.488281 6.40625 " clip-rule="nonzero"/></clipPath><clipPath id="id83"><path d="M 75 23 L 81.992188 23 L 81.992188 30 L 75 30 Z M 75 23 " clip-rule="nonzero"/></clipPath><clipPath id="id84"><path d="M 75 29 L 81.992188 29 L 81.992188 37 L 75 37 Z M 75 29 " clip-rule="nonzero"/></clipPath><clipPath id="id85"><path d="M 72 16.285156 L 78 16.285156 L 78 26 L 72 26 Z M 72 16.285156 " clip-rule="nonzero"/></clipPath><clipPath id="id86"><path d="M 72 16.285156 L 79 16.285156 L 79 26 L 72 26 Z M 72 16.285156 " clip-rule="nonzero"/></clipPath><clipPath id="id87"><path d="M 74 23 L 81.992188 23 L 81.992188 31 L 74 31 Z M 74 23 " clip-rule="nonzero"/></clipPath><clipPath id="id88"><path d="M 74 28 L 81.992188 28 L 81.992188 37 L 74 37 Z M 74 28 " clip-rule="nonzero"/></clipPath><clipPath id="id89"><path d="M 68.546875 23 L 76 23 L 76 31 L 68.546875 31 Z M 68.546875 23 " clip-rule="nonzero"/></clipPath><clipPath id="id90"><path d="M 68.546875 28 L 76 28 L 76 37 L 68.546875 37 Z M 68.546875 28 " clip-rule="nonzero"/></clipPath><clipPath id="id91"><path d="M 74 24 L 76 24 L 76 42.425781 L 74 42.425781 Z M 74 24 " clip-rule="nonzero"/></clipPath><clipPath id="id92"><path d="M 101.027344 5.722656 L 144.792969 5.722656 L 144.792969 49.488281 L 101.027344 49.488281 Z M 101.027344 5.722656 " clip-rule="nonzero"/></clipPath><clipPath id="id93"><path d="M 116.234375 13.132812 L 129.679688 13.132812 L 129.679688 42.261719 L 116.234375 42.261719 Z M 116.234375 13.132812 " clip-rule="nonzero"/></clipPath></defs><g clip-path="url(#id1)"><path fill="#919191" d="M 27.527344 49.488281 C 21.6875 49.488281 16.183594 47.214844 12.058594 43.078125 C 7.917969 38.949219 5.644531 33.449219 5.644531 27.605469 C 5.644531 21.761719 7.917969 16.261719 12.058594 12.132812 C 16.183594 7.996094 21.6875 5.722656 27.527344 5.722656 C 33.371094 5.722656 38.871094 7.996094 43 12.132812 C 47.136719 16.269531 49.410156 21.761719 49.410156 27.605469 C 49.410156 33.449219 47.136719 38.949219 43 43.078125 C 38.871094 47.214844 33.371094 49.488281 27.527344 49.488281 Z M 27.527344 7.035156 C 22.035156 7.035156 16.867188 9.175781 12.984375 13.0625 C 9.101562 16.945312 6.957031 22.113281 6.957031 27.605469 C 6.957031 33.097656 9.101562 38.265625 12.984375 42.152344 C 16.867188 46.035156 22.035156 48.175781 27.527344 48.175781 C 33.023438 48.175781 38.191406 46.035156 42.074219 42.152344 C 45.957031 38.265625 48.101562 33.097656 48.101562 27.605469 C 48.101562 22.113281 45.957031 16.945312 42.074219 13.0625 C 38.191406 9.175781 33.023438 7.035156 27.527344 7.035156 Z M 27.527344 7.035156 " fill-opacity="1" fill-rule="nonzero"/></g><g clip-path="url(#id2)"><g clip-path="url(#id3)"><g clip-path="url(#id4)"><g clip-path="url(#id5)"><g clip-path="url(#id6)"><path fill="#919191" d="M 30.773438 16.828125 C 30.644531 16.695312 30.550781 16.59375 30.417969 16.460938 C 30.355469 16.394531 30.257812 16.363281 30.160156 16.324219 C 28.957031 15.816406 27.714844 15.472656 26.359375 15.878906 C 25 16.285156 23.832031 16.960938 23.019531 18.132812 C 22.8125 18.394531 22.675781 18.652344 22.441406 18.882812 C 21.730469 19.757812 21.117188 20.671875 21.449219 21.890625 C 21.480469 21.988281 21.445312 22.085938 21.445312 22.152344 C 21.59375 22.714844 21.644531 23.308594 21.828125 23.835938 C 22.203125 24.761719 22.644531 25.621094 23.046875 26.511719 C 23.113281 26.644531 23.105469 26.84375 23.136719 27.007812 C 23.070312 28.355469 22.582031 29.53125 21.964844 30.703125 C 21.414062 31.75 21.253906 32.867188 21.363281 33.917969 C 21.492188 35.398438 22.082031 36.753906 23.175781 37.886719 C 23.976562 38.71875 24.785156 39.222656 25.972656 39.109375 C 26.101562 39.109375 26.269531 39.144531 26.398438 39.148438 C 27.609375 39.261719 28.765625 39.179688 29.800781 38.503906 C 30.832031 37.828125 31.613281 36.820312 32.648438 36.144531 C 32.683594 36.113281 32.71875 36.082031 32.71875 36.015625 C 32.898438 35.394531 33.140625 34.769531 33.320312 34.148438 C 33.429688 33.792969 33.472656 33.363281 33.445312 33.003906 C 33.300781 32.246094 33.054688 31.453125 32.777344 30.757812 C 32.433594 29.933594 31.960938 29.101562 31.554688 28.277344 C 31.273438 27.648438 30.828125 26.917969 30.910156 26.261719 C 31.035156 25.179688 31.519531 24.199219 31.835938 23.183594 C 31.980469 22.726562 32.222656 22.304688 32.332031 21.8125 C 32.96875 19.78125 31.855469 18.289062 30.773438 16.828125 Z M 23.589844 16.234375 C 25.261719 14.945312 27.117188 14.378906 29.273438 14.867188 C 29.898438 14.976562 30.449219 15.148438 31 15.453125 C 32.65625 16.492188 33.539062 17.953125 33.660156 19.828125 C 33.703125 20.746094 33.351562 21.664062 33.101562 22.546875 C 32.816406 23.527344 32.335938 24.441406 32.050781 25.421875 C 31.765625 26.339844 31.875 27.261719 32.347656 28.089844 C 32.914062 29.148438 33.679688 30.078125 34.050781 31.203125 C 34.476562 32.523438 34.707031 33.972656 33.65625 35.242188 C 33.589844 35.304688 33.554688 35.402344 33.519531 35.5 C 33.160156 36.875 32.246094 37.882812 31.300781 38.855469 C 30.597656 39.597656 29.632812 39.949219 28.613281 40.097656 C 27.984375 40.1875 27.386719 40.507812 26.761719 40.46875 C 25.582031 40.382812 24.402344 40.171875 23.433594 39.367188 C 22.4375 38.535156 21.800781 37.539062 21.503906 36.285156 C 21.382812 35.824219 21.128906 35.359375 21.011719 34.898438 C 20.433594 32.949219 20.964844 31.214844 21.925781 29.523438 C 22.304688 28.835938 22.484375 28.082031 22.734375 27.332031 C 22.804688 27.136719 22.710938 26.835938 22.585938 26.636719 C 22.210938 25.84375 21.703125 25.046875 21.425781 24.222656 C 21.214844 23.53125 21.199219 22.773438 21.085938 22.050781 C 21.023438 21.785156 21.0625 21.492188 21.003906 21.226562 C 20.707031 19.910156 21.453125 18.929688 22.167969 17.925781 C 22.671875 17.371094 23.113281 16.820312 23.589844 16.234375 " fill-opacity="1" fill-rule="nonzero"/></g></g></g></g></g><g clip-path="url(#id7)"><g clip-path="url(#id8)"><g clip-path="url(#id9)"><path fill="#919191" d="M 30.839844 30.632812 C 31.191406 32.476562 31.3125 34.285156 30.542969 36.183594 C 30.941406 36.1875 31.300781 36.160156 31.628906 36.164062 C 31.582031 36.785156 30.953125 37.007812 30.402344 36.707031 C 29.796875 37.222656 29.191406 37.738281 28.589844 38.257812 C 28.558594 38.222656 28.558594 38.222656 28.527344 38.191406 C 28.628906 38.027344 28.730469 37.863281 28.832031 37.703125 C 28.800781 37.667969 28.765625 37.636719 28.734375 37.601562 C 28.601562 37.667969 28.46875 37.796875 28.234375 37.957031 C 28.578125 37.371094 28.882812 36.882812 29.160156 36.359375 C 28.042969 36.34375 28.011719 36.3125 28.125 35.621094 C 28.910156 35.832031 29.671875 35.609375 30.503906 35.195312 C 31.09375 33.855469 30.804688 32.207031 30.839844 30.632812 " fill-opacity="1" fill-rule="nonzero"/></g></g></g><g clip-path="url(#id10)"><g clip-path="url(#id11)"><g clip-path="url(#id12)"><path fill="#919191" d="M 23.328125 35.488281 C 23.972656 34.609375 23.3125 33.515625 23.496094 32.566406 C 23.136719 32.464844 22.808594 32.457031 22.550781 32.324219 C 22.417969 32.253906 22.394531 31.957031 22.273438 31.5625 C 22.53125 31.699219 22.628906 31.730469 22.726562 31.769531 C 23.214844 32.070312 23.609375 31.945312 23.789062 31.386719 C 23.820312 31.355469 23.789062 31.324219 23.824219 31.289062 C 23.960938 31.09375 24.0625 30.867188 24.265625 30.671875 C 24.226562 30.96875 24.152344 31.292969 24.113281 31.589844 C 24.035156 32.113281 23.957031 32.636719 24.007812 33.164062 C 24.054688 33.957031 24.203125 34.777344 24.246094 35.566406 C 24.324219 36.523438 25.03125 37.125 25.609375 37.789062 C 25.574219 37.886719 25.570312 38.019531 25.570312 38.082031 C 25.4375 38.015625 25.34375 37.917969 25.277344 37.847656 C 24.894531 37.449219 24.539062 37.082031 24.191406 36.652344 C 24.03125 36.484375 24.035156 36.222656 23.941406 36.054688 C 23.78125 35.890625 23.554688 35.722656 23.328125 35.488281 " fill-opacity="1" fill-rule="nonzero"/></g></g></g><g clip-path="url(#id13)"><g clip-path="url(#id14)"><g clip-path="url(#id15)"><path fill="#919191" d="M 30.066406 24.507812 C 30.320312 23.492188 30.671875 22.511719 30.761719 21.527344 C 30.894531 19.984375 30.503906 18.566406 29.546875 17.304688 C 29.449219 17.203125 29.417969 17.039062 29.421875 16.910156 C 29.425781 16.84375 29.59375 16.746094 29.59375 16.746094 C 29.722656 16.8125 29.882812 16.914062 29.945312 17.046875 C 30.226562 17.742188 30.773438 18.242188 30.851562 19.066406 C 30.875 19.425781 31.226562 19.792969 31.382812 20.15625 C 31.570312 20.683594 31.6875 21.210938 31.445312 21.765625 C 31.304688 22.09375 31.199219 22.457031 31.15625 22.816406 C 30.972656 23.632812 30.972656 23.632812 30.066406 24.507812 " fill-opacity="1" fill-rule="nonzero"/></g></g></g><g clip-path="url(#id16)"><g clip-path="url(#id17)"><g clip-path="url(#id18)"><path fill="#919191" d="M 26.542969 20.515625 C 25.527344 20.335938 25.402344 20.203125 25.644531 19.582031 C 25.90625 19.71875 26.132812 19.886719 26.453125 20.085938 C 26.605469 19.367188 26.75 18.710938 26.867188 18.023438 C 26.960938 18.058594 27.027344 18.058594 27.160156 18.058594 C 26.417969 20.316406 27.316406 22.597656 26.996094 24.894531 C 26.574219 23.441406 26.539062 21.996094 26.542969 20.515625 " fill-opacity="1" fill-rule="nonzero"/></g></g></g><g clip-path="url(#id19)"><g clip-path="url(#id20)"><g clip-path="url(#id21)"><path fill="#919191" d="M 25.070312 25.851562 C 24.820312 25.320312 24.535156 24.761719 24.285156 24.230469 C 24.222656 24.097656 24.195312 23.933594 24.097656 23.832031 C 23.496094 22.871094 23.554688 21.789062 23.679688 20.707031 C 23.722656 20.214844 24.03125 19.789062 24.238281 19.265625 C 24.523438 19.765625 24.523438 19.765625 24.285156 20.125 C 23.773438 20.9375 23.816406 21.792969 24.128906 22.585938 C 24.4375 23.445312 24.945312 24.238281 25.320312 25.097656 C 25.378906 25.296875 25.371094 25.5625 25.398438 25.789062 C 25.269531 25.789062 25.167969 25.820312 25.070312 25.851562 " fill-opacity="1" fill-rule="nonzero"/></g></g></g><g clip-path="url(#id22)"><g clip-path="url(#id23)"><g clip-path="url(#id24)"><path fill="#919191" d="M 27.214844 36.628906 C 27.09375 34.820312 26.90625 33.007812 26.785156 31.199219 C 26.851562 31.199219 26.949219 31.167969 27.046875 31.203125 C 27.167969 33.011719 27.421875 34.824219 27.511719 36.597656 C 27.378906 36.597656 27.28125 36.628906 27.214844 36.628906 " fill-opacity="1" fill-rule="nonzero"/></g></g></g><g clip-path="url(#id25)"><g clip-path="url(#id26)"><g clip-path="url(#id27)"><path fill="#919191" d="M 24.957031 34.757812 C 25.472656 35.15625 25.933594 35.097656 26.40625 34.710938 C 26.6875 35.273438 26.285156 35.597656 25.097656 35.710938 C 25.007812 35.414062 24.917969 35.117188 24.824219 34.820312 C 24.824219 34.820312 24.925781 34.789062 24.957031 34.757812 " fill-opacity="1" fill-rule="nonzero"/></g></g></g><g clip-path="url(#id28)"><g clip-path="url(#id29)"><g clip-path="url(#id30)"><path fill="#919191" d="M 25 32.980469 C 25.328125 33.117188 25.683594 33.222656 25.976562 33.390625 C 26.007812 33.425781 26.035156 33.71875 25.933594 33.816406 C 25.832031 33.914062 25.632812 33.976562 25.5 34.039062 C 25.3125 33.710938 24.65625 33.632812 25 32.980469 " fill-opacity="1" fill-rule="nonzero"/></g></g></g><g clip-path="url(#id31)"><g clip-path="url(#id32)"><g clip-path="url(#id33)"><path fill="#919191" d="M 28.378906 31.910156 C 28.839844 31.851562 29.269531 31.761719 29.699219 31.734375 C 29.652344 32.160156 29.183594 32.550781 28.757812 32.507812 C 28.460938 32.472656 28.367188 32.304688 28.378906 31.910156 " fill-opacity="1" fill-rule="nonzero"/></g></g></g><g clip-path="url(#id34)"><g clip-path="url(#id35)"><g clip-path="url(#id36)"><path fill="#919191" d="M 29.359375 20.949219 C 29.21875 21.472656 28.882812 21.730469 28.222656 21.722656 C 28.230469 21.523438 28.203125 21.292969 28.207031 21.03125 C 28.636719 21.003906 28.996094 20.976562 29.359375 20.949219 " fill-opacity="1" fill-rule="nonzero"/></g></g></g><g clip-path="url(#id37)"><g clip-path="url(#id38)"><g clip-path="url(#id39)"><path fill="#919191" d="M 28.460938 33.886719 C 28.957031 33.859375 29.316406 33.832031 29.746094 33.804688 C 29.675781 33.933594 29.605469 34.195312 29.4375 34.292969 C 29.207031 34.386719 28.875 34.449219 28.613281 34.378906 C 28.550781 34.316406 28.527344 33.953125 28.460938 33.886719 " fill-opacity="1" fill-rule="nonzero"/></g></g></g><g clip-path="url(#id40)"><g clip-path="url(#id41)"><g clip-path="url(#id42)"><path fill="#919191" d="M 29.476562 22.953125 C 29.402344 23.347656 28.964844 23.703125 28.574219 23.566406 C 28.414062 23.46875 28.355469 23.136719 28.261719 22.90625 C 28.753906 22.878906 29.117188 22.917969 29.476562 22.953125 " fill-opacity="1" fill-rule="nonzero"/></g></g></g><g clip-path="url(#id43)"><g clip-path="url(#id44)"><g clip-path="url(#id45)"><path fill="#919191" d="M 25.148438 30.914062 C 25.632812 31.28125 25.632812 31.28125 26.230469 31.027344 C 26.125 31.257812 26.054688 31.519531 25.917969 31.648438 C 25.75 31.742188 25.457031 31.773438 25.292969 31.671875 C 25.097656 31.535156 25.074219 31.242188 24.914062 31.011719 C 25.011719 30.976562 25.113281 30.945312 25.148438 30.914062 " fill-opacity="1" fill-rule="nonzero"/></g></g></g><g clip-path="url(#id46)"><g clip-path="url(#id47)"><g clip-path="url(#id48)"><path fill="#919191" d="M 25.371094 36.667969 C 26 36.578125 26.394531 36.519531 26.789062 36.523438 C 26.683594 36.949219 26.277344 37.273438 25.824219 37.136719 C 25.625 37.066406 25.535156 36.835938 25.371094 36.667969 " fill-opacity="1" fill-rule="nonzero"/></g></g></g><g clip-path="url(#id49)"><g clip-path="url(#id50)"><g clip-path="url(#id51)"><path fill="#919191" d="M 22.265625 33.304688 C 22.492188 33.40625 22.6875 33.476562 22.914062 33.578125 C 23.042969 33.644531 23.105469 33.777344 23.203125 33.875 C 23.035156 33.972656 22.933594 34.136719 22.769531 34.167969 C 22.375 34.160156 22.183594 33.832031 22.265625 33.304688 " fill-opacity="1" fill-rule="nonzero"/></g></g></g><g clip-path="url(#id52)"><g clip-path="url(#id53)"><g clip-path="url(#id54)"><path fill="#919191" d="M 30.039062 28.320312 C 30.160156 28.847656 30.839844 29.21875 30.363281 30 C 30.148438 29.371094 29.664062 28.941406 30.039062 28.320312 " fill-opacity="1" fill-rule="nonzero"/></g></g></g><g clip-path="url(#id55)"><g clip-path="url(#id56)"><g clip-path="url(#id57)"><path fill="#919191" d="M 32.496094 34.238281 C 32.523438 34.53125 32.117188 35.054688 31.789062 35.050781 C 31.394531 35.042969 31.363281 34.8125 31.40625 34.515625 C 31.800781 34.390625 32.132812 34.332031 32.496094 34.238281 " fill-opacity="1" fill-rule="nonzero"/></g></g></g><g clip-path="url(#id58)"><g clip-path="url(#id59)"><g clip-path="url(#id60)"><path fill="#919191" d="M 23.160156 30.195312 C 23.523438 30.035156 23.789062 29.910156 24.085938 29.8125 C 24.183594 30.046875 24.109375 30.308594 23.808594 30.535156 C 23.707031 30.632812 23.441406 30.691406 23.410156 30.660156 C 23.25 30.492188 23.191406 30.296875 23.160156 30.195312 " fill-opacity="1" fill-rule="nonzero"/></g></g></g><g clip-path="url(#id61)"><g clip-path="url(#id62)"><g clip-path="url(#id63)"><path fill="#919191" d="M 24.613281 29.886719 C 24.5625 29.164062 24.773438 28.640625 24.921875 27.984375 C 25.238281 28.449219 25.121094 29.269531 24.613281 29.886719 " fill-opacity="1" fill-rule="nonzero"/></g></g></g><g clip-path="url(#id64)"><g clip-path="url(#id65)"><g clip-path="url(#id66)"><path fill="#919191" d="M 25.054688 20.921875 C 25.347656 21.023438 25.574219 21.128906 25.800781 21.230469 C 25.902344 21.261719 25.996094 21.429688 26.058594 21.496094 C 25.925781 21.558594 25.824219 21.65625 25.695312 21.652344 C 25.265625 21.683594 24.910156 21.511719 25.054688 20.921875 " fill-opacity="1" fill-rule="nonzero"/></g></g></g><g clip-path="url(#id67)"><g clip-path="url(#id68)"><g clip-path="url(#id69)"><path fill="#919191" d="M 23.089844 21.980469 C 22.699219 21.777344 22.246094 21.574219 22.523438 20.984375 C 23.011719 21.15625 23.230469 21.585938 23.089844 21.980469 " fill-opacity="1" fill-rule="nonzero"/></g></g></g><g clip-path="url(#id70)"><g clip-path="url(#id71)"><g clip-path="url(#id72)"><path fill="#919191" d="M 26.753906 29.6875 C 26.765625 29.226562 26.808594 28.734375 26.820312 28.277344 C 26.886719 28.277344 26.949219 28.277344 27.019531 28.277344 C 27.007812 28.738281 27.027344 29.230469 27.015625 29.691406 C 26.949219 29.691406 26.855469 29.65625 26.753906 29.6875 " fill-opacity="1" fill-rule="nonzero"/></g></g></g><g clip-path="url(#id73)"><g clip-path="url(#id74)"><g clip-path="url(#id75)"><path fill="#919191" d="M 32.660156 31.445312 C 32.714844 32.039062 32.316406 32.097656 31.953125 32.257812 C 31.890625 32.0625 31.859375 31.960938 31.800781 31.761719 C 32.097656 31.667969 32.328125 31.574219 32.660156 31.445312 " fill-opacity="1" fill-rule="nonzero"/></g></g></g><g clip-path="url(#id76)"><g clip-path="url(#id77)"><g clip-path="url(#id78)"><path fill="#919191" d="M 29.351562 26.800781 C 29.28125 26.996094 29.277344 27.191406 29.210938 27.191406 C 29.011719 27.253906 28.816406 27.253906 28.585938 27.28125 C 28.589844 27.152344 28.5625 26.851562 28.628906 26.855469 C 28.828125 26.792969 29.058594 26.828125 29.351562 26.800781 " fill-opacity="1" fill-rule="nonzero"/></g></g></g><g clip-path="url(#id79)"><g clip-path="url(#id80)"><g clip-path="url(#id81)"><path fill="#919191" d="M 26.582031 30.046875 C 26.378906 30.242188 26.246094 30.371094 26.140625 30.53125 C 26.015625 30.398438 25.886719 30.265625 25.757812 30.132812 C 25.792969 30.101562 25.824219 30.003906 25.859375 29.96875 C 26.054688 29.972656 26.21875 30.007812 26.582031 30.046875 " fill-opacity="1" fill-rule="nonzero"/></g></g></g><g clip-path="url(#id82)"><path fill="#919191" d="M 75.371094 50.171875 C 69.53125 50.171875 64.027344 47.898438 59.902344 43.761719 C 55.761719 39.632812 53.488281 34.128906 53.488281 28.289062 C 53.488281 22.445312 55.761719 16.945312 59.902344 12.816406 C 64.027344 8.679688 69.53125 6.40625 75.371094 6.40625 C 81.214844 6.40625 86.714844 8.679688 90.84375 12.816406 C 94.980469 16.953125 97.257812 22.445312 97.257812 28.289062 C 97.257812 34.128906 94.980469 39.632812 90.84375 43.761719 C 86.714844 47.898438 81.214844 50.171875 75.371094 50.171875 Z M 75.371094 7.714844 C 69.878906 7.714844 64.710938 9.859375 60.828125 13.742188 C 56.945312 17.625 54.800781 22.796875 54.800781 28.289062 C 54.800781 33.78125 56.945312 38.949219 60.828125 42.832031 C 64.710938 46.714844 69.878906 48.859375 75.371094 48.859375 C 80.867188 48.859375 86.035156 46.714844 89.917969 42.832031 C 93.800781 38.949219 95.945312 33.78125 95.945312 28.289062 C 95.945312 22.796875 93.800781 17.625 89.917969 13.742188 C 86.035156 9.859375 80.867188 7.714844 75.371094 7.714844 Z M 75.371094 7.714844 " fill-opacity="1" fill-rule="nonzero"/></g><g clip-path="url(#id83)"><path fill="#ffffff" d="M 81.410156 23.753906 C 81.410156 23.753906 74.027344 23.421875 75.464844 29.71875 C 81.742188 31.160156 81.410156 23.753906 81.410156 23.753906 " fill-opacity="1" fill-rule="nonzero"/></g><path fill="#ffffff" d="M 69.152344 23.753906 C 69.152344 23.753906 76.53125 23.421875 75.09375 29.71875 C 68.820312 31.160156 69.152344 23.753906 69.152344 23.753906 " fill-opacity="1" fill-rule="nonzero"/><g clip-path="url(#id84)"><path fill="#ffffff" d="M 81.410156 29.90625 C 81.410156 29.90625 74.027344 29.578125 75.464844 35.871094 C 81.742188 37.316406 81.410156 29.90625 81.410156 29.90625 " fill-opacity="1" fill-rule="nonzero"/></g><path fill="#ffffff" d="M 69.152344 29.90625 C 69.152344 29.90625 76.53125 29.578125 75.09375 35.871094 C 68.820312 37.316406 69.152344 29.90625 69.152344 29.90625 " fill-opacity="1" fill-rule="nonzero"/><g clip-path="url(#id85)"><path fill="#ffffff" d="M 75.28125 16.832031 C 75.28125 16.832031 69.828125 21.835938 75.28125 25.265625 C 80.734375 21.835938 75.28125 16.832031 75.28125 16.832031 " fill-opacity="1" fill-rule="nonzero"/></g><g clip-path="url(#id86)"><path fill="#919191" d="M 77.152344 21.628906 C 77.152344 21.710938 77.144531 21.796875 77.140625 21.878906 C 77.140625 21.894531 77.132812 21.941406 77.132812 21.957031 C 77.128906 21.988281 77.125 22.015625 77.117188 22.042969 C 77.085938 22.234375 77.035156 22.425781 76.972656 22.609375 C 76.691406 23.402344 76.015625 24.085938 75.28125 24.601562 C 74.609375 24.136719 74.027344 23.5625 73.671875 22.816406 C 73.40625 22.257812 73.355469 21.511719 73.457031 20.949219 C 73.519531 20.609375 73.621094 20.28125 73.746094 19.957031 C 73.753906 19.945312 73.757812 19.933594 73.757812 19.925781 C 73.761719 19.921875 73.761719 19.917969 73.761719 19.917969 C 73.78125 19.875 73.796875 19.835938 73.816406 19.792969 C 73.847656 19.730469 73.875 19.664062 73.90625 19.601562 C 73.984375 19.445312 74.066406 19.292969 74.15625 19.144531 C 74.308594 18.875 74.480469 18.617188 74.660156 18.371094 C 74.699219 18.316406 74.738281 18.265625 74.777344 18.210938 C 74.78125 18.207031 74.785156 18.207031 74.789062 18.199219 C 74.804688 18.179688 74.820312 18.15625 74.839844 18.136719 C 74.917969 18.035156 75 17.933594 75.085938 17.835938 C 75.148438 17.765625 75.214844 17.691406 75.28125 17.617188 C 75.308594 17.648438 75.335938 17.679688 75.363281 17.707031 C 75.433594 17.789062 75.503906 17.867188 75.570312 17.949219 C 75.613281 18 75.65625 18.050781 75.695312 18.105469 C 75.714844 18.125 75.777344 18.207031 75.789062 18.222656 C 75.960938 18.449219 76.125 18.683594 76.277344 18.925781 C 76.449219 19.207031 76.609375 19.496094 76.746094 19.792969 C 76.761719 19.835938 76.78125 19.875 76.796875 19.917969 C 76.800781 19.917969 76.800781 19.921875 76.800781 19.925781 C 76.804688 19.933594 76.808594 19.945312 76.816406 19.957031 C 76.839844 20.027344 76.867188 20.09375 76.890625 20.160156 C 76.953125 20.332031 77.003906 20.503906 77.046875 20.683594 C 77.136719 21.046875 77.160156 21.230469 77.152344 21.628906 Z M 78.199219 20.875 C 78 19.472656 77.222656 18.203125 76.324219 17.140625 C 76.121094 16.898438 75.90625 16.65625 75.667969 16.441406 C 75.546875 16.328125 75.410156 16.285156 75.28125 16.289062 C 75.152344 16.285156 75.015625 16.328125 74.890625 16.441406 C 74.242188 17.039062 73.679688 17.78125 73.230469 18.542969 C 72.4375 19.886719 71.984375 21.5625 72.59375 23.070312 C 73.058594 24.230469 73.96875 25.082031 75.003906 25.742188 C 75.164062 25.84375 75.398438 25.84375 75.558594 25.742188 C 76.46875 25.164062 77.332031 24.414062 77.8125 23.429688 C 78.203125 22.625 78.324219 21.753906 78.199219 20.875 " fill-opacity="1" fill-rule="nonzero"/></g><g clip-path="url(#id87)"><path fill="#919191" d="M 80.78125 25.167969 C 80.777344 25.203125 80.773438 25.234375 80.765625 25.269531 C 80.753906 25.347656 80.742188 25.421875 80.730469 25.496094 C 80.703125 25.648438 80.671875 25.800781 80.636719 25.953125 C 80.5625 26.273438 80.46875 26.59375 80.351562 26.902344 C 80.335938 26.945312 80.261719 27.125 80.277344 27.085938 C 80.246094 27.15625 80.214844 27.226562 80.179688 27.296875 C 80.105469 27.453125 80.023438 27.605469 79.929688 27.753906 C 79.886719 27.824219 79.839844 27.894531 79.792969 27.964844 C 79.769531 27.996094 79.746094 28.03125 79.722656 28.066406 C 79.714844 28.074219 79.710938 28.082031 79.707031 28.085938 C 79.703125 28.089844 79.699219 28.09375 79.691406 28.101562 C 79.578125 28.238281 79.464844 28.371094 79.335938 28.492188 C 79.273438 28.550781 79.210938 28.605469 79.144531 28.660156 C 79.132812 28.671875 79.117188 28.683594 79.105469 28.695312 C 79.070312 28.71875 79.035156 28.746094 78.996094 28.769531 C 78.84375 28.875 78.683594 28.96875 78.515625 29.050781 C 78.496094 29.058594 78.472656 29.066406 78.453125 29.078125 C 78.449219 29.078125 78.449219 29.078125 78.445312 29.082031 C 78.398438 29.101562 78.351562 29.117188 78.304688 29.136719 C 78.1875 29.175781 78.074219 29.210938 77.953125 29.242188 C 77.839844 29.269531 77.722656 29.292969 77.605469 29.3125 C 77.589844 29.316406 77.570312 29.320312 77.550781 29.320312 C 77.542969 29.324219 77.53125 29.324219 77.515625 29.324219 C 77.453125 29.332031 77.390625 29.335938 77.324219 29.339844 C 76.832031 29.375 76.386719 29.335938 75.929688 29.25 C 75.859375 28.855469 75.820312 28.480469 75.832031 28.050781 C 75.835938 27.9375 75.84375 27.828125 75.851562 27.714844 C 75.855469 27.699219 75.863281 27.640625 75.863281 27.621094 C 75.871094 27.570312 75.878906 27.519531 75.886719 27.46875 C 75.925781 27.257812 75.984375 27.050781 76.054688 26.851562 C 76.070312 26.804688 76.089844 26.761719 76.105469 26.71875 C 76.105469 26.714844 76.105469 26.714844 76.109375 26.710938 C 76.109375 26.707031 76.117188 26.695312 76.125 26.679688 C 76.167969 26.59375 76.210938 26.503906 76.257812 26.417969 C 76.300781 26.34375 76.347656 26.265625 76.398438 26.195312 C 76.421875 26.15625 76.449219 26.121094 76.472656 26.085938 C 76.480469 26.078125 76.484375 26.070312 76.484375 26.066406 C 76.492188 26.0625 76.496094 26.054688 76.503906 26.042969 C 76.621094 25.910156 76.738281 25.777344 76.871094 25.65625 C 76.929688 25.597656 76.996094 25.546875 77.058594 25.492188 C 77.070312 25.484375 77.082031 25.472656 77.089844 25.464844 C 77.125 25.441406 77.164062 25.414062 77.199219 25.386719 C 77.480469 25.1875 77.785156 25.027344 78.101562 24.882812 C 78.117188 24.878906 78.128906 24.875 78.140625 24.867188 C 78.179688 24.855469 78.214844 24.839844 78.253906 24.824219 C 78.335938 24.792969 78.417969 24.761719 78.5 24.734375 C 78.65625 24.683594 78.816406 24.632812 78.976562 24.59375 C 79.273438 24.511719 79.578125 24.449219 79.882812 24.402344 C 79.933594 24.394531 80.082031 24.375 80.023438 24.382812 C 80.074219 24.375 80.128906 24.367188 80.179688 24.363281 C 80.300781 24.347656 80.425781 24.339844 80.546875 24.328125 C 80.648438 24.320312 80.753906 24.316406 80.855469 24.308594 C 80.851562 24.355469 80.851562 24.402344 80.847656 24.449219 C 80.835938 24.6875 80.808594 24.929688 80.78125 25.167969 Z M 79.085938 28.707031 C 79.085938 28.710938 79.085938 28.710938 79.085938 28.707031 Z M 77.097656 25.460938 C 77.117188 25.445312 77.128906 25.4375 77.097656 25.460938 Z M 81.960938 23.753906 C 81.953125 23.589844 81.886719 23.460938 81.792969 23.375 C 81.703125 23.277344 81.578125 23.207031 81.410156 23.203125 C 80.542969 23.164062 79.636719 23.289062 78.796875 23.5 C 77.277344 23.878906 75.777344 24.734375 75.125 26.226562 C 74.625 27.382812 74.664062 28.652344 74.9375 29.867188 C 74.976562 30.042969 75.140625 30.210938 75.320312 30.25 C 76.375 30.488281 77.511719 30.570312 78.550781 30.214844 C 79.390625 29.929688 80.085938 29.398438 80.621094 28.691406 C 81.476562 27.558594 81.816406 26.09375 81.929688 24.703125 C 81.957031 24.390625 81.972656 24.070312 81.960938 23.753906 " fill-opacity="1" fill-rule="nonzero"/></g><g clip-path="url(#id88)"><path fill="#919191" d="M 80.78125 30.851562 C 80.777344 30.886719 80.773438 30.921875 80.765625 30.953125 C 80.753906 31.03125 80.742188 31.105469 80.730469 31.183594 C 80.703125 31.335938 80.671875 31.488281 80.636719 31.636719 C 80.5625 31.960938 80.46875 32.277344 80.351562 32.585938 C 80.335938 32.632812 80.261719 32.808594 80.277344 32.769531 C 80.246094 32.84375 80.214844 32.914062 80.179688 32.984375 C 80.105469 33.140625 80.023438 33.289062 79.929688 33.4375 C 79.886719 33.507812 79.839844 33.578125 79.792969 33.648438 C 79.769531 33.683594 79.746094 33.714844 79.722656 33.75 C 79.714844 33.757812 79.710938 33.765625 79.707031 33.769531 C 79.703125 33.773438 79.699219 33.78125 79.691406 33.789062 C 79.578125 33.921875 79.464844 34.054688 79.335938 34.175781 C 79.273438 34.234375 79.210938 34.292969 79.144531 34.347656 C 79.132812 34.355469 79.117188 34.367188 79.105469 34.378906 C 79.070312 34.40625 79.035156 34.429688 78.996094 34.457031 C 78.84375 34.5625 78.683594 34.652344 78.515625 34.734375 C 78.496094 34.742188 78.472656 34.753906 78.453125 34.761719 C 78.449219 34.765625 78.449219 34.765625 78.445312 34.765625 C 78.398438 34.785156 78.351562 34.804688 78.304688 34.820312 C 78.1875 34.859375 78.074219 34.894531 77.953125 34.925781 C 77.839844 34.953125 77.722656 34.976562 77.605469 34.996094 C 77.589844 35 77.570312 35.003906 77.550781 35.003906 C 77.542969 35.007812 77.53125 35.007812 77.515625 35.007812 C 77.453125 35.015625 77.390625 35.023438 77.324219 35.027344 C 76.832031 35.058594 76.386719 35.019531 75.929688 34.933594 C 75.859375 34.542969 75.820312 34.164062 75.832031 33.734375 C 75.835938 33.621094 75.84375 33.511719 75.851562 33.398438 C 75.855469 33.382812 75.863281 33.324219 75.863281 33.308594 C 75.871094 33.253906 75.878906 33.203125 75.886719 33.152344 C 75.925781 32.941406 75.984375 32.734375 76.054688 32.535156 C 76.070312 32.488281 76.089844 32.445312 76.105469 32.402344 C 76.105469 32.398438 76.105469 32.398438 76.109375 32.398438 C 76.109375 32.390625 76.117188 32.378906 76.125 32.363281 C 76.167969 32.277344 76.210938 32.1875 76.257812 32.101562 C 76.300781 32.027344 76.347656 31.953125 76.398438 31.878906 C 76.421875 31.84375 76.449219 31.808594 76.472656 31.769531 C 76.480469 31.761719 76.484375 31.753906 76.484375 31.75 C 76.492188 31.746094 76.496094 31.738281 76.503906 31.730469 C 76.621094 31.59375 76.738281 31.460938 76.871094 31.339844 C 76.929688 31.285156 76.996094 31.230469 77.058594 31.175781 C 77.070312 31.167969 77.082031 31.160156 77.089844 31.148438 C 77.125 31.125 77.164062 31.097656 77.199219 31.074219 C 77.480469 30.871094 77.785156 30.710938 78.101562 30.570312 C 78.101562 30.570312 78.101562 30.570312 78.101562 30.566406 C 78.117188 30.5625 78.128906 30.558594 78.140625 30.554688 C 78.179688 30.539062 78.214844 30.523438 78.253906 30.507812 C 78.335938 30.476562 78.417969 30.449219 78.5 30.417969 C 78.65625 30.367188 78.816406 30.320312 78.976562 30.277344 C 79.273438 30.195312 79.578125 30.136719 79.882812 30.085938 C 79.933594 30.078125 80.082031 30.058594 80.023438 30.066406 C 80.074219 30.058594 80.125 30.054688 80.179688 30.046875 C 80.300781 30.035156 80.425781 30.023438 80.546875 30.011719 C 80.648438 30.007812 80.753906 30 80.855469 29.996094 C 80.851562 30.039062 80.851562 30.085938 80.847656 30.132812 C 80.835938 30.375 80.808594 30.613281 80.78125 30.851562 Z M 79.085938 34.394531 Z M 77.097656 31.144531 C 77.117188 31.128906 77.128906 31.121094 77.097656 31.144531 Z M 81.960938 29.4375 C 81.953125 29.273438 81.886719 29.148438 81.792969 29.058594 C 81.703125 28.960938 81.578125 28.894531 81.410156 28.886719 C 80.542969 28.847656 79.636719 28.972656 78.796875 29.183594 C 77.277344 29.5625 75.777344 30.417969 75.125 31.914062 C 74.625 33.070312 74.664062 34.339844 74.9375 35.550781 C 74.976562 35.726562 75.140625 35.894531 75.320312 35.9375 C 76.375 36.171875 77.511719 36.253906 78.550781 35.902344 C 79.390625 35.613281 80.085938 35.082031 80.621094 34.375 C 81.476562 33.242188 81.816406 31.78125 81.929688 30.390625 C 81.957031 30.074219 81.972656 29.753906 81.960938 29.4375 " fill-opacity="1" fill-rule="nonzero"/></g><g clip-path="url(#id89)"><path fill="#919191" d="M 73.433594 29.351562 C 73.320312 29.347656 73.210938 29.339844 73.097656 29.332031 C 73.082031 29.328125 73.023438 29.324219 73.007812 29.320312 C 72.953125 29.3125 72.902344 29.304688 72.851562 29.292969 C 72.644531 29.253906 72.4375 29.199219 72.234375 29.128906 C 72.191406 29.113281 72.148438 29.09375 72.105469 29.078125 C 72.101562 29.074219 72.101562 29.074219 72.101562 29.074219 C 72.09375 29.070312 72.082031 29.066406 72.066406 29.058594 C 71.980469 29.015625 71.890625 28.972656 71.808594 28.921875 C 71.730469 28.878906 71.65625 28.832031 71.582031 28.785156 C 71.546875 28.757812 71.511719 28.734375 71.476562 28.707031 C 71.464844 28.703125 71.460938 28.699219 71.457031 28.695312 C 71.449219 28.691406 71.441406 28.683594 71.433594 28.675781 C 71.296875 28.558594 71.167969 28.441406 71.046875 28.3125 C 70.992188 28.25 70.9375 28.183594 70.882812 28.121094 C 70.875 28.109375 70.863281 28.097656 70.855469 28.085938 C 70.832031 28.050781 70.804688 28.015625 70.78125 27.980469 C 70.582031 27.695312 70.417969 27.390625 70.277344 27.074219 C 70.277344 27.074219 70.277344 27.074219 70.277344 27.070312 C 70.273438 27.058594 70.265625 27.046875 70.261719 27.035156 C 70.246094 26.996094 70.230469 26.960938 70.21875 26.921875 C 70.1875 26.839844 70.15625 26.757812 70.128906 26.671875 C 70.074219 26.515625 70.027344 26.359375 69.988281 26.195312 C 69.90625 25.898438 69.84375 25.59375 69.796875 25.289062 C 69.789062 25.238281 69.769531 25.085938 69.777344 25.148438 C 69.769531 25.09375 69.765625 25.042969 69.757812 24.988281 C 69.746094 24.867188 69.734375 24.742188 69.722656 24.621094 C 69.71875 24.515625 69.710938 24.414062 69.707031 24.3125 C 69.75 24.3125 69.796875 24.316406 69.84375 24.316406 C 70.082031 24.332031 70.320312 24.355469 70.558594 24.382812 C 70.59375 24.390625 70.628906 24.394531 70.660156 24.398438 C 70.738281 24.410156 70.8125 24.425781 70.886719 24.4375 C 71.039062 24.464844 71.191406 24.496094 71.34375 24.53125 C 71.664062 24.605469 71.980469 24.699219 72.289062 24.816406 C 72.332031 24.832031 72.511719 24.910156 72.472656 24.890625 C 72.542969 24.921875 72.613281 24.953125 72.683594 24.988281 C 72.839844 25.0625 72.988281 25.148438 73.136719 25.238281 C 73.207031 25.28125 73.277344 25.328125 73.347656 25.375 C 73.378906 25.398438 73.414062 25.425781 73.449219 25.449219 C 73.457031 25.457031 73.460938 25.460938 73.464844 25.460938 C 73.472656 25.464844 73.476562 25.472656 73.484375 25.476562 C 73.621094 25.589844 73.75 25.707031 73.871094 25.835938 C 73.929688 25.898438 73.988281 25.960938 74.042969 26.027344 C 74.050781 26.039062 74.066406 26.054688 74.074219 26.066406 C 74.101562 26.101562 74.125 26.140625 74.152344 26.175781 C 74.257812 26.328125 74.347656 26.492188 74.429688 26.660156 C 74.4375 26.679688 74.445312 26.699219 74.457031 26.722656 C 74.457031 26.722656 74.457031 26.726562 74.460938 26.726562 C 74.480469 26.777344 74.496094 26.824219 74.515625 26.871094 C 74.554688 26.988281 74.589844 27.101562 74.617188 27.222656 C 74.648438 27.335938 74.671875 27.453125 74.691406 27.570312 C 74.695312 27.589844 74.695312 27.609375 74.699219 27.625 C 74.699219 27.636719 74.703125 27.648438 74.703125 27.660156 C 74.707031 27.726562 74.714844 27.789062 74.71875 27.851562 C 74.753906 28.347656 74.714844 28.792969 74.628906 29.25 C 74.238281 29.324219 73.863281 29.363281 73.433594 29.351562 Z M 70.851562 28.082031 C 70.835938 28.0625 70.828125 28.050781 70.851562 28.082031 Z M 74.089844 26.085938 Z M 75.589844 26.625 C 75.304688 25.777344 74.773438 25.082031 74.070312 24.546875 C 72.941406 23.6875 71.484375 23.34375 70.097656 23.230469 C 69.785156 23.207031 69.464844 23.1875 69.152344 23.203125 C 68.988281 23.207031 68.859375 23.273438 68.773438 23.371094 C 68.675781 23.457031 68.609375 23.585938 68.601562 23.753906 C 68.5625 24.625 68.6875 25.535156 68.894531 26.378906 C 69.277344 27.898438 70.125 29.40625 71.617188 30.058594 C 72.769531 30.5625 74.035156 30.523438 75.242188 30.25 C 75.417969 30.210938 75.585938 30.042969 75.625 29.867188 C 75.863281 28.808594 75.945312 27.664062 75.589844 26.625 " fill-opacity="1" fill-rule="nonzero"/></g><g clip-path="url(#id90)"><path fill="#919191" d="M 73.433594 35.035156 C 73.320312 35.03125 73.210938 35.023438 73.097656 35.015625 C 73.082031 35.011719 73.023438 35.007812 73.007812 35.003906 C 72.953125 34.996094 72.902344 34.988281 72.851562 34.980469 C 72.644531 34.941406 72.4375 34.886719 72.234375 34.8125 C 72.191406 34.796875 72.148438 34.777344 72.105469 34.761719 C 72.101562 34.761719 72.101562 34.761719 72.101562 34.761719 C 72.09375 34.757812 72.082031 34.75 72.066406 34.742188 C 71.980469 34.699219 71.890625 34.65625 71.808594 34.609375 C 71.730469 34.5625 71.65625 34.519531 71.582031 34.46875 C 71.546875 34.445312 71.511719 34.417969 71.476562 34.394531 C 71.464844 34.386719 71.460938 34.382812 71.457031 34.378906 C 71.449219 34.375 71.441406 34.367188 71.433594 34.359375 C 71.296875 34.246094 71.167969 34.125 71.046875 33.996094 C 70.992188 33.933594 70.9375 33.871094 70.882812 33.804688 C 70.875 33.792969 70.863281 33.78125 70.855469 33.773438 C 70.832031 33.738281 70.804688 33.703125 70.78125 33.664062 C 70.582031 33.378906 70.417969 33.074219 70.277344 32.757812 C 70.273438 32.746094 70.265625 32.730469 70.261719 32.71875 C 70.246094 32.683594 70.230469 32.644531 70.21875 32.605469 C 70.1875 32.523438 70.15625 32.441406 70.128906 32.359375 C 70.074219 32.199219 70.027344 32.042969 69.988281 31.882812 C 69.90625 31.582031 69.84375 31.277344 69.796875 30.972656 C 69.789062 30.921875 69.769531 30.773438 69.777344 30.832031 C 69.769531 30.777344 69.765625 30.726562 69.757812 30.671875 C 69.746094 30.550781 69.734375 30.429688 69.722656 30.304688 C 69.71875 30.203125 69.710938 30.097656 69.707031 29.996094 C 69.75 29.996094 69.796875 30 69.84375 30.003906 C 70.082031 30.015625 70.320312 30.042969 70.558594 30.070312 C 70.59375 30.074219 70.628906 30.078125 70.660156 30.085938 C 70.738281 30.097656 70.8125 30.109375 70.886719 30.121094 C 71.039062 30.148438 71.191406 30.179688 71.34375 30.214844 C 71.664062 30.292969 71.980469 30.382812 72.289062 30.5 C 72.332031 30.519531 72.511719 30.59375 72.472656 30.574219 C 72.542969 30.605469 72.613281 30.640625 72.683594 30.671875 C 72.839844 30.75 72.988281 30.832031 73.136719 30.921875 C 73.207031 30.96875 73.277344 31.011719 73.347656 31.058594 C 73.378906 31.085938 73.414062 31.109375 73.449219 31.132812 C 73.457031 31.140625 73.460938 31.144531 73.464844 31.144531 C 73.472656 31.152344 73.476562 31.15625 73.484375 31.164062 C 73.621094 31.277344 73.75 31.390625 73.871094 31.519531 C 73.929688 31.582031 73.988281 31.648438 74.042969 31.710938 C 74.050781 31.722656 74.066406 31.738281 74.074219 31.75 C 74.101562 31.789062 74.125 31.824219 74.152344 31.859375 C 74.257812 32.015625 74.347656 32.175781 74.429688 32.34375 C 74.4375 32.363281 74.445312 32.386719 74.457031 32.40625 C 74.457031 32.410156 74.457031 32.410156 74.460938 32.414062 C 74.480469 32.460938 74.496094 32.507812 74.515625 32.554688 C 74.554688 32.671875 74.589844 32.789062 74.617188 32.90625 C 74.648438 33.023438 74.671875 33.136719 74.691406 33.253906 C 74.695312 33.273438 74.695312 33.292969 74.699219 33.3125 C 74.699219 33.320312 74.703125 33.332031 74.703125 33.347656 C 74.707031 33.410156 74.714844 33.472656 74.71875 33.539062 C 74.753906 34.03125 74.714844 34.480469 74.628906 34.9375 C 74.238281 35.007812 73.863281 35.046875 73.433594 35.035156 Z M 70.851562 33.765625 C 70.835938 33.746094 70.828125 33.734375 70.851562 33.765625 Z M 74.089844 31.773438 Z M 75.589844 32.308594 C 75.304688 31.464844 74.773438 30.765625 74.070312 30.230469 C 72.941406 29.375 71.484375 29.03125 70.097656 28.914062 C 69.785156 28.890625 69.464844 28.871094 69.152344 28.886719 C 68.988281 28.894531 68.859375 28.960938 68.773438 29.054688 C 68.675781 29.144531 68.609375 29.269531 68.601562 29.4375 C 68.5625 30.308594 68.6875 31.21875 68.894531 32.0625 C 69.277344 33.585938 70.125 35.09375 71.617188 35.742188 C 72.769531 36.25 74.035156 36.207031 75.242188 35.9375 C 75.417969 35.894531 75.585938 35.726562 75.625 35.550781 C 75.863281 34.492188 75.945312 33.351562 75.589844 32.308594 " fill-opacity="1" fill-rule="nonzero"/></g><g clip-path="url(#id91)"><path fill="#919191" d="M 74.730469 25.265625 C 74.730469 27.128906 74.730469 28.992188 74.730469 30.855469 C 74.730469 33.796875 74.730469 36.742188 74.730469 39.6875 C 74.730469 40.363281 74.730469 41.035156 74.730469 41.710938 C 74.730469 42.421875 75.832031 42.421875 75.832031 41.710938 C 75.832031 39.847656 75.832031 37.984375 75.832031 36.125 C 75.832031 33.179688 75.832031 30.234375 75.832031 27.292969 C 75.832031 26.617188 75.832031 25.941406 75.832031 25.265625 C 75.832031 24.554688 74.730469 24.554688 74.730469 25.265625 " fill-opacity="1" fill-rule="nonzero"/></g><g clip-path="url(#id92)"><path fill="#919191" d="M 122.910156 49.488281 C 117.066406 49.488281 111.566406 47.214844 107.4375 43.078125 C 103.300781 38.949219 101.027344 33.449219 101.027344 27.605469 C 101.027344 21.761719 103.300781 16.261719 107.4375 12.132812 C 111.566406 7.996094 117.066406 5.722656 122.910156 5.722656 C 128.75 5.722656 134.253906 7.996094 138.378906 12.132812 C 142.519531 16.269531 144.792969 21.761719 144.792969 27.605469 C 144.792969 33.449219 142.519531 38.949219 138.378906 43.078125 C 134.253906 47.214844 128.75 49.488281 122.910156 49.488281 Z M 122.910156 7.035156 C 117.414062 7.035156 112.246094 9.175781 108.363281 13.0625 C 104.480469 16.945312 102.335938 22.113281 102.335938 27.605469 C 102.335938 33.097656 104.480469 38.265625 108.363281 42.152344 C 112.246094 46.035156 117.414062 48.175781 122.910156 48.175781 C 128.402344 48.175781 133.570312 46.035156 137.453125 42.152344 C 141.335938 38.265625 143.480469 33.097656 143.480469 27.605469 C 143.480469 22.113281 141.335938 16.945312 137.453125 13.0625 C 133.570312 9.175781 128.402344 7.035156 122.910156 7.035156 Z M 122.910156 7.035156 " fill-opacity="1" fill-rule="nonzero"/></g><g clip-path="url(#id93)"><path fill="#919191" d="M 126.441406 14.703125 C 126.644531 14.664062 127.539062 14.570312 127.753906 14.332031 C 127.511719 14.058594 126.398438 13.953125 126.167969 13.921875 C 125.179688 13.789062 124.175781 13.730469 123.179688 13.738281 C 122.183594 13.746094 121.175781 13.765625 120.191406 13.921875 C 120.003906 13.953125 118.71875 14.378906 118.652344 14.347656 C 120.042969 15.054688 122.050781 14.960938 123.5625 14.929688 C 124.523438 14.90625 125.496094 14.875 126.441406 14.703125 Z M 127.308594 17.097656 C 127.34375 17.011719 127.363281 16.925781 127.367188 16.835938 C 127.101562 16.886719 126.832031 16.90625 126.636719 16.921875 C 125.800781 16.984375 124.96875 16.9375 124.132812 16.9375 C 122.472656 16.941406 120.695312 17.042969 119.070312 16.648438 C 119.058594 16.644531 119.050781 16.640625 119.042969 16.640625 C 119.015625 16.78125 118.988281 16.957031 119.011719 17.085938 C 119.476562 17.582031 120.660156 17.722656 121.242188 17.808594 C 122.074219 17.9375 122.902344 17.902344 123.738281 17.90625 C 124.589844 17.910156 126.792969 18.039062 127.308594 17.097656 Z M 127.6875 40.496094 C 127.546875 40.546875 127.410156 40.59375 127.269531 40.640625 C 126 41.03125 124.695312 41.121094 123.371094 41.117188 C 122.128906 41.109375 120.878906 41.097656 119.664062 40.785156 C 119.34375 40.699219 119.070312 40.582031 118.808594 40.4375 C 119.878906 41.222656 121.324219 41.535156 122.675781 41.570312 C 124.105469 41.609375 126.410156 41.523438 127.6875 40.496094 Z M 126.332031 23.808594 C 127.011719 23.679688 128.089844 23.554688 128.6875 23.121094 C 127.9375 22.535156 126.492188 22.574219 125.625 22.535156 C 124.65625 22.488281 123.6875 22.488281 122.71875 22.484375 C 121.070312 22.480469 119.160156 22.222656 117.773438 23.28125 C 119.414062 24.1875 121.257812 24.277344 123.113281 24.25 C 124.199219 24.234375 125.269531 24.007812 126.332031 23.808594 Z M 127.882812 15.632812 C 127.914062 15.410156 127.96875 15.152344 127.964844 14.90625 C 127.617188 15.097656 127.144531 15.179688 126.855469 15.230469 C 125.523438 15.472656 124.152344 15.554688 122.796875 15.527344 C 122.257812 15.515625 119.753906 15.59375 118.578125 15.050781 C 118.578125 15.523438 118.695312 15.980469 119.230469 16.070312 C 119.742188 16.15625 120.261719 16.234375 120.78125 16.269531 C 121.773438 16.339844 122.765625 16.34375 123.757812 16.34375 C 124.707031 16.339844 125.6875 16.441406 126.636719 16.324219 C 127.074219 16.269531 127.789062 16.21875 127.882812 15.632812 Z M 127.070312 22.363281 C 127.566406 22.425781 128.175781 22.5 128.648438 22.75 C 128.296875 21.070312 127.726562 19.457031 127.011719 17.847656 C 127.003906 17.835938 127 17.816406 126.992188 17.800781 C 126.167969 18.242188 124.84375 18.210938 124.117188 18.207031 C 122.894531 18.203125 121.679688 18.261719 120.484375 17.964844 C 120.117188 17.875 119.675781 17.792969 119.296875 17.625 C 119.167969 18.613281 118.722656 19.601562 118.433594 20.554688 C 118.195312 21.347656 117.945312 22.132812 117.746094 22.933594 C 119.273438 21.898438 121.3125 22.183594 123.082031 22.1875 C 124.414062 22.1875 125.746094 22.199219 127.070312 22.363281 Z M 128.90625 34.089844 C 128.964844 31.265625 129.160156 28.429688 129.023438 25.609375 C 128.984375 24.863281 128.902344 24.136719 128.777344 23.417969 C 128.121094 23.832031 127.117188 23.964844 126.414062 24.097656 C 125.328125 24.296875 124.222656 24.558594 123.113281 24.546875 C 121.175781 24.527344 119.324219 24.484375 117.609375 23.53125 C 117.5625 23.769531 117.515625 24.007812 117.476562 24.25 C 117.082031 26.917969 117.144531 29.617188 117.167969 32.308594 C 117.183594 34.347656 116.75 36.75 117.484375 38.703125 C 117.566406 38.925781 117.671875 39.132812 117.789062 39.324219 C 118.496094 39.898438 119.109375 40.382812 120.058594 40.566406 C 121.046875 40.757812 122.015625 40.8125 123.019531 40.816406 C 124.058594 40.820312 125.136719 40.835938 126.164062 40.617188 C 126.742188 40.496094 127.664062 40.332031 128.234375 39.898438 C 128.246094 39.878906 128.265625 39.863281 128.277344 39.839844 C 129.28125 38.167969 128.867188 35.949219 128.90625 34.089844 Z M 129.652344 26.761719 C 129.691406 29.769531 129.4375 32.777344 129.507812 35.785156 C 129.546875 37.578125 129.597656 39.613281 128.121094 40.890625 C 126.785156 42.050781 124.359375 42.253906 122.675781 42.167969 C 120.816406 42.074219 118.820312 41.621094 117.582031 40.132812 C 116.242188 38.53125 116.507812 36.039062 116.558594 34.109375 C 116.632812 31.265625 116.417969 28.410156 116.714844 25.570312 C 116.859375 24.152344 117.078125 22.726562 117.539062 21.367188 C 117.753906 20.726562 117.921875 20.074219 118.128906 19.433594 C 118.316406 18.855469 118.585938 18.292969 118.683594 17.691406 C 118.332031 17.386719 118.425781 16.886719 118.472656 16.457031 C 118.476562 16.433594 118.480469 16.410156 118.488281 16.386719 C 117.960938 15.992188 117.949219 15.304688 118.015625 14.554688 C 117.988281 14.484375 117.972656 14.410156 117.972656 14.332031 C 117.972656 13.769531 118.863281 13.570312 119.269531 13.484375 C 120.550781 13.214844 121.875 13.128906 123.179688 13.140625 C 124.472656 13.148438 125.828125 13.175781 127.089844 13.484375 C 127.460938 13.578125 128.082031 13.695312 128.304688 14.074219 C 128.3125 14.082031 128.320312 14.089844 128.328125 14.101562 C 128.746094 14.664062 128.644531 15.960938 128.183594 16.480469 C 128.125 16.542969 128.050781 16.597656 127.960938 16.644531 C 127.96875 17.09375 127.90625 17.453125 127.625 17.765625 C 127.75 18.046875 127.871094 18.328125 127.988281 18.609375 C 129.078125 21.253906 129.621094 23.90625 129.652344 26.761719 " fill-opacity="1" fill-rule="nonzero"/></g></svg>