<svg xmlns="http://www.w3.org/2000/svg" xmlns:xlink="http://www.w3.org/1999/xlink" width="453" zoomAndPan="magnify" viewBox="0 0 340.08 56.999996" height="75" preserveAspectRatio="xMidYMid meet" version="1.0"><defs><clipPath id="id1"><path d="M 5.644531 5.722656 L 50.773438 5.722656 L 50.773438 50.851562 L 5.644531 50.851562 Z M 5.644531 5.722656 " clip-rule="nonzero"/></clipPath><clipPath id="id2"><path d="M 18.828125 14.53125 L 37.5 14.53125 L 37.5 42.167969 L 18.828125 42.167969 Z M 18.828125 14.53125 " clip-rule="nonzero"/></clipPath><clipPath id="id3"><path d="M 57.671875 5.722656 L 102.800781 5.722656 L 102.800781 50.851562 L 57.671875 50.851562 Z M 57.671875 5.722656 " clip-rule="nonzero"/></clipPath><clipPath id="id4"><path d="M 72.753906 13.914062 L 87.691406 13.914062 L 87.691406 43.042969 L 72.753906 43.042969 Z M 72.753906 13.914062 " clip-rule="nonzero"/></clipPath><clipPath id="id5"><path d="M 109.558594 5.722656 L 154.6875 5.722656 L 154.6875 50.851562 L 109.558594 50.851562 Z M 109.558594 5.722656 " clip-rule="nonzero"/></clipPath><clipPath id="id6"><path d="M 120.640625 17.015625 L 143.664062 17.015625 L 143.664062 39.410156 L 120.640625 39.410156 Z M 120.640625 17.015625 " clip-rule="nonzero"/></clipPath></defs><g clip-path="url(#id1)"><path fill="#919191" d="M 28.210938 50.851562 C 22.1875 50.851562 16.511719 48.507812 12.257812 44.242188 C 7.992188 39.984375 5.644531 34.3125 5.644531 28.289062 C 5.644531 22.261719 7.992188 16.589844 12.257812 12.332031 C 16.511719 8.066406 22.1875 5.722656 28.210938 5.722656 C 34.234375 5.722656 39.90625 8.066406 44.164062 12.332031 C 48.429688 16.597656 50.773438 22.261719 50.773438 28.289062 C 50.773438 34.3125 48.429688 39.984375 44.164062 44.242188 C 39.90625 48.507812 34.234375 50.851562 28.210938 50.851562 Z M 28.210938 7.074219 C 22.546875 7.074219 17.214844 9.285156 13.210938 13.289062 C 9.207031 17.292969 7 22.625 7 28.289062 C 7 33.949219 9.207031 39.28125 13.210938 43.285156 C 17.214844 47.289062 22.546875 49.5 28.210938 49.5 C 33.875 49.5 39.203125 47.289062 43.207031 43.285156 C 47.210938 39.28125 49.421875 33.949219 49.421875 28.289062 C 49.421875 22.625 47.210938 17.292969 43.207031 13.289062 C 39.203125 9.285156 33.875 7.074219 28.210938 7.074219 Z M 28.210938 7.074219 " fill-opacity="1" fill-rule="nonzero"/></g><path fill="#919191" d="M 31.003906 29.742188 C 29.9375 28.921875 28.617188 28.566406 27.289062 28.75 C 25.957031 28.929688 24.777344 29.625 23.964844 30.699219 C 23.152344 31.777344 22.804688 33.109375 22.984375 34.453125 C 23.164062 35.792969 23.847656 36.984375 24.914062 37.808594 C 25.800781 38.488281 26.855469 38.84375 27.949219 38.84375 C 28.175781 38.84375 28.402344 38.828125 28.632812 38.796875 C 29.960938 38.617188 31.140625 37.925781 31.953125 36.847656 C 32.765625 35.769531 33.117188 34.4375 32.9375 33.09375 C 32.757812 31.753906 32.070312 30.5625 31.003906 29.742188 Z M 31.226562 36.289062 C 30.5625 37.167969 29.597656 37.738281 28.507812 37.886719 C 27.421875 38.035156 26.34375 37.746094 25.46875 37.074219 C 24.597656 36.402344 24.035156 35.425781 23.886719 34.328125 C 23.742188 33.230469 24.027344 32.140625 24.691406 31.257812 C 25.355469 30.378906 26.320312 29.8125 27.410156 29.664062 C 27.597656 29.636719 27.78125 29.625 27.96875 29.625 C 28.863281 29.625 29.726562 29.917969 30.449219 30.472656 C 31.324219 31.144531 31.882812 32.121094 32.03125 33.21875 C 32.179688 34.316406 31.894531 35.40625 31.226562 36.289062 Z M 31.226562 36.289062 " fill-opacity="1" fill-rule="nonzero"/><path fill="#919191" d="M 25.800781 33.023438 C 25.882812 32.78125 25.753906 32.519531 25.515625 32.4375 C 25.277344 32.355469 25.019531 32.484375 24.9375 32.722656 C 24.597656 33.722656 24.761719 34.832031 25.382812 35.683594 C 25.472656 35.804688 25.609375 35.871094 25.75 35.871094 C 25.84375 35.871094 25.9375 35.84375 26.019531 35.78125 C 26.222656 35.632812 26.265625 35.34375 26.117188 35.136719 C 25.675781 34.527344 25.554688 33.738281 25.800781 33.023438 Z M 25.800781 33.023438 " fill-opacity="1" fill-rule="nonzero"/><path fill="#919191" d="M 27.378906 36.003906 C 27.316406 35.988281 27.257812 35.96875 27.199219 35.949219 C 26.960938 35.863281 26.699219 35.988281 26.617188 36.226562 C 26.53125 36.46875 26.65625 36.730469 26.894531 36.816406 C 26.976562 36.847656 27.0625 36.871094 27.144531 36.894531 C 27.183594 36.90625 27.222656 36.910156 27.261719 36.910156 C 27.464844 36.910156 27.648438 36.773438 27.703125 36.566406 C 27.765625 36.320312 27.621094 36.066406 27.378906 36.003906 Z M 27.378906 36.003906 " fill-opacity="1" fill-rule="nonzero"/><g clip-path="url(#id2)"><path fill="#919191" d="M 37.40625 19.949219 L 36 17.683594 C 35.171875 16.347656 33.589844 15.683594 32.0625 16.027344 L 30.050781 16.484375 C 30.03125 16.46875 30.011719 16.457031 29.988281 16.445312 L 28.414062 15.652344 L 28.414062 15.015625 C 28.414062 14.761719 28.210938 14.554688 27.960938 14.554688 C 27.707031 14.554688 27.503906 14.761719 27.503906 15.015625 L 27.503906 17.6875 C 25.769531 17.867188 24.296875 19.058594 23.761719 20.769531 L 23.214844 22.515625 C 22.523438 24.726562 21.527344 26.824219 20.253906 28.75 C 19.324219 30.164062 18.828125 31.8125 18.828125 33.511719 C 18.828125 37.625 21.734375 41.167969 25.734375 41.9375 C 26.472656 42.078125 27.214844 42.148438 27.960938 42.148438 C 28.703125 42.148438 29.445312 42.078125 30.183594 41.9375 C 34.183594 41.167969 37.089844 37.625 37.089844 33.511719 C 37.089844 31.8125 36.597656 30.164062 35.664062 28.75 C 34.769531 27.398438 34.007812 25.953125 33.398438 24.449219 C 33.441406 24.390625 33.472656 24.324219 33.488281 24.246094 L 33.957031 21.613281 C 33.984375 21.457031 34 21.296875 34.007812 21.136719 C 34.167969 21.132812 34.324219 21.117188 34.484375 21.089844 L 37.097656 20.648438 C 37.246094 20.625 37.375 20.523438 37.4375 20.382812 C 37.5 20.242188 37.488281 20.082031 37.40625 19.949219 Z M 32.265625 16.925781 C 33.410156 16.667969 34.601562 17.167969 35.226562 18.175781 L 35.832031 19.148438 L 31.378906 17.128906 Z M 29.859375 19.324219 L 30.035156 18.585938 C 30.035156 18.585938 30.035156 18.582031 30.035156 18.578125 L 30.070312 18.433594 L 32.019531 22.953125 L 31.058594 22.328125 C 30.070312 21.6875 29.589844 20.476562 29.859375 19.324219 Z M 30.90625 18.066406 L 31.695312 18.515625 C 32.71875 19.105469 33.265625 20.285156 33.058594 21.453125 L 32.855469 22.585938 Z M 29.425781 17.191406 L 29.265625 17.863281 C 28.988281 17.777344 28.707031 17.71875 28.414062 17.6875 L 28.414062 16.683594 Z M 36.175781 33.511719 C 36.175781 37.179688 33.585938 40.34375 30.011719 41.03125 C 28.648438 41.292969 27.269531 41.292969 25.90625 41.03125 C 22.335938 40.34375 19.742188 37.179688 19.742188 33.511719 C 19.742188 31.992188 20.183594 30.523438 21.015625 29.261719 C 22.335938 27.261719 23.367188 25.085938 24.085938 22.792969 L 24.632812 21.046875 C 25.09375 19.574219 26.429688 18.585938 27.960938 18.585938 C 28.335938 18.585938 28.703125 18.644531 29.054688 18.761719 L 28.972656 19.109375 C 28.613281 20.644531 29.25 22.25 30.5625 23.105469 L 32.339844 24.261719 C 33.007812 26.015625 33.871094 27.699219 34.902344 29.261719 C 35.738281 30.523438 36.175781 31.992188 36.175781 33.511719 Z M 34.332031 20.179688 C 34.203125 20.203125 34.070312 20.214844 33.941406 20.21875 C 33.863281 19.828125 33.722656 19.457031 33.53125 19.117188 L 35.457031 19.992188 Z M 34.332031 20.179688 " fill-opacity="1" fill-rule="nonzero"/></g><g clip-path="url(#id3)"><path fill="#919191" d="M 80.234375 50.851562 C 74.210938 50.851562 68.539062 48.507812 64.28125 44.242188 C 60.015625 39.984375 57.671875 34.3125 57.671875 28.289062 C 57.671875 22.261719 60.015625 16.589844 64.28125 12.332031 C 68.539062 8.066406 74.210938 5.722656 80.234375 5.722656 C 86.257812 5.722656 91.933594 8.066406 96.1875 12.332031 C 100.453125 16.597656 102.800781 22.261719 102.800781 28.289062 C 102.800781 34.3125 100.453125 39.984375 96.1875 44.242188 C 91.933594 48.507812 86.257812 50.851562 80.234375 50.851562 Z M 80.234375 7.074219 C 74.570312 7.074219 69.242188 9.285156 65.238281 13.289062 C 61.234375 17.292969 59.023438 22.625 59.023438 28.289062 C 59.023438 33.949219 61.234375 39.28125 65.238281 43.285156 C 69.242188 47.289062 74.570312 49.5 80.234375 49.5 C 85.898438 49.5 91.230469 47.289062 95.234375 43.285156 C 99.238281 39.28125 101.445312 33.949219 101.445312 28.289062 C 101.445312 22.625 99.238281 17.292969 95.234375 13.289062 C 91.230469 9.285156 85.898438 7.074219 80.234375 7.074219 Z M 80.234375 7.074219 " fill-opacity="1" fill-rule="nonzero"/></g><path fill="#919191" d="M 78.109375 34.171875 L 78.109375 30.71875 L 77.078125 30.71875 L 76.46875 33.074219 L 75.851562 30.71875 L 74.828125 30.71875 L 74.828125 34.171875 L 75.464844 34.171875 L 75.464844 31.457031 L 76.136719 34.171875 L 76.796875 34.171875 L 77.46875 31.457031 L 77.46875 34.171875 Z M 78.109375 34.171875 " fill-opacity="1" fill-rule="nonzero"/><path fill="#919191" d="M 78.769531 30.71875 L 79.453125 30.71875 L 79.453125 34.171875 L 78.769531 34.171875 Z M 78.769531 30.71875 " fill-opacity="1" fill-rule="nonzero"/><path fill="#919191" d="M 80.125 30.75 L 80.125 34.171875 L 82.515625 34.171875 L 82.515625 33.589844 L 80.8125 33.589844 L 80.8125 30.75 Z M 80.125 30.75 " fill-opacity="1" fill-rule="nonzero"/><path fill="#919191" d="M 83.015625 30.71875 L 83.015625 34.171875 L 83.699219 34.171875 L 83.699219 33.128906 L 84.257812 32.550781 L 85.191406 34.171875 L 86.078125 34.171875 L 84.730469 32.066406 L 86.007812 30.71875 L 85.085938 30.71875 L 83.699219 32.253906 L 83.699219 30.71875 Z M 83.015625 30.71875 " fill-opacity="1" fill-rule="nonzero"/><g clip-path="url(#id4)"><path fill="#919191" d="M 84.316406 17.308594 L 85.21875 17.308594 C 85.816406 17.308594 86.03125 16.4375 86.03125 15.621094 C 86.03125 14.804688 85.816406 13.933594 85.21875 13.933594 L 75.222656 13.933594 C 74.625 13.933594 74.410156 14.804688 74.410156 15.621094 C 74.410156 16.4375 74.625 17.308594 75.222656 17.308594 L 76.125 17.308594 C 74.300781 19.773438 72.753906 26.941406 72.753906 28.691406 L 72.753906 38.386719 C 72.753906 40.945312 74.375 43.027344 76.375 43.027344 L 84.070312 43.027344 C 86.066406 43.027344 87.691406 40.945312 87.691406 38.386719 L 87.691406 28.691406 C 87.691406 26.941406 86.140625 19.773438 84.316406 17.308594 Z M 75.242188 15.621094 C 75.242188 15.195312 75.3125 14.910156 75.363281 14.777344 L 85.078125 14.777344 C 85.132812 14.910156 85.199219 15.195312 85.199219 15.621094 C 85.199219 16.042969 85.132812 16.332031 85.078125 16.464844 L 75.363281 16.464844 C 75.3125 16.332031 75.242188 16.042969 75.242188 15.621094 Z M 84.070312 42.183594 L 76.375 42.183594 C 74.835938 42.183594 73.582031 40.480469 73.582031 38.386719 L 73.582031 37.542969 L 74.828125 37.542969 L 74.828125 38.386719 C 74.828125 38.445312 74.832031 39.761719 75.285156 40.683594 C 75.597656 41.320312 76.21875 41.671875 76.289062 41.710938 C 76.351562 41.746094 76.421875 41.761719 76.488281 41.761719 C 76.632812 41.761719 76.777344 41.679688 76.851562 41.539062 C 76.960938 41.335938 76.886719 41.078125 76.683594 40.96875 C 76.679688 40.964844 76.226562 40.710938 76.027344 40.308594 C 75.664062 39.566406 75.65625 38.398438 75.65625 38.386719 L 75.65625 37.542969 L 79.390625 37.542969 C 79.621094 37.542969 79.804688 37.355469 79.804688 37.125 C 79.804688 36.890625 79.621094 36.703125 79.390625 36.703125 L 73.582031 36.703125 L 73.582031 29.113281 L 79.390625 29.113281 C 79.621094 29.113281 79.804688 28.921875 79.804688 28.691406 C 79.804688 28.457031 79.621094 28.269531 79.390625 28.269531 L 75.667969 28.269531 C 75.773438 22.414062 78.054688 18.84375 78.078125 18.804688 C 78.203125 18.613281 78.152344 18.351562 77.960938 18.222656 C 77.769531 18.089844 77.511719 18.144531 77.386719 18.339844 C 77.285156 18.492188 74.941406 22.148438 74.835938 28.269531 L 73.601562 28.269531 C 73.824219 25.25 76.152344 17.308594 77.316406 17.308594 L 83.125 17.308594 C 84.289062 17.308594 86.621094 25.25 86.839844 28.269531 L 84.785156 28.269531 C 84.554688 28.269531 84.371094 28.457031 84.371094 28.691406 C 84.371094 28.921875 84.554688 29.113281 84.785156 29.113281 L 86.859375 29.113281 L 86.859375 36.703125 L 84.785156 36.703125 C 84.554688 36.703125 84.371094 36.890625 84.371094 37.125 C 84.371094 37.355469 84.554688 37.542969 84.785156 37.542969 L 86.859375 37.542969 L 86.859375 38.386719 C 86.859375 40.480469 85.609375 42.183594 84.070312 42.183594 Z M 84.070312 42.183594 " fill-opacity="1" fill-rule="nonzero"/></g><path fill="#919191" d="M 83.125 28.269531 L 81.050781 28.269531 C 80.820312 28.269531 80.636719 28.457031 80.636719 28.691406 C 80.636719 28.921875 80.820312 29.113281 81.050781 29.113281 L 83.125 29.113281 C 83.355469 29.113281 83.539062 28.921875 83.539062 28.691406 C 83.539062 28.457031 83.355469 28.269531 83.125 28.269531 Z M 83.125 28.269531 " fill-opacity="1" fill-rule="nonzero"/><path fill="#919191" d="M 83.125 36.703125 L 81.050781 36.703125 C 80.820312 36.703125 80.636719 36.890625 80.636719 37.125 C 80.636719 37.355469 80.820312 37.542969 81.050781 37.542969 L 83.125 37.542969 C 83.355469 37.542969 83.539062 37.355469 83.539062 37.125 C 83.539062 36.890625 83.355469 36.703125 83.125 36.703125 Z M 83.125 36.703125 " fill-opacity="1" fill-rule="nonzero"/><g clip-path="url(#id5)"><path fill="#919191" d="M 132.121094 50.851562 C 126.097656 50.851562 120.425781 48.507812 116.167969 44.242188 C 111.902344 39.984375 109.558594 34.3125 109.558594 28.289062 C 109.558594 22.261719 111.902344 16.589844 116.167969 12.332031 C 120.425781 8.066406 126.097656 5.722656 132.121094 5.722656 C 138.148438 5.722656 143.820312 8.066406 148.078125 12.332031 C 152.34375 16.597656 154.6875 22.261719 154.6875 28.289062 C 154.6875 34.3125 152.34375 39.984375 148.078125 44.242188 C 143.820312 48.507812 138.148438 50.851562 132.121094 50.851562 Z M 132.121094 7.074219 C 126.457031 7.074219 121.128906 9.285156 117.125 13.289062 C 113.121094 17.292969 110.910156 22.625 110.910156 28.289062 C 110.910156 33.949219 113.121094 39.28125 117.125 43.285156 C 121.128906 47.289062 126.457031 49.5 132.121094 49.5 C 137.785156 49.5 143.117188 47.289062 147.121094 43.285156 C 151.125 39.28125 153.335938 33.949219 153.335938 28.289062 C 153.335938 22.625 151.125 17.292969 147.121094 13.289062 C 143.117188 9.285156 137.785156 7.074219 132.121094 7.074219 Z M 132.121094 7.074219 " fill-opacity="1" fill-rule="nonzero"/></g><g clip-path="url(#id6)"><path fill="#919191" d="M 142.304688 22.613281 C 142.304688 22.421875 142.304688 22.28125 142.304688 22.085938 C 142.304688 21.992188 142.253906 21.898438 142.207031 21.800781 C 141.675781 20.554688 141 19.410156 139.695312 18.738281 C 138.394531 18.066406 137.042969 17.734375 135.59375 18.019531 C 135.253906 18.066406 134.96875 18.164062 134.628906 18.164062 C 133.472656 18.308594 132.359375 18.546875 131.730469 19.695312 C 131.683594 19.792969 131.585938 19.839844 131.539062 19.886719 C 131.25 20.414062 130.863281 20.890625 130.621094 21.417969 C 130.234375 22.375 129.949219 23.332031 129.609375 24.289062 C 129.5625 24.429688 129.417969 24.574219 129.320312 24.71875 C 128.304688 25.675781 127.097656 26.203125 125.796875 26.632812 C 124.636719 27.015625 123.71875 27.734375 123.046875 28.59375 C 122.082031 29.789062 121.550781 31.222656 121.550781 32.851562 C 121.550781 34.050781 121.789062 35.003906 122.753906 35.769531 C 122.851562 35.867188 122.949219 36.011719 123.046875 36.105469 C 123.863281 37.0625 124.78125 37.828125 126.039062 38.066406 C 127.292969 38.304688 128.597656 38.113281 129.847656 38.355469 C 129.898438 38.355469 129.949219 38.355469 129.996094 38.304688 C 130.574219 37.972656 131.203125 37.683594 131.78125 37.347656 C 132.117188 37.160156 132.457031 36.871094 132.695312 36.582031 C 133.132812 35.914062 133.519531 35.148438 133.808594 34.433594 C 134.144531 33.570312 134.386719 32.613281 134.675781 31.703125 C 134.917969 31.035156 135.109375 30.171875 135.640625 29.742188 C 136.511719 29.023438 137.574219 28.640625 138.539062 28.113281 C 138.972656 27.875 139.457031 27.734375 139.890625 27.445312 C 141.820312 26.390625 142.0625 24.480469 142.304688 22.613281 Z M 137.378906 17.015625 C 139.550781 17.253906 141.335938 18.164062 142.59375 20.078125 C 142.980469 20.605469 143.269531 21.132812 143.460938 21.753906 C 143.945312 23.714844 143.558594 25.4375 142.304688 26.917969 C 141.675781 27.636719 140.757812 28.066406 139.9375 28.546875 C 139.019531 29.074219 138.007812 29.40625 137.089844 29.933594 C 136.222656 30.414062 135.640625 31.179688 135.402344 32.132812 C 135.0625 33.328125 134.96875 34.574219 134.4375 35.675781 C 133.808594 36.964844 132.941406 38.210938 131.25 38.402344 C 131.152344 38.402344 131.058594 38.449219 130.960938 38.5 C 129.707031 39.265625 128.304688 39.359375 126.90625 39.40625 C 125.84375 39.453125 124.878906 39.023438 124.011719 38.402344 C 123.476562 38.019531 122.804688 37.828125 122.367188 37.347656 C 121.550781 36.441406 120.824219 35.4375 120.679688 34.144531 C 120.535156 32.804688 120.777344 31.609375 121.453125 30.460938 C 121.695312 30.027344 121.839844 29.503906 122.082031 29.074219 C 123.046875 27.207031 124.6875 26.296875 126.617188 25.722656 C 127.386719 25.484375 128.066406 25.054688 128.789062 24.671875 C 128.980469 24.574219 129.125 24.289062 129.175781 24.046875 C 129.464844 23.1875 129.65625 22.230469 130.042969 21.417969 C 130.378906 20.746094 130.914062 20.175781 131.347656 19.550781 C 131.492188 19.3125 131.730469 19.121094 131.875 18.882812 C 132.601562 17.6875 133.859375 17.492188 135.109375 17.253906 C 135.882812 17.207031 136.609375 17.109375 137.378906 17.015625 " fill-opacity="1" fill-rule="nonzero"/></g><path fill="#919191" d="M 132.457031 32.949219 C 131.394531 34.574219 130.1875 36.011719 128.257812 36.871094 C 128.546875 37.160156 128.835938 37.398438 129.078125 37.636719 C 128.597656 38.066406 127.96875 37.78125 127.773438 37.160156 C 126.957031 37.109375 126.132812 37.0625 125.3125 37.015625 C 125.3125 36.964844 125.3125 36.964844 125.3125 36.917969 C 125.507812 36.871094 125.699219 36.824219 125.890625 36.777344 C 125.890625 36.726562 125.890625 36.679688 125.890625 36.632812 C 125.746094 36.582031 125.554688 36.582031 125.265625 36.535156 C 125.941406 36.34375 126.519531 36.199219 127.097656 36.011719 C 126.277344 35.195312 126.277344 35.148438 126.855469 34.71875 C 127.292969 35.4375 128.015625 35.816406 128.933594 36.105469 C 130.332031 35.53125 131.296875 34.09375 132.457031 32.949219 " fill-opacity="1" fill-rule="nonzero"/><path fill="#919191" d="M 123.382812 31.179688 C 124.492188 30.984375 124.78125 29.695312 125.601562 29.121094 C 125.410156 28.785156 125.167969 28.546875 125.074219 28.257812 C 125.023438 28.113281 125.21875 27.875 125.410156 27.492188 C 125.507812 27.78125 125.554688 27.875 125.601562 27.972656 C 125.746094 28.546875 126.132812 28.738281 126.664062 28.449219 C 126.710938 28.449219 126.710938 28.402344 126.761719 28.402344 C 127.003906 28.355469 127.242188 28.257812 127.535156 28.257812 C 127.292969 28.449219 127.003906 28.640625 126.761719 28.832031 C 126.328125 29.167969 125.890625 29.503906 125.554688 29.933594 C 125.023438 30.554688 124.542969 31.273438 124.011719 31.894531 C 123.382812 32.660156 123.476562 33.617188 123.429688 34.527344 C 123.332031 34.574219 123.238281 34.671875 123.191406 34.71875 C 123.140625 34.574219 123.140625 34.433594 123.140625 34.335938 C 123.140625 33.761719 123.140625 33.234375 123.191406 32.660156 C 123.191406 32.421875 123.382812 32.230469 123.429688 32.039062 C 123.429688 31.800781 123.382812 31.511719 123.382812 31.179688 " fill-opacity="1" fill-rule="nonzero"/><path fill="#919191" d="M 136.269531 27.828125 C 137.1875 27.253906 138.152344 26.777344 138.925781 26.105469 C 140.128906 25.054688 140.855469 23.714844 141.046875 22.085938 C 141.046875 21.941406 141.144531 21.800781 141.238281 21.703125 C 141.289062 21.65625 141.484375 21.703125 141.484375 21.703125 C 141.53125 21.847656 141.578125 22.039062 141.53125 22.183594 C 141.238281 22.902344 141.289062 23.664062 140.757812 24.335938 C 140.515625 24.625 140.515625 25.148438 140.371094 25.53125 C 140.128906 26.058594 139.84375 26.535156 139.261719 26.777344 C 138.925781 26.917969 138.585938 27.113281 138.296875 27.351562 C 137.574219 27.828125 137.574219 27.828125 136.269531 27.828125 " fill-opacity="1" fill-rule="nonzero"/><path fill="#919191" d="M 136.511719 22.328125 C 135.882812 21.464844 135.882812 21.273438 136.511719 20.988281 C 136.609375 21.273438 136.65625 21.558594 136.75 21.941406 C 137.378906 21.515625 137.957031 21.132812 138.539062 20.699219 C 138.585938 20.792969 138.632812 20.84375 138.730469 20.9375 C 136.558594 22.085938 135.59375 24.429688 133.710938 25.914062 C 134.4375 24.527344 135.449219 23.425781 136.511719 22.328125 " fill-opacity="1" fill-rule="nonzero"/><path fill="#919191" d="M 131.585938 25.246094 C 131.78125 24.671875 131.972656 24.046875 132.167969 23.476562 C 132.214844 23.332031 132.3125 23.1875 132.3125 23.042969 C 132.554688 21.898438 133.375 21.132812 134.242188 20.414062 C 134.628906 20.078125 135.160156 19.980469 135.691406 19.742188 C 135.546875 20.316406 135.546875 20.316406 135.109375 20.414062 C 134.144531 20.652344 133.566406 21.320312 133.226562 22.136719 C 132.84375 22.996094 132.648438 23.953125 132.3125 24.863281 C 132.214844 25.054688 132.023438 25.246094 131.875 25.4375 C 131.78125 25.339844 131.683594 25.292969 131.585938 25.246094 " fill-opacity="1" fill-rule="nonzero"/><path fill="#919191" d="M 125.460938 34.816406 C 126.664062 33.378906 127.824219 31.894531 129.03125 30.460938 C 129.078125 30.507812 129.175781 30.554688 129.222656 30.652344 C 128.015625 32.085938 126.90625 33.617188 125.699219 35.003906 C 125.601562 34.910156 125.507812 34.859375 125.460938 34.816406 " fill-opacity="1" fill-rule="nonzero"/><path fill="#919191" d="M 125.121094 31.800781 C 125.21875 32.46875 125.601562 32.757812 126.230469 32.804688 C 126.039062 33.425781 125.507812 33.378906 124.542969 32.613281 C 124.6875 32.328125 124.832031 32.039062 124.976562 31.75 C 124.976562 31.75 125.074219 31.800781 125.121094 31.800781 " fill-opacity="1" fill-rule="nonzero"/><path fill="#919191" d="M 126.421875 30.507812 C 126.570312 30.84375 126.761719 31.179688 126.855469 31.511719 C 126.855469 31.5625 126.664062 31.800781 126.519531 31.800781 C 126.375 31.800781 126.183594 31.703125 126.039062 31.65625 C 126.132812 31.273438 125.699219 30.746094 126.421875 30.507812 " fill-opacity="1" fill-rule="nonzero"/><path fill="#919191" d="M 129.707031 32.132812 C 130.09375 32.421875 130.476562 32.660156 130.816406 32.949219 C 130.476562 33.234375 129.847656 33.1875 129.5625 32.851562 C 129.367188 32.613281 129.417969 32.421875 129.707031 32.132812 " fill-opacity="1" fill-rule="nonzero"/><path fill="#919191" d="M 138.296875 24.671875 C 137.816406 24.957031 137.378906 24.910156 136.898438 24.429688 C 137.042969 24.289062 137.1875 24.097656 137.378906 23.90625 C 137.71875 24.191406 138.007812 24.429688 138.296875 24.671875 " fill-opacity="1" fill-rule="nonzero"/><path fill="#919191" d="M 128.351562 33.664062 C 128.738281 34 129.03125 34.238281 129.367188 34.527344 C 129.222656 34.574219 128.980469 34.71875 128.789062 34.671875 C 128.546875 34.574219 128.257812 34.382812 128.113281 34.144531 C 128.113281 34.050781 128.351562 33.761719 128.351562 33.664062 " fill-opacity="1" fill-rule="nonzero"/><path fill="#919191" d="M 136.945312 26.25 C 136.609375 26.488281 136.027344 26.441406 135.835938 26.058594 C 135.785156 25.867188 135.980469 25.578125 136.078125 25.339844 C 136.460938 25.675781 136.703125 25.964844 136.945312 26.25 " fill-opacity="1" fill-rule="nonzero"/><path fill="#919191" d="M 128.015625 29.074219 C 128.113281 29.695312 128.113281 29.695312 128.738281 29.933594 C 128.5 30.027344 128.257812 30.171875 128.066406 30.171875 C 127.871094 30.125 127.628906 29.933594 127.582031 29.742188 C 127.535156 29.503906 127.726562 29.261719 127.773438 28.976562 C 127.871094 29.023438 127.96875 29.074219 128.015625 29.074219 " fill-opacity="1" fill-rule="nonzero"/><path fill="#919191" d="M 124.058594 33.523438 C 124.589844 33.90625 124.925781 34.144531 125.21875 34.433594 C 124.832031 34.671875 124.300781 34.621094 124.058594 34.191406 C 123.960938 34 124.058594 33.761719 124.058594 33.523438 " fill-opacity="1" fill-rule="nonzero"/><path fill="#919191" d="M 124.15625 28.785156 C 124.25 29.023438 124.347656 29.214844 124.445312 29.457031 C 124.492188 29.601562 124.445312 29.742188 124.445312 29.886719 C 124.25 29.839844 124.058594 29.886719 123.914062 29.789062 C 123.625 29.503906 123.71875 29.121094 124.15625 28.785156 " fill-opacity="1" fill-rule="nonzero"/><path fill="#919191" d="M 133.519531 30.652344 C 133.226562 31.128906 133.472656 31.894531 132.554688 32.132812 C 132.84375 31.511719 132.792969 30.84375 133.519531 30.652344 " fill-opacity="1" fill-rule="nonzero"/><path fill="#919191" d="M 131.105469 36.824219 C 130.914062 37.0625 130.234375 37.160156 129.996094 36.917969 C 129.707031 36.632812 129.847656 36.441406 130.09375 36.25 C 130.476562 36.441406 130.765625 36.632812 131.105469 36.824219 " fill-opacity="1" fill-rule="nonzero"/><path fill="#919191" d="M 127.050781 27.113281 C 127.4375 27.253906 127.726562 27.351562 128.015625 27.492188 C 127.917969 27.734375 127.679688 27.875 127.292969 27.828125 C 127.148438 27.828125 126.90625 27.683594 126.90625 27.636719 C 126.90625 27.398438 127.003906 27.207031 127.050781 27.113281 " fill-opacity="1" fill-rule="nonzero"/><path fill="#919191" d="M 128.351562 27.925781 C 128.835938 27.351562 129.367188 27.113281 129.949219 26.730469 C 129.847656 27.300781 129.175781 27.828125 128.351562 27.925781 " fill-opacity="1" fill-rule="nonzero"/><path fill="#919191" d="M 135.109375 21.558594 C 135.253906 21.847656 135.351562 22.085938 135.449219 22.328125 C 135.496094 22.421875 135.449219 22.613281 135.449219 22.710938 C 135.304688 22.660156 135.160156 22.660156 135.0625 22.566406 C 134.722656 22.28125 134.582031 21.898438 135.109375 21.558594 " fill-opacity="1" fill-rule="nonzero"/><path fill="#919191" d="M 132.890625 20.9375 C 132.746094 20.507812 132.554688 20.03125 133.179688 19.792969 C 133.421875 20.269531 133.277344 20.746094 132.890625 20.9375 " fill-opacity="1" fill-rule="nonzero"/><path fill="#919191" d="M 130.09375 29.3125 C 130.429688 28.976562 130.816406 28.640625 131.152344 28.308594 C 131.203125 28.355469 131.25 28.402344 131.296875 28.449219 C 130.960938 28.785156 130.621094 29.167969 130.285156 29.503906 C 130.234375 29.457031 130.1875 29.359375 130.09375 29.3125 " fill-opacity="1" fill-rule="nonzero"/><path fill="#919191" d="M 133.226562 34.859375 C 132.84375 35.339844 132.503906 35.101562 132.117188 34.957031 C 132.214844 34.765625 132.261719 34.671875 132.359375 34.476562 C 132.648438 34.621094 132.890625 34.71875 133.226562 34.859375 " fill-opacity="1" fill-rule="nonzero"/><path fill="#919191" d="M 134.097656 29.023438 C 133.90625 29.121094 133.757812 29.261719 133.710938 29.214844 C 133.519531 29.121094 133.375 28.976562 133.179688 28.832031 C 133.277344 28.738281 133.472656 28.496094 133.519531 28.546875 C 133.710938 28.640625 133.859375 28.832031 134.097656 29.023438 " fill-opacity="1" fill-rule="nonzero"/><path fill="#919191" d="M 129.707031 29.457031 C 129.417969 29.457031 129.222656 29.457031 129.03125 29.503906 C 129.03125 29.3125 129.03125 29.121094 129.03125 28.929688 C 129.078125 28.929688 129.175781 28.878906 129.222656 28.878906 C 129.367188 29.023438 129.464844 29.167969 129.707031 29.457031 " fill-opacity="1" fill-rule="nonzero"/></svg>