<svg xmlns="http://www.w3.org/2000/svg" xmlns:xlink="http://www.w3.org/1999/xlink" width="453" zoomAndPan="magnify" viewBox="0 0 340.08 56.999996" height="75" preserveAspectRatio="xMidYMid meet" version="1.0"><defs><clipPath id="id1"><path d="M 5.644531 5.722656 L 50.773438 5.722656 L 50.773438 50.851562 L 5.644531 50.851562 Z M 5.644531 5.722656 " clip-rule="nonzero"/></clipPath><clipPath id="id2"><path d="M 57.671875 5.722656 L 102.800781 5.722656 L 102.800781 50.851562 L 57.671875 50.851562 Z M 57.671875 5.722656 " clip-rule="nonzero"/></clipPath><clipPath id="id3"><path d="M 109.558594 5.722656 L 154.6875 5.722656 L 154.6875 50.851562 L 109.558594 50.851562 Z M 109.558594 5.722656 " clip-rule="nonzero"/></clipPath><clipPath id="id4"><path d="M 18.050781 15.464844 L 38.21875 15.464844 L 38.21875 40.859375 L 18.050781 40.859375 Z M 18.050781 15.464844 " clip-rule="nonzero"/></clipPath><clipPath id="id5"><path d="M 73.195312 23 L 81 23 L 81 31 L 73.195312 31 Z M 73.195312 23 " clip-rule="nonzero"/></clipPath><clipPath id="id6"><path d="M 73.195312 30 L 81 30 L 81 37 L 73.195312 37 Z M 73.195312 30 " clip-rule="nonzero"/></clipPath><clipPath id="id7"><path d="M 77 15.910156 L 84 15.910156 L 84 26 L 77 26 Z M 77 15.910156 " clip-rule="nonzero"/></clipPath><clipPath id="id8"><path d="M 79 23 L 87.386719 23 L 87.386719 31 L 79 31 Z M 79 23 " clip-rule="nonzero"/></clipPath><clipPath id="id9"><path d="M 79 29 L 87.386719 29 L 87.386719 37 L 79 37 Z M 79 29 " clip-rule="nonzero"/></clipPath><clipPath id="id10"><path d="M 73.195312 23 L 81 23 L 81 31 L 73.195312 31 Z M 73.195312 23 " clip-rule="nonzero"/></clipPath><clipPath id="id11"><path d="M 73.195312 29 L 81 29 L 81 37 L 73.195312 37 Z M 73.195312 29 " clip-rule="nonzero"/></clipPath><clipPath id="id12"><path d="M 79 24 L 81 24 L 81 43.542969 L 79 43.542969 Z M 79 24 " clip-rule="nonzero"/></clipPath><clipPath id="id13"><path d="M 125.242188 13.367188 L 138.6875 13.367188 L 138.6875 43.242188 L 125.242188 43.242188 Z M 125.242188 13.367188 " clip-rule="nonzero"/></clipPath></defs><g clip-path="url(#id1)"><path fill="#919191" d="M 28.210938 50.851562 C 22.1875 50.851562 16.511719 48.507812 12.257812 44.242188 C 7.992188 39.984375 5.644531 34.3125 5.644531 28.289062 C 5.644531 22.261719 7.992188 16.589844 12.257812 12.332031 C 16.511719 8.066406 22.1875 5.722656 28.210938 5.722656 C 34.234375 5.722656 39.90625 8.066406 44.164062 12.332031 C 48.429688 16.597656 50.773438 22.261719 50.773438 28.289062 C 50.773438 34.3125 48.429688 39.984375 44.164062 44.242188 C 39.90625 48.507812 34.234375 50.851562 28.210938 50.851562 Z M 28.210938 7.074219 C 22.546875 7.074219 17.214844 9.285156 13.210938 13.289062 C 9.207031 17.292969 7 22.625 7 28.289062 C 7 33.949219 9.207031 39.28125 13.210938 43.285156 C 17.214844 47.289062 22.546875 49.5 28.210938 49.5 C 33.875 49.5 39.203125 47.289062 43.207031 43.285156 C 47.210938 39.28125 49.421875 33.949219 49.421875 28.289062 C 49.421875 22.625 47.210938 17.292969 43.207031 13.289062 C 39.203125 9.285156 33.875 7.074219 28.210938 7.074219 Z M 28.210938 7.074219 " fill-opacity="1" fill-rule="nonzero"/></g><g clip-path="url(#id2)"><path fill="#919191" d="M 80.234375 50.851562 C 74.210938 50.851562 68.539062 48.507812 64.28125 44.242188 C 60.015625 39.984375 57.671875 34.3125 57.671875 28.289062 C 57.671875 22.261719 60.015625 16.589844 64.28125 12.332031 C 68.539062 8.066406 74.210938 5.722656 80.234375 5.722656 C 86.257812 5.722656 91.933594 8.066406 96.1875 12.332031 C 100.453125 16.597656 102.800781 22.261719 102.800781 28.289062 C 102.800781 34.3125 100.453125 39.984375 96.1875 44.242188 C 91.933594 48.507812 86.257812 50.851562 80.234375 50.851562 Z M 80.234375 7.074219 C 74.570312 7.074219 69.242188 9.285156 65.238281 13.289062 C 61.234375 17.292969 59.023438 22.625 59.023438 28.289062 C 59.023438 33.949219 61.234375 39.28125 65.238281 43.285156 C 69.242188 47.289062 74.570312 49.5 80.234375 49.5 C 85.898438 49.5 91.230469 47.289062 95.234375 43.285156 C 99.238281 39.28125 101.445312 33.949219 101.445312 28.289062 C 101.445312 22.625 99.238281 17.292969 95.234375 13.289062 C 91.230469 9.285156 85.898438 7.074219 80.234375 7.074219 Z M 80.234375 7.074219 " fill-opacity="1" fill-rule="nonzero"/></g><g clip-path="url(#id3)"><path fill="#919191" d="M 132.121094 50.851562 C 126.097656 50.851562 120.425781 48.507812 116.167969 44.242188 C 111.902344 39.984375 109.558594 34.3125 109.558594 28.289062 C 109.558594 22.261719 111.902344 16.589844 116.167969 12.332031 C 120.425781 8.066406 126.097656 5.722656 132.121094 5.722656 C 138.148438 5.722656 143.820312 8.066406 148.078125 12.332031 C 152.34375 16.597656 154.6875 22.261719 154.6875 28.289062 C 154.6875 34.3125 152.34375 39.984375 148.078125 44.242188 C 143.820312 48.507812 138.148438 50.851562 132.121094 50.851562 Z M 132.121094 7.074219 C 126.457031 7.074219 121.128906 9.285156 117.125 13.289062 C 113.121094 17.292969 110.910156 22.625 110.910156 28.289062 C 110.910156 33.949219 113.121094 39.28125 117.125 43.285156 C 121.128906 47.289062 126.457031 49.5 132.121094 49.5 C 137.785156 49.5 143.117188 47.289062 147.121094 43.285156 C 151.125 39.28125 153.335938 33.949219 153.335938 28.289062 C 153.335938 22.625 151.125 17.292969 147.121094 13.289062 C 143.117188 9.285156 137.785156 7.074219 132.121094 7.074219 Z M 132.121094 7.074219 " fill-opacity="1" fill-rule="nonzero"/></g><g clip-path="url(#id4)"><path fill="#919191" d="M 28.136719 15.5 C 22.777344 15.5 18.746094 24.015625 18.136719 29.460938 C 18.042969 29.59375 18.027344 29.734375 18.09375 29.882812 C 18.066406 30.203125 18.050781 30.515625 18.050781 30.808594 C 18.050781 31.46875 18.117188 32.121094 18.246094 32.769531 C 18.375 33.417969 18.566406 34.046875 18.820312 34.65625 C 19.074219 35.269531 19.382812 35.847656 19.75 36.398438 C 20.121094 36.945312 20.539062 37.453125 21.003906 37.921875 C 21.472656 38.386719 21.984375 38.804688 22.535156 39.171875 C 23.085938 39.539062 23.664062 39.847656 24.277344 40.101562 C 24.886719 40.355469 25.519531 40.546875 26.167969 40.675781 C 26.816406 40.804688 27.472656 40.867188 28.136719 40.867188 C 28.796875 40.867188 29.453125 40.804688 30.101562 40.675781 C 30.75 40.546875 31.382812 40.355469 31.992188 40.101562 C 32.605469 39.847656 33.1875 39.539062 33.738281 39.171875 C 34.289062 38.804688 34.796875 38.386719 35.265625 37.921875 C 35.734375 37.453125 36.152344 36.945312 36.519531 36.398438 C 36.886719 35.847656 37.199219 35.269531 37.449219 34.65625 C 37.703125 34.046875 37.894531 33.417969 38.023438 32.769531 C 38.152344 32.121094 38.21875 31.46875 38.21875 30.808594 C 38.21875 25.566406 33.960938 15.5 28.136719 15.5 Z M 28.136719 16.375 C 32.226562 16.375 35.898438 22.636719 37.003906 27.871094 L 33.402344 29.867188 L 29.238281 27.371094 C 29.078125 27.273438 28.917969 27.28125 28.761719 27.390625 L 24.636719 30.269531 L 21.382812 27.832031 C 21.230469 27.71875 21.070312 27.710938 20.902344 27.804688 L 19.089844 28.859375 C 19.90625 23.464844 23.78125 16.375 28.136719 16.375 Z M 28.136719 39.992188 C 27.53125 39.992188 26.933594 39.933594 26.339844 39.816406 C 25.746094 39.695312 25.171875 39.523438 24.613281 39.289062 C 24.054688 39.058594 23.527344 38.777344 23.023438 38.441406 C 22.519531 38.105469 22.054688 37.726562 21.628906 37.300781 C 21.203125 36.875 20.820312 36.410156 20.484375 35.910156 C 20.148438 35.40625 19.863281 34.878906 19.632812 34.320312 C 19.402344 33.765625 19.226562 33.191406 19.109375 32.597656 C 18.988281 32.007812 18.929688 31.410156 18.929688 30.808594 C 18.929688 30.53125 18.941406 30.238281 18.964844 29.945312 L 21.089844 28.707031 L 24.363281 31.15625 C 24.535156 31.285156 24.707031 31.289062 24.878906 31.167969 L 29.03125 28.265625 L 33.171875 30.746094 C 33.316406 30.832031 33.460938 30.835938 33.609375 30.753906 L 37.167969 28.78125 C 37.277344 29.453125 37.335938 30.128906 37.339844 30.808594 C 37.339844 31.410156 37.28125 32.007812 37.164062 32.597656 C 37.042969 33.191406 36.871094 33.765625 36.636719 34.320312 C 36.40625 34.878906 36.121094 35.40625 35.785156 35.910156 C 35.449219 36.410156 35.070312 36.875 34.640625 37.300781 C 34.214844 37.726562 33.75 38.105469 33.246094 38.441406 C 32.746094 38.777344 32.214844 39.058594 31.65625 39.289062 C 31.097656 39.523438 30.523438 39.695312 29.929688 39.816406 C 29.339844 39.933594 28.738281 39.992188 28.136719 39.992188 Z M 28.136719 39.992188 " fill-opacity="1" fill-rule="nonzero"/></g><path fill="#ffffff" d="M 86.773438 23.804688 C 86.773438 23.804688 78.984375 23.457031 80.5 30.113281 C 87.121094 31.636719 86.773438 23.804688 86.773438 23.804688 " fill-opacity="1" fill-rule="nonzero"/><g clip-path="url(#id5)"><path fill="#ffffff" d="M 73.835938 23.804688 C 73.835938 23.804688 81.625 23.457031 80.109375 30.113281 C 73.488281 31.636719 73.835938 23.804688 73.835938 23.804688 " fill-opacity="1" fill-rule="nonzero"/></g><path fill="#ffffff" d="M 86.773438 30.3125 C 86.773438 30.3125 78.984375 29.960938 80.5 36.617188 C 87.121094 38.140625 86.773438 30.3125 86.773438 30.3125 " fill-opacity="1" fill-rule="nonzero"/><g clip-path="url(#id6)"><path fill="#ffffff" d="M 73.835938 30.3125 C 73.835938 30.3125 81.625 29.960938 80.109375 36.617188 C 73.488281 38.140625 73.835938 30.3125 73.835938 30.3125 " fill-opacity="1" fill-rule="nonzero"/></g><path fill="#ffffff" d="M 80.304688 16.488281 C 80.304688 16.488281 74.550781 21.777344 80.304688 25.40625 C 86.058594 21.777344 80.304688 16.488281 80.304688 16.488281 " fill-opacity="1" fill-rule="nonzero"/><g clip-path="url(#id7)"><path fill="#919191" d="M 82.28125 21.558594 C 82.277344 21.648438 82.273438 21.738281 82.265625 21.824219 C 82.265625 21.839844 82.257812 21.890625 82.257812 21.910156 C 82.253906 21.9375 82.25 21.96875 82.242188 21.996094 C 82.207031 22.199219 82.15625 22.402344 82.089844 22.59375 C 81.792969 23.4375 81.078125 24.160156 80.304688 24.703125 C 79.597656 24.210938 78.980469 23.605469 78.605469 22.8125 C 78.328125 22.222656 78.273438 21.433594 78.378906 20.84375 C 78.445312 20.484375 78.554688 20.132812 78.683594 19.792969 C 78.691406 19.777344 78.695312 19.765625 78.699219 19.757812 C 78.699219 19.753906 78.699219 19.753906 78.703125 19.75 C 78.722656 19.707031 78.742188 19.664062 78.757812 19.621094 C 78.789062 19.550781 78.824219 19.484375 78.855469 19.417969 C 78.9375 19.253906 79.023438 19.089844 79.117188 18.933594 C 79.277344 18.648438 79.457031 18.378906 79.648438 18.113281 C 79.691406 18.058594 79.734375 18.003906 79.773438 17.945312 C 79.777344 17.945312 79.78125 17.941406 79.785156 17.9375 C 79.800781 17.914062 79.820312 17.890625 79.839844 17.867188 C 79.921875 17.761719 80.011719 17.65625 80.097656 17.550781 C 80.167969 17.472656 80.234375 17.398438 80.304688 17.320312 C 80.332031 17.351562 80.359375 17.382812 80.390625 17.414062 C 80.464844 17.5 80.539062 17.585938 80.609375 17.671875 C 80.65625 17.726562 80.699219 17.777344 80.742188 17.832031 C 80.761719 17.855469 80.828125 17.941406 80.839844 17.957031 C 81.023438 18.199219 81.195312 18.445312 81.355469 18.703125 C 81.539062 18.996094 81.707031 19.304688 81.847656 19.621094 C 81.867188 19.664062 81.886719 19.707031 81.90625 19.75 C 81.90625 19.753906 81.90625 19.753906 81.910156 19.757812 C 81.914062 19.765625 81.917969 19.777344 81.921875 19.792969 C 81.949219 19.863281 81.976562 19.9375 82.003906 20.007812 C 82.066406 20.1875 82.121094 20.371094 82.167969 20.558594 C 82.261719 20.945312 82.289062 21.136719 82.28125 21.558594 Z M 83.382812 20.761719 C 83.175781 19.28125 82.351562 17.941406 81.40625 16.816406 C 81.1875 16.558594 80.960938 16.304688 80.714844 16.074219 C 80.585938 15.957031 80.441406 15.910156 80.304688 15.917969 C 80.167969 15.910156 80.023438 15.957031 79.894531 16.074219 C 79.207031 16.707031 78.613281 17.492188 78.140625 18.296875 C 77.300781 19.71875 76.824219 21.488281 77.46875 23.085938 C 77.960938 24.308594 78.917969 25.210938 80.011719 25.910156 C 80.179688 26.015625 80.429688 26.015625 80.597656 25.910156 C 81.558594 25.296875 82.46875 24.503906 82.976562 23.460938 C 83.390625 22.613281 83.515625 21.695312 83.382812 20.761719 " fill-opacity="1" fill-rule="nonzero"/></g><g clip-path="url(#id8)"><path fill="#919191" d="M 86.109375 25.300781 C 86.105469 25.335938 86.097656 25.375 86.09375 25.410156 C 86.082031 25.488281 86.066406 25.570312 86.054688 25.648438 C 86.023438 25.8125 85.992188 25.972656 85.953125 26.132812 C 85.875 26.472656 85.777344 26.808594 85.65625 27.132812 C 85.636719 27.179688 85.558594 27.371094 85.578125 27.328125 C 85.542969 27.40625 85.511719 27.480469 85.472656 27.554688 C 85.394531 27.71875 85.308594 27.878906 85.210938 28.035156 C 85.164062 28.109375 85.117188 28.183594 85.066406 28.257812 C 85.042969 28.292969 85.015625 28.328125 84.988281 28.363281 C 84.984375 28.375 84.980469 28.378906 84.976562 28.382812 C 84.972656 28.390625 84.964844 28.394531 84.960938 28.40625 C 84.839844 28.546875 84.71875 28.6875 84.582031 28.816406 C 84.519531 28.878906 84.449219 28.9375 84.382812 28.996094 C 84.367188 29.007812 84.351562 29.019531 84.339844 29.027344 C 84.300781 29.054688 84.265625 29.082031 84.226562 29.109375 C 84.0625 29.222656 83.894531 29.316406 83.71875 29.402344 C 83.695312 29.414062 83.671875 29.425781 83.652344 29.433594 C 83.648438 29.4375 83.648438 29.4375 83.644531 29.4375 C 83.59375 29.457031 83.542969 29.476562 83.492188 29.496094 C 83.371094 29.539062 83.25 29.574219 83.125 29.605469 C 83.003906 29.636719 82.882812 29.660156 82.757812 29.683594 C 82.738281 29.6875 82.71875 29.6875 82.699219 29.691406 C 82.691406 29.691406 82.679688 29.695312 82.664062 29.695312 C 82.597656 29.703125 82.527344 29.707031 82.460938 29.714844 C 81.941406 29.746094 81.472656 29.707031 80.992188 29.617188 C 80.914062 29.203125 80.875 28.804688 80.886719 28.347656 C 80.890625 28.230469 80.898438 28.113281 80.910156 27.996094 C 80.910156 27.976562 80.917969 27.914062 80.917969 27.894531 C 80.925781 27.839844 80.933594 27.789062 80.945312 27.734375 C 80.988281 27.511719 81.042969 27.292969 81.121094 27.078125 C 81.136719 27.03125 81.15625 26.984375 81.175781 26.941406 C 81.175781 26.9375 81.175781 26.933594 81.175781 26.933594 C 81.179688 26.925781 81.1875 26.914062 81.195312 26.898438 C 81.238281 26.808594 81.285156 26.714844 81.335938 26.625 C 81.382812 26.542969 81.429688 26.464844 81.484375 26.386719 C 81.507812 26.347656 81.535156 26.308594 81.5625 26.273438 C 81.570312 26.261719 81.574219 26.253906 81.578125 26.25 C 81.582031 26.246094 81.585938 26.238281 81.597656 26.226562 C 81.71875 26.085938 81.84375 25.945312 81.980469 25.816406 C 82.046875 25.757812 82.113281 25.699219 82.179688 25.644531 C 82.191406 25.632812 82.203125 25.625 82.214844 25.617188 C 82.253906 25.589844 82.289062 25.5625 82.328125 25.535156 C 82.628906 25.324219 82.949219 25.152344 83.28125 25 C 83.296875 24.996094 83.308594 24.988281 83.320312 24.984375 C 83.363281 24.96875 83.402344 24.953125 83.441406 24.9375 C 83.527344 24.90625 83.613281 24.875 83.703125 24.84375 C 83.867188 24.789062 84.035156 24.738281 84.203125 24.691406 C 84.519531 24.609375 84.835938 24.542969 85.160156 24.492188 C 85.210938 24.484375 85.371094 24.464844 85.308594 24.46875 C 85.363281 24.464844 85.417969 24.457031 85.472656 24.449219 C 85.601562 24.4375 85.730469 24.425781 85.863281 24.414062 C 85.96875 24.40625 86.078125 24.398438 86.1875 24.394531 C 86.183594 24.445312 86.183594 24.492188 86.179688 24.539062 C 86.164062 24.796875 86.136719 25.046875 86.109375 25.300781 Z M 84.320312 29.042969 C 84.320312 29.046875 84.320312 29.046875 84.320312 29.042969 Z M 82.222656 25.609375 C 82.242188 25.59375 82.253906 25.585938 82.222656 25.609375 Z M 87.351562 23.804688 C 87.34375 23.632812 87.277344 23.5 87.175781 23.40625 C 87.082031 23.300781 86.949219 23.230469 86.773438 23.222656 C 85.855469 23.183594 84.898438 23.3125 84.011719 23.535156 C 82.414062 23.9375 80.828125 24.839844 80.140625 26.421875 C 79.609375 27.644531 79.652344 28.984375 79.941406 30.265625 C 79.980469 30.457031 80.15625 30.632812 80.347656 30.675781 C 81.457031 30.925781 82.660156 31.011719 83.753906 30.636719 C 84.640625 30.335938 85.375 29.773438 85.941406 29.023438 C 86.839844 27.828125 87.203125 26.28125 87.320312 24.8125 C 87.347656 24.476562 87.367188 24.140625 87.351562 23.804688 " fill-opacity="1" fill-rule="nonzero"/></g><g clip-path="url(#id9)"><path fill="#919191" d="M 86.109375 31.308594 C 86.109375 31.3125 86.109375 31.3125 86.109375 31.3125 C 86.105469 31.347656 86.097656 31.382812 86.09375 31.417969 C 86.082031 31.5 86.066406 31.578125 86.054688 31.660156 C 86.023438 31.820312 85.992188 31.980469 85.953125 32.140625 C 85.875 32.480469 85.777344 32.816406 85.65625 33.144531 C 85.636719 33.191406 85.558594 33.378906 85.578125 33.339844 C 85.542969 33.414062 85.511719 33.488281 85.472656 33.5625 C 85.394531 33.726562 85.308594 33.886719 85.210938 34.042969 C 85.164062 34.121094 85.117188 34.191406 85.066406 34.265625 C 85.042969 34.300781 85.015625 34.335938 84.988281 34.375 C 84.984375 34.382812 84.980469 34.390625 84.976562 34.394531 C 84.972656 34.398438 84.964844 34.40625 84.960938 34.414062 C 84.839844 34.558594 84.71875 34.695312 84.582031 34.824219 C 84.519531 34.886719 84.449219 34.945312 84.382812 35.003906 C 84.367188 35.015625 84.351562 35.027344 84.339844 35.039062 C 84.300781 35.066406 84.265625 35.09375 84.226562 35.121094 C 84.0625 35.230469 83.894531 35.328125 83.71875 35.414062 C 83.695312 35.425781 83.671875 35.433594 83.652344 35.445312 C 83.648438 35.445312 83.648438 35.445312 83.644531 35.449219 C 83.59375 35.46875 83.542969 35.488281 83.492188 35.503906 C 83.371094 35.546875 83.25 35.585938 83.125 35.617188 C 83.003906 35.648438 82.882812 35.671875 82.757812 35.691406 C 82.738281 35.695312 82.71875 35.699219 82.699219 35.703125 C 82.691406 35.703125 82.679688 35.703125 82.664062 35.707031 C 82.597656 35.710938 82.527344 35.71875 82.460938 35.722656 C 81.941406 35.757812 81.472656 35.714844 80.992188 35.625 C 80.914062 35.210938 80.875 34.8125 80.886719 34.359375 C 80.890625 34.238281 80.898438 34.121094 80.910156 34.003906 C 80.910156 33.984375 80.917969 33.925781 80.917969 33.90625 C 80.925781 33.851562 80.933594 33.796875 80.945312 33.742188 C 80.988281 33.519531 81.042969 33.300781 81.121094 33.089844 C 81.136719 33.042969 81.15625 32.996094 81.175781 32.949219 C 81.175781 32.945312 81.175781 32.945312 81.175781 32.945312 C 81.179688 32.9375 81.1875 32.925781 81.195312 32.910156 C 81.238281 32.816406 81.285156 32.722656 81.335938 32.632812 C 81.382812 32.550781 81.429688 32.472656 81.484375 32.394531 C 81.507812 32.355469 81.535156 32.320312 81.5625 32.28125 C 81.570312 32.269531 81.574219 32.265625 81.578125 32.261719 C 81.582031 32.253906 81.585938 32.246094 81.597656 32.238281 C 81.71875 32.09375 81.84375 31.957031 81.980469 31.828125 C 82.046875 31.765625 82.113281 31.710938 82.179688 31.652344 C 82.191406 31.644531 82.203125 31.632812 82.214844 31.625 C 82.253906 31.597656 82.289062 31.570312 82.328125 31.542969 C 82.628906 31.332031 82.949219 31.160156 83.28125 31.011719 C 83.296875 31.003906 83.308594 31 83.320312 30.992188 C 83.363281 30.976562 83.402344 30.960938 83.441406 30.945312 C 83.527344 30.914062 83.613281 30.882812 83.703125 30.851562 C 83.867188 30.796875 84.035156 30.746094 84.203125 30.703125 C 84.519531 30.617188 84.835938 30.550781 85.160156 30.5 C 85.210938 30.492188 85.371094 30.472656 85.308594 30.480469 C 85.363281 30.472656 85.417969 30.464844 85.472656 30.460938 C 85.601562 30.445312 85.730469 30.433594 85.863281 30.421875 C 85.96875 30.414062 86.078125 30.410156 86.1875 30.402344 C 86.183594 30.453125 86.183594 30.5 86.179688 30.550781 C 86.164062 30.804688 86.136719 31.058594 86.109375 31.308594 Z M 84.320312 35.054688 Z M 82.222656 31.621094 C 82.242188 31.605469 82.253906 31.597656 82.222656 31.621094 Z M 87.351562 29.816406 C 87.34375 29.640625 87.277344 29.507812 87.175781 29.414062 C 87.082031 29.3125 86.949219 29.238281 86.773438 29.230469 C 85.855469 29.191406 84.898438 29.324219 84.011719 29.546875 C 82.414062 29.949219 80.828125 30.851562 80.140625 32.429688 C 79.609375 33.652344 79.652344 34.996094 79.941406 36.277344 C 79.980469 36.464844 80.15625 36.640625 80.347656 36.683594 C 81.457031 36.933594 82.660156 37.023438 83.753906 36.648438 C 84.640625 36.34375 85.375 35.78125 85.941406 35.035156 C 86.839844 33.835938 87.203125 32.292969 87.320312 30.820312 C 87.347656 30.488281 87.367188 30.148438 87.351562 29.816406 " fill-opacity="1" fill-rule="nonzero"/></g><g clip-path="url(#id10)"><path fill="#919191" d="M 78.355469 29.722656 C 78.234375 29.71875 78.117188 29.710938 78 29.703125 C 77.984375 29.699219 77.921875 29.691406 77.902344 29.691406 C 77.851562 29.683594 77.796875 29.675781 77.742188 29.664062 C 77.519531 29.621094 77.304688 29.5625 77.089844 29.488281 C 77.042969 29.46875 77 29.453125 76.953125 29.433594 C 76.949219 29.433594 76.949219 29.433594 76.949219 29.433594 C 76.941406 29.429688 76.929688 29.421875 76.914062 29.414062 C 76.820312 29.367188 76.726562 29.324219 76.636719 29.273438 C 76.558594 29.226562 76.480469 29.175781 76.402344 29.125 C 76.363281 29.097656 76.328125 29.070312 76.289062 29.042969 C 76.277344 29.035156 76.273438 29.03125 76.269531 29.03125 C 76.261719 29.023438 76.253906 29.019531 76.246094 29.007812 C 76.101562 28.886719 75.964844 28.761719 75.835938 28.625 C 75.777344 28.558594 75.71875 28.492188 75.664062 28.421875 C 75.652344 28.410156 75.644531 28.398438 75.636719 28.386719 C 75.609375 28.351562 75.582031 28.3125 75.554688 28.273438 C 75.34375 27.972656 75.175781 27.652344 75.023438 27.316406 C 75.023438 27.316406 75.023438 27.316406 75.023438 27.3125 C 75.019531 27.300781 75.011719 27.289062 75.007812 27.277344 C 74.992188 27.234375 74.976562 27.195312 74.960938 27.15625 C 74.929688 27.066406 74.898438 26.980469 74.867188 26.890625 C 74.8125 26.726562 74.761719 26.558594 74.71875 26.390625 C 74.632812 26.074219 74.566406 25.75 74.519531 25.425781 C 74.507812 25.375 74.488281 25.214844 74.496094 25.277344 C 74.488281 25.222656 74.484375 25.167969 74.476562 25.113281 C 74.460938 24.980469 74.449219 24.851562 74.441406 24.722656 C 74.433594 24.613281 74.425781 24.503906 74.421875 24.394531 C 74.46875 24.398438 74.519531 24.398438 74.566406 24.402344 C 74.820312 24.417969 75.070312 24.445312 75.324219 24.472656 C 75.359375 24.480469 75.394531 24.484375 75.429688 24.488281 C 75.511719 24.5 75.589844 24.515625 75.667969 24.53125 C 75.828125 24.558594 75.988281 24.589844 76.148438 24.628906 C 76.488281 24.707031 76.820312 24.808594 77.148438 24.929688 C 77.191406 24.949219 77.378906 25.027344 77.339844 25.007812 C 77.414062 25.042969 77.488281 25.074219 77.5625 25.113281 C 77.726562 25.191406 77.886719 25.28125 78.042969 25.375 C 78.117188 25.421875 78.191406 25.472656 78.261719 25.519531 C 78.296875 25.546875 78.335938 25.574219 78.371094 25.597656 C 78.378906 25.605469 78.386719 25.609375 78.390625 25.613281 C 78.394531 25.617188 78.402344 25.621094 78.410156 25.628906 C 78.550781 25.75 78.691406 25.871094 78.816406 26.007812 C 78.878906 26.074219 78.9375 26.140625 78.996094 26.210938 C 79.007812 26.222656 79.019531 26.238281 79.03125 26.253906 C 79.058594 26.289062 79.085938 26.328125 79.113281 26.367188 C 79.222656 26.53125 79.316406 26.699219 79.40625 26.878906 C 79.414062 26.898438 79.425781 26.921875 79.433594 26.945312 C 79.4375 26.945312 79.4375 26.949219 79.4375 26.949219 C 79.457031 27 79.476562 27.050781 79.496094 27.101562 C 79.539062 27.222656 79.574219 27.347656 79.605469 27.472656 C 79.636719 27.59375 79.660156 27.71875 79.679688 27.839844 C 79.683594 27.859375 79.6875 27.878906 79.691406 27.898438 C 79.691406 27.910156 79.691406 27.921875 79.695312 27.9375 C 79.699219 28.003906 79.707031 28.070312 79.710938 28.140625 C 79.746094 28.660156 79.707031 29.136719 79.617188 29.617188 C 79.203125 29.695312 78.808594 29.734375 78.355469 29.722656 Z M 75.632812 28.382812 C 75.613281 28.359375 75.605469 28.347656 75.632812 28.382812 Z M 79.046875 26.273438 Z M 80.632812 26.839844 C 80.328125 25.949219 79.769531 25.210938 79.027344 24.644531 C 77.835938 23.738281 76.296875 23.375 74.835938 23.253906 C 74.503906 23.226562 74.167969 23.207031 73.835938 23.222656 C 73.664062 23.230469 73.53125 23.300781 73.4375 23.402344 C 73.332031 23.496094 73.261719 23.628906 73.253906 23.804688 C 73.214844 24.726562 73.34375 25.6875 73.566406 26.582031 C 73.96875 28.1875 74.863281 29.78125 76.4375 30.472656 C 77.652344 31.007812 78.988281 30.960938 80.261719 30.675781 C 80.449219 30.632812 80.625 30.457031 80.667969 30.265625 C 80.917969 29.148438 81.003906 27.941406 80.632812 26.839844 " fill-opacity="1" fill-rule="nonzero"/></g><g clip-path="url(#id11)"><path fill="#919191" d="M 78.355469 35.734375 C 78.234375 35.730469 78.117188 35.722656 78 35.710938 C 77.984375 35.710938 77.921875 35.703125 77.902344 35.699219 C 77.851562 35.691406 77.796875 35.683594 77.742188 35.671875 C 77.519531 35.632812 77.304688 35.574219 77.089844 35.496094 C 77.042969 35.480469 77 35.460938 76.953125 35.441406 C 76.949219 35.441406 76.949219 35.441406 76.949219 35.441406 C 76.941406 35.4375 76.929688 35.433594 76.914062 35.425781 C 76.820312 35.378906 76.726562 35.332031 76.636719 35.28125 C 76.558594 35.234375 76.480469 35.183594 76.402344 35.132812 C 76.363281 35.105469 76.328125 35.078125 76.289062 35.054688 C 76.277344 35.046875 76.273438 35.042969 76.269531 35.039062 C 76.261719 35.035156 76.253906 35.027344 76.246094 35.019531 C 76.101562 34.898438 75.964844 34.773438 75.835938 34.632812 C 75.777344 34.566406 75.71875 34.5 75.664062 34.429688 C 75.652344 34.421875 75.644531 34.40625 75.636719 34.398438 C 75.609375 34.359375 75.582031 34.320312 75.554688 34.285156 C 75.34375 33.984375 75.175781 33.660156 75.023438 33.324219 C 75.019531 33.3125 75.011719 33.296875 75.007812 33.285156 C 74.992188 33.246094 74.976562 33.203125 74.960938 33.164062 C 74.929688 33.078125 74.898438 32.988281 74.867188 32.902344 C 74.8125 32.734375 74.761719 32.566406 74.71875 32.398438 C 74.632812 32.082031 74.566406 31.761719 74.519531 31.4375 C 74.507812 31.382812 74.488281 31.226562 74.496094 31.289062 C 74.488281 31.234375 74.484375 31.175781 74.476562 31.121094 C 74.460938 30.992188 74.449219 30.863281 74.441406 30.730469 C 74.433594 30.621094 74.425781 30.515625 74.421875 30.40625 C 74.46875 30.40625 74.519531 30.410156 74.566406 30.414062 C 74.820312 30.425781 75.070312 30.453125 75.324219 30.484375 C 75.359375 30.488281 75.394531 30.492188 75.429688 30.5 C 75.511719 30.511719 75.589844 30.523438 75.667969 30.539062 C 75.828125 30.566406 75.988281 30.601562 76.148438 30.636719 C 76.488281 30.71875 76.820312 30.816406 77.148438 30.9375 C 77.191406 30.957031 77.378906 31.035156 77.339844 31.015625 C 77.414062 31.050781 77.488281 31.085938 77.5625 31.121094 C 77.726562 31.199219 77.886719 31.289062 78.042969 31.386719 C 78.117188 31.433594 78.191406 31.480469 78.261719 31.53125 C 78.296875 31.554688 78.335938 31.582031 78.371094 31.609375 C 78.378906 31.613281 78.386719 31.617188 78.390625 31.621094 C 78.394531 31.625 78.402344 31.632812 78.410156 31.636719 C 78.550781 31.757812 78.691406 31.878906 78.816406 32.015625 C 78.878906 32.082031 78.9375 32.148438 78.996094 32.21875 C 79.007812 32.230469 79.019531 32.25 79.03125 32.261719 C 79.058594 32.300781 79.085938 32.335938 79.113281 32.375 C 79.222656 32.539062 79.316406 32.710938 79.40625 32.886719 C 79.414062 32.910156 79.425781 32.929688 79.433594 32.953125 C 79.4375 32.957031 79.4375 32.957031 79.4375 32.960938 C 79.457031 33.011719 79.476562 33.0625 79.496094 33.113281 C 79.539062 33.234375 79.574219 33.355469 79.605469 33.480469 C 79.636719 33.605469 79.660156 33.726562 79.679688 33.851562 C 79.683594 33.871094 79.6875 33.890625 79.691406 33.910156 C 79.691406 33.917969 79.691406 33.933594 79.695312 33.945312 C 79.699219 34.015625 79.707031 34.082031 79.710938 34.148438 C 79.746094 34.671875 79.707031 35.144531 79.617188 35.628906 C 79.203125 35.707031 78.808594 35.746094 78.355469 35.734375 Z M 75.632812 34.390625 C 75.613281 34.367188 75.605469 34.359375 75.632812 34.390625 Z M 79.046875 32.28125 Z M 80.632812 32.847656 C 80.328125 31.957031 79.769531 31.21875 79.027344 30.652344 C 77.835938 29.746094 76.296875 29.382812 74.835938 29.261719 C 74.503906 29.234375 74.167969 29.21875 73.835938 29.230469 C 73.664062 29.238281 73.53125 29.308594 73.4375 29.410156 C 73.332031 29.503906 73.261719 29.640625 73.253906 29.816406 C 73.214844 30.738281 73.34375 31.699219 73.566406 32.589844 C 73.96875 34.199219 74.863281 35.792969 76.4375 36.480469 C 77.652344 37.015625 78.988281 36.972656 80.261719 36.683594 C 80.449219 36.640625 80.625 36.464844 80.667969 36.277344 C 80.917969 35.160156 81.003906 33.949219 80.632812 32.847656 " fill-opacity="1" fill-rule="nonzero"/></g><g clip-path="url(#id12)"><path fill="#919191" d="M 79.722656 25.40625 C 79.722656 27.375 79.722656 29.34375 79.722656 31.3125 C 79.722656 34.425781 79.722656 37.539062 79.722656 40.648438 C 79.722656 41.363281 79.722656 42.078125 79.722656 42.789062 C 79.722656 43.542969 80.886719 43.542969 80.886719 42.789062 C 80.886719 40.820312 80.886719 38.851562 80.886719 36.882812 C 80.886719 33.769531 80.886719 30.65625 80.886719 27.546875 C 80.886719 26.832031 80.886719 26.117188 80.886719 25.40625 C 80.886719 24.652344 79.722656 24.652344 79.722656 25.40625 " fill-opacity="1" fill-rule="nonzero"/></g><g clip-path="url(#id13)"><path fill="#919191" d="M 135.445312 14.976562 C 135.648438 14.9375 136.542969 14.839844 136.757812 14.597656 C 136.519531 14.316406 135.40625 14.210938 135.175781 14.175781 C 134.1875 14.039062 133.183594 13.980469 132.1875 13.988281 C 131.191406 13.996094 130.179688 14.019531 129.199219 14.175781 C 129.007812 14.207031 127.726562 14.648438 127.65625 14.613281 C 129.046875 15.339844 131.058594 15.242188 132.570312 15.210938 C 133.527344 15.1875 134.5 15.15625 135.445312 14.976562 Z M 136.316406 17.433594 C 136.347656 17.347656 136.367188 17.257812 136.375 17.164062 C 136.109375 17.214844 135.835938 17.238281 135.640625 17.253906 C 134.804688 17.316406 133.976562 17.269531 133.136719 17.269531 C 131.480469 17.269531 129.699219 17.378906 128.074219 16.972656 C 128.066406 16.96875 128.058594 16.964844 128.046875 16.964844 C 128.023438 17.109375 127.996094 17.289062 128.015625 17.421875 C 128.484375 17.929688 129.667969 18.074219 130.246094 18.164062 C 131.078125 18.292969 131.90625 18.257812 132.742188 18.261719 C 133.59375 18.265625 135.796875 18.398438 136.316406 17.433594 Z M 136.691406 41.425781 C 136.554688 41.476562 136.414062 41.527344 136.273438 41.574219 C 135.007812 41.976562 133.699219 42.0625 132.378906 42.058594 C 131.132812 42.054688 129.882812 42.042969 128.667969 41.71875 C 128.351562 41.632812 128.074219 41.511719 127.816406 41.363281 C 128.882812 42.171875 130.328125 42.492188 131.679688 42.527344 C 133.113281 42.566406 135.414062 42.480469 136.691406 41.425781 Z M 135.339844 24.3125 C 136.015625 24.183594 137.097656 24.054688 137.695312 23.609375 C 136.941406 23.007812 135.496094 23.046875 134.632812 23.007812 C 133.660156 22.960938 132.691406 22.960938 131.722656 22.957031 C 130.074219 22.953125 128.167969 22.6875 126.777344 23.773438 C 128.421875 24.703125 130.261719 24.792969 132.121094 24.765625 C 133.207031 24.75 134.277344 24.519531 135.339844 24.3125 Z M 136.886719 15.929688 C 136.921875 15.703125 136.976562 15.4375 136.96875 15.183594 C 136.625 15.382812 136.152344 15.464844 135.859375 15.519531 C 134.527344 15.769531 133.15625 15.851562 131.804688 15.820312 C 131.261719 15.808594 128.757812 15.890625 127.585938 15.335938 C 127.585938 15.816406 127.703125 16.289062 128.234375 16.378906 C 128.75 16.46875 129.265625 16.546875 129.789062 16.585938 C 130.777344 16.65625 131.769531 16.660156 132.761719 16.660156 C 133.714844 16.65625 134.695312 16.757812 135.640625 16.640625 C 136.082031 16.585938 136.792969 16.53125 136.886719 15.929688 Z M 136.078125 22.832031 C 136.570312 22.898438 137.179688 22.972656 137.652344 23.230469 C 137.300781 21.507812 136.730469 19.851562 136.015625 18.203125 C 136.011719 18.191406 136.003906 18.171875 136 18.15625 C 135.175781 18.609375 133.847656 18.574219 133.121094 18.570312 C 131.898438 18.566406 130.6875 18.625 129.488281 18.320312 C 129.125 18.226562 128.679688 18.144531 128.300781 17.972656 C 128.171875 18.988281 127.730469 20 127.441406 20.976562 C 127.203125 21.792969 126.953125 22.59375 126.753906 23.414062 C 128.28125 22.355469 130.316406 22.648438 132.089844 22.652344 C 133.421875 22.652344 134.753906 22.664062 136.078125 22.832031 Z M 137.914062 34.859375 C 137.972656 31.960938 138.167969 29.054688 138.027344 26.160156 C 137.992188 25.394531 137.90625 24.648438 137.78125 23.914062 C 137.128906 24.339844 136.125 24.472656 135.417969 24.609375 C 134.332031 24.8125 133.230469 25.085938 132.121094 25.070312 C 130.179688 25.050781 128.328125 25.007812 126.617188 24.03125 C 126.566406 24.273438 126.519531 24.519531 126.484375 24.765625 C 126.085938 27.503906 126.152344 30.269531 126.175781 33.027344 C 126.1875 35.121094 125.757812 37.582031 126.488281 39.585938 C 126.574219 39.816406 126.675781 40.023438 126.796875 40.222656 C 127.503906 40.8125 128.117188 41.308594 129.066406 41.496094 C 130.050781 41.691406 131.023438 41.746094 132.023438 41.75 C 133.066406 41.753906 134.144531 41.773438 135.167969 41.550781 C 135.75 41.421875 136.671875 41.257812 137.238281 40.8125 C 137.253906 40.792969 137.269531 40.773438 137.285156 40.75 C 138.289062 39.039062 137.871094 36.761719 137.914062 34.859375 Z M 138.660156 27.34375 C 138.695312 30.429688 138.445312 33.511719 138.511719 36.59375 C 138.554688 38.429688 138.605469 40.519531 137.128906 41.832031 C 135.789062 43.019531 133.367188 43.226562 131.679688 43.140625 C 129.824219 43.042969 127.828125 42.578125 126.585938 41.054688 C 125.246094 39.410156 125.511719 36.855469 125.5625 34.878906 C 125.636719 31.957031 125.421875 29.03125 125.71875 26.121094 C 125.867188 24.667969 126.085938 23.203125 126.542969 21.8125 C 126.761719 21.15625 126.929688 20.484375 127.136719 19.828125 C 127.324219 19.234375 127.589844 18.65625 127.691406 18.042969 C 127.335938 17.730469 127.429688 17.214844 127.480469 16.777344 C 127.480469 16.75 127.488281 16.726562 127.492188 16.703125 C 126.964844 16.300781 126.953125 15.59375 127.023438 14.824219 C 126.996094 14.753906 126.980469 14.679688 126.980469 14.597656 C 126.980469 14.019531 127.867188 13.816406 128.277344 13.730469 C 129.558594 13.453125 130.882812 13.363281 132.1875 13.375 C 133.476562 13.386719 134.832031 13.410156 136.09375 13.730469 C 136.46875 13.824219 137.085938 13.945312 137.3125 14.332031 C 137.320312 14.34375 137.328125 14.347656 137.335938 14.359375 C 137.75 14.9375 137.648438 16.269531 137.1875 16.800781 C 137.128906 16.863281 137.054688 16.921875 136.96875 16.96875 C 136.976562 17.429688 136.914062 17.796875 136.632812 18.121094 C 136.757812 18.40625 136.878906 18.695312 136.996094 18.984375 C 138.085938 21.695312 138.628906 24.414062 138.660156 27.34375 " fill-opacity="1" fill-rule="nonzero"/></g></svg>