<svg xmlns="http://www.w3.org/2000/svg" xmlns:xlink="http://www.w3.org/1999/xlink" width="453" zoomAndPan="magnify" viewBox="0 0 340.08 56.999996" height="75" preserveAspectRatio="xMidYMid meet" version="1.0"><defs><clipPath id="id1"><path d="M 5.644531 5.722656 L 49.410156 5.722656 L 49.410156 49.488281 L 5.644531 49.488281 Z M 5.644531 5.722656 " clip-rule="nonzero"/></clipPath><clipPath id="id2"><path d="M 56.097656 5.722656 L 99.863281 5.722656 L 99.863281 49.488281 L 56.097656 49.488281 Z M 56.097656 5.722656 " clip-rule="nonzero"/></clipPath><clipPath id="id3"><path d="M 106.417969 5.722656 L 150.183594 5.722656 L 150.183594 49.488281 L 106.417969 49.488281 Z M 106.417969 5.722656 " clip-rule="nonzero"/></clipPath><clipPath id="id4"><path d="M 17.675781 15.171875 L 37.097656 15.171875 L 37.097656 39.816406 L 17.675781 39.816406 Z M 17.675781 15.171875 " clip-rule="nonzero"/></clipPath><clipPath id="id5"><path d="M 77 23 L 84.601562 23 L 84.601562 30 L 77 30 Z M 77 23 " clip-rule="nonzero"/></clipPath><clipPath id="id6"><path d="M 71.15625 23 L 78 23 L 78 30 L 71.15625 30 Z M 71.15625 23 " clip-rule="nonzero"/></clipPath><clipPath id="id7"><path d="M 77 29 L 84.601562 29 L 84.601562 36 L 77 36 Z M 77 29 " clip-rule="nonzero"/></clipPath><clipPath id="id8"><path d="M 71.15625 29 L 78 29 L 78 36 L 71.15625 36 Z M 71.15625 29 " clip-rule="nonzero"/></clipPath><clipPath id="id9"><path d="M 74 15.601562 L 81 15.601562 L 81 26 L 74 26 Z M 74 15.601562 " clip-rule="nonzero"/></clipPath><clipPath id="id10"><path d="M 77 22 L 84.601562 22 L 84.601562 30 L 77 30 Z M 77 22 " clip-rule="nonzero"/></clipPath><clipPath id="id11"><path d="M 77 28 L 84.601562 28 L 84.601562 36 L 77 36 Z M 77 28 " clip-rule="nonzero"/></clipPath><clipPath id="id12"><path d="M 71.15625 22 L 79 22 L 79 30 L 71.15625 30 Z M 71.15625 22 " clip-rule="nonzero"/></clipPath><clipPath id="id13"><path d="M 71.15625 28 L 79 28 L 79 36 L 71.15625 36 Z M 71.15625 28 " clip-rule="nonzero"/></clipPath><clipPath id="id14"><path d="M 77 24 L 79 24 L 79 41.742188 L 77 41.742188 Z M 77 24 " clip-rule="nonzero"/></clipPath><clipPath id="id15"><path d="M 121.628906 13.132812 L 135.074219 13.132812 L 135.074219 42.261719 L 121.628906 42.261719 Z M 121.628906 13.132812 " clip-rule="nonzero"/></clipPath><clipPath id="id16"><path d="M 156.738281 5.722656 L 200.503906 5.722656 L 200.503906 49.488281 L 156.738281 49.488281 Z M 156.738281 5.722656 " clip-rule="nonzero"/></clipPath><clipPath id="id17"><path d="M 171 14 L 186 14 L 186 41 L 171 41 Z M 171 14 " clip-rule="nonzero"/></clipPath><clipPath id="id18"><path d="M 162.96875 27.515625 L 179.105469 11.972656 L 194.128906 27.574219 L 177.992188 43.117188 Z M 162.96875 27.515625 " clip-rule="nonzero"/></clipPath><clipPath id="id19"><path d="M 162.96875 27.515625 L 179.105469 11.972656 L 194.128906 27.574219 L 177.992188 43.117188 Z M 162.96875 27.515625 " clip-rule="nonzero"/></clipPath><clipPath id="id20"><path d="M 163.015625 27.46875 L 179.058594 12.015625 L 194.363281 27.90625 L 178.316406 43.359375 Z M 163.015625 27.46875 " clip-rule="nonzero"/></clipPath><clipPath id="id21"><path d="M 163.015625 27.46875 L 179.058594 12.015625 L 194.078125 27.609375 L 178.03125 43.0625 Z M 163.015625 27.46875 " clip-rule="nonzero"/></clipPath><clipPath id="id22"><path d="M 179 30 L 183 30 L 183 39 L 179 39 Z M 179 30 " clip-rule="nonzero"/></clipPath><clipPath id="id23"><path d="M 162.96875 27.515625 L 179.105469 11.972656 L 194.128906 27.574219 L 177.992188 43.117188 Z M 162.96875 27.515625 " clip-rule="nonzero"/></clipPath><clipPath id="id24"><path d="M 162.96875 27.515625 L 179.105469 11.972656 L 194.128906 27.574219 L 177.992188 43.117188 Z M 162.96875 27.515625 " clip-rule="nonzero"/></clipPath><clipPath id="id25"><path d="M 173 30 L 177 30 L 177 39 L 173 39 Z M 173 30 " clip-rule="nonzero"/></clipPath><clipPath id="id26"><path d="M 162.96875 27.515625 L 179.105469 11.972656 L 194.128906 27.574219 L 177.992188 43.117188 Z M 162.96875 27.515625 " clip-rule="nonzero"/></clipPath><clipPath id="id27"><path d="M 162.96875 27.515625 L 179.105469 11.972656 L 194.128906 27.574219 L 177.992188 43.117188 Z M 162.96875 27.515625 " clip-rule="nonzero"/></clipPath><clipPath id="id28"><path d="M 180 16 L 183 16 L 183 25 L 180 25 Z M 180 16 " clip-rule="nonzero"/></clipPath><clipPath id="id29"><path d="M 162.96875 27.515625 L 179.105469 11.972656 L 194.128906 27.574219 L 177.992188 43.117188 Z M 162.96875 27.515625 " clip-rule="nonzero"/></clipPath><clipPath id="id30"><path d="M 162.96875 27.515625 L 179.105469 11.972656 L 194.128906 27.574219 L 177.992188 43.117188 Z M 162.96875 27.515625 " clip-rule="nonzero"/></clipPath><clipPath id="id31"><path d="M 176 18 L 179 18 L 179 25 L 176 25 Z M 176 18 " clip-rule="nonzero"/></clipPath><clipPath id="id32"><path d="M 162.96875 27.515625 L 179.105469 11.972656 L 194.128906 27.574219 L 177.992188 43.117188 Z M 162.96875 27.515625 " clip-rule="nonzero"/></clipPath><clipPath id="id33"><path d="M 162.96875 27.515625 L 179.105469 11.972656 L 194.128906 27.574219 L 177.992188 43.117188 Z M 162.96875 27.515625 " clip-rule="nonzero"/></clipPath><clipPath id="id34"><path d="M 174 19 L 177 19 L 177 26 L 174 26 Z M 174 19 " clip-rule="nonzero"/></clipPath><clipPath id="id35"><path d="M 162.96875 27.515625 L 179.105469 11.972656 L 194.128906 27.574219 L 177.992188 43.117188 Z M 162.96875 27.515625 " clip-rule="nonzero"/></clipPath><clipPath id="id36"><path d="M 162.96875 27.515625 L 179.105469 11.972656 L 194.128906 27.574219 L 177.992188 43.117188 Z M 162.96875 27.515625 " clip-rule="nonzero"/></clipPath><clipPath id="id37"><path d="M 177 31 L 179 31 L 179 37 L 177 37 Z M 177 31 " clip-rule="nonzero"/></clipPath><clipPath id="id38"><path d="M 162.96875 27.515625 L 179.105469 11.972656 L 194.128906 27.574219 L 177.992188 43.117188 Z M 162.96875 27.515625 " clip-rule="nonzero"/></clipPath><clipPath id="id39"><path d="M 162.96875 27.515625 L 179.105469 11.972656 L 194.128906 27.574219 L 177.992188 43.117188 Z M 162.96875 27.515625 " clip-rule="nonzero"/></clipPath><clipPath id="id40"><path d="M 175 34 L 178 34 L 178 36 L 175 36 Z M 175 34 " clip-rule="nonzero"/></clipPath><clipPath id="id41"><path d="M 162.96875 27.515625 L 179.105469 11.972656 L 194.128906 27.574219 L 177.992188 43.117188 Z M 162.96875 27.515625 " clip-rule="nonzero"/></clipPath><clipPath id="id42"><path d="M 162.96875 27.515625 L 179.105469 11.972656 L 194.128906 27.574219 L 177.992188 43.117188 Z M 162.96875 27.515625 " clip-rule="nonzero"/></clipPath><clipPath id="id43"><path d="M 175 32 L 178 32 L 178 35 L 175 35 Z M 175 32 " clip-rule="nonzero"/></clipPath><clipPath id="id44"><path d="M 162.96875 27.515625 L 179.105469 11.972656 L 194.128906 27.574219 L 177.992188 43.117188 Z M 162.96875 27.515625 " clip-rule="nonzero"/></clipPath><clipPath id="id45"><path d="M 162.96875 27.515625 L 179.105469 11.972656 L 194.128906 27.574219 L 177.992188 43.117188 Z M 162.96875 27.515625 " clip-rule="nonzero"/></clipPath><clipPath id="id46"><path d="M 179 31 L 181 31 L 181 33 L 179 33 Z M 179 31 " clip-rule="nonzero"/></clipPath><clipPath id="id47"><path d="M 162.96875 27.515625 L 179.105469 11.972656 L 194.128906 27.574219 L 177.992188 43.117188 Z M 162.96875 27.515625 " clip-rule="nonzero"/></clipPath><clipPath id="id48"><path d="M 162.96875 27.515625 L 179.105469 11.972656 L 194.128906 27.574219 L 177.992188 43.117188 Z M 162.96875 27.515625 " clip-rule="nonzero"/></clipPath><clipPath id="id49"><path d="M 179 20 L 181 20 L 181 22 L 179 22 Z M 179 20 " clip-rule="nonzero"/></clipPath><clipPath id="id50"><path d="M 162.96875 27.515625 L 179.105469 11.972656 L 194.128906 27.574219 L 177.992188 43.117188 Z M 162.96875 27.515625 " clip-rule="nonzero"/></clipPath><clipPath id="id51"><path d="M 162.96875 27.515625 L 179.105469 11.972656 L 194.128906 27.574219 L 177.992188 43.117188 Z M 162.96875 27.515625 " clip-rule="nonzero"/></clipPath><clipPath id="id52"><path d="M 179 33 L 181 33 L 181 35 L 179 35 Z M 179 33 " clip-rule="nonzero"/></clipPath><clipPath id="id53"><path d="M 162.96875 27.515625 L 179.105469 11.972656 L 194.128906 27.574219 L 177.992188 43.117188 Z M 162.96875 27.515625 " clip-rule="nonzero"/></clipPath><clipPath id="id54"><path d="M 162.96875 27.515625 L 179.105469 11.972656 L 194.128906 27.574219 L 177.992188 43.117188 Z M 162.96875 27.515625 " clip-rule="nonzero"/></clipPath><clipPath id="id55"><path d="M 179 22 L 181 22 L 181 24 L 179 24 Z M 179 22 " clip-rule="nonzero"/></clipPath><clipPath id="id56"><path d="M 162.96875 27.515625 L 179.105469 11.972656 L 194.128906 27.574219 L 177.992188 43.117188 Z M 162.96875 27.515625 " clip-rule="nonzero"/></clipPath><clipPath id="id57"><path d="M 162.96875 27.515625 L 179.105469 11.972656 L 194.128906 27.574219 L 177.992188 43.117188 Z M 162.96875 27.515625 " clip-rule="nonzero"/></clipPath><clipPath id="id58"><path d="M 176 30 L 178 30 L 178 32 L 176 32 Z M 176 30 " clip-rule="nonzero"/></clipPath><clipPath id="id59"><path d="M 162.96875 27.515625 L 179.105469 11.972656 L 194.128906 27.574219 L 177.992188 43.117188 Z M 162.96875 27.515625 " clip-rule="nonzero"/></clipPath><clipPath id="id60"><path d="M 162.96875 27.515625 L 179.105469 11.972656 L 194.128906 27.574219 L 177.992188 43.117188 Z M 162.96875 27.515625 " clip-rule="nonzero"/></clipPath><clipPath id="id61"><path d="M 176 36 L 178 36 L 178 38 L 176 38 Z M 176 36 " clip-rule="nonzero"/></clipPath><clipPath id="id62"><path d="M 162.96875 27.515625 L 179.105469 11.972656 L 194.128906 27.574219 L 177.992188 43.117188 Z M 162.96875 27.515625 " clip-rule="nonzero"/></clipPath><clipPath id="id63"><path d="M 162.96875 27.515625 L 179.105469 11.972656 L 194.128906 27.574219 L 177.992188 43.117188 Z M 162.96875 27.515625 " clip-rule="nonzero"/></clipPath><clipPath id="id64"><path d="M 173 33 L 175 33 L 175 35 L 173 35 Z M 173 33 " clip-rule="nonzero"/></clipPath><clipPath id="id65"><path d="M 162.96875 27.515625 L 179.105469 11.972656 L 194.128906 27.574219 L 177.992188 43.117188 Z M 162.96875 27.515625 " clip-rule="nonzero"/></clipPath><clipPath id="id66"><path d="M 162.96875 27.515625 L 179.105469 11.972656 L 194.128906 27.574219 L 177.992188 43.117188 Z M 162.96875 27.515625 " clip-rule="nonzero"/></clipPath><clipPath id="id67"><path d="M 180 28 L 182 28 L 182 30 L 180 30 Z M 180 28 " clip-rule="nonzero"/></clipPath><clipPath id="id68"><path d="M 162.96875 27.515625 L 179.105469 11.972656 L 194.128906 27.574219 L 177.992188 43.117188 Z M 162.96875 27.515625 " clip-rule="nonzero"/></clipPath><clipPath id="id69"><path d="M 162.96875 27.515625 L 179.105469 11.972656 L 194.128906 27.574219 L 177.992188 43.117188 Z M 162.96875 27.515625 " clip-rule="nonzero"/></clipPath><clipPath id="id70"><path d="M 182 34 L 184 34 L 184 36 L 182 36 Z M 182 34 " clip-rule="nonzero"/></clipPath><clipPath id="id71"><path d="M 162.96875 27.515625 L 179.105469 11.972656 L 194.128906 27.574219 L 177.992188 43.117188 Z M 162.96875 27.515625 " clip-rule="nonzero"/></clipPath><clipPath id="id72"><path d="M 162.96875 27.515625 L 179.105469 11.972656 L 194.128906 27.574219 L 177.992188 43.117188 Z M 162.96875 27.515625 " clip-rule="nonzero"/></clipPath><clipPath id="id73"><path d="M 174 29 L 176 29 L 176 31 L 174 31 Z M 174 29 " clip-rule="nonzero"/></clipPath><clipPath id="id74"><path d="M 162.96875 27.515625 L 179.105469 11.972656 L 194.128906 27.574219 L 177.992188 43.117188 Z M 162.96875 27.515625 " clip-rule="nonzero"/></clipPath><clipPath id="id75"><path d="M 162.96875 27.515625 L 179.105469 11.972656 L 194.128906 27.574219 L 177.992188 43.117188 Z M 162.96875 27.515625 " clip-rule="nonzero"/></clipPath><clipPath id="id76"><path d="M 175 27 L 177 27 L 177 30 L 175 30 Z M 175 27 " clip-rule="nonzero"/></clipPath><clipPath id="id77"><path d="M 162.96875 27.515625 L 179.105469 11.972656 L 194.128906 27.574219 L 177.992188 43.117188 Z M 162.96875 27.515625 " clip-rule="nonzero"/></clipPath><clipPath id="id78"><path d="M 162.96875 27.515625 L 179.105469 11.972656 L 194.128906 27.574219 L 177.992188 43.117188 Z M 162.96875 27.515625 " clip-rule="nonzero"/></clipPath><clipPath id="id79"><path d="M 176 20 L 178 20 L 178 22 L 176 22 Z M 176 20 " clip-rule="nonzero"/></clipPath><clipPath id="id80"><path d="M 162.96875 27.515625 L 179.105469 11.972656 L 194.128906 27.574219 L 177.992188 43.117188 Z M 162.96875 27.515625 " clip-rule="nonzero"/></clipPath><clipPath id="id81"><path d="M 162.96875 27.515625 L 179.105469 11.972656 L 194.128906 27.574219 L 177.992188 43.117188 Z M 162.96875 27.515625 " clip-rule="nonzero"/></clipPath><clipPath id="id82"><path d="M 173 20 L 175 20 L 175 22 L 173 22 Z M 173 20 " clip-rule="nonzero"/></clipPath><clipPath id="id83"><path d="M 162.96875 27.515625 L 179.105469 11.972656 L 194.128906 27.574219 L 177.992188 43.117188 Z M 162.96875 27.515625 " clip-rule="nonzero"/></clipPath><clipPath id="id84"><path d="M 162.96875 27.515625 L 179.105469 11.972656 L 194.128906 27.574219 L 177.992188 43.117188 Z M 162.96875 27.515625 " clip-rule="nonzero"/></clipPath><clipPath id="id85"><path d="M 177 28 L 179 28 L 179 30 L 177 30 Z M 177 28 " clip-rule="nonzero"/></clipPath><clipPath id="id86"><path d="M 162.96875 27.515625 L 179.105469 11.972656 L 194.128906 27.574219 L 177.992188 43.117188 Z M 162.96875 27.515625 " clip-rule="nonzero"/></clipPath><clipPath id="id87"><path d="M 162.96875 27.515625 L 179.105469 11.972656 L 194.128906 27.574219 L 177.992188 43.117188 Z M 162.96875 27.515625 " clip-rule="nonzero"/></clipPath><clipPath id="id88"><path d="M 182 31 L 184 31 L 184 33 L 182 33 Z M 182 31 " clip-rule="nonzero"/></clipPath><clipPath id="id89"><path d="M 162.96875 27.515625 L 179.105469 11.972656 L 194.128906 27.574219 L 177.992188 43.117188 Z M 162.96875 27.515625 " clip-rule="nonzero"/></clipPath><clipPath id="id90"><path d="M 162.96875 27.515625 L 179.105469 11.972656 L 194.128906 27.574219 L 177.992188 43.117188 Z M 162.96875 27.515625 " clip-rule="nonzero"/></clipPath><clipPath id="id91"><path d="M 179 26 L 181 26 L 181 28 L 179 28 Z M 179 26 " clip-rule="nonzero"/></clipPath><clipPath id="id92"><path d="M 162.96875 27.515625 L 179.105469 11.972656 L 194.128906 27.574219 L 177.992188 43.117188 Z M 162.96875 27.515625 " clip-rule="nonzero"/></clipPath><clipPath id="id93"><path d="M 162.96875 27.515625 L 179.105469 11.972656 L 194.128906 27.574219 L 177.992188 43.117188 Z M 162.96875 27.515625 " clip-rule="nonzero"/></clipPath><clipPath id="id94"><path d="M 176 29 L 178 29 L 178 31 L 176 31 Z M 176 29 " clip-rule="nonzero"/></clipPath><clipPath id="id95"><path d="M 162.96875 27.515625 L 179.105469 11.972656 L 194.128906 27.574219 L 177.992188 43.117188 Z M 162.96875 27.515625 " clip-rule="nonzero"/></clipPath><clipPath id="id96"><path d="M 162.96875 27.515625 L 179.105469 11.972656 L 194.128906 27.574219 L 177.992188 43.117188 Z M 162.96875 27.515625 " clip-rule="nonzero"/></clipPath></defs><g clip-path="url(#id1)"><path fill="#919191" d="M 27.527344 49.488281 C 21.6875 49.488281 16.183594 47.214844 12.058594 43.078125 C 7.917969 38.949219 5.644531 33.449219 5.644531 27.605469 C 5.644531 21.761719 7.917969 16.261719 12.058594 12.132812 C 16.183594 7.996094 21.6875 5.722656 27.527344 5.722656 C 33.371094 5.722656 38.871094 7.996094 43 12.132812 C 47.136719 16.269531 49.410156 21.761719 49.410156 27.605469 C 49.410156 33.449219 47.136719 38.949219 43 43.078125 C 38.871094 47.214844 33.371094 49.488281 27.527344 49.488281 Z M 27.527344 7.035156 C 22.035156 7.035156 16.867188 9.175781 12.984375 13.0625 C 9.101562 16.945312 6.957031 22.113281 6.957031 27.605469 C 6.957031 33.097656 9.101562 38.265625 12.984375 42.152344 C 16.867188 46.035156 22.035156 48.175781 27.527344 48.175781 C 33.023438 48.175781 38.191406 46.035156 42.074219 42.152344 C 45.957031 38.265625 48.101562 33.097656 48.101562 27.605469 C 48.101562 22.113281 45.957031 16.945312 42.074219 13.0625 C 38.191406 9.175781 33.023438 7.035156 27.527344 7.035156 Z M 27.527344 7.035156 " fill-opacity="1" fill-rule="nonzero"/></g><g clip-path="url(#id2)"><path fill="#919191" d="M 77.980469 49.488281 C 72.140625 49.488281 66.636719 47.214844 62.511719 43.078125 C 58.371094 38.949219 56.097656 33.449219 56.097656 27.605469 C 56.097656 21.761719 58.371094 16.261719 62.511719 12.132812 C 66.636719 7.996094 72.140625 5.722656 77.980469 5.722656 C 83.824219 5.722656 89.324219 7.996094 93.453125 12.132812 C 97.589844 16.269531 99.863281 21.761719 99.863281 27.605469 C 99.863281 33.449219 97.589844 38.949219 93.453125 43.078125 C 89.324219 47.214844 83.824219 49.488281 77.980469 49.488281 Z M 77.980469 7.035156 C 72.488281 7.035156 67.320312 9.175781 63.4375 13.0625 C 59.554688 16.945312 57.410156 22.113281 57.410156 27.605469 C 57.410156 33.097656 59.554688 38.265625 63.4375 42.152344 C 67.320312 46.035156 72.488281 48.175781 77.980469 48.175781 C 83.476562 48.175781 88.644531 46.035156 92.527344 42.152344 C 96.410156 38.265625 98.554688 33.097656 98.554688 27.605469 C 98.554688 22.113281 96.410156 16.945312 92.527344 13.0625 C 88.644531 9.175781 83.476562 7.035156 77.980469 7.035156 Z M 77.980469 7.035156 " fill-opacity="1" fill-rule="nonzero"/></g><g clip-path="url(#id3)"><path fill="#919191" d="M 128.300781 49.488281 C 122.460938 49.488281 116.957031 47.214844 112.832031 43.078125 C 108.691406 38.949219 106.417969 33.449219 106.417969 27.605469 C 106.417969 21.761719 108.691406 16.261719 112.832031 12.132812 C 116.957031 7.996094 122.460938 5.722656 128.300781 5.722656 C 134.144531 5.722656 139.644531 7.996094 143.773438 12.132812 C 147.910156 16.269531 150.183594 21.761719 150.183594 27.605469 C 150.183594 33.449219 147.910156 38.949219 143.773438 43.078125 C 139.644531 47.214844 134.144531 49.488281 128.300781 49.488281 Z M 128.300781 7.035156 C 122.808594 7.035156 117.640625 9.175781 113.757812 13.0625 C 109.875 16.945312 107.730469 22.113281 107.730469 27.605469 C 107.730469 33.097656 109.875 38.265625 113.757812 42.152344 C 117.640625 46.035156 122.808594 48.175781 128.300781 48.175781 C 133.796875 48.175781 138.964844 46.035156 142.847656 42.152344 C 146.730469 38.265625 148.875 33.097656 148.875 27.605469 C 148.875 22.113281 146.730469 16.945312 142.847656 13.0625 C 138.964844 9.175781 133.796875 7.035156 128.300781 7.035156 Z M 128.300781 7.035156 " fill-opacity="1" fill-rule="nonzero"/></g><g clip-path="url(#id4)"><path fill="#919191" d="M 27.386719 15.203125 C 22.226562 15.203125 18.347656 23.46875 17.757812 28.753906 C 17.667969 28.882812 17.652344 29.019531 17.714844 29.164062 C 17.691406 29.476562 17.675781 29.777344 17.675781 30.0625 C 17.675781 30.703125 17.738281 31.339844 17.863281 31.96875 C 17.988281 32.597656 18.171875 33.207031 18.417969 33.800781 C 18.660156 34.390625 18.960938 34.953125 19.3125 35.488281 C 19.667969 36.019531 20.070312 36.515625 20.523438 36.96875 C 20.972656 37.421875 21.460938 37.824219 21.992188 38.183594 C 22.523438 38.539062 23.082031 38.839844 23.671875 39.085938 C 24.261719 39.332031 24.867188 39.515625 25.492188 39.640625 C 26.117188 39.765625 26.75 39.828125 27.386719 39.828125 C 28.023438 39.828125 28.65625 39.765625 29.28125 39.640625 C 29.90625 39.515625 30.515625 39.332031 31.101562 39.085938 C 31.691406 38.839844 32.25 38.539062 32.78125 38.183594 C 33.3125 37.824219 33.800781 37.421875 34.253906 36.96875 C 34.703125 36.515625 35.105469 36.019531 35.460938 35.488281 C 35.8125 34.953125 36.113281 34.390625 36.359375 33.800781 C 36.601562 33.207031 36.785156 32.597656 36.910156 31.96875 C 37.035156 31.339844 37.097656 30.703125 37.097656 30.0625 C 37.097656 24.976562 32.996094 15.203125 27.386719 15.203125 Z M 27.386719 16.050781 C 31.328125 16.050781 34.863281 22.132812 35.925781 27.210938 L 32.460938 29.148438 L 28.449219 26.726562 C 28.292969 26.632812 28.140625 26.640625 27.992188 26.742188 L 24.019531 29.539062 L 20.886719 27.175781 C 20.738281 27.0625 20.582031 27.054688 20.421875 27.148438 L 18.679688 28.171875 C 19.460938 22.933594 23.195312 16.050781 27.386719 16.050781 Z M 27.386719 38.980469 C 26.804688 38.976562 26.230469 38.921875 25.660156 38.804688 C 25.085938 38.691406 24.535156 38.523438 23.996094 38.296875 C 23.457031 38.074219 22.949219 37.796875 22.464844 37.472656 C 21.980469 37.148438 21.53125 36.777344 21.121094 36.363281 C 20.710938 35.949219 20.34375 35.5 20.019531 35.015625 C 19.695312 34.527344 19.421875 34.015625 19.199219 33.472656 C 18.976562 32.933594 18.808594 32.375 18.695312 31.800781 C 18.578125 31.226562 18.523438 30.648438 18.523438 30.0625 C 18.523438 29.792969 18.535156 29.511719 18.554688 29.226562 L 20.605469 28.023438 L 23.757812 30.402344 C 23.917969 30.527344 24.085938 30.527344 24.25 30.410156 L 28.25 27.597656 L 32.234375 30.003906 C 32.375 30.085938 32.515625 30.089844 32.65625 30.007812 L 36.085938 28.09375 C 36.191406 28.746094 36.246094 29.402344 36.253906 30.0625 C 36.25 30.648438 36.195312 31.226562 36.082031 31.800781 C 35.964844 32.375 35.796875 32.933594 35.574219 33.472656 C 35.351562 34.015625 35.078125 34.527344 34.753906 35.015625 C 34.433594 35.5 34.0625 35.949219 33.652344 36.363281 C 33.242188 36.777344 32.792969 37.148438 32.308594 37.472656 C 31.828125 37.796875 31.316406 38.074219 30.777344 38.296875 C 30.242188 38.523438 29.6875 38.691406 29.117188 38.804688 C 28.546875 38.921875 27.96875 38.976562 27.386719 38.980469 Z M 27.386719 38.980469 " fill-opacity="1" fill-rule="nonzero"/></g><g clip-path="url(#id5)"><path fill="#ffffff" d="M 84.019531 23.070312 C 84.019531 23.070312 76.636719 22.742188 78.074219 29.035156 C 84.347656 30.480469 84.019531 23.070312 84.019531 23.070312 " fill-opacity="1" fill-rule="nonzero"/></g><g clip-path="url(#id6)"><path fill="#ffffff" d="M 71.761719 23.070312 C 71.761719 23.070312 79.140625 22.742188 77.703125 29.035156 C 71.429688 30.480469 71.761719 23.070312 71.761719 23.070312 " fill-opacity="1" fill-rule="nonzero"/></g><g clip-path="url(#id7)"><path fill="#ffffff" d="M 84.019531 29.226562 C 84.019531 29.226562 76.636719 28.894531 78.074219 35.191406 C 84.347656 36.632812 84.019531 29.226562 84.019531 29.226562 " fill-opacity="1" fill-rule="nonzero"/></g><g clip-path="url(#id8)"><path fill="#ffffff" d="M 71.761719 29.226562 C 71.761719 29.226562 79.140625 28.894531 77.703125 35.191406 C 71.429688 36.632812 71.761719 29.226562 71.761719 29.226562 " fill-opacity="1" fill-rule="nonzero"/></g><path fill="#ffffff" d="M 77.890625 16.148438 C 77.890625 16.148438 72.4375 21.152344 77.890625 24.585938 C 83.34375 21.152344 77.890625 16.148438 77.890625 16.148438 " fill-opacity="1" fill-rule="nonzero"/><g clip-path="url(#id9)"><path fill="#919191" d="M 79.761719 20.945312 C 79.761719 21.03125 79.753906 21.113281 79.75 21.199219 C 79.746094 21.210938 79.742188 21.261719 79.742188 21.277344 C 79.738281 21.304688 79.734375 21.332031 79.726562 21.359375 C 79.695312 21.554688 79.644531 21.742188 79.582031 21.925781 C 79.300781 22.722656 78.625 23.40625 77.890625 23.921875 C 77.21875 23.453125 76.636719 22.878906 76.28125 22.132812 C 76.015625 21.574219 75.964844 20.828125 76.066406 20.269531 C 76.128906 19.925781 76.230469 19.597656 76.355469 19.277344 C 76.359375 19.261719 76.367188 19.25 76.367188 19.242188 C 76.371094 19.238281 76.371094 19.238281 76.371094 19.234375 C 76.390625 19.191406 76.40625 19.152344 76.425781 19.113281 C 76.457031 19.046875 76.484375 18.984375 76.515625 18.917969 C 76.59375 18.765625 76.675781 18.609375 76.761719 18.460938 C 76.917969 18.195312 77.089844 17.9375 77.269531 17.6875 C 77.308594 17.632812 77.347656 17.582031 77.386719 17.527344 C 77.390625 17.527344 77.394531 17.523438 77.394531 17.519531 C 77.414062 17.496094 77.429688 17.476562 77.449219 17.453125 C 77.527344 17.351562 77.609375 17.253906 77.695312 17.15625 C 77.757812 17.082031 77.824219 17.007812 77.890625 16.9375 C 77.917969 16.964844 77.945312 16.996094 77.972656 17.027344 C 78.042969 17.105469 78.113281 17.1875 78.179688 17.269531 C 78.222656 17.320312 78.265625 17.371094 78.304688 17.421875 C 78.324219 17.445312 78.386719 17.523438 78.398438 17.539062 C 78.570312 17.765625 78.734375 18 78.886719 18.246094 C 79.058594 18.523438 79.21875 18.8125 79.355469 19.113281 C 79.371094 19.152344 79.390625 19.191406 79.40625 19.234375 C 79.410156 19.238281 79.410156 19.238281 79.410156 19.242188 C 79.414062 19.25 79.417969 19.261719 79.425781 19.277344 C 79.449219 19.34375 79.476562 19.410156 79.5 19.480469 C 79.558594 19.648438 79.613281 19.824219 79.65625 20 C 79.746094 20.367188 79.769531 20.546875 79.761719 20.945312 Z M 80.808594 20.191406 C 80.609375 18.789062 79.832031 17.523438 78.933594 16.457031 C 78.726562 16.214844 78.515625 15.972656 78.277344 15.757812 C 78.15625 15.644531 78.019531 15.601562 77.890625 15.609375 C 77.761719 15.601562 77.625 15.644531 77.5 15.757812 C 76.851562 16.355469 76.285156 17.101562 75.839844 17.859375 C 75.046875 19.207031 74.59375 20.878906 75.203125 22.390625 C 75.667969 23.546875 76.578125 24.402344 77.613281 25.0625 C 77.773438 25.164062 78.007812 25.164062 78.167969 25.0625 C 79.078125 24.480469 79.941406 23.734375 80.421875 22.746094 C 80.8125 21.945312 80.933594 21.074219 80.808594 20.191406 " fill-opacity="1" fill-rule="nonzero"/></g><g clip-path="url(#id10)"><path fill="#919191" d="M 83.390625 24.484375 C 83.386719 24.519531 83.382812 24.554688 83.375 24.589844 C 83.363281 24.664062 83.351562 24.738281 83.339844 24.816406 C 83.3125 24.96875 83.28125 25.121094 83.246094 25.269531 C 83.167969 25.59375 83.078125 25.910156 82.960938 26.21875 C 82.945312 26.265625 82.867188 26.441406 82.886719 26.402344 C 82.855469 26.476562 82.824219 26.546875 82.789062 26.617188 C 82.714844 26.773438 82.628906 26.925781 82.539062 27.070312 C 82.496094 27.144531 82.449219 27.210938 82.402344 27.28125 C 82.378906 27.316406 82.355469 27.347656 82.332031 27.382812 C 82.324219 27.390625 82.320312 27.398438 82.316406 27.402344 C 82.3125 27.40625 82.308594 27.414062 82.300781 27.421875 C 82.1875 27.554688 82.074219 27.6875 81.945312 27.808594 C 81.882812 27.867188 81.820312 27.925781 81.753906 27.980469 C 81.742188 27.992188 81.726562 28.003906 81.714844 28.011719 C 81.679688 28.039062 81.644531 28.0625 81.605469 28.089844 C 81.453125 28.195312 81.292969 28.285156 81.125 28.367188 C 81.105469 28.378906 81.082031 28.386719 81.0625 28.394531 C 81.058594 28.398438 81.058594 28.398438 81.054688 28.398438 C 81.007812 28.417969 80.960938 28.4375 80.914062 28.453125 C 80.796875 28.496094 80.679688 28.53125 80.5625 28.558594 C 80.449219 28.589844 80.332031 28.609375 80.214844 28.628906 C 80.195312 28.632812 80.179688 28.636719 80.160156 28.640625 C 80.152344 28.640625 80.140625 28.640625 80.125 28.644531 C 80.0625 28.648438 80 28.65625 79.933594 28.660156 C 79.441406 28.691406 78.996094 28.652344 78.539062 28.570312 C 78.46875 28.175781 78.429688 27.796875 78.441406 27.367188 C 78.445312 27.257812 78.453125 27.144531 78.460938 27.035156 C 78.464844 27.015625 78.46875 26.957031 78.472656 26.941406 C 78.480469 26.890625 78.488281 26.835938 78.496094 26.785156 C 78.535156 26.578125 78.589844 26.367188 78.664062 26.167969 C 78.679688 26.125 78.695312 26.078125 78.714844 26.035156 C 78.714844 26.03125 78.714844 26.03125 78.714844 26.03125 C 78.71875 26.023438 78.726562 26.011719 78.734375 25.996094 C 78.777344 25.910156 78.820312 25.820312 78.867188 25.738281 C 78.910156 25.660156 78.957031 25.585938 79.007812 25.511719 C 79.03125 25.476562 79.058594 25.441406 79.082031 25.40625 C 79.089844 25.394531 79.09375 25.386719 79.09375 25.382812 C 79.101562 25.378906 79.105469 25.371094 79.113281 25.363281 C 79.230469 25.226562 79.347656 25.097656 79.476562 24.976562 C 79.539062 24.917969 79.605469 24.863281 79.667969 24.808594 C 79.679688 24.800781 79.691406 24.792969 79.699219 24.785156 C 79.734375 24.757812 79.769531 24.730469 79.808594 24.707031 C 80.089844 24.507812 80.394531 24.34375 80.710938 24.203125 C 80.726562 24.195312 80.738281 24.191406 80.75 24.1875 C 80.789062 24.171875 80.824219 24.15625 80.863281 24.140625 C 80.945312 24.109375 81.027344 24.082031 81.109375 24.054688 C 81.265625 24 81.425781 23.953125 81.585938 23.910156 C 81.882812 23.832031 82.1875 23.769531 82.492188 23.71875 C 82.542969 23.710938 82.691406 23.691406 82.632812 23.699219 C 82.683594 23.695312 82.734375 23.6875 82.789062 23.679688 C 82.910156 23.667969 83.035156 23.65625 83.15625 23.648438 C 83.257812 23.640625 83.363281 23.632812 83.464844 23.628906 C 83.460938 23.675781 83.460938 23.71875 83.457031 23.765625 C 83.445312 24.007812 83.417969 24.246094 83.390625 24.484375 Z M 81.695312 28.027344 Z M 79.707031 24.777344 C 79.726562 24.761719 79.738281 24.753906 79.707031 24.777344 Z M 84.570312 23.070312 C 84.5625 22.90625 84.496094 22.78125 84.402344 22.691406 C 84.3125 22.59375 84.1875 22.527344 84.019531 22.519531 C 83.152344 22.480469 82.246094 22.605469 81.40625 22.816406 C 79.886719 23.195312 78.386719 24.050781 77.734375 25.546875 C 77.234375 26.703125 77.273438 27.972656 77.542969 29.183594 C 77.585938 29.363281 77.75 29.527344 77.929688 29.570312 C 78.984375 29.804688 80.121094 29.890625 81.160156 29.535156 C 82 29.246094 82.695312 28.714844 83.230469 28.007812 C 84.085938 26.875 84.425781 25.414062 84.539062 24.023438 C 84.566406 23.707031 84.582031 23.386719 84.570312 23.070312 " fill-opacity="1" fill-rule="nonzero"/></g><g clip-path="url(#id11)"><path fill="#919191" d="M 83.390625 30.171875 C 83.386719 30.203125 83.382812 30.238281 83.375 30.273438 C 83.363281 30.347656 83.351562 30.425781 83.339844 30.5 C 83.3125 30.652344 83.28125 30.804688 83.246094 30.957031 C 83.167969 31.277344 83.078125 31.59375 82.960938 31.90625 C 82.945312 31.949219 82.867188 32.128906 82.886719 32.089844 C 82.855469 32.160156 82.824219 32.230469 82.789062 32.300781 C 82.714844 32.457031 82.628906 32.609375 82.539062 32.757812 C 82.496094 32.828125 82.449219 32.898438 82.402344 32.964844 C 82.378906 33 82.355469 33.035156 82.332031 33.066406 C 82.324219 33.078125 82.320312 33.082031 82.316406 33.085938 C 82.3125 33.089844 82.308594 33.097656 82.300781 33.105469 C 82.1875 33.242188 82.074219 33.371094 81.945312 33.496094 C 81.882812 33.554688 81.820312 33.609375 81.753906 33.664062 C 81.742188 33.675781 81.726562 33.6875 81.714844 33.695312 C 81.679688 33.722656 81.644531 33.75 81.605469 33.773438 C 81.453125 33.878906 81.292969 33.96875 81.125 34.050781 C 81.105469 34.0625 81.082031 34.070312 81.0625 34.082031 C 81.058594 34.082031 81.058594 34.082031 81.054688 34.082031 C 81.007812 34.101562 80.960938 34.121094 80.914062 34.136719 C 80.796875 34.179688 80.679688 34.214844 80.5625 34.242188 C 80.449219 34.273438 80.332031 34.292969 80.214844 34.316406 C 80.195312 34.320312 80.179688 34.320312 80.160156 34.324219 C 80.152344 34.324219 80.140625 34.324219 80.125 34.328125 C 80.0625 34.332031 80 34.339844 79.933594 34.34375 C 79.441406 34.375 78.996094 34.339844 78.539062 34.253906 C 78.46875 33.859375 78.429688 33.484375 78.441406 33.050781 C 78.445312 32.941406 78.453125 32.828125 78.460938 32.71875 C 78.464844 32.699219 78.46875 32.644531 78.472656 32.625 C 78.480469 32.574219 78.488281 32.523438 78.496094 32.472656 C 78.535156 32.261719 78.589844 32.054688 78.664062 31.851562 C 78.679688 31.808594 78.695312 31.765625 78.714844 31.71875 C 78.714844 31.71875 78.714844 31.714844 78.714844 31.714844 C 78.71875 31.707031 78.726562 31.699219 78.734375 31.683594 C 78.777344 31.59375 78.820312 31.507812 78.867188 31.421875 C 78.910156 31.34375 78.957031 31.269531 79.007812 31.195312 C 79.03125 31.160156 79.058594 31.125 79.082031 31.089844 C 79.089844 31.078125 79.09375 31.074219 79.09375 31.070312 C 79.101562 31.0625 79.105469 31.054688 79.113281 31.046875 C 79.230469 30.910156 79.347656 30.78125 79.476562 30.660156 C 79.539062 30.601562 79.605469 30.546875 79.667969 30.492188 C 79.679688 30.484375 79.691406 30.476562 79.699219 30.46875 C 79.734375 30.441406 79.769531 30.414062 79.808594 30.390625 C 80.089844 30.191406 80.394531 30.03125 80.710938 29.886719 C 80.726562 29.882812 80.738281 29.875 80.75 29.871094 C 80.789062 29.855469 80.824219 29.839844 80.863281 29.828125 C 80.945312 29.796875 81.027344 29.765625 81.109375 29.738281 C 81.265625 29.683594 81.425781 29.636719 81.585938 29.59375 C 81.882812 29.515625 82.1875 29.453125 82.492188 29.40625 C 82.542969 29.398438 82.691406 29.378906 82.628906 29.382812 C 82.683594 29.378906 82.734375 29.371094 82.789062 29.367188 C 82.910156 29.351562 83.035156 29.339844 83.15625 29.332031 C 83.257812 29.324219 83.363281 29.316406 83.464844 29.3125 C 83.460938 29.359375 83.460938 29.40625 83.457031 29.449219 C 83.445312 29.691406 83.417969 29.929688 83.390625 30.171875 Z M 81.695312 33.710938 Z M 79.707031 30.464844 C 79.726562 30.449219 79.738281 30.441406 79.707031 30.464844 Z M 84.570312 28.757812 C 84.5625 28.589844 84.496094 28.464844 84.402344 28.375 C 84.3125 28.277344 84.1875 28.210938 84.019531 28.203125 C 83.152344 28.164062 82.246094 28.289062 81.40625 28.5 C 79.886719 28.882812 78.386719 29.734375 77.734375 31.230469 C 77.234375 32.386719 77.273438 33.65625 77.542969 34.867188 C 77.585938 35.046875 77.75 35.214844 77.929688 35.253906 C 78.984375 35.492188 80.121094 35.574219 81.160156 35.21875 C 82 34.929688 82.695312 34.398438 83.230469 33.691406 C 84.085938 32.5625 84.425781 31.097656 84.539062 29.707031 C 84.566406 29.390625 84.582031 29.074219 84.570312 28.757812 " fill-opacity="1" fill-rule="nonzero"/></g><g clip-path="url(#id12)"><path fill="#919191" d="M 76.042969 28.667969 C 75.929688 28.664062 75.820312 28.65625 75.707031 28.648438 C 75.691406 28.648438 75.632812 28.640625 75.617188 28.636719 C 75.5625 28.628906 75.511719 28.621094 75.460938 28.613281 C 75.253906 28.574219 75.046875 28.519531 74.84375 28.445312 C 74.800781 28.429688 74.757812 28.414062 74.714844 28.394531 C 74.710938 28.394531 74.710938 28.394531 74.707031 28.394531 C 74.703125 28.390625 74.691406 28.382812 74.675781 28.375 C 74.589844 28.332031 74.5 28.289062 74.414062 28.242188 C 74.339844 28.199219 74.265625 28.152344 74.191406 28.101562 C 74.15625 28.078125 74.121094 28.050781 74.085938 28.027344 C 74.074219 28.019531 74.070312 28.015625 74.066406 28.011719 C 74.058594 28.007812 74.050781 28.003906 74.042969 27.992188 C 73.90625 27.878906 73.777344 27.757812 73.65625 27.628906 C 73.597656 27.566406 73.546875 27.503906 73.492188 27.4375 C 73.484375 27.425781 73.472656 27.414062 73.464844 27.40625 C 73.441406 27.371094 73.414062 27.335938 73.386719 27.296875 C 73.191406 27.015625 73.027344 26.707031 72.886719 26.390625 C 72.882812 26.378906 72.875 26.367188 72.871094 26.351562 C 72.855469 26.316406 72.839844 26.277344 72.828125 26.238281 C 72.796875 26.15625 72.765625 26.074219 72.738281 25.992188 C 72.683594 25.835938 72.636719 25.675781 72.59375 25.515625 C 72.515625 25.214844 72.453125 24.910156 72.40625 24.605469 C 72.398438 24.554688 72.378906 24.40625 72.386719 24.464844 C 72.378906 24.410156 72.375 24.359375 72.367188 24.308594 C 72.355469 24.183594 72.34375 24.0625 72.332031 23.9375 C 72.324219 23.835938 72.320312 23.730469 72.316406 23.628906 C 72.359375 23.632812 72.40625 23.632812 72.453125 23.636719 C 72.691406 23.648438 72.929688 23.675781 73.167969 23.703125 C 73.203125 23.707031 73.238281 23.710938 73.269531 23.71875 C 73.347656 23.730469 73.421875 23.742188 73.496094 23.753906 C 73.648438 23.78125 73.800781 23.8125 73.953125 23.847656 C 74.273438 23.925781 74.589844 24.019531 74.898438 24.132812 C 74.941406 24.152344 75.121094 24.226562 75.082031 24.207031 C 75.152344 24.238281 75.222656 24.273438 75.292969 24.304688 C 75.449219 24.382812 75.597656 24.464844 75.746094 24.554688 C 75.816406 24.601562 75.886719 24.644531 75.953125 24.695312 C 75.988281 24.71875 76.023438 24.742188 76.058594 24.765625 C 76.066406 24.773438 76.070312 24.777344 76.074219 24.78125 C 76.082031 24.785156 76.085938 24.789062 76.09375 24.796875 C 76.230469 24.910156 76.359375 25.023438 76.480469 25.152344 C 76.539062 25.214844 76.597656 25.28125 76.652344 25.34375 C 76.660156 25.359375 76.671875 25.375 76.683594 25.386719 C 76.710938 25.421875 76.734375 25.457031 76.761719 25.492188 C 76.863281 25.648438 76.957031 25.808594 77.039062 25.976562 C 77.046875 25.996094 77.054688 26.019531 77.066406 26.039062 C 77.066406 26.042969 77.066406 26.042969 77.070312 26.046875 C 77.089844 26.09375 77.105469 26.140625 77.125 26.191406 C 77.164062 26.304688 77.199219 26.421875 77.226562 26.539062 C 77.257812 26.65625 77.28125 26.773438 77.300781 26.890625 C 77.304688 26.90625 77.304688 26.925781 77.308594 26.945312 C 77.308594 26.953125 77.3125 26.964844 77.3125 26.980469 C 77.316406 27.042969 77.324219 27.105469 77.328125 27.171875 C 77.359375 27.664062 77.324219 28.113281 77.238281 28.570312 C 76.847656 28.644531 76.472656 28.679688 76.042969 28.667969 Z M 73.460938 27.398438 C 73.445312 27.378906 73.4375 27.367188 73.460938 27.398438 Z M 76.699219 25.40625 Z M 78.199219 25.941406 C 77.914062 25.097656 77.382812 24.398438 76.679688 23.863281 C 75.550781 23.007812 74.09375 22.664062 72.707031 22.550781 C 72.394531 22.523438 72.074219 22.503906 71.761719 22.519531 C 71.59375 22.527344 71.46875 22.59375 71.382812 22.6875 C 71.285156 22.777344 71.21875 22.90625 71.210938 23.070312 C 71.171875 23.945312 71.296875 24.851562 71.503906 25.695312 C 71.886719 27.21875 72.734375 28.726562 74.226562 29.378906 C 75.378906 29.882812 76.644531 29.839844 77.851562 29.570312 C 78.027344 29.527344 78.195312 29.363281 78.234375 29.183594 C 78.472656 28.125 78.554688 26.984375 78.199219 25.941406 " fill-opacity="1" fill-rule="nonzero"/></g><g clip-path="url(#id13)"><path fill="#919191" d="M 76.042969 34.351562 C 75.929688 34.351562 75.820312 34.34375 75.707031 34.332031 C 75.691406 34.332031 75.632812 34.324219 75.617188 34.324219 C 75.5625 34.316406 75.511719 34.308594 75.460938 34.296875 C 75.253906 34.257812 75.046875 34.203125 74.84375 34.128906 C 74.800781 34.113281 74.757812 34.097656 74.714844 34.078125 C 74.710938 34.078125 74.710938 34.078125 74.707031 34.078125 C 74.703125 34.074219 74.691406 34.070312 74.675781 34.0625 C 74.589844 34.019531 74.5 33.976562 74.414062 33.925781 C 74.339844 33.882812 74.265625 33.835938 74.191406 33.785156 C 74.15625 33.761719 74.121094 33.734375 74.085938 33.710938 C 74.074219 33.703125 74.070312 33.699219 74.066406 33.699219 C 74.058594 33.691406 74.050781 33.6875 74.042969 33.679688 C 73.90625 33.5625 73.777344 33.445312 73.65625 33.3125 C 73.597656 33.25 73.546875 33.1875 73.492188 33.121094 C 73.484375 33.113281 73.472656 33.101562 73.464844 33.089844 C 73.441406 33.054688 73.414062 33.019531 73.386719 32.984375 C 73.191406 32.699219 73.027344 32.394531 72.886719 32.078125 C 72.886719 32.074219 72.886719 32.074219 72.886719 32.074219 C 72.882812 32.0625 72.875 32.050781 72.871094 32.039062 C 72.855469 32 72.839844 31.960938 72.828125 31.925781 C 72.796875 31.839844 72.765625 31.757812 72.738281 31.675781 C 72.683594 31.519531 72.636719 31.359375 72.59375 31.199219 C 72.515625 30.898438 72.453125 30.597656 72.40625 30.289062 C 72.398438 30.238281 72.378906 30.089844 72.386719 30.148438 C 72.378906 30.097656 72.375 30.042969 72.367188 29.992188 C 72.355469 29.867188 72.34375 29.746094 72.332031 29.621094 C 72.324219 29.519531 72.320312 29.417969 72.316406 29.3125 C 72.359375 29.316406 72.40625 29.316406 72.453125 29.320312 C 72.691406 29.335938 72.929688 29.359375 73.167969 29.386719 C 73.203125 29.394531 73.238281 29.398438 73.269531 29.402344 C 73.347656 29.414062 73.421875 29.425781 73.496094 29.441406 C 73.648438 29.46875 73.800781 29.5 73.953125 29.535156 C 74.273438 29.609375 74.589844 29.703125 74.898438 29.820312 C 74.941406 29.835938 75.121094 29.910156 75.082031 29.894531 C 75.152344 29.925781 75.222656 29.957031 75.292969 29.992188 C 75.449219 30.066406 75.597656 30.148438 75.746094 30.242188 C 75.816406 30.285156 75.886719 30.332031 75.953125 30.378906 C 75.988281 30.402344 76.023438 30.425781 76.058594 30.453125 C 76.066406 30.457031 76.070312 30.460938 76.074219 30.464844 C 76.082031 30.46875 76.085938 30.472656 76.09375 30.480469 C 76.230469 30.59375 76.359375 30.710938 76.480469 30.839844 C 76.539062 30.898438 76.597656 30.964844 76.652344 31.03125 C 76.660156 31.042969 76.671875 31.058594 76.683594 31.070312 C 76.710938 31.105469 76.734375 31.140625 76.761719 31.179688 C 76.863281 31.332031 76.957031 31.496094 77.039062 31.660156 C 77.046875 31.683594 77.054688 31.703125 77.066406 31.722656 C 77.066406 31.726562 77.066406 31.730469 77.070312 31.730469 C 77.089844 31.777344 77.105469 31.824219 77.125 31.875 C 77.164062 31.988281 77.199219 32.105469 77.226562 32.222656 C 77.257812 32.339844 77.28125 32.457031 77.300781 32.574219 C 77.304688 32.59375 77.304688 32.609375 77.308594 32.628906 C 77.308594 32.636719 77.3125 32.648438 77.3125 32.664062 C 77.316406 32.726562 77.324219 32.792969 77.328125 32.855469 C 77.359375 33.347656 77.324219 33.796875 77.238281 34.253906 C 76.847656 34.328125 76.472656 34.363281 76.042969 34.351562 Z M 73.460938 33.082031 C 73.445312 33.0625 73.4375 33.054688 73.460938 33.082031 Z M 76.699219 31.089844 Z M 78.199219 31.625 C 77.914062 30.78125 77.382812 30.085938 76.679688 29.546875 C 75.550781 28.691406 74.09375 28.347656 72.707031 28.234375 C 72.394531 28.207031 72.074219 28.191406 71.761719 28.203125 C 71.59375 28.210938 71.46875 28.277344 71.382812 28.371094 C 71.285156 28.460938 71.21875 28.589844 71.210938 28.757812 C 71.171875 29.628906 71.296875 30.539062 71.503906 31.378906 C 71.886719 32.902344 72.734375 34.410156 74.226562 35.0625 C 75.378906 35.566406 76.644531 35.527344 77.851562 35.253906 C 78.027344 35.214844 78.195312 35.046875 78.234375 34.867188 C 78.472656 33.8125 78.554688 32.667969 78.199219 31.625 " fill-opacity="1" fill-rule="nonzero"/></g><g clip-path="url(#id14)"><path fill="#919191" d="M 77.339844 24.585938 C 77.339844 26.445312 77.339844 28.308594 77.339844 30.171875 C 77.339844 33.117188 77.339844 36.0625 77.339844 39.003906 C 77.339844 39.679688 77.339844 40.355469 77.339844 41.03125 C 77.339844 41.738281 78.441406 41.742188 78.441406 41.03125 C 78.441406 39.167969 78.441406 37.304688 78.441406 35.441406 C 78.441406 32.496094 78.441406 29.554688 78.441406 26.609375 C 78.441406 25.933594 78.441406 25.257812 78.441406 24.585938 C 78.441406 23.875 77.339844 23.871094 77.339844 24.585938 " fill-opacity="1" fill-rule="nonzero"/></g><g clip-path="url(#id15)"><path fill="#919191" d="M 131.835938 14.703125 C 132.039062 14.664062 132.933594 14.570312 133.148438 14.335938 C 132.90625 14.058594 131.792969 13.953125 131.5625 13.921875 C 130.574219 13.789062 129.570312 13.730469 128.574219 13.738281 C 127.578125 13.746094 126.570312 13.765625 125.585938 13.921875 C 125.394531 13.953125 124.113281 14.378906 124.046875 14.347656 C 125.4375 15.054688 127.445312 14.960938 128.957031 14.929688 C 129.914062 14.90625 130.890625 14.875 131.835938 14.703125 Z M 132.703125 17.097656 C 132.738281 17.011719 132.757812 16.925781 132.761719 16.835938 C 132.496094 16.886719 132.226562 16.90625 132.027344 16.921875 C 131.195312 16.984375 130.363281 16.9375 129.527344 16.9375 C 127.867188 16.941406 126.089844 17.042969 124.460938 16.648438 C 124.453125 16.644531 124.445312 16.640625 124.4375 16.640625 C 124.410156 16.78125 124.382812 16.957031 124.40625 17.085938 C 124.871094 17.582031 126.054688 17.722656 126.636719 17.808594 C 127.46875 17.9375 128.296875 17.902344 129.128906 17.90625 C 129.980469 17.910156 132.1875 18.039062 132.703125 17.097656 Z M 133.082031 40.496094 C 132.941406 40.546875 132.800781 40.59375 132.664062 40.640625 C 131.394531 41.03125 130.089844 41.121094 128.765625 41.117188 C 127.519531 41.109375 126.269531 41.097656 125.058594 40.785156 C 124.738281 40.699219 124.460938 40.582031 124.203125 40.4375 C 125.269531 41.222656 126.71875 41.535156 128.070312 41.570312 C 129.5 41.609375 131.800781 41.523438 133.082031 40.496094 Z M 131.726562 23.808594 C 132.402344 23.679688 133.484375 23.554688 134.082031 23.121094 C 133.332031 22.535156 131.886719 22.574219 131.019531 22.535156 C 130.050781 22.488281 129.082031 22.488281 128.113281 22.484375 C 126.464844 22.480469 124.554688 22.222656 123.167969 23.28125 C 124.808594 24.1875 126.648438 24.277344 128.507812 24.25 C 129.59375 24.234375 130.664062 24.007812 131.726562 23.808594 Z M 133.273438 15.632812 C 133.308594 15.410156 133.363281 15.152344 133.355469 14.90625 C 133.011719 15.097656 132.539062 15.179688 132.246094 15.230469 C 130.914062 15.472656 129.546875 15.554688 128.191406 15.527344 C 127.652344 15.515625 125.144531 15.59375 123.972656 15.050781 C 123.972656 15.523438 124.089844 15.980469 124.621094 16.070312 C 125.136719 16.15625 125.652344 16.234375 126.175781 16.269531 C 127.167969 16.339844 128.15625 16.34375 129.152344 16.34375 C 130.101562 16.339844 131.082031 16.441406 132.027344 16.324219 C 132.46875 16.269531 133.183594 16.21875 133.273438 15.632812 Z M 132.464844 22.363281 C 132.960938 22.425781 133.570312 22.5 134.042969 22.75 C 133.691406 21.070312 133.117188 19.457031 132.402344 17.847656 C 132.398438 17.835938 132.394531 17.816406 132.386719 17.800781 C 131.5625 18.242188 130.238281 18.210938 129.507812 18.207031 C 128.289062 18.203125 127.074219 18.261719 125.875 17.964844 C 125.511719 17.875 125.066406 17.792969 124.6875 17.625 C 124.558594 18.613281 124.117188 19.601562 123.828125 20.554688 C 123.589844 21.347656 123.339844 22.132812 123.140625 22.933594 C 124.667969 21.898438 126.707031 22.183594 128.476562 22.1875 C 129.808594 22.1875 131.140625 22.199219 132.464844 22.363281 Z M 134.300781 34.089844 C 134.359375 31.265625 134.554688 28.429688 134.417969 25.609375 C 134.378906 24.863281 134.292969 24.136719 134.171875 23.417969 C 133.515625 23.832031 132.511719 23.964844 131.808594 24.097656 C 130.722656 24.296875 129.617188 24.558594 128.507812 24.546875 C 126.570312 24.527344 124.714844 24.484375 123.003906 23.53125 C 122.953125 23.769531 122.90625 24.007812 122.871094 24.25 C 122.476562 26.917969 122.539062 29.617188 122.5625 32.308594 C 122.574219 34.347656 122.144531 36.75 122.875 38.703125 C 122.960938 38.925781 123.0625 39.132812 123.183594 39.324219 C 123.890625 39.898438 124.503906 40.382812 125.453125 40.566406 C 126.441406 40.757812 127.410156 40.8125 128.410156 40.816406 C 129.453125 40.820312 130.53125 40.835938 131.554688 40.617188 C 132.136719 40.496094 133.058594 40.332031 133.628906 39.898438 C 133.640625 39.878906 133.65625 39.863281 133.671875 39.839844 C 134.675781 38.167969 134.261719 35.949219 134.300781 34.089844 Z M 135.046875 26.761719 C 135.082031 29.769531 134.832031 32.777344 134.902344 35.785156 C 134.941406 37.578125 134.992188 39.613281 133.515625 40.890625 C 132.175781 42.050781 129.753906 42.253906 128.070312 42.167969 C 126.210938 42.074219 124.214844 41.621094 122.976562 40.132812 C 121.632812 38.53125 121.902344 36.039062 121.949219 34.109375 C 122.023438 31.265625 121.8125 28.410156 122.105469 25.570312 C 122.253906 24.152344 122.472656 22.726562 122.933594 21.367188 C 123.148438 20.726562 123.316406 20.074219 123.523438 19.433594 C 123.710938 18.855469 123.980469 18.292969 124.078125 17.691406 C 123.726562 17.386719 123.820312 16.886719 123.867188 16.457031 C 123.871094 16.433594 123.875 16.410156 123.882812 16.386719 C 123.355469 15.992188 123.34375 15.304688 123.410156 14.554688 C 123.382812 14.484375 123.367188 14.410156 123.367188 14.335938 C 123.367188 13.769531 124.257812 13.570312 124.664062 13.484375 C 125.945312 13.214844 127.269531 13.128906 128.574219 13.140625 C 129.867188 13.148438 131.21875 13.175781 132.484375 13.484375 C 132.855469 13.578125 133.476562 13.695312 133.699219 14.074219 C 133.707031 14.082031 133.714844 14.089844 133.722656 14.101562 C 134.136719 14.664062 134.039062 15.960938 133.574219 16.480469 C 133.515625 16.542969 133.441406 16.597656 133.355469 16.644531 C 133.363281 17.09375 133.300781 17.453125 133.019531 17.765625 C 133.144531 18.046875 133.265625 18.328125 133.382812 18.609375 C 134.472656 21.253906 135.015625 23.90625 135.046875 26.761719 " fill-opacity="1" fill-rule="nonzero"/></g><g clip-path="url(#id16)"><path fill="#919191" d="M 178.621094 49.488281 C 172.78125 49.488281 167.277344 47.214844 163.148438 43.078125 C 159.011719 38.949219 156.738281 33.449219 156.738281 27.605469 C 156.738281 21.761719 159.011719 16.261719 163.148438 12.132812 C 167.277344 7.996094 172.78125 5.722656 178.621094 5.722656 C 184.464844 5.722656 189.964844 7.996094 194.09375 12.132812 C 198.230469 16.269531 200.503906 21.761719 200.503906 27.605469 C 200.503906 33.449219 198.230469 38.949219 194.09375 43.078125 C 189.964844 47.214844 184.464844 49.488281 178.621094 49.488281 Z M 178.621094 7.035156 C 173.128906 7.035156 167.960938 9.175781 164.078125 13.0625 C 160.195312 16.945312 158.050781 22.113281 158.050781 27.605469 C 158.050781 33.097656 160.195312 38.265625 164.078125 42.152344 C 167.960938 46.035156 173.128906 48.175781 178.621094 48.175781 C 184.113281 48.175781 189.285156 46.035156 193.167969 42.152344 C 197.050781 38.265625 199.195312 33.097656 199.195312 27.605469 C 199.195312 22.113281 197.050781 16.945312 193.167969 13.0625 C 189.285156 9.175781 184.113281 7.035156 178.621094 7.035156 Z M 178.621094 7.035156 " fill-opacity="1" fill-rule="nonzero"/></g><g clip-path="url(#id17)"><g clip-path="url(#id18)"><g clip-path="url(#id19)"><g clip-path="url(#id20)"><g clip-path="url(#id21)"><path fill="#919191" d="M 181.867188 16.828125 C 181.738281 16.695312 181.644531 16.59375 181.511719 16.460938 C 181.449219 16.394531 181.351562 16.363281 181.253906 16.324219 C 180.050781 15.816406 178.808594 15.472656 177.453125 15.878906 C 176.09375 16.285156 174.925781 16.960938 174.113281 18.132812 C 173.90625 18.394531 173.769531 18.652344 173.535156 18.882812 C 172.824219 19.757812 172.210938 20.671875 172.542969 21.890625 C 172.574219 21.988281 172.539062 22.085938 172.539062 22.152344 C 172.6875 22.714844 172.738281 23.308594 172.921875 23.835938 C 173.296875 24.761719 173.738281 25.621094 174.140625 26.511719 C 174.207031 26.644531 174.199219 26.84375 174.230469 27.007812 C 174.164062 28.355469 173.675781 29.53125 173.058594 30.703125 C 172.507812 31.75 172.347656 32.867188 172.457031 33.917969 C 172.585938 35.398438 173.175781 36.753906 174.269531 37.886719 C 175.070312 38.71875 175.878906 39.222656 177.066406 39.109375 C 177.195312 39.109375 177.363281 39.144531 177.492188 39.148438 C 178.703125 39.261719 179.859375 39.179688 180.894531 38.503906 C 181.925781 37.828125 182.707031 36.820312 183.742188 36.144531 C 183.777344 36.113281 183.8125 36.082031 183.8125 36.015625 C 183.992188 35.394531 184.234375 34.769531 184.414062 34.148438 C 184.523438 33.792969 184.566406 33.363281 184.539062 33.003906 C 184.394531 32.246094 184.148438 31.453125 183.871094 30.757812 C 183.527344 29.933594 183.054688 29.101562 182.648438 28.277344 C 182.367188 27.648438 181.921875 26.917969 182.003906 26.261719 C 182.128906 25.179688 182.613281 24.199219 182.929688 23.183594 C 183.074219 22.726562 183.316406 22.304688 183.425781 21.8125 C 184.0625 19.78125 182.949219 18.289062 181.867188 16.828125 Z M 174.683594 16.234375 C 176.355469 14.945312 178.210938 14.378906 180.367188 14.867188 C 180.992188 14.976562 181.542969 15.148438 182.09375 15.453125 C 183.75 16.492188 184.632812 17.953125 184.753906 19.828125 C 184.796875 20.746094 184.445312 21.664062 184.195312 22.546875 C 183.910156 23.527344 183.429688 24.441406 183.144531 25.421875 C 182.859375 26.339844 182.96875 27.261719 183.441406 28.089844 C 184.007812 29.148438 184.773438 30.078125 185.144531 31.203125 C 185.570312 32.523438 185.800781 33.972656 184.75 35.242188 C 184.683594 35.304688 184.648438 35.402344 184.613281 35.5 C 184.253906 36.875 183.339844 37.882812 182.394531 38.855469 C 181.6875 39.597656 180.726562 39.949219 179.707031 40.097656 C 179.078125 40.1875 178.480469 40.507812 177.855469 40.46875 C 176.671875 40.382812 175.496094 40.171875 174.527344 39.367188 C 173.53125 38.535156 172.894531 37.539062 172.597656 36.285156 C 172.476562 35.824219 172.222656 35.359375 172.105469 34.898438 C 171.527344 32.949219 172.058594 31.214844 173.019531 29.523438 C 173.398438 28.835938 173.578125 28.082031 173.828125 27.332031 C 173.898438 27.136719 173.804688 26.835938 173.679688 26.636719 C 173.304688 25.84375 172.796875 25.050781 172.519531 24.222656 C 172.308594 23.53125 172.292969 22.773438 172.179688 22.050781 C 172.117188 21.785156 172.15625 21.492188 172.097656 21.226562 C 171.800781 19.910156 172.546875 18.933594 173.261719 17.925781 C 173.765625 17.371094 174.207031 16.820312 174.683594 16.234375 " fill-opacity="1" fill-rule="nonzero"/></g></g></g></g></g><g clip-path="url(#id22)"><g clip-path="url(#id23)"><g clip-path="url(#id24)"><path fill="#919191" d="M 181.933594 30.632812 C 182.285156 32.476562 182.40625 34.285156 181.636719 36.183594 C 182.035156 36.1875 182.394531 36.160156 182.722656 36.164062 C 182.675781 36.785156 182.046875 37.007812 181.496094 36.707031 C 180.890625 37.222656 180.285156 37.738281 179.683594 38.257812 C 179.652344 38.222656 179.652344 38.222656 179.621094 38.191406 C 179.722656 38.027344 179.824219 37.863281 179.925781 37.703125 C 179.894531 37.667969 179.859375 37.636719 179.828125 37.601562 C 179.695312 37.667969 179.5625 37.796875 179.328125 37.957031 C 179.671875 37.371094 179.976562 36.882812 180.253906 36.359375 C 179.136719 36.34375 179.105469 36.3125 179.21875 35.621094 C 180.003906 35.832031 180.761719 35.609375 181.597656 35.195312 C 182.1875 33.855469 181.894531 32.207031 181.933594 30.632812 " fill-opacity="1" fill-rule="nonzero"/></g></g></g><g clip-path="url(#id25)"><g clip-path="url(#id26)"><g clip-path="url(#id27)"><path fill="#919191" d="M 174.421875 35.488281 C 175.066406 34.609375 174.40625 33.515625 174.589844 32.566406 C 174.230469 32.464844 173.902344 32.457031 173.644531 32.324219 C 173.511719 32.253906 173.488281 31.957031 173.363281 31.5625 C 173.625 31.699219 173.722656 31.730469 173.820312 31.769531 C 174.308594 32.070312 174.703125 31.945312 174.882812 31.386719 C 174.914062 31.355469 174.882812 31.324219 174.917969 31.289062 C 175.054688 31.09375 175.15625 30.867188 175.359375 30.671875 C 175.320312 30.96875 175.246094 31.292969 175.207031 31.589844 C 175.128906 32.113281 175.050781 32.636719 175.101562 33.164062 C 175.148438 33.957031 175.292969 34.777344 175.339844 35.566406 C 175.417969 36.523438 176.125 37.125 176.703125 37.789062 C 176.667969 37.886719 176.664062 38.019531 176.664062 38.082031 C 176.53125 38.015625 176.4375 37.917969 176.371094 37.847656 C 175.988281 37.449219 175.632812 37.082031 175.285156 36.652344 C 175.125 36.484375 175.128906 36.222656 175.035156 36.054688 C 174.875 35.890625 174.648438 35.722656 174.421875 35.488281 " fill-opacity="1" fill-rule="nonzero"/></g></g></g><g clip-path="url(#id28)"><g clip-path="url(#id29)"><g clip-path="url(#id30)"><path fill="#919191" d="M 181.160156 24.507812 C 181.414062 23.492188 181.765625 22.511719 181.855469 21.527344 C 181.988281 19.984375 181.597656 18.566406 180.640625 17.304688 C 180.542969 17.203125 180.511719 17.039062 180.515625 16.910156 C 180.519531 16.84375 180.6875 16.746094 180.6875 16.746094 C 180.816406 16.8125 180.976562 16.914062 181.039062 17.046875 C 181.320312 17.742188 181.867188 18.242188 181.945312 19.066406 C 181.96875 19.425781 182.320312 19.792969 182.476562 20.15625 C 182.664062 20.683594 182.78125 21.210938 182.539062 21.765625 C 182.398438 22.09375 182.292969 22.457031 182.25 22.816406 C 182.066406 23.632812 182.066406 23.632812 181.160156 24.507812 " fill-opacity="1" fill-rule="nonzero"/></g></g></g><g clip-path="url(#id31)"><g clip-path="url(#id32)"><g clip-path="url(#id33)"><path fill="#919191" d="M 177.636719 20.515625 C 176.621094 20.335938 176.496094 20.203125 176.738281 19.582031 C 177 19.71875 177.226562 19.886719 177.546875 20.085938 C 177.699219 19.367188 177.84375 18.710938 177.960938 18.023438 C 178.054688 18.058594 178.121094 18.058594 178.253906 18.058594 C 177.511719 20.316406 178.410156 22.597656 178.089844 24.894531 C 177.667969 23.441406 177.632812 21.996094 177.636719 20.515625 " fill-opacity="1" fill-rule="nonzero"/></g></g></g><g clip-path="url(#id34)"><g clip-path="url(#id35)"><g clip-path="url(#id36)"><path fill="#919191" d="M 176.164062 25.851562 C 175.914062 25.320312 175.628906 24.761719 175.378906 24.230469 C 175.316406 24.097656 175.289062 23.933594 175.191406 23.832031 C 174.589844 22.871094 174.648438 21.789062 174.773438 20.707031 C 174.816406 20.214844 175.125 19.789062 175.332031 19.265625 C 175.617188 19.765625 175.617188 19.765625 175.378906 20.125 C 174.867188 20.9375 174.910156 21.792969 175.222656 22.585938 C 175.53125 23.445312 176.039062 24.238281 176.414062 25.097656 C 176.472656 25.296875 176.464844 25.5625 176.492188 25.789062 C 176.363281 25.789062 176.261719 25.820312 176.164062 25.851562 " fill-opacity="1" fill-rule="nonzero"/></g></g></g><g clip-path="url(#id37)"><g clip-path="url(#id38)"><g clip-path="url(#id39)"><path fill="#919191" d="M 178.308594 36.628906 C 178.1875 34.820312 178 33.007812 177.878906 31.199219 C 177.945312 31.199219 178.042969 31.167969 178.140625 31.203125 C 178.261719 33.011719 178.515625 34.824219 178.605469 36.597656 C 178.472656 36.597656 178.375 36.628906 178.308594 36.628906 " fill-opacity="1" fill-rule="nonzero"/></g></g></g><g clip-path="url(#id40)"><g clip-path="url(#id41)"><g clip-path="url(#id42)"><path fill="#919191" d="M 176.050781 34.757812 C 176.566406 35.15625 177.027344 35.097656 177.5 34.710938 C 177.78125 35.273438 177.378906 35.597656 176.191406 35.710938 C 176.101562 35.414062 176.011719 35.117188 175.917969 34.820312 C 175.917969 34.820312 176.019531 34.789062 176.050781 34.757812 " fill-opacity="1" fill-rule="nonzero"/></g></g></g><g clip-path="url(#id43)"><g clip-path="url(#id44)"><g clip-path="url(#id45)"><path fill="#919191" d="M 176.09375 32.980469 C 176.417969 33.117188 176.777344 33.222656 177.070312 33.390625 C 177.101562 33.425781 177.128906 33.71875 177.027344 33.816406 C 176.925781 33.914062 176.726562 33.976562 176.59375 34.039062 C 176.40625 33.710938 175.75 33.632812 176.09375 32.980469 " fill-opacity="1" fill-rule="nonzero"/></g></g></g><g clip-path="url(#id46)"><g clip-path="url(#id47)"><g clip-path="url(#id48)"><path fill="#919191" d="M 179.472656 31.910156 C 179.933594 31.851562 180.363281 31.761719 180.792969 31.734375 C 180.746094 32.160156 180.277344 32.550781 179.851562 32.507812 C 179.554688 32.472656 179.460938 32.304688 179.472656 31.910156 " fill-opacity="1" fill-rule="nonzero"/></g></g></g><g clip-path="url(#id49)"><g clip-path="url(#id50)"><g clip-path="url(#id51)"><path fill="#919191" d="M 180.453125 20.949219 C 180.3125 21.472656 179.972656 21.730469 179.316406 21.722656 C 179.324219 21.523438 179.296875 21.292969 179.300781 21.03125 C 179.730469 21.003906 180.089844 20.976562 180.453125 20.949219 " fill-opacity="1" fill-rule="nonzero"/></g></g></g><g clip-path="url(#id52)"><g clip-path="url(#id53)"><g clip-path="url(#id54)"><path fill="#919191" d="M 179.554688 33.886719 C 180.050781 33.859375 180.410156 33.832031 180.839844 33.804688 C 180.769531 33.933594 180.699219 34.195312 180.53125 34.292969 C 180.300781 34.386719 179.96875 34.449219 179.707031 34.382812 C 179.644531 34.316406 179.621094 33.953125 179.554688 33.886719 " fill-opacity="1" fill-rule="nonzero"/></g></g></g><g clip-path="url(#id55)"><g clip-path="url(#id56)"><g clip-path="url(#id57)"><path fill="#919191" d="M 180.570312 22.953125 C 180.496094 23.347656 180.058594 23.703125 179.667969 23.566406 C 179.507812 23.46875 179.449219 23.136719 179.355469 22.90625 C 179.847656 22.878906 180.210938 22.917969 180.570312 22.953125 " fill-opacity="1" fill-rule="nonzero"/></g></g></g><g clip-path="url(#id58)"><g clip-path="url(#id59)"><g clip-path="url(#id60)"><path fill="#919191" d="M 176.242188 30.914062 C 176.726562 31.28125 176.726562 31.28125 177.324219 31.027344 C 177.21875 31.257812 177.148438 31.519531 177.011719 31.648438 C 176.84375 31.742188 176.550781 31.773438 176.386719 31.671875 C 176.191406 31.539062 176.167969 31.242188 176.007812 31.011719 C 176.105469 30.976562 176.207031 30.945312 176.242188 30.914062 " fill-opacity="1" fill-rule="nonzero"/></g></g></g><g clip-path="url(#id61)"><g clip-path="url(#id62)"><g clip-path="url(#id63)"><path fill="#919191" d="M 176.464844 36.667969 C 177.09375 36.578125 177.488281 36.519531 177.882812 36.523438 C 177.777344 36.949219 177.371094 37.273438 176.917969 37.136719 C 176.71875 37.066406 176.628906 36.835938 176.464844 36.667969 " fill-opacity="1" fill-rule="nonzero"/></g></g></g><g clip-path="url(#id64)"><g clip-path="url(#id65)"><g clip-path="url(#id66)"><path fill="#919191" d="M 173.355469 33.304688 C 173.585938 33.40625 173.78125 33.476562 174.007812 33.578125 C 174.136719 33.644531 174.199219 33.777344 174.296875 33.875 C 174.128906 33.972656 174.027344 34.136719 173.863281 34.167969 C 173.46875 34.160156 173.277344 33.832031 173.355469 33.304688 " fill-opacity="1" fill-rule="nonzero"/></g></g></g><g clip-path="url(#id67)"><g clip-path="url(#id68)"><g clip-path="url(#id69)"><path fill="#919191" d="M 181.132812 28.320312 C 181.253906 28.847656 181.933594 29.21875 181.457031 30 C 181.242188 29.371094 180.757812 28.941406 181.132812 28.320312 " fill-opacity="1" fill-rule="nonzero"/></g></g></g><g clip-path="url(#id70)"><g clip-path="url(#id71)"><g clip-path="url(#id72)"><path fill="#919191" d="M 183.589844 34.238281 C 183.617188 34.53125 183.210938 35.054688 182.882812 35.050781 C 182.488281 35.042969 182.457031 34.8125 182.5 34.515625 C 182.894531 34.390625 183.226562 34.332031 183.589844 34.238281 " fill-opacity="1" fill-rule="nonzero"/></g></g></g><g clip-path="url(#id73)"><g clip-path="url(#id74)"><g clip-path="url(#id75)"><path fill="#919191" d="M 174.253906 30.195312 C 174.617188 30.035156 174.882812 29.910156 175.179688 29.8125 C 175.277344 30.046875 175.203125 30.308594 174.902344 30.535156 C 174.800781 30.632812 174.535156 30.691406 174.503906 30.660156 C 174.34375 30.492188 174.285156 30.296875 174.253906 30.195312 " fill-opacity="1" fill-rule="nonzero"/></g></g></g><g clip-path="url(#id76)"><g clip-path="url(#id77)"><g clip-path="url(#id78)"><path fill="#919191" d="M 175.707031 29.886719 C 175.65625 29.164062 175.867188 28.640625 176.015625 27.984375 C 176.332031 28.449219 176.214844 29.269531 175.707031 29.886719 " fill-opacity="1" fill-rule="nonzero"/></g></g></g><g clip-path="url(#id79)"><g clip-path="url(#id80)"><g clip-path="url(#id81)"><path fill="#919191" d="M 176.148438 20.921875 C 176.441406 21.023438 176.667969 21.128906 176.894531 21.230469 C 176.996094 21.261719 177.089844 21.429688 177.152344 21.496094 C 177.019531 21.558594 176.917969 21.65625 176.789062 21.652344 C 176.359375 21.683594 176.003906 21.511719 176.148438 20.921875 " fill-opacity="1" fill-rule="nonzero"/></g></g></g><g clip-path="url(#id82)"><g clip-path="url(#id83)"><g clip-path="url(#id84)"><path fill="#919191" d="M 174.183594 21.980469 C 173.792969 21.777344 173.339844 21.574219 173.617188 20.984375 C 174.105469 21.15625 174.324219 21.585938 174.183594 21.980469 " fill-opacity="1" fill-rule="nonzero"/></g></g></g><g clip-path="url(#id85)"><g clip-path="url(#id86)"><g clip-path="url(#id87)"><path fill="#919191" d="M 177.847656 29.6875 C 177.859375 29.226562 177.902344 28.734375 177.914062 28.277344 C 177.980469 28.277344 178.042969 28.277344 178.113281 28.277344 C 178.101562 28.738281 178.121094 29.230469 178.109375 29.691406 C 178.042969 29.691406 177.949219 29.65625 177.847656 29.6875 " fill-opacity="1" fill-rule="nonzero"/></g></g></g><g clip-path="url(#id88)"><g clip-path="url(#id89)"><g clip-path="url(#id90)"><path fill="#919191" d="M 183.753906 31.445312 C 183.808594 32.039062 183.410156 32.097656 183.046875 32.257812 C 182.984375 32.0625 182.953125 31.960938 182.890625 31.761719 C 183.191406 31.667969 183.421875 31.574219 183.753906 31.445312 " fill-opacity="1" fill-rule="nonzero"/></g></g></g><g clip-path="url(#id91)"><g clip-path="url(#id92)"><g clip-path="url(#id93)"><path fill="#919191" d="M 180.445312 26.800781 C 180.375 26.996094 180.371094 27.191406 180.304688 27.191406 C 180.105469 27.253906 179.910156 27.253906 179.679688 27.28125 C 179.683594 27.152344 179.65625 26.851562 179.722656 26.855469 C 179.921875 26.792969 180.152344 26.828125 180.445312 26.800781 " fill-opacity="1" fill-rule="nonzero"/></g></g></g><g clip-path="url(#id94)"><g clip-path="url(#id95)"><g clip-path="url(#id96)"><path fill="#919191" d="M 177.675781 30.046875 C 177.472656 30.242188 177.339844 30.371094 177.234375 30.53125 C 177.109375 30.402344 176.980469 30.265625 176.851562 30.132812 C 176.886719 30.101562 176.917969 30.003906 176.953125 29.96875 C 177.148438 29.972656 177.3125 30.007812 177.675781 30.046875 " fill-opacity="1" fill-rule="nonzero"/></g></g></g></svg>